<svg xmlns="http://www.w3.org/2000/svg" xmlns:xlink="http://www.w3.org/1999/xlink" viewBox="0 0 738.81 463.01"><defs><style>.cls-1{isolation:isolate;}.cls-2{fill:url(#linear-gradient);}.cls-3{fill:#80b377;}.cls-4{fill:none;stroke:#2e5e26;stroke-miterlimit:10;stroke-width:0.75px;}.cls-5{fill:#bfd1ff;}.cls-6{fill:#5dcbf4;}.cls-7{fill:#3cb4c5;opacity:0.5;}.cls-20,.cls-7{mix-blend-mode:multiply;}.cls-8{fill:#e03726;}.cls-9{fill:#f47458;}.cls-10{fill:#3ea6c6;}.cls-11{fill:#fff;}.cls-12{fill:#203e87;}.cls-13{fill:#f7a491;}.cls-14{fill:#f48c7f;}.cls-15{fill:#ffbb10;}.cls-16{fill:#86b1f2;}.cls-17,.cls-20{fill:#9bc1f9;}.cls-18{fill:#355389;}.cls-19{fill:#184655;}.cls-20{opacity:0.3;}</style><linearGradient id="linear-gradient" x1="112.34" y1="-84.19" x2="112.34" y2="302" gradientTransform="translate(112.34 -46.53) rotate(45)" gradientUnits="userSpaceOnUse"><stop offset="0" stop-color="#ffd97a"/><stop offset="1" stop-color="#fff"/></linearGradient></defs><title>about-img2</title><g class="cls-1"><g id="Layer_2" data-name="Layer 2"><g id="Layer_1-2" data-name="Layer 1"><circle class="cls-2" cx="112.34" cy="112.34" r="112.34" transform="translate(-46.53 112.34) rotate(-45)"/><path class="cls-3" d="M718.39,354.05c.38-8.92-54.17,11.79-51.31-7.36,2.94-18.19,20.69-3,44.16-6.89,22.87-3.53,23.26-50.22,18.72-56.9-5.11-6.82-45.15,9.14-46.36-3.11-1-13,39.94-1.87,50.42-9.3,9.86-7.19,2.29-60.27-3.1-65.28-6.28-4.72-27.68,29.17-30.36,14.13-2.47-14.37,21.15-19.09,28.89-25.69,10.45-9.1,5.45-34.81,2.68-48.58-13.17,1-39,6.31-43.34,21.31-3.32,11.05,3.38,35.07-9.85,40.27-14.68,5.88,4.89-32.36-1.3-36.06-6.49-4.6-59.48,21.94-60.54,38.57-1.27,16,32.53,42.11,22,50.16-10.91,8.71-22.7-36.68-30.69-36.7-8.64-.41-48.81,45-34.16,66.43,14.37,20.69,38.37,18.31,28.5,36.43-10.76,20.32-39-35.12-44.34-27.14-6.06,8.36-23.18,49,3.71,68.51,16.23,12.16,39.48,36.77,48.15,57.3,16.64-16.54,49.22-26.75,69.23-28.07C711.89,393.48,717.83,362.29,718.39,354.05Z"/><path class="cls-4" d="M726,153A774.62,774.62,0,0,0,604.39,453.12"/><path class="cls-4" d="M737.07,226.59a280.51,280.51,0,0,1-63.41,16.09"/><path class="cls-4" d="M643.13,182.27s9,59,20.92,80.44"/><path class="cls-4" d="M732.2,298.89s-42.67,8.11-86.42,6.71"/><path class="cls-4" d="M585.41,242.68s34.52,76.73,51.1,87.91"/><path class="cls-4" d="M717.72,358.09s-52.93,14.13-93.5,10.55"/><path class="cls-4" d="M551.33,312.62s30.07,49.11,66.52,78.95"/><rect class="cls-5" x="285.53" y="1.8" width="323.1" height="452" rx="16.97" ry="16.97"/><rect class="cls-6" x="314.62" y="38.98" width="267.96" height="68.95"/><polygon class="cls-7" points="321.73 48.9 582.59 48.9 582.59 38.98 314.62 38.98 314.62 107.93 321.73 107.93 321.73 48.9"/><rect class="cls-8" x="314.62" y="127.6" width="76.89" height="24.84" rx="5.29" ry="5.29"/><rect class="cls-8" x="410.16" y="127.6" width="76.89" height="24.84" rx="5.29" ry="5.29"/><rect class="cls-8" x="505.7" y="127.6" width="76.89" height="24.84" rx="5.29" ry="5.29"/><rect class="cls-9" x="314.62" y="172.11" width="59.5" height="55.69" rx="10.39" ry="10.39"/><rect class="cls-10" x="384.11" y="172.11" width="59.5" height="55.69" rx="10.39" ry="10.39"/><rect class="cls-10" x="454.01" y="172.11" width="59.5" height="55.69" rx="10.39" ry="10.39"/><rect class="cls-9" x="314.62" y="240.76" width="59.5" height="55.69" rx="10.39" ry="10.39"/><rect class="cls-10" x="384.11" y="240.76" width="59.5" height="55.69" rx="10.39" ry="10.39"/><rect class="cls-10" x="454.01" y="240.76" width="59.5" height="55.69" rx="10.39" ry="10.39"/><path class="cls-10" d="M570.29,171.8H535a12.12,12.12,0,0,0-12.12,12.12V284A12.12,12.12,0,0,0,535,296.14h35.26A12.12,12.12,0,0,0,582.41,284V183.92A12.12,12.12,0,0,0,570.29,171.8Z"/><rect class="cls-9" x="314.62" y="309.42" width="59.5" height="55.69" rx="10.39" ry="10.39"/><rect class="cls-10" x="384.11" y="309.42" width="59.5" height="55.69" rx="10.39" ry="10.39"/><rect class="cls-10" x="454.01" y="309.98" width="59.5" height="55.69" rx="10.39" ry="10.39"/><rect class="cls-10" x="522.91" y="309.42" width="59.5" height="55.69" rx="10.39" ry="10.39"/><rect class="cls-9" x="314.62" y="378.07" width="59.5" height="55.69" rx="10.39" ry="10.39"/><rect class="cls-10" x="384.11" y="378.07" width="59.5" height="55.69" rx="10.39" ry="10.39"/><rect class="cls-10" x="454.01" y="378.07" width="59.5" height="55.69" rx="10.39" ry="10.39"/><rect class="cls-8" x="522.91" y="378.07" width="59.5" height="55.69" rx="10.39" ry="10.39"/><path class="cls-11" d="M354.56,322.63v2.82l-13.74,28.73h-4.41l13.69-27.91v-.1H334.66v-3.54Z"/><path class="cls-11" d="M403.44,346.17c0-4,2.38-6.79,6.27-8.44l0-.15c-3.5-1.65-5-4.37-5-7.09,0-5,4.22-8.39,9.75-8.39,6.12,0,9.18,3.83,9.18,7.76,0,2.67-1.31,5.54-5.2,7.38v.15c3.94,1.55,6.36,4.32,6.36,8.15,0,5.49-4.71,9.18-10.72,9.18C407.42,354.72,403.44,350.78,403.44,346.17Zm17-.19c0-3.84-2.67-5.68-6.94-6.89-3.69,1.06-5.68,3.49-5.68,6.5-.14,3.2,2.28,6,6.31,6C418,351.61,420.43,349.23,420.43,346ZM408.69,330.2c0,3.16,2.38,4.86,6,5.83,2.71-.92,4.8-2.87,4.8-5.73,0-2.52-1.5-5.14-5.34-5.14C410.63,325.16,408.69,327.49,408.69,330.2Z"/><path class="cls-11" d="M424.8,405.88c0,10.72-4,16.65-11,16.65-6.16,0-10.34-5.78-10.43-16.22s4.56-16.4,11-16.4C421,389.91,424.8,395.83,424.8,405.88Zm-17.13.48c0,8.21,2.52,12.87,6.4,12.87,4.37,0,6.46-5.1,6.46-13.16,0-7.76-2-12.86-6.41-12.86C410.39,393.21,407.67,397.77,407.67,406.36Z"/><path class="cls-11" d="M475.83,350.61a17.24,17.24,0,0,0,3.44-.15,11.92,11.92,0,0,0,6.6-3,13.84,13.84,0,0,0,4.18-8.4h-.15a9.26,9.26,0,0,1-7.42,3.4c-5.68,0-9.32-4.28-9.32-9.66,0-6,4.32-11.22,10.77-11.22s10.44,5.25,10.44,13.3c0,6.94-2.33,11.8-5.44,14.81a15.76,15.76,0,0,1-9.17,4.22,20,20,0,0,1-3.93.24Zm1.55-18.16c0,3.94,2.38,6.7,6.07,6.7a7,7,0,0,0,6.21-3.3,2.83,2.83,0,0,0,.39-1.55c0-5.39-2-9.51-6.46-9.51C480,324.79,477.38,328,477.38,332.45Z"/><path class="cls-11" d="M347.28,284.18v-8.59H332.62v-2.81l14.08-20.15h4.61v19.61h4.42v3.35h-4.42v8.59Zm0-11.94V261.71q0-2.47.15-4.95h-.15c-1,1.84-1.75,3.2-2.62,4.66l-7.72,10.73v.09Z"/><path class="cls-11" d="M422.67,256.23h-12l-1.22,8.1a16.66,16.66,0,0,1,2.58-.19,13.28,13.28,0,0,1,6.79,1.7,9,9,0,0,1,4.52,8.1c0,6.17-4.91,10.78-11.75,10.78a15.42,15.42,0,0,1-7.86-1.94l1.07-3.26a14.07,14.07,0,0,0,6.74,1.75c4,0,7.48-2.62,7.48-6.84s-2.77-7-9.08-7a32,32,0,0,0-4.37.34l2-15.15h15.1Z"/><path class="cls-11" d="M491.48,255.64a15,15,0,0,0-3.2.2,12.81,12.81,0,0,0-11,11.21h.14a9.42,9.42,0,0,1,7.62-3.64c5.59,0,9.52,4,9.52,10.19,0,5.78-3.93,11.12-10.49,11.12-6.74,0-11.16-5.24-11.16-13.45,0-6.21,2.23-11.11,5.34-14.22a17.2,17.2,0,0,1,10.09-4.66,21.09,21.09,0,0,1,3.11-.24Zm-1.21,18.2c0-4.51-2.58-7.23-6.51-7.23a7,7,0,0,0-6.11,3.89,3.61,3.61,0,0,0-.49,1.89c.1,5.19,2.48,9,6.94,9C487.79,281.42,490.27,278.36,490.27,273.84Z"/><path class="cls-11" d="M343.35,189.53h-.1l-5.48,3-.83-3.25,6.89-3.69h3.64V217.1h-4.12Z"/><path class="cls-11" d="M403.83,217.1v-2.62l3.35-3.25c8.06-7.67,11.7-11.75,11.75-16.5,0-3.21-1.55-6.17-6.26-6.17a10.74,10.74,0,0,0-6.7,2.67l-1.36-3a13.86,13.86,0,0,1,8.93-3.2c6.8,0,9.66,4.66,9.66,9.17,0,5.83-4.22,10.53-10.87,16.94l-2.53,2.33v.1H424v3.54Z"/><path class="cls-11" d="M475.07,212.2a14.27,14.27,0,0,0,7,2c5.49,0,7.19-3.5,7.14-6.12-.05-4.41-4-6.31-8.16-6.31h-2.37v-3.2H481c3.11,0,7-1.6,7-5.34,0-2.52-1.6-4.76-5.53-4.76a11.61,11.61,0,0,0-6.31,2.09l-1.12-3.11a15,15,0,0,1,8.25-2.42c6.22,0,9,3.69,9,7.52,0,3.25-1.94,6-5.82,7.43v.09c3.88.78,7,3.69,7,8.11,0,5.05-3.94,9.47-11.51,9.47a16,16,0,0,1-8.2-2.14Z"/><path class="cls-11" d="M348.18,417.83a3.81,3.81,0,1,1-3.8-3.8A3.81,3.81,0,0,1,348.18,417.83Z"/><polygon class="cls-11" points="575.26 231.4 555.23 231.4 555.23 211.37 550.08 211.37 550.08 231.4 530.05 231.4 530.05 236.54 550.08 236.54 550.08 256.57 555.23 256.57 555.23 236.54 575.26 236.54 575.26 231.4"/><polygon class="cls-11" points="497.09 417.77 486.49 407.17 497.09 396.56 494.37 393.84 483.76 404.44 473.16 393.84 470.43 396.56 481.04 407.17 470.43 417.77 473.16 420.5 483.76 409.89 494.37 420.5 497.09 417.77"/><rect class="cls-11" x="535.89" y="336.17" width="33.54" height="5.14"/><rect class="cls-11" x="535.89" y="395.53" width="33.54" height="5.14"/><rect class="cls-11" x="535.89" y="408.46" width="33.54" height="5.14"/><path class="cls-12" d="M333.66,182a47.14,47.14,0,0,1,4.27-22.65c3-6.22,10.34-9.75,17.05-9.76,21.32,0,24,28.26,37.6,39.17,4.14,3.33,8.78,6,12.7,9.65,14.49,13.27,8,37.84-5.34,49.48-9.23,8.08-23.74,12.67-35.12,6.35-5.94-3.29-10.44-8.77-13.66-14.77-4.55-8.52-7.49-18.35-10.73-27.43C337,202.36,334.08,192.3,333.66,182Z"/><path class="cls-13" d="M380,184.89s15.65-28.06,19.46-34,13.73-29.67,14.09-30.6-6.84-12.15-5.23-12.54,3.38,5.92,5.09,5.17,6.71-15.92,7.69-15.17c1.82,1.41-2.7,9.41-1.72,9.91s3.92-8.8,5.83-8.52-3.64,8.52-3.1,9.25,6.29-7,7.33-5.39c.56.9-5.29,6.79-4.17,7.34s6.34-3.25,6.89-2.15-4.82,2.6-6.43,5.55-4.34,4.23-5.47,9.71-2.84,25.27-8.66,35.15S393,190.31,393,190.31Z"/><path class="cls-14" d="M297.11,288.16l24.34-18.57s2.45-17.33,5.73-32.7c4.11,1.16,7.82,4.38,11.93,5.51l-6.19,34.42L301,293.28l-9,11.58L290,293Z"/><path class="cls-15" d="M330.76,219.27c6.66-20.2,14.11-19.33,14.11-19.33l-5.76,42.46c-4.11-1.13-9.47-3.63-13.57-4.79A185.39,185.39,0,0,1,330.76,219.27Z"/><path class="cls-13" d="M400.88,431.56s1.5,10.45,4.08,13.81a27.1,27.1,0,0,1,3.49,4.61c1.62,3.18.73,7.92-.47,10.52-.61,1.34,0,1.34-1.35,1.77a8.56,8.56,0,0,1-10.29-4.84,24.85,24.85,0,0,1-2-8.9c-.44-9.48-3.38-14.3-3.38-14.3Z"/><path class="cls-13" d="M355.68,436.34s-.93,11.77-.18,15.6c.4,2.05,2.65,6.26,1.62,8.19a5.16,5.16,0,0,1-2.21,2.41l-26.68.43c-1.45,0-.49-.91.68-1.77,1.92-1.42,3.47-2.35,9.59-5.32.4-.2,1.86-1.12,2.38-1.44a18.77,18.77,0,0,0,3.82-3.38c1.92-2.14,2.08-12.51,2.08-12.51Z"/><path class="cls-8" d="M334.82,279.85s-3.36,19.12-1.15,31.65,12.79,128.68,12.79,128.68l11.77.67s2.47-48.52,2-55.27-3.93-18-3.93-18l1.17-39.17L342.64,276.9Z"/><path class="cls-8" d="M369.4,275.83s9.27,14,11.48,25.55-1.62,47.11,2.62,62.27c2.3,8.21,11,20.88,12.33,31.48s6.51,38.38,6.51,38.38l-11.76,2.34-27.33-69.37-21.44-62.69-5.49-32.29Z"/><path class="cls-15" d="M361.9,196.31s12.27-.78,17.12,4.52-10.76,47.24-11.64,54,4.49,24.68,4.49,24.68-28.81,5.82-37.05.35c0,0-.88-48.52,0-53.34s8.24-24.42,10-26.35S361.9,196.31,361.9,196.31Z"/><path class="cls-13" d="M357.82,179.88s.06.36.18,1c.55,2.95,2.65,12.76,4.07,15.46,1.72,3.25-5.88,13.64-13.2,12.38-2.18-.38,1.84-9.55,1.65-10.52-.37-1.86-.88-4.4-1.39-7-.29-1.47-.58-3-.86-4.35l-1.42-7.22Z"/><path class="cls-9" d="M358,180.86c-.12-.62-.18-1-.18-1l-11-.27,1.42,7.22c.28,1.39.57,2.87.86,4.33a10.29,10.29,0,0,0,5.23-2.63,13.8,13.8,0,0,0,4-5.92C358.2,181.92,358.08,181.32,358,180.86Z"/><path class="cls-13" d="M350.44,154.89a9.87,9.87,0,0,1,8.41,3.6c3.24,4.2,6.73,17.2-1.32,24.26s-16-.93-17.18-9.41S338.71,154.58,350.44,154.89Z"/><path class="cls-13" d="M338,173.21c1,1.88,2.58,2.91,3.61,2.32s1.08-2.59.12-4.46-2.57-2.91-3.6-2.32S337,171.34,338,173.21Z"/><path class="cls-12" d="M349.86,153.5s6.91,12.35,11.85,12.93,5.59,7.13,5.59,7.13-1.77-15.13-6.66-18S349.86,153.5,349.86,153.5Z"/><path class="cls-12" d="M395.54,455.34c6.41,1.18,10.67-2.58,12.89-5.4,1.63,3.19,2.43,7.95,1.23,10.56-1.06,2.31-4.14,2.24-6.57,2.34a6.36,6.36,0,0,1-5.83-3.58A21.57,21.57,0,0,1,395.54,455.34Z"/><path class="cls-12" d="M340.89,454.43a24.06,24.06,0,0,0,15.19-.6c.75,2.14,1.75,4.82,1.22,6.37-.65,1.89-1.57,2.32-2.39,2.34-6.44.17-23.61.4-28.52.47a.81.81,0,0,1-.62-1.33C327,460.23,340.36,454.75,340.89,454.43Z"/><path class="cls-13" d="M360.41,169.53c-.4,2.19.41,4.21,1.81,4.5s2.86-1.26,3.26-3.46-.41-4.2-1.81-4.49S360.81,167.34,360.41,169.53Z"/><path class="cls-15" d="M384.29,175.8S367,194.46,364.4,202s2.51,18.28,9.53,18.75,22.65-33.12,22.65-33.12Z"/><path class="cls-14" d="M73.91,331.43a2,2,0,0,0-2.6.43A7.17,7.17,0,0,0,70,334c-.55,1.73-.1,4.27.68,4.79s2.9-4.73,3.57-6.19A.87.87,0,0,0,73.91,331.43Z"/><rect class="cls-12" x="52.91" y="109.64" width="264.41" height="344.08" rx="11.63" ry="11.63" transform="translate(-0.51 0.33) rotate(-0.1)"/><rect class="cls-11" x="66.67" y="119.24" width="236.89" height="322.98" transform="translate(-0.51 0.33) rotate(-0.1)"/><path class="cls-16" d="M236.15,105a2.62,2.62,0,0,0-2.63-2.62l-99.46.18a2.63,2.63,0,0,0-2.63,2.63l0,10.34,104.72-.19Z"/><path class="cls-16" d="M183.76,89.88a15.69,15.69,0,1,0,15.72,15.66A15.67,15.67,0,0,0,183.76,89.88Zm.05,25.74a10.06,10.06,0,1,1,10-10.07A10.05,10.05,0,0,1,183.81,115.62Z"/><path class="cls-17" d="M234.54,102.56a2.62,2.62,0,0,1,1.61,2.42l0,10.34-104.72.19a13,13,0,0,0,13,12.94l78.79-.14a13,13,0,0,0,12.94-13l0-10.34A2.62,2.62,0,0,0,234.54,102.56Z"/><path class="cls-17" d="M134.06,102.54h0a2.62,2.62,0,0,0-2.18,1.16A2.62,2.62,0,0,1,134.06,102.54Z"/><path class="cls-17" d="M131.55,104.39a2,2,0,0,1,.2-.47A2,2,0,0,0,131.55,104.39Z"/><path class="cls-18" d="M133.91,160.2h-1.65l0-14.36h1.66Z"/><path class="cls-18" d="M147.37,157.38l0-11.57h1.57l0,14.36h-1.26L139,148.66l0,11.53h-1.54l0-14.36h1.26Z"/><path class="cls-18" d="M152.29,157.25a6.9,6.9,0,0,0,4.76,1.65c2.33,0,3.66-1,3.62-2.57s-1.26-1.88-3.63-2.43a24.35,24.35,0,0,1-2.71-.78,3.44,3.44,0,0,1-2.41-3.3c0-2.48,2.08-4.18,5.23-4.19a6.91,6.91,0,0,1,5,1.81l-.67,1.3a6.32,6.32,0,0,0-4.29-1.69c-2.24,0-3.58,1-3.58,2.68,0,1.46,1.11,2.05,3.39,2.6a26.58,26.58,0,0,1,2.88.82,3.16,3.16,0,0,1,2.48,3.1c0,2.44-2,4.06-5.26,4.07a7.59,7.59,0,0,1-5.36-1.8Z"/><path class="cls-18" d="M164.94,145.78h1.65l0,8.9c0,2.79,1.39,4.21,4.06,4.2s4.05-1.42,4.05-4.21l0-8.9h1.66v8.74c0,3.77-2,5.78-5.7,5.79s-5.71-2-5.71-5.77Z"/><path class="cls-18" d="M191.06,160.1h-1.73l-1.78-4.76c-.43-1.18-1.14-1.49-2.52-1.49h-3.58v6.25h-1.65l0-14.37h5.71c3.07,0,4.8,1.41,4.81,4a3.7,3.7,0,0,1-2.87,3.74c.83.12,1.42.67,1.81,1.77Zm-9.61-7.62h3.89q3.32,0,3.3-2.72c0-1.77-1-2.64-3.31-2.63h-3.89Z"/><path class="cls-18" d="M207.28,160.07h-1.69l-1.58-3.7-7.52,0-1.57,3.7h-1.73l6.27-14.37h1.46Zm-7.07-12.43L197.08,155h6.33Z"/><path class="cls-18" d="M219.32,157.25l0-11.57h1.57l0,14.36h-1.26l-8.72-11.52,0,11.53H209.4l0-14.36h1.26Z"/><path class="cls-18" d="M230.55,145.5a6.91,6.91,0,0,1,4.89,1.8l-.63,1.3a5.93,5.93,0,0,0-4.25-1.64c-3.15,0-5,2.09-4.95,5.87s1.82,5.94,5,5.94a6.13,6.13,0,0,0,4.25-1.66l.63,1.25a6.65,6.65,0,0,1-4.88,1.82c-4.09,0-6.66-2.82-6.66-7.34S226.46,145.51,230.55,145.5Z"/><path class="cls-18" d="M247.54,160h-9l0-14.36,9.05,0V147h-7.4v5h7v1.41l-7,0v5.19h7.4Z"/><path class="cls-19" d="M276.1,214.3l-33.67.06-.06-33.67,33.67-.06ZM243.8,213l30.92-.06L274.67,182l-30.92.05Z"/><path class="cls-19" d="M276.2,270.34l-33.67.06-.06-33.68,33.67-.06ZM243.9,269l30.92-.06L274.77,238l-30.92.06Z"/><path class="cls-19" d="M276.3,326.37l-33.67.06-.06-33.68,33.67-.06ZM244,325.05l30.93-.06-.06-30.92-30.92.06Z"/><path class="cls-19" d="M276.41,382.4l-33.68.06-.06-33.67,33.67-.06Zm-32.31-1.32L275,381,275,350.1l-30.92.06Z"/><rect class="cls-17" x="84.15" y="181.53" width="144.12" height="4.85" transform="translate(-0.33 0.28) rotate(-0.1)"/><rect class="cls-17" x="84.17" y="195.26" width="144.12" height="4.85" transform="translate(-0.36 0.28) rotate(-0.1)"/><rect class="cls-17" x="84.2" y="208.98" width="144.12" height="4.85" transform="translate(-0.38 0.28) rotate(-0.1)"/><rect class="cls-17" x="84.25" y="239.48" width="144.12" height="4.85" transform="translate(-0.44 0.28) rotate(-0.1)"/><rect class="cls-17" x="84.28" y="253.2" width="144.12" height="4.85" transform="translate(-0.46 0.28) rotate(-0.1)"/><rect class="cls-17" x="84.3" y="266.93" width="144.12" height="4.85" transform="translate(-0.48 0.28) rotate(-0.1)"/><rect class="cls-17" x="84.35" y="294.38" width="144.12" height="4.85" transform="translate(-0.53 0.28) rotate(-0.1)"/><rect class="cls-17" x="84.38" y="308.11" width="144.12" height="4.85" transform="translate(-0.56 0.28) rotate(-0.1)"/><rect class="cls-17" x="84.4" y="321.83" width="144.12" height="4.85" transform="translate(-0.58 0.28) rotate(-0.1)"/><rect class="cls-17" x="84.45" y="349.28" width="144.12" height="4.85" transform="translate(-0.63 0.28) rotate(-0.1)"/><rect class="cls-17" x="84.47" y="363.01" width="144.12" height="4.85" transform="translate(-0.66 0.28) rotate(-0.1)"/><rect class="cls-17" x="84.5" y="376.74" width="144.12" height="4.85" transform="translate(-0.68 0.28) rotate(-0.1)"/><rect class="cls-17" x="84.56" y="412.2" width="166.26" height="4.85" transform="translate(-0.75 0.3) rotate(-0.1)"/><rect class="cls-17" x="84.58" y="423.92" width="199.05" height="4.85" transform="translate(-0.77 0.33) rotate(-0.1)"/><polygon class="cls-8" points="259.1 208.8 248.64 190.86 252.38 188.68 258.45 199.09 268.36 175.32 272.36 176.99 259.1 208.8"/><polygon class="cls-8" points="259.2 265.56 248.74 247.62 252.49 245.44 258.56 255.86 268.46 232.08 272.46 233.75 259.2 265.56"/><polygon class="cls-8" points="259.4 376.55 248.94 358.61 252.69 356.43 258.75 366.84 268.67 343.07 272.66 344.74 259.4 376.55"/><polygon class="cls-8" points="271.05 301.07 268.04 298.02 259.43 306.55 250.8 298.05 247.79 301.11 256.39 309.57 247.82 318.06 250.84 321.1 259.44 312.57 268.08 321.07 271.08 318.01 262.49 309.56 271.05 301.07"/><path class="cls-20" d="M90.78,334.08a62,62,0,0,0-24,4.85v7.89a54.89,54.89,0,0,1,53.75,95.52l11.82,0c.85-.76,1.68-1.55,2.49-2.36A62.07,62.07,0,0,0,90.78,334.08Z"/><path class="cls-20" d="M90.81,350.91a45,45,0,0,0-24,7v4.3a41.65,41.65,0,1,1,.12,68v4.3a45.23,45.23,0,1,0,23.86-83.6Z"/></g></g></g></svg>