<svg xmlns="http://www.w3.org/2000/svg" xmlns:xlink="http://www.w3.org/1999/xlink" viewBox="0 0 559.71 483.98"><defs><style>.cls-1{fill:url(#linear-gradient);}.cls-2{fill:#80b377;}.cls-3{fill:none;stroke:#2e5e26;stroke-miterlimit:10;stroke-width:0.7px;}.cls-4{fill:url(#linear-gradient-2);}.cls-5{fill:#e03726;}.cls-6{fill:url(#linear-gradient-3);}.cls-7{fill:url(#linear-gradient-4);}.cls-8{fill:url(#linear-gradient-5);}.cls-9{fill:url(#linear-gradient-6);}.cls-10{fill:#203e87;}.cls-11{fill:#3465d9;}.cls-12{fill:#ffbb10;}.cls-13{fill:url(#linear-gradient-7);}.cls-14{fill:url(#linear-gradient-8);}.cls-15{fill:url(#linear-gradient-9);}.cls-16{fill:url(#linear-gradient-10);}</style><linearGradient id="linear-gradient" x1="366.42" y1="-33.16" x2="151.81" y2="413.13" gradientTransform="matrix(0.82, 0.81, -0.82, 0.81, 268.91, -150.1)" gradientUnits="userSpaceOnUse"><stop offset="0" stop-color="#ffd97a"/><stop offset="1" stop-color="#fff"/></linearGradient><linearGradient id="linear-gradient-2" x1="392.74" y1="295.2" x2="252.08" y2="34.99" gradientUnits="userSpaceOnUse"><stop offset="0" stop-color="#53d8ff"/><stop offset="1" stop-color="#3840f7"/></linearGradient><linearGradient id="linear-gradient-3" x1="345.85" y1="150.92" x2="404.44" y2="97.02" gradientUnits="userSpaceOnUse"><stop offset="0" stop-color="#febbba"/><stop offset="1" stop-color="#ff928e"/></linearGradient><linearGradient id="linear-gradient-4" x1="384.21" y1="94.39" x2="422.12" y2="94.39" xlink:href="#linear-gradient-3"/><linearGradient id="linear-gradient-5" x1="682.89" y1="-15.99" x2="647.9" y2="-56.24" gradientTransform="translate(-274.88 16.9) rotate(9.6)" xlink:href="#linear-gradient-3"/><linearGradient id="linear-gradient-6" x1="378.52" y1="74.51" x2="437.52" y2="74.51" gradientUnits="userSpaceOnUse"><stop offset="0" stop-color="#231f20"/><stop offset="1"/></linearGradient><linearGradient id="linear-gradient-7" x1="202.99" y1="1071.74" x2="414.06" y2="580.88" gradientUnits="userSpaceOnUse"><stop offset="0" stop-color="#4f52ff"/><stop offset="1" stop-color="#4042e2"/></linearGradient><linearGradient id="linear-gradient-8" x1="-439.96" y1="391.35" x2="-386.63" y2="354.43" gradientTransform="matrix(0.92, -0.39, 0.39, 0.92, 609.45, -334.03)" xlink:href="#linear-gradient-3"/><linearGradient id="linear-gradient-9" x1="-434.49" y1="399.25" x2="-381.16" y2="362.32" gradientTransform="matrix(0.92, -0.39, 0.39, 0.92, 609.45, -334.03)" xlink:href="#linear-gradient-3"/><linearGradient id="linear-gradient-10" x1="-1604.52" y1="217.75" x2="-1616.37" y2="160.78" gradientTransform="matrix(-0.89, -0.45, -0.33, 0.64, -887.25, -661.77)" xlink:href="#linear-gradient-3"/></defs><title>about-img3</title><g id="Layer_2" data-name="Layer 2"><g id="Layer_1-2" data-name="Layer 1"><ellipse class="cls-1" cx="279.86" cy="228.01" rx="229.3" ry="226.71" transform="translate(-79.26 264.67) rotate(-45)"/><path class="cls-2" d="M138.12,221.91c-.34-7.87,47.75,10.39,45.23-6.49-2.59-16-18.24-2.61-38.93-6.08-20.17-3.11-20.52-44.28-16.51-50.17,4.51-6,39.81,8.07,40.88-2.74.84-11.44-35.22-1.65-44.46-8.2-8.69-6.33-2-53.13,2.73-57.55,5.55-4.17,24.41,25.72,26.77,12.46,2.18-12.68-18.64-16.83-25.47-22.66-9.22-8-4.8-30.68-2.36-42.82,11.61.84,34.36,5.56,38.21,18.78,2.93,9.75-3,30.92,8.68,35.51,13,5.19-4.31-28.53,1.15-31.79,5.72-4.06,52.44,19.34,53.38,34,1.11,14.09-28.69,37.12-19.41,44.22,9.62,7.69,20-32.33,27.06-32.35,7.62-.36,43,39.64,30.11,58.56-12.67,18.25-33.82,16.15-25.13,32.12,9.5,17.92,34.37-31,39.1-23.92,5.34,7.36,20.43,43.16-3.27,60.4-14.31,10.72-34.81,32.42-42.45,50.52-14.68-14.59-43.39-23.58-61-24.75C143.84,256.67,138.6,229.17,138.12,221.91Z"/><path class="cls-3" d="M131.4,45.52a682.63,682.63,0,0,1,102,238.19"/><path class="cls-3" d="M121.64,110.36a247,247,0,0,0,55.91,14.18"/><path class="cls-3" d="M204.46,71.29s-8,52-18.44,70.92"/><path class="cls-3" d="M125.94,174.1s37.61,7.15,76.19,5.92"/><path class="cls-3" d="M255.36,124.54s-30.44,67.66-45.05,77.51"/><path class="cls-3" d="M138.7,226.3s46.67,12.46,82.44,9.3"/><path class="cls-3" d="M285.4,186.21s-26.51,43.29-58.65,69.6"/><path class="cls-4" d="M311.87,147.49s20.11,47.74,70.62,53.09l-1.34,8.8s-66,11.44-100.83-46.49Z"/><path class="cls-5" d="M300.81,267.05s-21-83.87,24.06-154.65a5.34,5.34,0,0,1,4.75-2.48c10.63.52,47.11,5,88.14,40.72,0,0-43.12,36.55-48.31,118.2C369.45,268.84,329.49,270.56,300.81,267.05Z"/><path class="cls-6" d="M386.08,94.73l-21.34,23.59a5.57,5.57,0,0,0,.08,7.65c3.56,3.79,9.87,8.68,18.11,7.74a8.51,8.51,0,0,0,6.39-4.06l12.93-21.79Z"/><path class="cls-7" d="M422.12,79.57s-2.17,39.65-19.57,41.75-18.34-36.85-18.34-36.85S400.92,49.54,422.12,79.57Z"/><path class="cls-8" d="M391.76,96.7s.61-12.26-6.38-9.88c-9,3.07,2.32,12.76,2.32,12.76Z"/><path class="cls-9" d="M385,86.88a3.27,3.27,0,0,1,4.58,3.8c-.58,2.25-1.09,5.24.65,4,2.71-1.85,4.87-21.87,16.95-15.74s34.62,9.84,29.67-13.43S417.87,62.35,398,57c-17.26-4.68-17.58,8.91-16,14.8a3.36,3.36,0,0,1-1.11,3.34c-3.07,2.73-3,7.22-.37,10.91a3.35,3.35,0,0,0,4.35,1Z"/><path class="cls-5" d="M323.23,111.36S253.77,179.08,271,198.93s74.63,44.18,74.63,44.18l-1.82-13.31S294.73,192.58,301,186.71c3.29-3.07,13.6-13,22.71-21.85a42.83,42.83,0,0,0,10.87-44.81C332.18,113.1,328.56,108.44,323.23,111.36Z"/><path class="cls-10" d="M533.86,477.2c-164.74-76-337.48-70.59-517.57,5.76C8.8,486.13,0,481.5,0,474.41V354.09c0-9.52,5.9-18.35,15.53-23.26,179.67-91.5,357-91.85,526.27.72,10,5.47,16.08,14.85,16.23,24.94L559.71,464C559.89,475.33,545.6,482.62,533.86,477.2Z"/><path class="cls-11" d="M531.36,474.39c-161.82-73-331.5-67.75-508.42,5.53-7.35,3-16-1.41-16-8.21V356.25c0-9.15,5.79-17.62,15.25-22.33,176.49-87.81,350.72-88.15,517,.69,9.83,5.25,15.79,14.25,16,23.93l1.65,103.18C556.93,472.59,542.9,479.59,531.36,474.39Z"/><path class="cls-12" d="M332.77,329.83,314.65,345.4A4.69,4.69,0,0,0,313,350l4.87,21.48c.95,4.21-4.2,7.51-8.72,5.6l-23.09-9.79a7,7,0,0,0-5.67.09L257.78,378c-4.42,2.06-9.73-1.07-9-5.3L252.66,351a4.74,4.74,0,0,0-1.86-4.55l-18.84-15c-3.69-2.93-1.82-8.17,3.17-8.87l25.47-3.58a6.06,6.06,0,0,0,4.52-2.9l11-19.81c2.14-3.88,8.61-4,10.93-.18l11.89,19.42a6.15,6.15,0,0,0,4.66,2.75l25.61,2.71C334.2,321.6,336.32,326.78,332.77,329.83Z"/><path class="cls-12" d="M221.52,333.42l-12.34,19.21a4.48,4.48,0,0,0-.08,4.81L220.79,377c2.29,3.82-1.58,8.2-6.56,7.42l-25.37-4a6.85,6.85,0,0,0-5.43,1.42l-18.28,15.45c-3.58,3-9.7,1.25-10.35-3l-3.35-21.69a5.28,5.28,0,0,0-3.27-3.93l-23-10c-4.5-1.95-4.41-7.43.16-9.27l23.31-9.4a5.37,5.37,0,0,0,3.4-3.86l4.07-21.6c.8-4.23,7-5.84,10.45-2.73l17.76,15.87a6.78,6.78,0,0,0,5.37,1.56l25.5-3.4C220.21,325.18,223.93,329.66,221.52,333.42Z"/><path class="cls-12" d="M111.66,362,99.33,381.18a4.48,4.48,0,0,0-.08,4.81l11.69,19.5c2.28,3.82-1.59,8.21-6.56,7.43l-25.38-4a6.84,6.84,0,0,0-5.42,1.42L55.3,425.78c-3.58,3-9.7,1.26-10.36-3L41.59,401.1a5.29,5.29,0,0,0-3.27-3.93l-23-10c-4.5-1.95-4.41-7.42.15-9.27l23.31-9.4a5.34,5.34,0,0,0,3.4-3.85l4.08-21.6c.79-4.23,7-5.85,10.45-2.74l17.75,15.88a6.82,6.82,0,0,0,5.38,1.55l25.5-3.39C110.35,353.72,114.08,358.2,111.66,362Z"/><path class="cls-13" d="M548.14,393.06,524,400.92a5.56,5.56,0,0,0-3.74,3.62l-6,21.27c-1.18,4.17-7.48,5.38-10.67,2.06l-16.27-17a6.64,6.64,0,0,0-5.21-1.9l-25.74,1.73c-5,.34-8.35-4.37-5.6-8l14-18.35a4.52,4.52,0,0,0,.52-4.79l-9.89-20.21c-1.94-4,2.32-8.08,7.21-7l24.94,5.64a6.9,6.9,0,0,0,5.53-1.07l19.63-14.21c3.84-2.78,9.78-.62,10.05,3.65l1.38,21.85a5.11,5.11,0,0,0,2.9,4.13l22,11.42C553.44,386.07,552.85,391.52,548.14,393.06Z"/><path class="cls-12" d="M442.83,354.12,420.29,364.8a5.17,5.17,0,0,0-3.09,4l-2.4,21.78c-.47,4.26-6.51,6.22-10.22,3.31l-18.94-14.86a6.9,6.9,0,0,0-5.48-1.26L355,382.6c-4.93.94-9-3.32-6.88-7.21l10.83-19.86a4.47,4.47,0,0,0-.29-4.8l-13.16-18.82c-2.58-3.68.95-8.27,6-7.77l25.63,2.59a6.7,6.7,0,0,0,5.3-1.71l17.05-16.43c3.34-3.22,9.58-1.79,10.56,2.41l5,21.46a5.42,5.42,0,0,0,3.57,3.74l23.7,8.67C446.91,346.56,447.24,352,442.83,354.12Z"/><path class="cls-12" d="M491.24,227.24l-37.51,18.48a9.88,9.88,0,0,0-5.41,7.44l-6.05,41.37A9.88,9.88,0,0,1,425.41,300l-29.16-30a9.89,9.89,0,0,0-8.75-2.85l-41.22,7a9.88,9.88,0,0,1-10.4-14.34l19.49-37a9.91,9.91,0,0,0,0-9.2l-19.43-37a9.88,9.88,0,0,1,10.43-14.33l41.21,7.11a9.89,9.89,0,0,0,8.75-2.84l29.21-29.92a9.88,9.88,0,0,1,16.85,5.49l6,41.38a9.89,9.89,0,0,0,5.4,7.45l37.48,18.53A9.88,9.88,0,0,1,491.24,227.24Z"/><path class="cls-14" d="M339.67,229.06s-.29-5.72-1.77-8.37,2-3.26,3.66-.78,2.92,9.39,2.92,9.39S341.52,231.05,339.67,229.06Z"/><path class="cls-15" d="M351.05,243.8a3.41,3.41,0,0,1-2.9,1.61,3.37,3.37,0,0,1-2.88-1.63c-2-3.22-4.95-8.4-5.49-11.1-.83-4.1-1.4-9.58,4-10.61a63.73,63.73,0,0,1,12.51-.7s1.79,5-2.66,5.06l3.38,1.45s1.34,4.08-2.75,3.33l3.57,2.33s0,3.81-3.24,2.74C352.3,235.51,353.13,240.43,351.05,243.8Z"/><path class="cls-16" d="M482.64,196.8c-10.72-5.22-14.81-5.12-19.32-1.18l7.6,5.94c2.46,2.24,2,4.55,1.06,6.49-1.16,2.4.95,5.8,4.44,6.92,2.55.82,5,.2,7.29-3l2-3.94C485.09,205.14,485.81,199.12,482.64,196.8Z"/></g></g></svg>