<svg width="831" height="870" viewBox="0 0 831 870" fill="none" xmlns="http://www.w3.org/2000/svg">
<path opacity="0.6" fill-rule="evenodd" clip-rule="evenodd" d="M524.589 111.414C585.811 138.575 589.599 222.883 624.224 280.215C660.623 340.487 744.465 386.2 732.437 455.575C720.299 525.579 630.856 548.317 571.08 586.72C527.037 615.016 479.692 629.5 431.162 649.129C367.729 674.785 311.061 730.428 243.564 719.188C170.76 707.065 93.6171 659.449 71.0768 589.168C48.647 519.231 114.025 454.344 136.165 384.315C152.937 331.268 149.134 271.545 184.956 228.977C221.714 185.298 278.689 169.525 332.636 150.851C395.912 128.948 463.383 84.2593 524.589 111.414Z" stroke="#4FA5DA"/>
<path opacity="0.6" fill-rule="evenodd" clip-rule="evenodd" d="M494.942 199.123C539.554 218.916 542.315 280.351 567.546 322.129C594.07 366.049 655.166 399.361 646.401 449.914C637.556 500.927 572.379 517.496 528.82 545.481C496.725 566.1 462.225 576.655 426.861 590.958C380.637 609.654 339.342 650.201 290.158 642.011C237.105 633.177 180.89 598.479 164.465 547.265C148.121 496.301 195.761 449.018 211.895 397.987C224.117 359.332 221.346 315.811 247.45 284.792C274.235 252.963 315.753 241.469 355.065 227.861C401.174 211.9 450.341 179.335 494.942 199.123Z" stroke="#4FA5DA"/>
</svg>
