<svg width="407" height="480" viewBox="0 0 407 480" fill="none" xmlns="http://www.w3.org/2000/svg">
<g opacity="0.5">
<path fill-rule="evenodd" clip-rule="evenodd" d="M286.045 4.81645C241.807 -10.4066 199.771 30.9209 154.79 43.7824C107.504 57.3033 42.871 40.8123 16.0288 82.0233C-11.0569 123.608 23.8848 177.781 36.1993 225.857C45.2727 261.279 62.6037 291.207 78.0945 324.33C98.3425 367.625 100.868 423.042 140.742 449.394C183.753 477.819 245.863 490.15 290.821 464.917C335.558 439.808 332.974 375.519 354.955 329.164C371.605 294.05 401.955 265.306 403.875 226.492C405.846 186.665 384.201 151.498 365.485 116.287C343.532 74.9871 330.271 20.0356 286.045 4.81645Z" stroke="url(#paint0_linear)"/>
<path fill-rule="evenodd" clip-rule="evenodd" d="M259.495 63.7866C227.258 52.6935 196.627 82.809 163.849 92.1813C129.391 102.034 82.2929 90.0169 62.733 120.048C42.9955 150.351 68.4577 189.826 77.4312 224.859C84.0431 250.672 96.6722 272.48 107.96 296.617C122.715 328.166 124.555 368.549 153.612 387.752C184.954 408.466 230.214 417.451 262.975 399.064C295.575 380.766 293.693 333.919 309.71 300.14C321.843 274.552 343.959 253.606 345.358 225.323C346.794 196.3 331.022 170.674 317.383 145.015C301.386 114.92 291.722 74.8768 259.495 63.7866Z" stroke="url(#paint1_linear)"/>
<path fill-rule="evenodd" clip-rule="evenodd" d="M242.816 118.923C221.9 111.725 202.026 131.265 180.759 137.346C158.402 143.738 127.844 135.941 115.153 155.426C102.347 175.087 118.868 200.699 124.69 223.43C128.98 240.177 137.174 254.327 144.498 269.987C154.071 290.457 155.265 316.658 174.117 329.117C194.453 342.557 223.818 348.387 245.074 336.457C266.226 324.585 265.004 294.189 275.396 272.273C283.268 255.671 297.618 242.081 298.526 223.73C299.457 204.9 289.224 188.273 280.375 171.625C269.996 152.099 263.726 126.118 242.816 118.923Z" stroke="url(#paint2_linear)"/>
</g>
<defs>
<linearGradient id="paint0_linear" x1="313.439" y1="512.478" x2="-4.66411" y2="-28.36" gradientUnits="userSpaceOnUse">
<stop stop-color="#4EA5D9"/>
<stop offset="1" stop-color="#3DBFD9"/>
</linearGradient>
<linearGradient id="paint1_linear" x1="279.457" y1="433.721" x2="47.6539" y2="39.6108" gradientUnits="userSpaceOnUse">
<stop stop-color="#4EA5D9"/>
<stop offset="1" stop-color="#3DBFD9"/>
</linearGradient>
<linearGradient id="paint2_linear" x1="255.768" y1="358.943" x2="105.37" y2="103.237" gradientUnits="userSpaceOnUse">
<stop stop-color="#4EA5D9"/>
<stop offset="1" stop-color="#3DBFD9"/>
</linearGradient>
</defs>
</svg>
