<svg width="727" height="768" viewBox="0 0 727 768" fill="none" xmlns="http://www.w3.org/2000/svg">
<path fill-rule="evenodd" clip-rule="evenodd" d="M222.692 658.979C278.95 681.57 336.052 630.829 395.107 617.121C457.188 602.71 539.759 628.274 577.19 576.692C614.96 524.641 573.276 452.249 560.479 389.225C551.049 342.788 530.574 302.924 512.689 259.044C489.311 201.689 489.662 129.803 439.778 93.0938C385.97 53.497 306.391 33.4814 246.559 63.2022C187.02 92.7774 186.165 176.149 154.691 234.706C130.849 279.063 89.6918 314.282 84.6721 364.389C79.5213 415.806 105.237 462.733 127.16 509.525C152.874 564.409 166.448 636.394 222.692 658.979Z" stroke="#D1F1F0"/>
<path fill-rule="evenodd" clip-rule="evenodd" d="M260.903 584.393C301.899 600.855 343.509 563.88 386.543 553.891C431.782 543.39 491.952 562.018 519.228 524.43C546.751 486.5 516.376 433.748 507.05 387.822C500.179 353.983 485.258 324.934 472.225 292.959C455.19 251.164 455.446 198.78 419.095 172.03C379.885 143.176 321.895 128.59 278.296 150.248C234.909 171.799 234.286 232.553 211.351 275.224C193.977 307.547 163.986 333.211 160.328 369.724C156.574 407.191 175.313 441.387 191.289 475.485C210.027 515.479 219.918 567.935 260.903 584.393Z" stroke="#D1F1F0"/>
<path fill-rule="evenodd" clip-rule="evenodd" d="M296.443 514.648C323.042 525.329 350.039 501.339 377.96 494.858C407.312 488.045 446.351 500.131 464.048 475.743C481.906 451.134 462.198 416.907 456.148 387.109C451.689 365.154 442.009 346.306 433.553 325.56C422.5 298.443 422.666 264.456 399.08 247.099C373.64 228.378 336.016 218.915 307.727 232.967C279.577 246.95 279.173 286.368 264.292 314.054C253.02 335.025 233.561 351.677 231.188 375.367C228.752 399.677 240.911 421.864 251.276 443.987C263.433 469.936 269.851 503.97 296.443 514.648Z" stroke="#D1F1F0"/>
</svg>
