<svg width="712" height="758" viewBox="0 0 712 758" fill="none" xmlns="http://www.w3.org/2000/svg">
<path fill-rule="evenodd" clip-rule="evenodd" d="M483.155 96.2268C425.568 76.41 370.847 130.209 312.292 146.952C250.736 164.553 166.599 143.085 131.657 196.732C96.3976 250.866 141.884 321.386 157.914 383.97C169.726 430.082 192.287 469.04 212.452 512.159C238.81 568.519 242.098 640.659 294.005 674.963C349.995 711.966 430.848 728.019 489.372 695.171C547.61 662.484 544.246 578.795 572.86 518.452C594.534 472.742 634.044 435.324 636.543 384.797C639.108 332.951 610.932 287.172 586.567 241.335C557.99 187.573 540.727 116.039 483.155 96.2268Z" stroke="#74E1CE"/>
<path fill-rule="evenodd" clip-rule="evenodd" d="M460.349 172.992C418.385 158.551 378.509 197.754 335.84 209.955C290.984 222.781 229.673 207.137 204.211 246.23C178.517 285.678 211.663 337.066 223.344 382.671C231.952 416.273 248.392 444.662 263.086 476.083C282.294 517.153 284.689 569.722 322.514 594.719C363.314 621.684 422.232 633.381 464.879 609.445C507.317 585.626 504.866 524.641 525.717 480.669C541.511 447.36 570.302 420.093 572.123 383.274C573.992 345.494 553.46 312.134 535.706 278.733C514.881 239.556 502.302 187.429 460.349 172.992Z" stroke="#74E1CE"/>
</svg>
