<svg width="44" height="44" viewBox="0 0 44 44" fill="none" xmlns="http://www.w3.org/2000/svg">
<rect opacity="0.15" width="44" height="44" rx="10" fill="url(#paint0_linear)"/>
<rect opacity="0.8" x="5" y="5" width="34" height="34" rx="7" fill="url(#paint1_linear)"/>
<path d="M22.7165 21.8023C22.4662 21.6372 22.168 21.5414 21.8644 21.4561V19.0169C21.8697 19.0169 21.8697 19.0169 21.8751 19.0169C22.2372 18.953 22.5355 18.9583 22.5568 18.9583C22.7538 18.9583 22.9242 18.7986 22.9242 18.6068C22.9242 18.4151 22.7751 18.2607 22.5834 18.2553C22.5568 18.2553 22.2585 18.2447 21.8591 18.3033V16.4765C21.8591 16.2794 21.6993 16.125 21.5023 16.125C21.3052 16.125 21.1454 16.2848 21.1454 16.4765V18.4737C20.8419 18.5855 20.5383 18.7453 20.2933 18.985C19.9205 19.3471 19.7288 19.8105 19.7288 20.375C19.7288 20.9236 19.9418 21.355 20.3572 21.6425C20.5915 21.8076 20.8685 21.9088 21.1454 21.994V23.9806C20.9484 24.0605 20.7566 24.1563 20.5915 24.2841C20.2507 24.5451 20.0803 24.8913 20.0803 25.3227C20.0803 26.0523 20.4477 26.6541 21.1454 27.0642C21.1454 27.0642 21.1508 27.0642 21.1508 27.0695V28.5182C21.1508 28.7152 21.3105 28.875 21.5076 28.875C21.7046 28.875 21.8644 28.7152 21.8644 28.5182V27.3731C22.0082 27.4157 22.1147 27.437 22.1467 27.4477C22.1467 27.4477 22.1946 27.453 22.2159 27.453C22.413 27.453 22.5727 27.2932 22.5727 27.0962C22.5727 26.9204 22.4449 26.7766 22.2798 26.75C22.2798 26.75 22.0987 26.7127 21.8644 26.6222V24.4652C22.1733 24.3534 22.4875 24.2256 22.7432 24.0232C23.1 23.7409 23.2864 23.3575 23.2864 22.8781C23.2917 22.4201 23.1 22.0526 22.7165 21.8023ZM21.1614 26.1908C20.9217 25.9511 20.7992 25.6635 20.7992 25.328C20.7992 25.0617 20.9111 24.9073 21.1614 24.7688V26.1908ZM21.1614 21.2484C20.7034 21.0833 20.4531 20.8756 20.4531 20.375C20.4531 20.0075 20.5649 19.7199 20.7939 19.4962C20.9004 19.3951 21.0229 19.3098 21.1561 19.2459V21.2484H21.1614ZM21.8697 23.7143V22.2018C22.3704 22.3615 22.5834 22.516 22.5834 22.8888C22.5834 23.3202 22.3597 23.5066 21.8697 23.7143Z" fill="white"/>
<path d="M29.6832 23.9433L27.1854 22.5L29.6832 21.0567C30.0241 20.8596 30.1359 20.4283 29.9442 20.0874L27.8192 16.4073C27.6861 16.1783 27.4517 16.0558 27.2067 16.0558C27.0842 16.0558 26.9671 16.0877 26.8552 16.1516L24.3574 17.5949V14.7083C24.3574 14.3195 24.0379 14 23.6491 14H19.3991C19.005 14 18.6907 14.3195 18.6907 14.7083V17.5949L16.1929 16.1516C16.0811 16.0877 15.9586 16.0558 15.8414 16.0558C15.5964 16.0558 15.3568 16.1836 15.229 16.4073L13.104 20.0874C12.9069 20.4283 13.0241 20.8596 13.3649 21.0567L15.8521 22.5L13.3543 23.9433C13.0134 24.1404 12.9016 24.5717 13.0933 24.9126L15.2183 28.5927C15.3515 28.8217 15.5858 28.9442 15.8308 28.9442C15.9533 28.9442 16.0758 28.9123 16.1823 28.8484L18.6801 27.4051V30.2917C18.6801 30.6805 18.9996 31 19.3884 31H23.6384C24.0272 31 24.3468 30.6805 24.3468 30.2917V27.4051L26.8446 28.8484C26.9564 28.9123 27.0789 28.9442 27.1961 28.9442C27.4411 28.9442 27.6807 28.8164 27.8085 28.5927L29.9335 24.9126C30.1413 24.5717 30.0241 24.1404 29.6832 23.9433ZM27.2067 28.2359L24.7089 26.7926L23.6438 26.1801V27.4051V30.2917H19.3938V27.4051V26.1801L18.3286 26.7926L15.8308 28.2359L13.7058 24.5558L16.2036 23.1125L17.2688 22.5L16.2036 21.8875L13.7058 20.4442L15.8308 16.7641L18.3286 18.2074L19.3938 18.8199V17.5949V14.7083H23.6438V17.5949V18.8199L24.7089 18.2074L27.2067 16.7641L29.3317 20.4442L26.8339 21.8875L25.7688 22.5L26.8339 23.1125L29.3317 24.5558L27.2067 28.2359Z" fill="white"/>
<defs>
<linearGradient id="paint0_linear" x1="0" y1="44" x2="44" y2="0" gradientUnits="userSpaceOnUse">
<stop stop-color="#4EA5D9"/>
<stop offset="1" stop-color="#3DBFD9"/>
</linearGradient>
<linearGradient id="paint1_linear" x1="5" y1="39" x2="39" y2="5" gradientUnits="userSpaceOnUse">
<stop stop-color="#4EA5D9"/>
<stop offset="1" stop-color="#3DBFD9"/>
</linearGradient>
</defs>
</svg>
