<svg width="707" height="754" viewBox="0 0 707 754" fill="none" xmlns="http://www.w3.org/2000/svg">
<path fill-rule="evenodd" clip-rule="evenodd" d="M480.026 95.2657C422.701 75.5389 368.229 129.093 309.941 145.76C248.664 163.281 164.909 141.911 130.126 195.314C95.027 249.202 140.306 319.402 156.264 381.701C168.022 427.604 190.48 466.385 210.554 509.307C236.792 565.411 240.065 637.223 291.736 671.372C347.472 708.207 427.958 724.186 486.216 691.488C544.189 658.95 540.841 575.641 569.324 515.572C590.9 470.07 630.23 432.822 632.718 382.525C635.271 330.914 607.223 285.343 582.969 239.715C554.522 186.196 537.337 114.987 480.026 95.2657Z" stroke="#74E1CE"/>
<path fill-rule="evenodd" clip-rule="evenodd" d="M445.622 171.681C403.849 157.306 364.155 196.331 321.68 208.476C277.028 221.244 215.995 205.672 190.649 244.587C165.072 283.855 198.067 335.01 209.695 380.408C218.263 413.857 234.629 442.117 249.257 473.395C268.377 514.278 270.761 566.608 308.414 591.492C349.029 618.334 407.68 629.978 450.133 606.151C492.378 582.44 489.938 521.733 510.694 477.96C526.416 444.802 555.076 417.66 556.889 381.008C558.749 343.399 538.311 310.191 520.637 276.942C499.908 237.943 487.385 186.052 445.622 171.681Z" stroke="#74E1CE"/>
<path fill-rule="evenodd" clip-rule="evenodd" d="M413.643 243.13C386.54 233.803 360.786 259.124 333.227 267.004C304.256 275.288 264.657 265.184 248.211 290.433C231.617 315.911 253.025 349.101 260.569 378.556C266.128 400.259 276.747 418.594 286.237 438.888C298.643 465.413 300.19 499.366 324.62 515.512C350.972 532.927 389.025 540.482 416.569 525.022C443.979 509.638 442.396 470.25 455.863 441.85C466.064 420.336 484.659 402.726 485.835 378.945C487.042 354.544 473.781 332.998 462.314 311.425C448.864 286.122 440.739 252.455 413.643 243.13Z" stroke="#74E1CE"/>
</svg>
