<svg width="142" height="142" viewBox="0 0 142 142" fill="none" xmlns="http://www.w3.org/2000/svg">
<path d="M81.1111 46.2132C92.5111 46.2132 103.811 46.2131 115.211 46.3131C122.111 46.4131 128.311 51.313 129.911 58.013C130.611 60.913 131.011 63.8132 131.511 66.7132C134.011 81.8132 136.511 96.8132 139.011 111.913C139.911 117.113 140.711 122.313 141.611 127.513C141.911 129.013 141.411 129.313 140.011 129.213C137.411 129.113 134.911 129.213 132.311 129.213C131.411 129.813 130.411 129.613 129.511 129.613C102.011 129.613 74.5111 129.613 47.0111 129.613C35.3111 129.613 23.7111 129.613 12.0111 129.613C11.1111 129.613 10.2111 129.713 9.51108 129.213C6.91108 129.213 4.41108 129.113 1.81108 129.213C0.211076 129.313 0.0110756 128.713 0.311076 127.313C2.01108 117.413 3.61108 107.413 5.31108 97.513C7.41108 84.813 9.51108 72.1132 11.7111 59.4132C13.0111 51.8132 19.3111 46.2132 27.1111 46.2132C38.0111 46.1132 49.0111 46.2132 59.9111 46.2132C60.2111 46.2132 60.5111 46.2132 60.8111 46.2132C61.4111 45.7132 62.1111 45.8131 62.8111 45.8131C68.2111 45.8131 73.6111 45.8131 79.0111 45.8131C79.7111 45.8131 80.5111 45.7132 81.1111 46.2132Z" fill="#F15A59"/>
<path d="M60.8111 28.1129C48.1111 28.1129 35.4111 28.1129 22.7111 28.1129C12.6111 28.1129 4.11107 21.9129 1.11107 12.6129C-0.188929 8.71294 0.0110729 4.71304 0.0110729 0.713037C0.0110729 0.213037 0.211074 0.0128419 0.711074 0.0128419C1.11107 0.0128419 1.51107 0.0128419 1.91107 0.0128419C47.9111 0.0128419 93.8111 0.0128419 139.811 0.0128419C142.011 0.0128419 141.711 -0.287158 141.811 2.01284C141.811 5.11284 141.911 8.21289 141.111 11.3129C138.511 21.3129 129.811 28.113 119.211 28.213C107.111 28.213 94.9111 28.213 82.8111 28.213C82.2111 28.213 81.6111 28.213 81.0111 28.213C80.4111 28.713 79.7111 28.713 79.0111 28.713C73.6111 28.713 68.2111 28.713 62.8111 28.713C62.1111 28.613 61.4111 28.7129 60.8111 28.1129Z" fill="#F15A59"/>
<path d="M9.51102 129.213C10.011 129.213 10.511 129.113 11.011 129.113C50.911 129.113 90.811 129.113 130.811 129.113C131.311 129.113 131.811 129.113 132.311 129.213C132.311 132.813 132.211 136.513 132.311 140.113C132.311 141.413 132.011 141.713 130.711 141.713C113.211 141.713 95.711 141.713 78.211 141.713C55.811 141.713 33.511 141.713 11.111 141.713C9.71102 141.713 9.31102 141.313 9.41102 139.913C9.61102 136.413 9.51102 132.813 9.51102 129.213Z" fill="#6E7B85"/>
<path d="M60.8109 28.113C67.5109 28.113 74.3109 28.113 81.0109 28.113C81.0109 34.113 81.0109 40.2131 81.0109 46.2131C74.2109 46.2131 67.5109 46.2131 60.7109 46.2131C60.8109 40.2131 60.8109 34.213 60.8109 28.113Z" fill="#F2DA33"/>
<path d="M68.8108 117.113C56.3108 116.213 45.7108 107.413 42.5108 95.5129C42.0108 93.7129 41.7108 91.8131 41.6108 89.9131C42.6108 89.2131 43.8108 89.6129 44.9108 89.5129C45.7108 89.4129 46.4108 89.5131 47.2108 89.4131C48.2108 89.3131 48.9108 88.913 48.9108 87.813C48.9108 86.713 48.2108 86.213 47.2108 86.113C46.0108 86.013 44.8108 86.1129 43.5108 86.0129C42.9108 86.0129 42.2108 86.113 41.6108 85.613C42.9108 72.213 51.7108 62.0129 64.6108 59.0129C66.0108 58.7129 67.4108 58.5131 68.8108 58.4131C69.5108 59.5131 69.1108 60.713 69.2108 61.813C69.3108 62.613 69.1108 63.4131 69.3108 64.2131C69.5108 65.1131 70.0108 65.613 70.9108 65.613C71.8108 65.613 72.3108 65.1131 72.5108 64.2131C72.7108 63.0131 72.6108 61.8129 72.6108 60.5129C72.6108 59.7129 72.4108 59.013 73.0108 58.313C87.5108 59.213 98.8108 70.5129 100.211 85.5129C99.3108 86.1129 98.2108 85.8131 97.2108 85.9131C96.4108 86.0131 95.6108 85.9131 94.8108 85.9131C93.5108 86.0131 92.8108 86.7131 92.9108 87.7131C93.0108 88.8131 93.8108 89.213 94.8108 89.313C96.0108 89.413 97.1108 89.313 98.3108 89.313C98.9108 89.313 99.6108 89.2131 100.211 89.7131C99.1108 103.613 89.2108 114.413 75.5108 116.713C74.7108 116.813 73.9108 116.913 73.1108 117.013C72.4108 116.013 72.8108 114.813 72.7108 113.713C72.6108 112.913 72.8108 112.113 72.6108 111.313C72.4108 110.413 71.9108 109.713 70.9108 109.713C70.0108 109.713 69.5108 110.413 69.3108 111.313C69.1108 112.513 69.3108 113.713 69.2108 114.913C69.2108 115.713 69.4108 116.513 68.8108 117.113Z" fill="#DEEDF3"/>
<path d="M73.1111 58.5128C73.1111 60.3128 73.2111 62.113 73.1111 63.913C73.1111 65.513 72.3111 66.3129 71.0111 66.3129C69.7111 66.3129 68.9111 65.413 68.9111 63.913C68.9111 62.113 68.9111 60.3128 68.9111 58.5128C70.2111 58.2128 71.6111 58.1128 73.1111 58.5128Z" fill="#6E7B85"/>
<path d="M41.6109 85.613C43.4109 85.613 45.3109 85.513 47.1109 85.613C48.6109 85.613 49.5109 86.513 49.4109 87.813C49.4109 89.113 48.5109 89.8131 47.1109 89.9131C45.3109 89.9131 43.4109 89.9131 41.6109 89.9131C41.4109 88.4131 41.4109 87.013 41.6109 85.613Z" fill="#6E7B85"/>
<path d="M100.211 89.813C98.4109 89.813 96.5109 89.913 94.7109 89.813C93.2109 89.813 92.3109 88.913 92.4109 87.613C92.4109 86.413 93.3109 85.6129 94.7109 85.5129C96.5109 85.5129 98.4109 85.5129 100.211 85.5129C100.511 87.0129 100.511 88.413 100.211 89.813Z" fill="#6E7B85"/>
<path d="M68.811 117.113C68.811 115.313 68.711 113.413 68.811 111.613C68.811 110.113 69.711 109.213 71.011 109.213C72.211 109.213 73.011 110.213 73.111 111.613C73.111 113.413 73.111 115.313 73.111 117.113C71.711 117.313 70.211 117.313 68.811 117.113Z" fill="#6E7B85"/>
<path d="M30.4109 7.01294C33.9109 7.01294 37.3109 7.01294 40.8109 7.01294C42.5109 7.01294 43.6109 7.81304 43.6109 9.11304C43.6109 10.613 42.8109 11.313 40.9109 11.313C33.9109 11.313 26.8109 11.313 19.8109 11.313C17.9109 11.313 17.2109 10.713 17.2109 9.11304C17.2109 7.61304 17.9109 7.01294 19.8109 7.01294C23.4109 7.01294 26.9109 7.01294 30.4109 7.01294Z" fill="#DD4E4F"/>
<path d="M54.1108 7.01295C55.1108 7.01295 56.0108 7.01295 57.0108 7.01295C58.5108 7.01295 59.5108 7.91315 59.5108 9.21315C59.5108 10.4131 58.5108 11.313 57.1108 11.313C55.1108 11.313 53.0108 11.313 51.0108 11.313C49.7108 11.313 48.6108 10.3131 48.6108 9.21315C48.6108 8.01315 49.7108 7.11295 51.1108 7.01295C52.1108 6.91295 53.1108 7.01295 54.1108 7.01295Z" fill="#DD4E4F"/>
<path d="M70.3111 94.2132C68.2111 94.1132 66.2111 92.9131 65.1111 90.4131C64.0111 88.0131 64.3111 85.7132 66.0111 83.7132C67.8111 81.6132 70.1111 80.8131 72.7111 81.6131C73.6111 81.9131 74.2111 81.713 74.8111 81.013C77.1111 78.713 79.4111 76.4131 81.7111 74.1131C83.1111 72.7131 84.3111 72.6131 85.3111 73.6131C86.3111 74.6131 86.1111 75.7131 84.8111 77.1131C82.5111 79.5131 80.1111 81.8131 77.7111 84.1131C77.1111 84.7131 76.8111 85.1131 77.1111 86.1131C78.4111 90.1131 75.3111 94.2132 70.3111 94.2132Z" fill="#6E7B85"/>
<path d="M71.011 85.613C72.311 85.613 73.211 86.6131 73.111 87.9131C73.011 89.2131 72.111 90.0129 70.811 90.0129C69.611 89.9129 68.811 89.013 68.811 87.813C68.811 86.413 69.711 85.513 71.011 85.613Z" fill="#DDECF2"/>
</svg>
