<svg width="182" height="150" viewBox="0 0 182 150" fill="none" xmlns="http://www.w3.org/2000/svg">
<path d="M162.7 38.5C164.5 36.7 166.3 34.8 168.1 33C169.2 31.9 170.6 31.8 171.7 32.9C175.1 36.3 178.7 39.5999 181.9 43.1999C181.9 47.1999 181.9 51.2999 181.9 55.2999C180.1 57.0999 178.4 58.9999 176.6 60.6999C175.8 61.4999 175.5 62.1999 175.5 63.2999C175.5 71.4999 175.5 79.7 175.5 87.9C175.1 88.3 174.7 88.4 174.2 88.4C171 88.4 167.8 88.5999 164.6 88.2999C164.4 88.1999 164.2 88.1 164.1 88C163.6 87.3 163.7 86.4 163.7 85.6C163.7 76.5 163.7 67.3999 163.7 58.2999C163.7 56.4999 164.3 54.9999 165.5 53.6999C167 52.1999 168.3 50.5 169.7 48.9C170.4 48.1 170.3 47.4 169.6 46.6C167.7 44.6 165.9 42.5 163.9 40.5C163.3 40 162.5 39.5 162.7 38.5Z" fill="#7B97CD"/>
<path d="M0.1 87.9C0.1 81.5 0 75.1 0 68.7C0 58.7 0 48.7 0 38.7C0 36 0.8 35.2 3.5 35.2C10.2 35.2 17 35.2 23.7 35.2C24.6 36 24.3 37.1 24.3 38C24.3 47.8 24.3 57.6 24.3 67.5C24.3 68.3 24.3 68.9999 24.4 69.7999C24.6 70.8999 25.3 71.6 26.4 71.6C27.5 71.6 28.1 70.9 28.3 69.9C28.5 69.1 28.5 68.4 28.5 67.6C28.5 63.3 28.5 59.0999 28.5 54.7999C28.5 53.9999 28.4 53.1 28.9 52.4C30.6 51.3 32.4 51.8 34.2 51.9C43.7 52.3 53 54.3 62.3 56.6C68.7 58.2 75.3 58.8 81.9 59.1C83.3 59.5 84.7 59.2999 86.1 59.2999C87.3 59.2999 87.8 58.7 87.8 57.5C87.9 56 87.8 54.4 87.8 52.9C87.7 51 87.7 49.1999 87.8 47.2999C87.8 45.2999 87.7 43.2999 87.8 41.2999C87.8 39.4999 87.7 37.8 87.9 36C88 35.7 88.1 35.3 88.4 35.1C95 35.1 101.6 35.1 108.2 35.1C109.5 35.1 110.6 35.4 111.5 36.4C113.2 38.3 115 40.1 116.8 41.9C117.3 42.8 117.3 43.7 117.3 44.6C117.3 58.1 117.3 71.6 117.3 85.2C117.3 86.1 117.4 86.9999 116.9 87.7999C116 88.4999 114.9 88.2999 113.8 88.2999C101.4 88.2999 89 88.2999 76.6 88.2999C76 88.2999 75.4 88.2999 74.8 88.2999C73.8 88.2999 73.3 88.7999 73.3 89.7999C73.3 90.3999 73.3 91 73.3 91.6C73.3 103.2 73.3 114.8 73.3 126.4C73.3 127.4 73.5 128.4 72.8 129.3C71.9 129.3 72 128.6 71.9 128.1C71.8 127.3 71.8 126.6 71.8 125.8C71.8 114.3 71.8 102.8 71.8 91.2999C71.8 88.2999 71.8 88.2999 68.7 88.2999C46.9 88.2999 25 88.2999 3.2 88.2999C2.2 88.4999 1 88.7 0.1 87.9Z" fill="#7B97CD"/>
<path d="M72.8998 129.5C72.8998 116.1 72.8998 102.8 72.7998 89.4C72.7998 87.8 73.6998 87.9 74.6998 87.9C88.0998 87.9 101.4 87.9 114.8 87.9C115.5 87.9 116.2 87.9 116.9 87.9C117.5 87.4 118.2 87.4 118.9 87.4C123.7 87.4 128.6 87.4 133.4 87.4C134.1 87.4 134.8 87.4 135.4 87.9C136 88.7 135.9 89.6 135.9 90.5C135.9 102.7 135.9 114.8 135.9 127C135.9 127.4 135.9 127.7 135.9 128.1C135.9 129.3 135.3 129.8 134 129.8C129.5 129.7 125 129.7 120.5 129.8C117.5 129.8 114.5 129.6 111.5 130C109.9 133.5 109.9 133.5 112.6 136.3C115.1 138.8 115.1 139.8 112.6 142.3C110.6 144.3 108.5 146.4 106.5 148.5C105.7 149.4 104.7 149.8 103.5 149.7C101.1 149.7 98.7998 149.6 96.3998 149.7C94.9998 149.7 93.8998 149.2 92.9998 148.2C87.2998 142.5 81.6998 136.8 75.9998 131.1C75.4998 130.6 74.9998 130.3 74.4998 129.8C73.9998 129.5 73.3998 129.9 72.8998 129.5Z" fill="#556CB3"/>
<path d="M72.8999 129.5C73.4999 129.7 74.0999 129.4 74.5999 129.8C71.2999 129.8 67.9999 129.8 64.6999 129.8C57.4999 129.8 50.3999 129.8 43.1999 129.8C41.4999 129.8 40.1999 129.3 38.8999 128C26.4999 115.5 13.9999 103 1.49993 90.6C0.699931 89.8 -0.100069 89.1 0.0999312 87.9C23.4999 87.9 46.7999 87.9 70.1999 87.9C72.4999 87.9 72.4999 87.9 72.4999 90.2C72.4999 102.6 72.4999 115 72.4999 127.5C72.4999 128.1 72.1999 128.9 72.8999 129.5Z" fill="#80BCE7"/>
<path d="M135.3 88C129.2 88 123 87.9 116.9 87.9C116.9 72.6 116.9 57.4 116.9 42.1C121.3 46.3 125.7 50.6 129.7 55.1C131.5 57.1 133.3 58 136.2 58.2C141.1 58.5 144.6 57 147.9 53.4C152.5 48.2 157.7 43.5 162.7 38.6C165.2 41.3 167.7 44.1 170.3 46.7C171.1 47.5 171.3 48 170.4 49C168.5 50.9 166.8 53.1 165 55.1C164.3 55.9 164.2 56.9 164.2 57.9C164.2 67.9 164.2 78 164.2 88C163.7 88.6 162.9 88.6 162.2 88.6C153.9 88.6 145.7 88.6 137.4 88.6C136.6 88.5 135.9 88.4 135.3 88Z" fill="#80BCE7"/>
<path d="M135.3 88C144.1 88 152.9 88 161.8 88C162.6 88 163.3 88 164.1 87.9L164.2 88C164.6 88.4 164.6 89 164.6 89.5C164.6 92.5 164.6 95.5 164.6 98.5C164.6 99.6 164.2 100.4 163.4 101.2C161.4 103.2 159.7 105.5 157.6 107.4C156.5 108.4 156 109.7 156 111.2C156.1 113.1 156.1 115.1 156 117C155.9 118.8 156.5 120.2 157.6 121.5C159.4 123.7 161.2 125.9 162.9 128.1C163.7 129.1 163.7 130.1 162.9 131.1C161.4 133.1 159.9 135.1 158.4 137C158 137.5 157.7 138.1 156.8 137.9C154.3 135.5 151.8 133.1 149.3 130.6C148.6 129.9 147.9 129.6 147 129.6C135.1 129.7 123.2 129.7 111.4 129.7C111.9 129.1 112.6 129.3 113.2 129.3C120 129.3 126.8 129.3 133.6 129.3C134.6 129.3 135.2 129.2 135.2 127.9C135.3 114.7 135.3 101.3 135.3 88Z" fill="#7B97CD"/>
<path d="M157 138C159.5 135.7 161.1 132.7 163.2 130.1C163.7 129.6 163.2 129.1 162.9 128.7C160.7 125.9 158.5 123.1 156.3 120.4C155.8 119.7 155.6 119.1 155.6 118.3C155.6 115.6 155.7 113 155.6 110.3C155.6 109.1 156 108.3 156.8 107.5C159 105.3 161.1 102.9 163.3 100.7C164 100 164.2 99.2999 164.2 98.2999C164.2 94.7999 164.2 91.2999 164.2 87.7999C168 87.7999 171.7 87.7999 175.5 87.7999C175.5 92.9999 175.5 98.2 175.6 103.4C175.6 104.4 175.1 105.2 174.4 105.9C172.4 107.9 170.4 109.9 168.4 111.9C167.6 112.6 167.5 113.4 167.4 114.4C166.7 118.9 168 122.4 171.8 125.1C173.2 126 173.4 127.5 173.6 129.1C174.3 134.3 172.5 138 168.6 141.4C164.2 145.1 164.4 145.4 160.3 141.3C159 140.3 157.8 139.4 157 138Z" fill="#556CB3"/>
<path d="M29.2 9.40002C36.5 9.50002 43.8 10.2 50.9 11.6C51.1 11.6 51.3 11.8 51.5 11.9C52.4 13.5 51.9 15.3 52 17.1C52.1 17.7 52 18.4 52 19C52 20.8 52.1 22.6 52 24.4C51.9 26.5 52.4 28.6999 51.6 30.7999C50.9 31.3999 50.2 31.2 49.4 31.1C43.2 30 36.9 29.5 30.7 29.2C30.1 29.2 29.4 29.2 28.9 28.6C28.5 28 28.5 27.3 28.5 26.5C28.5 21.6 28.5 16.6 28.5 11.7C28.6 10.9 28.5 10 29.2 9.40002Z" fill="#556CB3"/>
<path d="M29.2001 9.40002C29.2001 15.8 29.2001 22.2 29.2001 28.7C30.1001 30.4 29.6001 32.2 29.7001 34C29.7001 36.1 29.8001 38.2 29.7001 40.4C29.7001 42.2 29.7001 43.9999 29.7001 45.7999C29.6001 47.9999 30.2001 50.3 29.2001 52.5C29.2001 57.9 29.2001 63.3999 29.1001 68.7999C29.1001 69.4999 29.1001 70.2 28.8001 70.9C28.3001 72.1 27.4001 72.6 26.1001 72.5C24.8001 72.4 24.0001 71.7 23.8001 70.4C23.7001 69.8 23.7001 69.2 23.7001 68.6C23.7001 58.2 23.7001 47.8 23.7001 37.4C23.7001 36.7 23.7001 35.9999 23.6001 35.2999C23.6001 24.8999 23.6001 14.5 23.7001 4.09998C23.7001 1.19998 24.5001 0 26.4001 0C28.2001 0 29.0001 1.3 29.0001 4C29.1001 5.8 29.2001 7.60002 29.2001 9.40002Z" fill="#423A73"/>
<path d="M51.6001 19C51.6001 16.6 51.6001 14.1999 51.6001 11.7999C56.0001 12.7999 60.5001 13.8 64.9001 14.7C70.7001 15.9 76.6001 16.4 82.5001 16.7C83.5001 19 83.0001 21.3 82.8001 23.6C82.7001 23.8 82.6001 24 82.4001 24.1C80.0001 24.7 77.6001 24.1 75.2001 23.9C67.7001 23.3 60.5001 21.4 53.2001 19.7C52.5001 19.7 52.0001 19.5 51.6001 19Z" fill="#EF4050"/>
<path d="M82.3999 23.9C82.3999 21.5 82.3999 19.0999 82.3999 16.6999C83.9999 16.3999 85.4999 16.5999 87.0999 16.6999C88.0999 16.7999 88.3999 17.5 88.3999 18.4C88.3999 20.2 88.3999 22 88.3999 23.9C86.3999 24.8 84.3999 24.9 82.3999 23.9Z" fill="#E81F5B"/>
<path d="M88.5002 35.3C88.5002 35.5 88.4002 35.8 88.4002 36C86.3002 37.1 84.3002 36.3 82.3002 35.7C81.7002 33.5 81.6002 31.4 82.4002 29.3C84.4002 28.6 86.5002 28.3 88.4002 29.5C88.4002 31.4 88.5002 33.3 88.5002 35.3Z" fill="#E71F5C"/>
<path d="M88.4002 29.4C86.4002 29.4 84.4002 29.3999 82.4002 29.2999C82.3002 29.1999 82.3002 29.1 82.2002 29.1C81.8002 27.4 81.5002 25.7 82.4002 24V23.9C84.4002 23.9 86.4002 23.9 88.4002 23.9C88.4002 25.8 88.4002 27.6 88.4002 29.4Z" fill="#D4D4EA"/>
<path d="M29.2002 52.4C29.2002 50.1 29.2002 47.8 29.2002 45.6C31.7002 44.7 34.3002 45.1999 36.9002 45.2999C45.7002 45.7999 54.1002 47.9 62.7002 49.9C68.6002 51.3 74.6002 51.9 80.6002 52.2C81.2002 52.2 81.8002 52.2 82.3002 52.5C82.5002 52.6 82.6002 52.8 82.7002 53C83.2002 54.8 83.0002 56.6 82.9002 58.4C82.9002 58.9 82.9002 59.6 82.0002 59.6C73.8002 59.7 65.8002 58.2 57.9002 56.2C48.4002 53.8 38.9002 52.4 29.2002 52.4Z" fill="#EF4050"/>
<path d="M82 59.5C82.9 58.5 82.3 57.2999 82.4 56.1999C82.5 55.0999 82.4 54 82.4 52.9C84.4 51.6 86.4 52.4999 88.4 53.0999C88.4 54.7999 88.4 56.3999 88.4 58.0999C88.4 59.4999 87.8 60.1 86.5 60C85 59.7 83.4 60.1 82 59.5Z" fill="#E71E5B"/>
<path d="M88.4002 41.4C88.4002 43.4 88.4002 45.4 88.4002 47.5C86.4002 48.3 84.4002 48.3 82.4002 47.5C81.6002 45.5 81.7002 43.4 82.3002 41.4C84.3002 40.6 86.4002 40.5 88.4002 41.4Z" fill="#E71E5B"/>
<path d="M88.3998 41.4001C86.3998 41.4001 84.3998 41.4001 82.3998 41.4001C81.8998 41.7001 81.4998 41.8 81.2998 41.1C81.6998 40.4 81.8998 39.8 81.9998 39C82.0998 37.6 81.9998 36.5 80.1998 36.5C79.7998 36.5 78.9998 36.5 79.4998 35.6C80.4998 35.2 81.5998 35.1 82.4998 35.8C84.4998 35.9 86.4998 36 88.4998 36.1C88.3998 37.8 88.3998 39.6001 88.3998 41.4001Z" fill="#D4D3EA"/>
<path d="M82.4002 47.4C84.4002 47.4 86.4002 47.5 88.4002 47.5C88.4002 49.4 88.4002 51.2 88.4002 53.1C86.4002 53 84.4002 53 82.4002 52.9V52.7999C81.5002 51.0999 81.8002 49.4 82.2002 47.7C82.3002 47.5 82.3002 47.4 82.4002 47.4Z" fill="#D4D3EA"/>
<path d="M79.2002 35.7999C79.4002 35.8999 79.6002 36 79.8002 36.1C80.6002 36.3 81.9002 35.7 82.2002 36.5C82.6002 37.8 82.4002 39.3 82.3002 40.6C82.3002 41.1 81.7002 41 81.3002 41.1C79.9002 41.9 78.3002 41.6 76.8002 41.5C70.2002 41 63.7002 39.8 57.3002 38.2C50.0002 36.4 42.6002 35 34.9002 34.7C33.0002 34.6 31.0002 34.9 29.2002 33.9C29.2002 32.1 29.2002 30.4 29.2002 28.6C36.3002 28.6 43.3002 29.2 50.3002 30.6C50.7002 30.7 51.1002 30.7 51.5002 30.7C52.3002 30.3 53.0002 30.6999 53.8002 30.7999C60.1002 32.1999 66.4002 33.9 72.9002 34.6C74.5002 34.8 76.1002 34.8 77.7002 35.1C78.2002 35.3 78.8002 35.1999 79.2002 35.7999Z" fill="#EAE9F5"/>
<path d="M79.2 35.8C69.8 35.3 60.6 33.1 51.5 30.8C51.5 28.7 51.6 26.6 51.6 24.5C52.4 23.9 53.2 24.4 53.9 24.5C59.6 25.8 65.2 27.2 71 28C74.2 28.4 77.3 28.5001 80.5 28.9001C81.1 29.0001 81.8 28.9001 82.4 29.4001V29.5C82.4 31.6 82.4 33.7001 82.4 35.9001C81.3 35.7001 80.3 35.8 79.2 35.8Z" fill="#EF4050"/>
<path d="M82.4001 29.2C74.2001 29.1 66.2001 27.9 58.3001 25.9C56.1001 25.4 53.8001 24.8999 51.6001 24.2999C51.6001 22.4999 51.6001 20.7 51.6001 18.9C57.4001 20 63.2001 21.7 69.1001 22.6C73.5001 23.3 78.0001 23.5 82.5001 23.9C82.4001 25.8 82.4001 27.5 82.4001 29.2Z" fill="#EAE9F4"/>
<path d="M29.2001 33.9C40.3001 33.8 51.0001 36 61.7001 38.6C68.1001 40.2 74.7001 41 81.3001 41C81.7001 41.1 82.0001 41.1999 82.4001 41.2999C82.4001 43.2999 82.4001 45.2999 82.4001 47.2999V47.4C81.5001 48 80.5001 47.8999 79.5001 47.7999C72.2001 47.2999 65.1001 46.1 58.0001 44.4C49.2001 42.2 40.3001 40.6999 31.2001 40.7999C30.5001 40.7999 29.6001 40.8999 29.1001 40.1999C29.2001 38.0999 29.2001 36 29.2001 33.9Z" fill="#EF4050"/>
<path d="M29.2002 40.1999C40.2002 40.0999 50.9002 41.9999 61.6002 44.6999C68.4002 46.3999 75.4002 47.1 82.5002 47.5C82.5002 49.2 82.5002 50.9999 82.5002 52.6999C74.2002 52.6999 66.0002 51.3999 58.0002 49.2999C48.6002 46.8999 39.0002 45.4 29.3002 45.5C29.2002 43.8 29.2002 41.9999 29.2002 40.1999Z" fill="#EAE9F5"/>
</svg>
