<svg width="167" height="170" viewBox="0 0 167 170" fill="none" xmlns="http://www.w3.org/2000/svg">
<path d="M67.9999 88.6C66.9999 85.3 64.4999 82.8 62.7999 79.9C54.5999 65.8 46.2999 51.9 38.0999 37.8C36.4999 35.1 34.8999 32.4 33.6999 29.6C31.1999 23.6 34.3999 16.6 39.9999 14.2C45.1999 12 50.1999 12.8 54.1999 17C56.0999 18.9 57.0999 21.5 58.4999 23.8C65.7999 36.1 73.0999 48.5 80.2999 60.9C83.7999 66.9 87.2999 72.9 90.7999 78.9C90.9999 79.3 91.2999 79.6 91.7999 80.5C91.2999 78.3 90.9999 76.6 90.5999 75C87.8999 64.9 85.1999 54.8 82.5999 44.7C80.9999 38.7 79.5999 32.6 78.0999 26.6C76.9999 22.3 75.5999 18 75.0999 13.6C74.4999 9 76.3999 5.2 79.9999 2.5C83.3999 1.66893e-06 87.1999 -0.499998 91.2999 0.800002C91.3999 0.800002 91.4999 1.1 91.5999 1.3C92.7999 3.6 93.2999 6.1 93.9999 8.6C97.9999 23.3 102.2 38 106.3 52.7C108.6 61 110.9 69.3 113.3 77.6C113.6 78.6 114.1 79.6 114.6 80.5C116.6 84 118.7 87.5 120.8 91C121.7 92.5 121.5 93.6 120.2 94.8C110.6 104 106.6 115.5 107 128.6C107.2 134.7 108.8 140.7 112.1 146.1C112.4 146.5 112.6 147 112.9 147.4C113.7 148.5 114.7 148.8 115.9 148C117 147.3 117 146.2 116.4 145.2C115 142.9 114.1 140.5 113.3 138C109.6 126.8 111 116.3 116.7 106.1C119.2 101.7 122.8 98.3 126.5 94.9C127 94.4 127.7 94.2 128.4 93.9C130.3 93 131.8 91.7 132.5 89.6C133.5 88.6 134 87.4 134.3 86C135.4 80.2 136.6 74.3 137.5 68.5C139 59.1 143.2 51.6 151.4 46.6C155.3 44.2 159.1 44.1 162.8 47C162.8 49.3 162.3 51.5 161.7 53.7C158.6 65.4 156.2 77.3 153.1 89C149.8 101.6 147.4 114.4 144 127C141.3 137.2 135.4 145.6 127.1 152.1C118.3 159 108.3 162.8 97.0999 162.8C82.8999 162.7 71.3999 156.8 62.1999 146C59.5999 143 57.9999 139.4 55.6999 136.2C50.6999 129.2 44.7999 123.2 37.5999 118.5C29.4999 113.3 20.8999 109 12.4999 104.2C8.8999 102.1 5.0999 100.2 1.4999 98C0.999895 97.7 0.299896 97.4 0.0998959 96.7C-0.000104125 93.6 1.6999 91.5 3.9999 89.7C8.9999 85.8 13.7999 87.4 18.5999 90.2C24.8999 93.9 31.2999 97.4 37.6999 101.1C41.8999 103.5 45.9999 106 50.1999 108.4C50.6999 108.7 51.2999 109.3 51.7999 108.4C52.7999 108.3 53.5999 110.1 54.6999 108.6C55.6999 107.2 55.6999 105.5 54.3999 104.1C50.8999 100.2 47.0999 96.7 43.3999 93.1C37.1999 86.7 30.9999 80.3 24.4999 74C21.0999 70.7 17.6999 67.3 14.2999 64C11.1999 61 9.39989 57.3 9.79989 52.9C9.99989 50.1 10.9999 47.5 13.4999 45.8C17.7999 43.4 21.7999 44.7 25.1999 47.5C28.1999 49.9 30.7999 52.9 33.4999 55.6C43.6999 65.6 53.7999 75.6 63.9999 85.6C65.2999 86.9 66.4999 88.4 68.0999 89.4C68.6999 89.1 68.1999 88.8 67.9999 88.6Z" fill="#FEE4CC"/>
<path d="M0.399978 96.7C7.19998 100.5 14.1 104.4 20.9 108.2C25.7 110.9 30.6 113.4 35.3 116.2C42.6 120.5 48.8 126.2 54.1 132.8C57.9 137.6 60.4 143.2 64.7 147.7C68.8 152 73.4 155.4 78.6 158C83.8 160.6 89.4 161.8 95.1 162.1C100.6 162.4 105.9 161.6 111.1 160C119.5 157.4 126.6 152.8 132.5 146.4C138.1 140.4 142.1 133.5 143.9 125.4C144.7 121.8 145.7 118.2 146.6 114.6C148.7 105.9 150.7 97.2 152.8 88.5C154.6 80.8 156.6 73.2 158.4 65.5C159.8 59.4 161.2 53.4 162.6 47.3C162.6 47.1 162.8 46.9 162.9 46.8C166.1 49.6 167.1 52.9 166.1 57.1C163.2 68.9 160.7 80.7 157.7 92.5C154.8 104.1 152.3 115.8 149.5 127.5C146.3 140.4 139.2 150.4 128 157.6C123 160.8 117.9 164 112.4 166.2C106.4 168.7 100.1 169.9 93.6 169.4C87.4 169 81.4 167.5 75.8 164.8C69.1 161.5 63.5 156.8 59.3 150.6C53.7 142.3 48.1 134 39.9 127.9C35.1 124.3 29.9 121.5 24.8 118.6C18.6 115.1 12.6 111.4 6.29998 108C2.29998 105.9 0.299979 102.8 0.0999785 98.4C0.0999785 97.9 -2.22623e-05 97.2 0.399978 96.7Z" fill="#F8CFAD"/>
<path d="M132.7 89.5C133.2 92 131.2 93.3 129.7 93.9C125.5 95.7 122.8 99 120.1 102.2C116.3 106.8 113.8 112.2 112.7 118.2C111.3 126 111.8 133.5 115.1 140.8C115.8 142.3 116.4 143.7 117.3 145.1C118.1 146.6 117.6 147.8 116.3 148.5C115 149.2 113.7 149.2 112.8 147.7C108.7 141.3 107 134.3 106.7 126.7C106.4 120.6 107.8 114.8 109.9 109.3C112 103.7 115.2 98.5 119.9 94.5C121.3 93.3 121.4 92.4 120.4 91C118.2 87.5 116.1 83.8 113.9 80.2C112.5 77.8 112 75.1 111.3 72.6C109.3 65.1 107.1 57.6 105.1 50.1C102 38.7 98.9 27.4 95.7 16C94.6 11.9 93.3 7.8 92.1 3.8C91.9 3 91.6 2.2 91.7 1.3C96 2.7 98.1 5.9 99.3 10.2C102.2 20.9 105.2 31.6 108.2 42.2C111 52.3 113.7 62.5 116.5 72.7C117.8 77.3 120.8 80.9 123 85.1C123.5 86 124 86.8 124.5 87.6C126.5 91 129.3 91.6 132.7 89.5Z" fill="#F8CFAD"/>
<path d="M13.3998 45.8C8.59983 51.4 8.99983 58.1 14.5998 63.6C22.7998 71.8 31.0998 80 39.4998 88.2C44.6998 93.3 49.9998 98.3 54.9998 103.5C56.0998 104.7 56.4998 105.9 56.0998 107.3C55.7998 108.3 55.4998 109.6 54.2998 109.8C53.1998 110 52.6998 108.8 51.9998 108.2C41.5998 98 31.1998 87.7 20.7998 77.4C16.1998 72.9 11.1998 68.8 7.39983 63.6C2.59983 57.1 6.09983 47.7 13.3998 45.8Z" fill="#F8CFAD"/>
<path d="M68 88.6C68.6 89 68.8 89.6 69 90.4C68.3 90.4 68.2 89.9 68.1 89.5C68.1 89.1 68.1 88.8 68 88.6Z" fill="#FFF3EB"/>
</svg>
