<svg width="1299" height="975" viewBox="0 0 1299 975" fill="none" xmlns="http://www.w3.org/2000/svg">
<path fill-rule="evenodd" clip-rule="evenodd" d="M768.668 200.706C710.544 182.524 657.365 237.847 599.306 256.237C538.272 275.57 453.562 256.488 420.15 311.101C386.434 366.21 433.894 435.416 451.686 497.522C464.795 543.282 488.448 581.588 509.824 624.119C537.763 679.712 543.087 751.731 595.943 784.555C652.956 819.961 734.231 833.723 791.804 799.235C849.094 764.916 843.368 681.356 870.265 620.228C890.639 573.924 929.076 535.405 930.147 484.828C931.246 432.93 901.788 387.965 876.139 342.835C846.054 289.901 826.776 218.883 768.668 200.706Z" stroke="#A3D7EC"/>
<path fill-rule="evenodd" clip-rule="evenodd" d="M736.288 278.417C693.933 265.168 655.181 305.482 612.874 318.883C568.398 332.971 506.669 319.066 482.322 358.863C457.753 399.02 492.337 449.451 505.302 494.708C514.855 528.054 532.091 555.967 547.667 586.96C568.027 627.471 571.907 679.951 610.423 703.87C651.969 729.671 711.194 739.699 753.147 714.568C794.895 689.559 790.723 628.668 810.323 584.124C825.169 550.382 853.178 522.313 853.959 485.458C854.76 447.64 833.293 414.873 814.603 381.987C792.68 343.414 778.632 291.663 736.288 278.417Z" stroke="#A3D7EC"/>
<path fill-rule="evenodd" clip-rule="evenodd" d="M706.203 351.07C678.722 342.474 653.58 368.63 626.13 377.325C597.273 386.466 557.222 377.444 541.425 403.265C525.484 429.32 547.923 462.04 556.335 491.404C562.533 513.039 573.716 531.15 583.823 551.259C597.032 577.543 599.55 611.593 624.54 627.112C651.495 643.852 689.921 650.359 717.142 634.053C744.229 617.827 741.521 578.32 754.238 549.419C763.871 527.526 782.044 509.315 782.55 485.402C783.07 460.865 769.142 439.605 757.015 418.268C742.791 393.241 733.677 359.664 706.203 351.07Z" stroke="#A3D7EC"/>
</svg>
