<svg width="54" height="54" viewBox="0 0 54 54" fill="none" xmlns="http://www.w3.org/2000/svg">
<path fill-rule="evenodd" clip-rule="evenodd" d="M38.5715 26.9994C38.5715 22.739 42.0253 19.2852 46.2858 19.2852C50.5463 19.2852 54.0001 22.739 54.0001 26.9994C54.0001 31.2599 50.5463 34.7137 46.2858 34.7137C42.0253 34.7137 38.5715 31.2599 38.5715 26.9994Z" fill="#4EA5D9"/>
<path fill-rule="evenodd" clip-rule="evenodd" d="M0 26.9994C0 22.739 3.45381 19.2852 7.71429 19.2852C11.9748 19.2852 15.4286 22.739 15.4286 26.9994C15.4286 31.2599 11.9748 34.7137 7.71429 34.7137C3.45381 34.7137 0 31.2599 0 26.9994Z" fill="#4EA5D9"/>
<path fill-rule="evenodd" clip-rule="evenodd" d="M19.2856 46.2866C19.2856 42.0261 22.7394 38.5723 26.9999 38.5723C31.2604 38.5723 34.7142 42.0261 34.7142 46.2866C34.7142 50.547 31.2604 54.0008 26.9999 54.0008C22.7394 54.0008 19.2856 50.547 19.2856 46.2866Z" fill="#3DBFD9"/>
<path fill-rule="evenodd" clip-rule="evenodd" d="M19.2856 7.71429C19.2856 3.45381 22.7394 0 26.9999 0C31.2604 0 34.7142 3.45381 34.7142 7.71429C34.7142 11.9748 31.2604 15.4286 26.9999 15.4286C22.7394 15.4286 19.2856 11.9748 19.2856 7.71429Z" fill="#3DBFD9"/>
</svg>
