<svg width="1105" height="1105" viewBox="0 0 1105 1105" fill="none" xmlns="http://www.w3.org/2000/svg">
<path fill-rule="evenodd" clip-rule="evenodd" d="M679.58 269.227C621.993 249.41 567.272 303.209 508.718 319.952C447.162 337.553 363.025 316.085 328.082 369.732C292.823 423.866 338.309 494.386 354.34 556.97C366.151 603.082 388.712 642.04 408.878 685.159C435.236 741.519 438.523 813.659 490.43 847.964C546.42 884.966 627.274 901.019 685.798 868.171C744.035 835.484 740.672 751.795 769.285 691.452C790.959 645.742 830.469 608.324 832.968 557.797C835.533 505.951 807.357 460.172 782.993 414.335C754.416 360.573 737.152 289.039 679.58 269.227Z" stroke="#74E1CE"/>
<path fill-rule="evenodd" clip-rule="evenodd" d="M645.018 345.992C603.054 331.552 563.179 370.755 520.51 382.956C475.654 395.781 414.343 380.138 388.88 419.231C363.187 458.679 396.333 510.067 408.014 555.672C416.621 589.274 433.061 617.663 447.756 649.084C466.963 690.153 469.359 742.722 507.184 767.72C547.984 794.684 606.902 806.382 649.549 782.445C691.987 758.626 689.536 697.642 710.387 653.669C726.181 620.36 754.972 593.094 756.793 556.275C758.662 518.494 738.13 485.135 720.375 451.733C699.551 412.556 686.971 360.429 645.018 345.992Z" stroke="#74E1CE"/>
<path fill-rule="evenodd" clip-rule="evenodd" d="M612.893 417.766C585.666 408.397 559.794 433.833 532.11 441.749C503.006 450.071 463.226 439.921 446.706 465.285C430.035 490.879 451.541 524.221 459.12 553.81C464.704 575.612 475.371 594.031 484.905 614.418C497.367 641.064 498.922 675.172 523.463 691.391C549.935 708.886 588.162 716.476 615.832 700.945C643.367 685.491 641.777 645.923 655.305 617.393C665.552 595.781 684.233 578.09 685.414 554.202C686.627 529.689 673.305 508.045 661.786 486.373C648.275 460.954 640.113 427.133 612.893 417.766Z" stroke="#74E1CE"/>
</svg>
