<svg width="607" height="625" viewBox="0 0 607 625" fill="none" xmlns="http://www.w3.org/2000/svg">
<path fill-rule="evenodd" clip-rule="evenodd" d="M407.431 526.645C447.458 502.426 442.649 443.673 461.586 400.894C481.494 355.921 535.559 316.853 521.107 269.843C506.524 222.405 442.542 214.536 397.736 193.197C364.723 177.474 330.64 171.612 295.282 162.29C249.066 150.105 204.893 116.546 159.115 130.285C109.736 145.105 60.4807 184.901 51.059 235.587C41.6835 286.026 92.7062 325.223 114.223 371.795C130.521 407.073 133.152 448.792 161.727 475.129C191.049 502.154 231.919 508.06 270.946 516.243C316.722 525.841 367.415 550.857 407.431 526.645Z" stroke="#CDD7F0"/>
<path fill-rule="evenodd" clip-rule="evenodd" d="M385.923 462.55C415.091 444.901 411.587 402.088 425.386 370.915C439.893 338.143 479.29 309.674 468.759 275.417C458.132 240.85 411.509 235.115 378.858 219.565C354.801 208.107 329.965 203.836 304.199 197.043C270.521 188.164 238.332 163.709 204.974 173.721C168.991 184.52 133.099 213.52 126.233 250.455C119.401 287.21 156.581 315.773 172.261 349.71C184.137 375.418 186.055 405.818 206.877 425.01C228.244 444.703 258.026 449.007 286.466 454.97C319.823 461.964 356.763 480.194 385.923 462.55Z" stroke="#CDD7F0"/>
<path fill-rule="evenodd" clip-rule="evenodd" d="M361.638 404.61C380.563 393.159 378.289 365.382 387.242 345.155C396.654 323.893 422.216 305.421 415.383 283.195C408.489 260.767 378.238 257.046 357.054 246.957C341.446 239.523 325.331 236.752 308.614 232.344C286.763 226.583 265.879 210.717 244.235 217.212C220.889 224.219 197.601 243.035 193.146 266.999C188.714 290.846 212.837 309.378 223.01 331.398C230.716 348.077 231.96 367.802 245.47 380.254C259.333 393.031 278.656 395.823 297.108 399.692C318.751 404.23 342.718 416.058 361.638 404.61Z" stroke="#CDD7F0"/>
</svg>
