<svg width="641" height="663" viewBox="0 0 641 663" fill="none" xmlns="http://www.w3.org/2000/svg">
<g opacity="0.4">
<mask id="mask0" mask-type="alpha" maskUnits="userSpaceOnUse" x="16" y="18" width="609" height="626">
<path fill-rule="evenodd" clip-rule="evenodd" d="M424.933 545.644C464.96 521.425 460.151 462.673 479.088 419.893C498.995 374.921 553.061 335.852 538.609 288.842C524.026 241.405 460.044 233.536 415.238 212.196C382.225 196.473 348.142 190.611 312.784 181.289C266.567 169.104 222.395 135.545 176.616 149.284C127.238 164.104 77.9824 203.9 68.5608 254.587C59.1852 305.025 110.208 344.222 131.724 390.794C148.023 426.072 150.654 467.791 179.229 494.128C208.551 521.153 249.42 527.06 288.448 535.242C334.224 544.84 384.916 569.856 424.933 545.644Z" stroke="url(#paint0_linear)"/>
<path fill-rule="evenodd" clip-rule="evenodd" d="M403.425 481.549C432.592 463.901 429.088 421.088 442.887 389.914C457.394 357.142 496.792 328.673 486.26 294.416C475.634 259.849 429.01 254.115 396.36 238.564C372.303 227.107 347.467 222.835 321.701 216.042C288.023 207.163 255.834 182.708 222.475 192.72C186.493 203.52 150.6 232.519 143.735 269.455C136.903 306.209 174.083 334.772 189.762 368.71C201.639 394.417 203.556 424.818 224.379 444.01C245.746 463.703 275.528 468.007 303.967 473.969C337.325 480.963 374.264 499.193 403.425 481.549Z" stroke="url(#paint1_linear)"/>
<path fill-rule="evenodd" clip-rule="evenodd" d="M379.14 423.61C398.064 412.16 395.791 384.382 404.744 364.156C414.156 342.893 439.718 324.422 432.885 302.195C425.991 279.767 395.74 276.047 374.556 265.957C358.948 258.523 342.833 255.752 326.116 251.345C304.265 245.584 283.38 229.717 261.737 236.213C238.39 243.22 215.103 262.035 210.648 285.999C206.215 309.846 230.339 328.379 240.512 350.398C248.218 367.077 249.461 386.802 262.972 399.254C276.835 412.031 296.158 414.824 314.61 418.693C336.253 423.23 360.22 435.058 379.14 423.61Z" stroke="url(#paint2_linear)"/>
</mask>
<g mask="url(#mask0)">
<path d="M233 182H70C64.4772 182 60 186.477 60 192V510C60 515.523 64.4772 520 70 520H233C238.523 520 243 515.523 243 510V192C243 186.477 238.523 182 233 182Z" fill="#A3D7EC"/>
</g>
</g>
<defs>
<linearGradient id="paint0_linear" x1="17.5506" y1="241.489" x2="636.628" y2="343.66" gradientUnits="userSpaceOnUse">
<stop stop-color="#4EA5D9"/>
<stop offset="1" stop-color="#3DBFD9"/>
</linearGradient>
<linearGradient id="paint1_linear" x1="106.563" y1="259.911" x2="557.687" y2="334.362" gradientUnits="userSpaceOnUse">
<stop stop-color="#4EA5D9"/>
<stop offset="1" stop-color="#3DBFD9"/>
</linearGradient>
<linearGradient id="paint2_linear" x1="186.531" y1="279.807" x2="479.228" y2="328.113" gradientUnits="userSpaceOnUse">
<stop stop-color="#4EA5D9"/>
<stop offset="1" stop-color="#3DBFD9"/>
</linearGradient>
</defs>
</svg>
