<svg width="609" height="626" viewBox="0 0 609 626" fill="none" xmlns="http://www.w3.org/2000/svg">
<path fill-rule="evenodd" clip-rule="evenodd" d="M408.431 527.645C448.458 503.426 443.649 444.673 462.586 401.894C482.494 356.921 536.559 317.853 522.107 270.843C507.524 223.405 443.542 215.536 398.736 194.197C365.723 178.474 331.64 172.612 296.282 163.29C250.066 151.105 205.893 117.546 160.115 131.285C110.736 146.105 61.4807 185.901 52.059 236.587C42.6835 287.026 93.7062 326.223 115.223 372.795C131.521 408.073 134.152 449.792 162.727 476.129C192.049 503.154 232.919 509.06 271.946 517.243C317.722 526.841 368.415 551.857 408.431 527.645Z" stroke="#FFEA9E"/>
<path fill-rule="evenodd" clip-rule="evenodd" d="M386.923 463.55C416.091 445.901 412.587 403.088 426.386 371.915C440.893 339.143 480.29 310.674 469.759 276.417C459.132 241.85 412.509 236.115 379.858 220.565C355.801 209.107 330.965 204.836 305.199 198.043C271.521 189.164 239.332 164.709 205.974 174.721C169.991 185.52 134.099 214.52 127.233 251.455C120.401 288.21 157.581 316.773 173.261 350.71C185.137 376.418 187.055 406.818 207.877 426.01C229.244 445.703 259.026 450.007 287.466 455.97C320.823 462.964 357.763 481.194 386.923 463.55Z" stroke="#FFEA9E"/>
<path fill-rule="evenodd" clip-rule="evenodd" d="M362.638 405.61C381.563 394.159 379.289 366.382 388.242 346.155C397.654 324.893 423.216 306.421 416.383 284.195C409.489 261.767 379.238 258.046 358.054 247.957C342.446 240.523 326.331 237.752 309.614 233.344C287.763 227.583 266.879 211.717 245.235 218.212C221.889 225.219 198.601 244.035 194.146 267.999C189.714 291.846 213.837 310.378 224.01 332.398C231.716 349.077 232.96 368.802 246.47 381.254C260.333 394.031 279.656 396.823 298.108 400.692C319.751 405.23 343.718 417.058 362.638 405.61Z" stroke="#FFEA9E"/>
</svg>
