<svg xmlns="http://www.w3.org/2000/svg" xmlns:xlink="http://www.w3.org/1999/xlink" viewBox="0 0 555.95 429.61"><defs><style>.cls-1{isolation:isolate;}.cls-2{fill:url(#linear-gradient);}.cls-3{fill:#80b377;}.cls-14,.cls-19,.cls-20,.cls-22,.cls-24,.cls-4{fill:none;}.cls-4{stroke:#2e5e26;stroke-width:0.7px;}.cls-14,.cls-19,.cls-20,.cls-22,.cls-4,.cls-5{stroke-miterlimit:10;}.cls-5{fill:#fff;stroke-width:0.5px;}.cls-19,.cls-24,.cls-5{stroke:#203e87;}.cls-6{fill:#3465d9;}.cls-7{fill:#96b4ff;}.cls-8{fill:#ff9c91;}.cls-9{fill:url(#linear-gradient-2);}.cls-10{fill:url(#linear-gradient-3);}.cls-11{fill:url(#linear-gradient-4);}.cls-12{fill:url(#linear-gradient-5);}.cls-13{fill:#e03726;}.cls-14{stroke:#fff;stroke-width:0.24px;}.cls-15,.cls-18{opacity:0.56;mix-blend-mode:multiply;}.cls-15{fill:url(#linear-gradient-6);}.cls-16{fill:#ffbb10;}.cls-17{fill:#203e87;}.cls-18{fill:url(#linear-gradient-7);}.cls-19{stroke-width:1.99px;}.cls-20{stroke:#ff9c91;stroke-width:1px;}.cls-21{fill:#ff5e00;}.cls-22{stroke:#000;stroke-width:0.89px;}.cls-23{fill:#bfd1ff;}.cls-24{stroke-linecap:round;stroke-linejoin:round;stroke-width:0.96px;}</style><linearGradient id="linear-gradient" x1="260.79" y1="-41.62" x2="116.9" y2="257.6" gradientTransform="translate(145.95 -85.94) rotate(45)" gradientUnits="userSpaceOnUse"><stop offset="0" stop-color="#ffd97a"/><stop offset="1" stop-color="#fff"/></linearGradient><linearGradient id="linear-gradient-2" x1="235.35" y1="245.22" x2="125.85" y2="196.78" gradientUnits="userSpaceOnUse"><stop offset="0.19" stop-color="#ff9c91"/><stop offset="0.61" stop-color="#f88b7f"/><stop offset="1" stop-color="#f27c6f"/></linearGradient><linearGradient id="linear-gradient-3" x1="86.65" y1="250.03" x2="119.14" y2="250.03" gradientUnits="userSpaceOnUse"><stop offset="0.19" stop-color="#ff9c91"/><stop offset="1" stop-color="#f27c6f"/></linearGradient><linearGradient id="linear-gradient-4" x1="392.64" y1="259.69" x2="451.26" y2="351.96" xlink:href="#linear-gradient-3"/><linearGradient id="linear-gradient-5" x1="457.28" y1="339.58" x2="364.88" y2="331.85" xlink:href="#linear-gradient-2"/><linearGradient id="linear-gradient-6" x1="137.09" y1="270.41" x2="239.4" y2="338.53" gradientUnits="userSpaceOnUse"><stop offset="0.13"/><stop offset="1" stop-color="#fff"/></linearGradient><linearGradient id="linear-gradient-7" x1="3471.19" y1="-403.81" x2="3471.19" y2="-363.44" gradientTransform="matrix(-0.95, 0.3, 0.3, 0.95, 3530.79, -545.99)" xlink:href="#linear-gradient-6"/></defs><title>helping-hand</title><g class="cls-1"><g id="Layer_2" data-name="Layer 2"><g id="Layer_1-2" data-name="Layer 1"><circle class="cls-2" cx="176.71" cy="133.21" r="133.21" transform="translate(-42.44 163.97) rotate(-45)"/><path class="cls-3" d="M516.63,357.71c.38-8.74-53.05,11.55-50.25-7.2,2.88-17.82,20.26-2.91,43.25-6.76C532,340.3,532.42,294.56,528,288c-5-6.68-44.22,9-45.41-3-.94-12.71,39.12-1.83,49.39-9.1,9.65-7,2.24-59-3-63.94-6.16-4.63-27.11,28.57-29.74,13.84-2.42-14.08,20.71-18.7,28.3-25.17,10.24-8.91,5.34-34.08,2.62-47.58-12.9.94-38.17,6.19-42.45,20.88-3.25,10.82,3.32,34.34-9.64,39.44-14.38,5.76,4.79-31.69-1.27-35.31-6.36-4.52-58.26,21.48-59.31,37.77C416.19,231.45,449.29,257,439,264.92,428.3,273.46,416.76,229,408.92,229c-8.46-.4-47.8,44-33.45,65.06,14.08,20.27,37.58,17.94,27.92,35.69-10.55,19.9-38.18-34.4-43.44-26.58-5.93,8.18-22.7,48,3.64,67.1,15.9,11.9,38.67,36,47.15,56.12,16.31-16.2,48.21-26.2,67.82-27.5C510.27,396.33,516.09,365.78,516.63,357.71Z"/><path class="cls-4" d="M524.09,161.76A758.54,758.54,0,0,0,410.74,426.37"/><path class="cls-4" d="M534.93,233.79a274.09,274.09,0,0,1-62.1,15.76"/><path class="cls-4" d="M442.93,190.38s8.83,57.76,20.48,78.79"/><path class="cls-4" d="M530.16,304.61s-41.79,7.94-84.64,6.57"/><path class="cls-4" d="M386.39,249.55s33.81,75.16,50,86.11"/><path class="cls-4" d="M516,362.59s-51.84,13.84-91.58,10.33"/><path class="cls-4" d="M353,318.05s29.45,48.1,65.15,77.33"/><polygon class="cls-5" points="110.59 429.17 98.22 429.17 138.35 363.5 155.8 363.5 110.59 429.17"/><polygon class="cls-5" points="155.52 429.17 143.15 429.17 183.28 363.5 200.72 363.5 155.52 429.17"/><polygon class="cls-5" points="529.47 429.17 541.84 429.17 501.71 363.5 484.26 363.5 529.47 429.17"/><polygon class="cls-5" points="484.54 429.17 496.91 429.17 456.78 363.5 439.33 363.5 484.54 429.17"/><path class="cls-6" d="M255.54,343.55,150.38,151a16.5,16.5,0,0,0-14.48-8.6h-125a10.86,10.86,0,0,0-9.53,16.06L105.94,350a44.72,44.72,0,0,0,39.27,23.3h357a18.85,18.85,0,0,0,18.84-18.84V343.55Z"/><polygon class="cls-7" points="5.33 165.77 158.44 165.77 156.65 162.5 3.54 162.5 5.33 165.77"/><polygon class="cls-7" points="182.13 209.14 180.34 205.87 27.23 205.87 29.02 209.14 182.13 209.14"/><polygon class="cls-7" points="170.28 187.45 168.5 184.18 15.38 184.18 17.17 187.45 170.28 187.45"/><polygon class="cls-7" points="217.67 274.21 215.88 270.94 62.77 270.94 64.55 274.21 217.67 274.21"/><polygon class="cls-7" points="193.98 230.83 192.19 227.56 39.08 227.56 40.86 230.83 193.98 230.83"/><polygon class="cls-7" points="205.82 252.52 204.04 249.25 50.92 249.25 52.71 252.52 205.82 252.52"/><polygon class="cls-8" points="359.09 172.02 451.05 335.83 430.96 335.83 353.89 235.2 359.09 172.02"/><path class="cls-8" d="M162.19,189.27l46.38,38.37,49.55-33.85a17.86,17.86,0,0,0,7.65-12.48l1.74-13.6,8.23,10.18,15.95-17.82s12.54,22.71-22.46,37.77L221,247.71a20.7,20.7,0,0,1-26.91,2.43l-40-28.69Z"/><path class="cls-9" d="M196.49,217.64l-34.3-28.37L154,221.45l40,28.69a20.45,20.45,0,0,0,5.33,2.66C198.8,243.06,197.63,229.67,196.49,217.64Z"/><path class="cls-8" d="M113.76,263.27l-19.24-12.9-19.6,55.34,74,16.82s10.63,21.71,7.92,24.43-13.67-9.08-17.1-18.19l-74.25-3.53A13.84,13.84,0,0,1,52.77,308L80.08,200.41l43.06-7.85S139.54,244.55,113.76,263.27Z"/><path class="cls-10" d="M127,240.41l-.05,0c-13.64-7.93-28.5-1.83-32.44,10l19.24,12.9C121.31,257.79,125.22,249.46,127,240.41Z"/><polygon class="cls-11" points="401.01 296.72 430.96 335.83 451.05 335.83 412.17 266.57 401.01 296.72"/><path class="cls-8" d="M340.46,348.24H529.13a7.18,7.18,0,0,0,6.74-4.69c3.64-9.82,11.47-31.64,9.07-31.33-1.91.25-7.76,9.19-12,16A14.37,14.37,0,0,1,519.4,335L350.64,312.22Z"/><polygon class="cls-12" points="391.15 317.68 350.64 312.22 340.46 348.24 377.91 348.24 391.15 317.68"/><path class="cls-13" d="M149,295.94s-7.14,52.3,55.54,52.3H358s12.62-23.81,11.81-46.6-3.11-31.76,0-53.33c6.88-47.22-.65-67-16.73-83L202.52,282.11a3.93,3.93,0,0,1-5.66-.89l-3.35-4.94Z"/><path class="cls-14" d="M154,298.38s10.58,37.45,45.18,37.45h165.1"/><path class="cls-15" d="M202.52,282.11a3.93,3.93,0,0,1-5.66-.89l-3.35-4.94L149,295.94s-4.33,31.76,23.43,45.78c27.25-18.67,38.24-55.08,41.46-68.4Z"/><path class="cls-16" d="M105.59,188.07s28.34,24.43,3.92,73.28l37.23,27.5,45.59-19L177.64,230.4s12.86-17.68-14.28-40.18a31.32,31.32,0,0,0-24.42-6.92Z"/><polygon class="cls-16" points="191.65 269.92 199.21 281.42 144.66 307.1 146.74 288.85 191.65 269.92"/><path class="cls-8" d="M130.81,103.34,146,137.77a8.1,8.1,0,0,1-4,10.62l-7.29,3.39a7.16,7.16,0,0,0-3.8,8.61l7.5,24s-8.82,10.79-26.7,8.33l-9.36-30S85.82,138.63,87.6,119.41,127.32,95.45,130.81,103.34Z"/><path class="cls-17" d="M119.5,109.46c5.82,18.67,4.62,28.12-3.22,40.41s-2.21,21.17,1.33,32.51c2.8,9,.56,23.42-11.25,27.1L63.83,222.74C53.43,226,41.4,225.65,49.21,210s30.06-60.73,29.88-83.75Z"/><path class="cls-18" d="M75.61,146.74c2.18-7.68,3.53-14.79,3.48-20.53l8.4-3.48a30.44,30.44,0,0,1,.11-3.32c1.78-19.22,39.72-24,43.21-16.07l4.35,9.82Z"/><path class="cls-16" d="M159.9,97.67a125.12,125.12,0,0,0-14.46,1,30.29,30.29,0,0,1-28.39-12.54l-.11-.17a12.64,12.64,0,0,0-15.4-4.32l-27,11.79a12.65,12.65,0,0,0-7.3,14.23l.33,1.56a29.86,29.86,0,0,1-7.94,27.56c-2.5,2.45-4.93,5.06-7.26,7.83Z"/><line class="cls-19" x1="144.66" y1="289.7" x2="193.51" y2="269.62"/><path class="cls-20" d="M250.35,138.76h10.19a2.52,2.52,0,0,1,2.37,1.64l8.95,23.73"/><path class="cls-16" d="M290.72,155.34a8.86,8.86,0,1,1-8.85-8.86A8.85,8.85,0,0,1,290.72,155.34Z"/><path class="cls-21" d="M287.69,155.28a5.75,5.75,0,1,1-5.75-5.75A5.75,5.75,0,0,1,287.69,155.28Z"/><path class="cls-17" d="M280.8,174.69l14.47-19.41h-37l14.48,19.41a12.14,12.14,0,0,1,2.41,7.28v14a6,6,0,0,1-4.32,5.73l-12.57,3.61h37l-12.57-3.61a6,6,0,0,1-4.32-5.73V182A12.15,12.15,0,0,1,280.8,174.69Z"/><line class="cls-22" x1="24.64" y1="429.17" x2="555.95" y2="429.17"/><path class="cls-23" d="M498.42,95.62h-1.08a19.68,19.68,0,0,0-16.81-15.68A42.55,42.55,0,0,0,399,67.84a28.46,28.46,0,0,0-37.52,27c0,.26,0,.51,0,.77h-7.83a16.94,16.94,0,1,0,0,33.88H498.42a16.94,16.94,0,0,0,0-33.88Z"/><path class="cls-24" d="M366,17.57c-8.69-8.41-14.62,1-14.62,1s-5.92-9.45-14.62-1"/><path class="cls-24" d="M334.65,63.67c-8.69-8.4-14.62,1-14.62,1s-5.93-9.44-14.62-1"/></g></g></g></svg>