<svg width="836" height="838" viewBox="0 0 836 838" fill="none" xmlns="http://www.w3.org/2000/svg">
<path fill-rule="evenodd" clip-rule="evenodd" d="M496.029 196.369C451.148 185.075 413.181 229.337 369.923 245.788C324.448 263.083 259.357 252.25 236.357 295.123C213.148 338.385 252.134 388.85 268.306 435.205C280.221 469.359 299.815 497.404 317.863 528.753C341.453 569.729 348.591 624.141 390.106 646.771C434.885 671.18 497.141 678.124 539.338 649.481C581.328 620.977 573.387 557.826 591.164 510.29C604.63 474.283 632.134 443.404 630.77 404.985C629.371 365.562 605.086 332.715 583.684 299.578C558.581 260.712 540.899 207.66 496.029 196.369Z" stroke="#FFEA9E"/>
<path fill-rule="evenodd" clip-rule="evenodd" d="M474.807 256.722C442.102 248.492 414.436 280.746 382.914 292.734C349.776 305.337 302.344 297.443 285.583 328.685C268.671 360.21 297.08 396.984 308.864 430.763C317.547 455.651 331.825 476.088 344.977 498.932C362.167 528.791 367.369 568.441 397.621 584.932C430.252 602.719 475.618 607.779 506.367 586.906C536.965 566.136 531.179 520.117 544.133 485.478C553.945 459.239 573.988 436.738 572.994 408.741C571.974 380.014 554.278 356.078 538.682 331.931C520.389 303.609 507.504 264.95 474.807 256.722Z" stroke="#FFEA9E"/>
<path fill-rule="evenodd" clip-rule="evenodd" d="M415.107 313.138C393.888 307.799 375.937 328.726 355.485 336.504C333.984 344.681 303.21 339.559 292.335 359.829C281.362 380.283 299.795 404.143 307.44 426.059C313.074 442.208 322.338 455.467 330.871 470.289C342.024 489.662 345.399 515.388 365.027 526.087C386.199 537.628 415.633 540.911 435.584 527.368C455.436 513.892 451.682 484.034 460.087 461.56C466.453 444.535 479.457 429.936 478.813 411.772C478.151 393.133 466.669 377.602 456.55 361.936C444.682 343.56 436.322 318.477 415.107 313.138Z" stroke="#FFEA9E"/>
</svg>
