<svg xmlns="http://www.w3.org/2000/svg" xmlns:xlink="http://www.w3.org/1999/xlink" viewBox="0 0 305.37 279.94"><defs><style>.cls-1{isolation:isolate;}.cls-2{fill:url(#linear-gradient);}.cls-3{fill:url(#linear-gradient-2);}.cls-4{fill:url(#linear-gradient-3);}.cls-5{fill:#bfd1ff;}.cls-6{fill:#80b377;}.cls-11,.cls-16,.cls-19,.cls-33,.cls-34,.cls-35,.cls-7,.cls-8{fill:none;}.cls-7,.cls-8{stroke:#2e5e26;}.cls-11,.cls-16,.cls-19,.cls-33,.cls-34,.cls-7,.cls-8{stroke-miterlimit:10;}.cls-7{stroke-width:0.69px;}.cls-8{stroke-width:0.75px;}.cls-9{fill:#3465d9;}.cls-10{fill:#203e87;}.cls-11{stroke:#96b4ff;}.cls-11,.cls-16,.cls-19{stroke-width:0.24px;}.cls-12,.cls-17,.cls-24,.cls-25,.cls-29,.cls-30{opacity:0.56;mix-blend-mode:multiply;}.cls-12{fill:url(#linear-gradient-4);}.cls-13{fill:#ff9c91;}.cls-14{fill:url(#linear-gradient-5);}.cls-15{fill:url(#linear-gradient-6);}.cls-16{stroke:#fff;}.cls-17{fill:url(#linear-gradient-7);}.cls-18{fill:#3ea6c6;}.cls-19{stroke:#b3830b;}.cls-20{fill:#e03726;}.cls-21{fill:#5dcbf4;}.cls-22{fill:#96b4ff;}.cls-23{fill:url(#linear-gradient-8);}.cls-24{fill:url(#linear-gradient-9);}.cls-25{fill:url(#linear-gradient-10);}.cls-26{fill:url(#linear-gradient-11);}.cls-27{fill:url(#linear-gradient-12);}.cls-28{fill:#ffbb10;}.cls-29{fill:url(#linear-gradient-13);}.cls-30{fill:url(#linear-gradient-14);}.cls-31{fill:url(#linear-gradient-15);}.cls-32{fill:url(#linear-gradient-16);}.cls-33,.cls-35{stroke:#203e87;}.cls-33,.cls-34,.cls-35{stroke-width:0.96px;}.cls-34{stroke:#000;}.cls-35{stroke-linecap:round;stroke-linejoin:round;}</style><linearGradient id="linear-gradient" x1="85.83" y1="-43.62" x2="85.83" y2="166.22" gradientTransform="translate(69.81 -42.19) rotate(45)" gradientUnits="userSpaceOnUse"><stop offset="0" stop-color="#ffd97a"/><stop offset="1" stop-color="#fff"/></linearGradient><linearGradient id="linear-gradient-2" x1="210.51" y1="-13.14" x2="210.51" y2="131.89" gradientTransform="translate(235.76 -156.95) rotate(80.54)" xlink:href="#linear-gradient"/><linearGradient id="linear-gradient-3" x1="22.63" y1="207.53" x2="239.5" y2="207.53" gradientUnits="userSpaceOnUse"><stop offset="0" stop-color="#bfd1ff"/><stop offset="1" stop-color="#fff"/></linearGradient><linearGradient id="linear-gradient-4" x1="260.18" y1="142.77" x2="260.18" y2="268.18" gradientUnits="userSpaceOnUse"><stop offset="0.13"/><stop offset="1" stop-color="#fff"/></linearGradient><linearGradient id="linear-gradient-5" x1="102.22" y1="211.04" x2="102.22" y2="166.25" gradientUnits="userSpaceOnUse"><stop offset="0.19" stop-color="#ff9c91"/><stop offset="1" stop-color="#f27c6f"/></linearGradient><linearGradient id="linear-gradient-6" x1="70.65" y1="211.04" x2="70.65" y2="166.25" xlink:href="#linear-gradient-5"/><linearGradient id="linear-gradient-7" x1="89.49" y1="101.86" x2="89.49" y2="152.17" xlink:href="#linear-gradient-4"/><linearGradient id="linear-gradient-8" x1="94.22" y1="54.83" x2="94.22" y2="43.97" xlink:href="#linear-gradient-5"/><linearGradient id="linear-gradient-9" x1="94.22" y1="17.37" x2="94.22" y2="40.61" xlink:href="#linear-gradient-4"/><linearGradient id="linear-gradient-10" x1="133.61" y1="73.56" x2="152.5" y2="74.59" xlink:href="#linear-gradient-4"/><linearGradient id="linear-gradient-11" x1="170.33" y1="242.39" x2="165.88" y2="207.41" xlink:href="#linear-gradient-5"/><linearGradient id="linear-gradient-12" x1="224.5" y1="235.51" x2="220.05" y2="200.52" xlink:href="#linear-gradient-5"/><linearGradient id="linear-gradient-13" x1="199.46" y1="109.87" x2="199.46" y2="139.23" xlink:href="#linear-gradient-4"/><linearGradient id="linear-gradient-14" x1="198.26" y1="34.72" x2="198.26" y2="49.53" xlink:href="#linear-gradient-4"/><linearGradient id="linear-gradient-15" x1="142.29" y1="23.63" x2="166.96" y2="23.63" xlink:href="#linear-gradient-5"/><linearGradient id="linear-gradient-16" x1="251.12" y1="5.09" x2="218.21" y2="54.23" xlink:href="#linear-gradient-5"/></defs><title>hero-main-xs</title><g class="cls-1"><g id="Layer_2" data-name="Layer 2"><g id="Layer_1-2" data-name="Layer 1"><circle class="cls-2" cx="85.83" cy="63.17" r="61.04" transform="translate(-19.53 79.2) rotate(-45)"/><circle class="cls-3" cx="210.51" cy="60.67" r="42.19" transform="translate(116.08 258.35) rotate(-80.54)"/><path class="cls-4" d="M22.63,279.29,133,144.76a24.57,24.57,0,0,1,40.93,4.51l65.62,130Z"/><path class="cls-5" d="M56.15,279.29,193.35,112a22.67,22.67,0,0,1,39.36,8.26l44.56,159Z"/><path class="cls-6" d="M11.12,223.86c-.21-4.86,29.49,6.42,27.94-4C37.45,210,27.79,218.24,15,216.1c-12.45-1.92-12.67-27.35-10.19-31,2.78-3.72,24.58,5,25.24-1.69.52-7.07-21.75-1-27.45-5.07-5.37-3.91-1.25-32.81,1.68-35.54,3.43-2.57,15.08,15.88,16.54,7.69,1.34-7.82-11.52-10.39-15.73-14-5.7-5-3-19-1.46-26.45,7.17.53,21.22,3.44,23.6,11.61,1.8,6-1.85,19.09,5.36,21.93,8,3.2-2.67-17.62.7-19.64,3.54-2.51,32.39,11.94,33,21,.69,8.7-17.71,22.93-12,27.31,5.94,4.75,12.36-20,16.72-20,4.7-.23,26.57,24.48,18.59,36.17-7.82,11.26-20.89,10-15.52,19.83,5.87,11.07,21.23-19.12,24.15-14.77,3.3,4.55,12.62,26.65-2,37.3-8.84,6.62-21.5,20-26.22,31.2-9.06-9-26.8-14.57-37.69-15.29C14.66,245.33,11.42,228.35,11.12,223.86Z"/><path class="cls-7" d="M7,114.93A421.94,421.94,0,0,1,73.19,278.31"/><path class="cls-7" d="M1,155a152.25,152.25,0,0,0,34.52,8.76"/><path class="cls-7" d="M52.09,130.84S47.18,163,40.7,174.64"/><path class="cls-7" d="M3.6,194.34s23.23,4.41,47.05,3.65"/><path class="cls-7" d="M83.52,163.73S64.72,205.51,55.7,211.6"/><path class="cls-7" d="M11.48,226.57s28.82,7.7,50.91,5.74"/><path class="cls-7" d="M102.08,201.81s-16.37,26.74-36.22,43"/><path class="cls-6" d="M284.49,220.94c.23-5.31-32.22,7-30.53-4.38,1.75-10.82,12.31-1.76,26.27-4.1,13.61-2.1,13.85-29.88,11.14-33.86-3-4-26.86,5.45-27.58-1.85-.57-7.72,23.76-1.11,30-5.53,5.87-4.27,1.36-35.85-1.84-38.83-3.74-2.82-16.47,17.35-18.07,8.4-1.47-8.55,12.58-11.36,17.19-15.29,6.22-5.41,3.24-20.7,1.6-28.9-7.84.57-23.19,3.76-25.79,12.68-2,6.58,2,20.87-5.86,24-8.73,3.5,2.91-19.25-.77-21.45-3.86-2.74-35.39,13-36,23-.75,9.5,19.35,25,13.09,29.84-6.49,5.18-13.5-21.83-18.26-21.84-5.14-.24-29,26.75-20.32,39.52,8.55,12.31,22.83,10.9,17,21.68-6.41,12.09-23.19-20.9-26.38-16.15-3.6,5-13.79,29.13,2.21,40.76,9.65,7.23,23.48,21.88,28.64,34.09,9.9-9.84,29.28-15.91,41.19-16.7C280.63,244.39,284.16,225.84,284.49,220.94Z"/><path class="cls-8" d="M289,101.35a460.72,460.72,0,0,0-72.35,178.53"/><path class="cls-8" d="M295.61,145.1a166.45,166.45,0,0,1-37.73,9.57"/><path class="cls-8" d="M239.72,118.74s5.37,35.08,12.44,47.86"/><path class="cls-8" d="M292.71,188.12s-25.39,4.82-51.42,4"/><path class="cls-8" d="M205.37,154.67s20.55,45.66,30.4,52.31"/><path class="cls-8" d="M284.09,223.34s-31.49,8.41-55.62,6.27"/><path class="cls-8" d="M185.1,196.29s17.89,29.21,39.57,47"/><circle class="cls-9" cx="254.96" cy="273.97" r="4.35"/><circle class="cls-9" cx="293.09" cy="273.97" r="4.35"/><rect class="cls-10" x="228.57" y="168.77" width="75.81" height="102.42" rx="11.76" ry="11.76"/><path class="cls-11" d="M268.19,168.77h18.36a11.77,11.77,0,0,1,11.77,11.77v78.89a11.76,11.76,0,0,1-11.77,11.76H263.72"/><rect class="cls-12" x="228.57" y="168.77" width="63.23" height="102.42" rx="11.76" ry="11.76"/><rect class="cls-10" x="228.57" y="217.06" width="63.23" height="20.81"/><rect class="cls-10" x="241.34" y="137.74" width="4.77" height="79.08"/><rect class="cls-10" x="274.26" y="137.98" width="4.77" height="79.08"/><path class="cls-9" d="M239.72,133.51V138h8v-4.22a2.16,2.16,0,0,1,2.16-2.16h20.58a2.16,2.16,0,0,1,2.16,2.16V138h8v-4.47a5.76,5.76,0,0,0-5.76-5.76H245.48A5.76,5.76,0,0,0,239.72,133.51Z"/><circle class="cls-9" cx="240.24" cy="273.97" r="4.35"/><path class="cls-9" d="M282.72,274a4.35,4.35,0,1,1-4.35-4.35A4.34,4.34,0,0,1,282.72,274Z"/><line class="cls-11" x1="291.8" y1="182.57" x2="291.8" y2="257.73"/><path class="cls-13" d="M64.55,173.35,47.64,266.83s-10.15,13.06-5.8,13.06H57.5c3.19,0-2.32-16-2.32-16l24.37-90.58Z"/><path class="cls-13" d="M110.06,168.4l2.41,94.71a11.54,11.54,0,0,0,6.1,9.88l10.35,5.52a.73.73,0,0,1-.34,1.38h-28.4a2.12,2.12,0,0,1-1.83-3.2l4.12-7a6.89,6.89,0,0,0,.9-4.14L93.69,168.4Z"/><polygon class="cls-14" points="93.69 168.4 96.19 193.55 110.75 195.56 110.06 168.4 93.69 168.4"/><polygon class="cls-15" points="64.55 173.35 61.76 188.78 74.91 190.6 79.55 173.35 64.55 173.35"/><polygon class="cls-10" points="70.39 122.75 60.15 182.34 80.32 182.34 87.87 155.18 90.05 182.34 113.26 182.34 111.79 122.75 70.39 122.75"/><line class="cls-16" x1="72.47" y1="129.21" x2="62.93" y2="182.34"/><polygon class="cls-17" points="112.15 137.36 111.79 122.75 70.39 122.75 66.84 143.43 112.15 137.36"/><path class="cls-10" d="M128.92,278.51,118.57,273a11.48,11.48,0,0,1-5.19-5.71l-4.06,2.22-6.12-1.68a7,7,0,0,1-.73,1.84l-4.12,7a2.12,2.12,0,0,0,1.83,3.2h28.4A.73.73,0,0,0,128.92,278.51Z"/><path class="cls-10" d="M41.84,279.89H57.5c3.19,0-2.32-16-2.32-16l-7.54,2.9S37.49,279.89,41.84,279.89Z"/><rect class="cls-18" x="58.64" y="55.77" width="50" height="72.97" rx="6.32" ry="6.32"/><line class="cls-19" x1="58.64" y1="67.17" x2="106.9" y2="67.17"/><path class="cls-13" d="M110.81,63.17l15.91,36.59L139.3,82.25l6.42,2.62s-13.07,27.45-19.61,27.45S109,87.65,109,87.65Z"/><path class="cls-20" d="M110.81,63.17,109,87.65s2.62,5.86,4.69,10l7.65-10.22Z"/><path class="cls-20" d="M75.89,60.67h29.76A6.58,6.58,0,0,1,112.23,67l2.22,59.32a4.61,4.61,0,0,1-4.61,4.77H69.36a3.31,3.31,0,0,1-3.28-3.76Z"/><path class="cls-21" d="M112.23,67a6.58,6.58,0,0,0-6.58-6.36h-.89s5.88,26.93,8.5,36.38Z"/><path class="cls-21" d="M83.56,60.67H75.89l-7.6,51.65C92.6,95.39,85,69.05,83.56,60.67Z"/><polygon class="cls-22" points="145.38 54 118.16 51.57 114.01 97.94 141.23 100.37 154.86 94.93 159 48.55 145.38 54"/><polygon class="cls-5" points="116.94 95.49 120.61 54.49 145.78 56.74 155.92 52.69 152.32 93.04 140.83 97.63 116.94 95.49"/><path class="cls-6" d="M135.29,74.46c-.17-4.87-10.06-10.87-15.24-13.69L118.8,74.72C126.32,76.72,135.42,78.35,135.29,74.46Z"/><path class="cls-6" d="M151,61.84c-2.44,2.11,1.34,7.57-1.55,11.62s-17.68,11.61-15,16c1.68,2.74,11.49-.16,18.48-2.66L155.09,62C153.75,61.26,152.15,60.81,151,61.84Z"/><path class="cls-13" d="M106.83,44.79V40.64a2.17,2.17,0,0,1,1.64-2.11l1.39-.36-3-5.69V27.64H86.26l.48,19.66V59a1.63,1.63,0,0,1-1.63,1.63H83.6s8.71,13.56,15.61,13.56,4.17-13.5,4.17-13.5h0a3.39,3.39,0,0,1-3.2-3.38V49.5a1.59,1.59,0,0,1,1.59-1.59h2A3.12,3.12,0,0,0,106.83,44.79Z"/><path class="cls-23" d="M94.86,43.19l-8.2.86.08,3.25v8.47h13.44V49.5a1.59,1.59,0,0,1,1.59-1.59C95,47.91,94.86,43.19,94.86,43.19Z"/><path d="M93.55,33.35A3.31,3.31,0,0,1,97,34.81c.91-5.11,1.2-9.41,1.2-9.41L87.35,28.61l-6.23.55c0,15.49,5.62,18.14,5.62,18.14a7.14,7.14,0,0,0,8.12-4.11C92.05,41.56,91.12,33.85,93.55,33.35Z"/><path class="cls-13" d="M75.89,60.67c-6.82,0-8.35,12.22-6.17,29.65,1,7.82,2.15,14.36,3.15,19.18a6.42,6.42,0,0,0,9.9,4l33.9-23a12.54,12.54,0,0,1,5.5-8,6.23,6.23,0,0,0,2.88-6.12l-.51-4.23s-7.63,2.3-12.53,12.35c-.29.61-28.37,15.73-28.37,15.73s-1.21-15.85-1.82-23S81.09,60.67,75.89,60.67Z"/><path class="cls-20" d="M66.57,84.87H83.64s.11-24.2-7.75-24.2C62.58,60.67,66.57,84.87,66.57,84.87Z"/><path class="cls-24" d="M106.83,32.48V27.64H98c.14-1.37.2-2.24.2-2.24l-7.56,2.24H86.26l0,1.06-5.17.46c0,1.76.08,3.33.21,4.77l26-.55Z"/><path class="cls-10" d="M119.65,28.15a51.15,51.15,0,0,0-5.58-1.32,12,12,0,0,1-9.25-8.09l0-.08a5,5,0,0,0-5.31-3.44l-11.6,1.27A5,5,0,0,0,83.44,21l0,.63a11.8,11.8,0,0,1-6.25,9.48,41.22,41.22,0,0,0-3.67,2.11Z"/><polygon class="cls-25" points="145.38 54 141.23 100.37 154.86 94.93 159 48.55 145.38 54"/><line class="cls-19" x1="62.93" y1="67.17" x2="62.93" y2="128.74"/><path class="cls-13" d="M160.58,198.48l-20.18,68a5.23,5.23,0,0,1-6.09,3.65c-2.61-.55-5.54-1.29-6.69-2.06-2.75-1.85-5,0-1.63,2.93s14,10.08,16.16,8.69,2.26-7.17,2.26-7.17l31.2-72.91Z"/><path class="cls-13" d="M211.67,198.48l20.52,70.28a3.79,3.79,0,0,1-2.4,4.65c-3.69,1.27-9.3,3.22-11.35,4-3.14,1.16,4.6,2.52,12.83,2.52s10-.06,9.89-3.5c-.11-2.54-2.39-5.61-2.39-5.61l-11.61-72.3Z"/><path class="cls-10" d="M229.8,273.41h0c-3.69,1.27-9.3,3.22-11.35,4-3.14,1.16,4.6,2.51,12.83,2.51s10-.05,9.89-3.49a8.51,8.51,0,0,0-1-3.22A30.51,30.51,0,0,1,229.8,273.41Z"/><path class="cls-10" d="M137,270a5.18,5.18,0,0,1-2.66.16c-2.61-.55-5.54-1.29-6.69-2.06-2.75-1.85-5,0-1.63,2.93s14,10.08,16.16,8.69c1.53-1,2-4.14,2.19-5.92A14.41,14.41,0,0,1,137,270Z"/><polygon class="cls-26" points="175.61 199.63 160.58 198.49 156 213.93 168.94 215.21 175.61 199.63"/><polygon class="cls-27" points="211.67 198.49 217.97 220.06 230.83 221.33 227.16 198.49 211.67 198.49"/><path class="cls-13" d="M179.31,85.05,144.22,14.71a8.61,8.61,0,0,1-.89-3.79V5.36l-1-1.78,7-3.4a1.82,1.82,0,0,1,2.52,1.06l.11.32a6,6,0,0,1-.2,4.26l-1.9,4.35a4.24,4.24,0,0,0,.24,3.9L165,39l21.5,28.31,6.15.88L194,83Z"/><path class="cls-13" d="M215.28,85.05l35.08-70.34a8.49,8.49,0,0,0,.9-3.79V5.36l1-1.78-7-3.4a1.81,1.81,0,0,0-2.51,1.06l-.11.32a6,6,0,0,0,.2,4.26l1.9,4.35a4.24,4.24,0,0,1-.24,3.9L229.62,39l-21.5,28.31L202,68.2,200.55,83Z"/><path class="cls-28" d="M202.3,68.2h-9.68c-4.23,12.49-13.31,16.85-13.31,16.85l6.4,20.39a3.37,3.37,0,0,0,3.21,2.36H206a3.39,3.39,0,0,0,3.22-2.36l6.39-20.39S206.54,80.69,202.3,68.2Z"/><path class="cls-20" d="M186.63,112l-28.9,96h84.61s-8.23-12.34-10.17-23-4.35-12.59-8.71-19.85-8.08-30.73-9.12-37.27-8.6-15.91-8.6-15.91Z"/><line class="cls-16" x1="205.74" y1="114.64" x2="228.7" y2="207.97"/><path class="cls-29" d="M215.78,136.48c-.65-3.69-1.15-6.81-1.44-8.62-1-6.53-8.6-15.91-8.6-15.91h-19.1l-3.51,11.64Z"/><polygon class="cls-28" points="211.79 118.86 183.13 118.86 187.91 107.8 207.02 107.8 211.79 118.86"/><path class="cls-13" d="M186.45,39l-1.57,13.72A3,3,0,0,0,187.43,56l2.92.4A2.61,2.61,0,0,1,192.62,59V68.2s4.27,2.81,10.26,0V56.67s3.17-10.25.45-16.79S186.81,35.83,186.45,39Z"/><path class="cls-10" d="M191.08,39.88c0,7.17,1.45,10.35,5.54,13.8s3.08,7.17,3.08,11.52c0,3.45,2.36,8.26,6.9,8.26h16.34c4,0,8.16-1.43,3.72-6.07s-17.16-18-19.61-26.06Z"/><path class="cls-30" d="M210.51,48.14a28.22,28.22,0,0,1-3.46-6.81l-3.31-.3a11.2,11.2,0,0,0-.41-1.15c-2.72-6.53-16.52-4.05-16.88-.91L186,42.89Z"/><path class="cls-28" d="M172.65,40.26A45.17,45.17,0,0,1,177.82,39a11.08,11.08,0,0,0,8.56-7.49l0-.07a4.63,4.63,0,0,1,4.92-3.19l10.75,1.17a4.64,4.64,0,0,1,4.11,4.19l.05.58A10.93,10.93,0,0,0,212,43c1.14.59,2.28,1.23,3.4,2Z"/><path class="cls-31" d="M167,41.63,165,39,150.09,14.07a4.24,4.24,0,0,1-.24-3.9l1.9-4.35a6,6,0,0,0,.2-4.26l-.11-.32A1.82,1.82,0,0,0,149.32.18l-7,3.4,1,1.78v5.56a8.61,8.61,0,0,0,.89,3.79l16.24,32.55Z"/><path class="cls-32" d="M229.62,39l-1.06,1.39L234.78,46l15.58-31.24a8.49,8.49,0,0,0,.9-3.79V5.36l1-1.78-7-3.4a1.81,1.81,0,0,0-2.51,1.06l-.11.32a6,6,0,0,0,.2,4.26l1.9,4.35a4.24,4.24,0,0,1-.24,3.9Z"/><line class="cls-33" x1="187.91" y1="107.8" x2="207.34" y2="107.8"/><line class="cls-34" x1="11.03" y1="279.29" x2="305.37" y2="279.29"/><line class="cls-11" x1="228.57" y1="217.06" x2="291.8" y2="217.06"/><path class="cls-35" d="M267.62,97.74c-4.94-4.78-8.31.6-8.31.6s-3.38-5.38-8.32-.6"/><path class="cls-35" d="M279.93,77.9c-4.94-4.78-8.31.59-8.31.59s-3.38-5.37-8.32-.59"/></g></g></g></svg>