<svg width="32" height="32" viewBox="0 0 32 32" fill="none" xmlns="http://www.w3.org/2000/svg">
<circle cx="16" cy="16" r="16" fill="#E03726"/>
<path d="M10.6978 9C9.67121 9 9 9.67412 9 10.5602C9 11.4266 9.65122 12.12 10.6584 12.12H10.6779C11.7246 12.12 12.376 11.4266 12.376 10.5602C12.3564 9.67412 11.7246 9 10.6978 9V9Z" fill="white"/>
<path d="M9.17725 13.3525H12.1784V22.3817H9.17725V13.3525Z" fill="white"/>
<path d="M19.5448 13.1406C17.9258 13.1406 16.8401 14.662 16.8401 14.662V13.3525H13.8389V22.3817H16.84V17.3395C16.84 17.0695 16.8595 16.8 16.9388 16.607C17.1558 16.068 17.6495 15.5096 18.4786 15.5096C19.5646 15.5096 19.999 16.3376 19.999 17.5514V22.3817H22.9999V17.2046C22.9999 14.4312 21.5192 13.1406 19.5448 13.1406V13.1406Z" fill="white"/>
</svg>
