<svg width="340" height="363" viewBox="0 0 340 363" fill="none" xmlns="http://www.w3.org/2000/svg">
<path fill-rule="evenodd" clip-rule="evenodd" d="M112.202 320.439C140.411 329.263 166.219 302.414 194.396 293.488C224.017 284.106 265.128 293.367 281.343 266.862C297.706 240.117 274.673 206.53 266.038 176.389C259.676 154.181 248.197 135.591 237.823 114.949C224.264 87.9694 221.68 53.0177 196.028 37.0874C168.359 19.9042 128.915 13.2253 100.974 29.9629C73.1696 46.6185 75.9488 87.1718 62.8952 116.838C53.0072 139.31 34.3533 158.004 33.8335 182.55C33.3002 207.737 47.5967 229.559 60.0448 251.461C74.6453 277.151 84.0009 311.617 112.202 320.439Z" stroke="#74E1CE"/>
<path fill-rule="evenodd" clip-rule="evenodd" d="M127.917 282.724C148.472 289.154 167.279 269.589 187.812 263.085C209.396 256.248 239.354 262.996 251.171 243.682C263.094 224.193 246.31 199.718 240.018 177.754C235.382 161.571 227.017 148.024 219.457 132.983C209.576 113.323 207.693 87.8531 189.001 76.2446C168.838 63.7232 140.095 58.8563 119.735 71.053C99.4736 83.19 101.499 112.741 91.9866 134.359C84.7811 150.735 71.1879 164.357 70.8092 182.244C70.4206 200.597 80.8385 216.5 89.9094 232.46C100.549 251.18 107.366 276.295 127.917 282.724Z" stroke="#74E1CE"/>
<path fill-rule="evenodd" clip-rule="evenodd" d="M142.517 247.464C155.854 251.636 168.056 238.942 181.378 234.722C195.383 230.286 214.82 234.665 222.487 222.134C230.223 209.489 219.333 193.609 215.25 179.358C212.242 168.858 206.815 160.069 201.91 150.31C195.499 137.554 194.278 121.029 182.15 113.497C169.068 105.373 150.419 102.215 137.208 110.128C124.063 118.003 125.377 137.177 119.205 151.203C114.53 161.827 105.71 170.666 105.465 182.271C105.213 194.179 111.972 204.497 117.857 214.852C124.76 226.998 129.184 243.294 142.517 247.464Z" stroke="#74E1CE"/>
</svg>
