<svg width="641" height="663" viewBox="0 0 641 663" fill="none" xmlns="http://www.w3.org/2000/svg">
<path fill-rule="evenodd" clip-rule="evenodd" d="M424.432 545.644C464.458 521.426 459.65 462.673 478.586 419.894C498.494 374.921 552.559 335.853 538.107 288.842C523.524 241.405 459.543 233.536 414.737 212.196C381.723 196.473 347.64 190.611 312.282 181.289C266.066 169.105 221.893 135.546 176.115 149.285C126.736 164.105 77.481 203.9 68.0593 254.587C58.6838 305.025 109.706 344.222 131.223 390.795C147.521 426.073 150.152 467.792 178.728 494.129C208.049 521.154 248.919 527.06 287.946 535.243C333.723 544.84 384.415 569.857 424.432 545.644Z" stroke="#A3D7EC"/>
<path fill-rule="evenodd" clip-rule="evenodd" d="M402.923 481.55C432.091 463.901 428.587 421.088 442.386 389.914C456.893 357.143 496.29 328.674 485.759 294.417C475.132 259.849 428.509 254.115 395.858 238.565C371.801 227.107 346.965 222.836 321.199 216.043C287.521 207.164 255.333 182.709 221.974 192.721C185.991 203.52 150.099 232.519 143.233 269.455C136.401 306.21 173.582 334.773 189.261 368.71C201.137 394.417 203.055 424.818 223.878 444.01C245.244 463.703 275.026 468.007 303.466 473.97C336.823 480.964 373.763 499.193 402.923 481.55Z" stroke="#A3D7EC"/>
<path fill-rule="evenodd" clip-rule="evenodd" d="M378.638 423.611C397.563 412.16 395.289 384.382 404.243 364.156C413.655 342.893 439.217 324.422 432.384 302.196C425.489 279.768 395.239 276.047 374.055 265.958C358.446 258.524 342.332 255.752 325.615 251.345C303.764 245.584 282.879 229.717 261.235 236.213C237.889 243.22 214.601 262.035 210.147 286C205.714 309.847 229.837 328.379 240.01 350.398C247.716 367.078 248.96 386.802 262.47 399.254C276.334 412.032 295.657 414.824 314.109 418.693C335.752 423.231 359.719 435.058 378.638 423.611Z" stroke="#A3D7EC"/>
</svg>
