<svg xmlns="http://www.w3.org/2000/svg" xmlns:xlink="http://www.w3.org/1999/xlink" viewBox="0 0 711.1 438.78"><defs><style>.cls-1{fill:url(#linear-gradient);}.cls-2{fill:#80b377;}.cls-3{fill:none;stroke:#2e5e26;stroke-miterlimit:10;stroke-width:0.75px;}.cls-4{fill:url(#linear-gradient-2);}.cls-5{opacity:0.68;}.cls-6{fill:#7d97f4;}.cls-26,.cls-7{fill:#fff;}.cls-8{fill:#e03726;}.cls-9{fill:url(#linear-gradient-3);}.cls-10{fill:url(#linear-gradient-4);}.cls-11{fill:url(#linear-gradient-5);}.cls-12{fill:url(#linear-gradient-6);}.cls-13{fill:url(#linear-gradient-7);}.cls-14{fill:url(#linear-gradient-8);}.cls-15{fill:url(#linear-gradient-9);}.cls-16{fill:#ffbb10;}.cls-17{fill:url(#linear-gradient-10);}.cls-18{fill:url(#linear-gradient-11);}.cls-19{fill:url(#linear-gradient-12);}.cls-20{fill:url(#linear-gradient-13);}.cls-21{fill:url(#linear-gradient-14);}.cls-22{fill:url(#linear-gradient-15);}.cls-23{fill:url(#linear-gradient-16);}.cls-24{fill:url(#linear-gradient-17);}.cls-25{fill:url(#linear-gradient-18);}.cls-26{opacity:0.62;}.cls-27{fill:url(#linear-gradient-19);}.cls-28{fill:url(#linear-gradient-20);}.cls-29{fill:url(#linear-gradient-21);}.cls-30{fill:url(#linear-gradient-22);}.cls-31{fill:url(#linear-gradient-23);}.cls-32{fill:url(#linear-gradient-24);}.cls-33{fill:url(#linear-gradient-25);}.cls-34{fill:url(#linear-gradient-26);}.cls-35{fill:url(#linear-gradient-27);}.cls-36{fill:url(#linear-gradient-28);}.cls-37{fill:url(#linear-gradient-29);}.cls-38{fill:url(#linear-gradient-30);}.cls-39{fill:url(#linear-gradient-31);}.cls-40{fill:url(#linear-gradient-32);}.cls-41{fill:url(#linear-gradient-33);}.cls-42{fill:url(#linear-gradient-34);}.cls-43{fill:url(#linear-gradient-35);}.cls-44{fill:url(#linear-gradient-36);}.cls-45{fill:url(#linear-gradient-37);}.cls-46{fill:url(#linear-gradient-38);}.cls-47{fill:url(#linear-gradient-39);}.cls-48{fill:url(#linear-gradient-40);}.cls-49{fill:url(#linear-gradient-41);}.cls-50{fill:url(#linear-gradient-42);}.cls-51{fill:url(#linear-gradient-43);}.cls-52{fill:url(#linear-gradient-44);}.cls-53{fill:url(#linear-gradient-45);}.cls-54{fill:url(#linear-gradient-46);}.cls-55{fill:url(#linear-gradient-47);}.cls-56{fill:url(#linear-gradient-48);}.cls-57{fill:url(#linear-gradient-49);}.cls-58{fill:url(#linear-gradient-50);}.cls-59{fill:url(#linear-gradient-51);}.cls-60{fill:url(#linear-gradient-52);}.cls-61{fill:url(#linear-gradient-53);}.cls-62{fill:url(#linear-gradient-54);}.cls-63{fill:url(#linear-gradient-55);}.cls-64{fill:url(#linear-gradient-56);}.cls-65{fill:url(#linear-gradient-57);}.cls-66{fill:url(#linear-gradient-58);}.cls-67{fill:url(#linear-gradient-59);}.cls-68{fill:url(#linear-gradient-60);}.cls-69{fill:url(#linear-gradient-61);}.cls-70{fill:url(#linear-gradient-62);}.cls-71{fill:url(#linear-gradient-63);}.cls-72{fill:url(#linear-gradient-64);}.cls-73{fill:#91b3fa;}.cls-74{fill:url(#linear-gradient-65);}.cls-75{fill:url(#linear-gradient-66);}.cls-76{fill:url(#linear-gradient-67);}.cls-77{fill:url(#linear-gradient-68);}.cls-78{fill:url(#linear-gradient-69);}.cls-79{fill:url(#linear-gradient-70);}.cls-80{fill:url(#linear-gradient-71);}.cls-81{fill:url(#linear-gradient-72);}.cls-82{fill:url(#linear-gradient-73);}.cls-83{fill:url(#linear-gradient-74);}.cls-84{fill:#203e87;}.cls-85{fill:url(#linear-gradient-75);}.cls-86{fill:url(#linear-gradient-76);}.cls-87{fill:url(#linear-gradient-77);}.cls-88{fill:url(#linear-gradient-78);}.cls-89{fill:url(#linear-gradient-79);}.cls-90{fill:url(#linear-gradient-80);}.cls-91{fill:url(#linear-gradient-81);}.cls-92{fill:url(#linear-gradient-82);}.cls-93{fill:url(#linear-gradient-83);}.cls-94{fill:url(#linear-gradient-84);}.cls-95{fill:url(#linear-gradient-85);}.cls-96{fill:url(#linear-gradient-86);}.cls-97{fill:url(#linear-gradient-87);}.cls-98{fill:url(#linear-gradient-88);}.cls-99{fill:url(#linear-gradient-89);}.cls-100{fill:url(#linear-gradient-90);}.cls-101{fill:url(#linear-gradient-91);}.cls-102{fill:url(#linear-gradient-92);}.cls-103{fill:url(#linear-gradient-93);}.cls-104{fill:url(#linear-gradient-94);}.cls-105{fill:url(#linear-gradient-95);}.cls-106{fill:url(#linear-gradient-96);}.cls-107{fill:url(#linear-gradient-97);}.cls-108{fill:url(#linear-gradient-98);}.cls-109{fill:url(#linear-gradient-99);}.cls-110{fill:url(#linear-gradient-100);}.cls-111{fill:url(#linear-gradient-101);}.cls-112{fill:url(#linear-gradient-102);}.cls-113{fill:url(#linear-gradient-103);}.cls-114{fill:url(#linear-gradient-104);}.cls-115{fill:url(#linear-gradient-105);}.cls-116{fill:url(#linear-gradient-106);}.cls-117{fill:url(#linear-gradient-107);}.cls-118{fill:url(#linear-gradient-108);}.cls-119{fill:url(#linear-gradient-109);}.cls-120{fill:url(#linear-gradient-110);}.cls-121{fill:url(#linear-gradient-111);}.cls-122{fill:url(#linear-gradient-112);}</style><linearGradient id="linear-gradient" x1="534.62" y1="-57.22" x2="534.62" y2="205.28" gradientTransform="translate(522.09 -463.54) rotate(80.54)" gradientUnits="userSpaceOnUse"><stop offset="0" stop-color="#ffd97a"/><stop offset="1" stop-color="#fff"/></linearGradient><linearGradient id="linear-gradient-2" x1="137.24" y1="156.53" x2="85.46" y2="38.29" gradientTransform="translate(304.29 18.66) rotate(87.49)" gradientUnits="userSpaceOnUse"><stop offset="0" stop-color="#bfd1ff"/><stop offset="1" stop-color="#fff"/></linearGradient><linearGradient id="linear-gradient-3" x1="539.57" y1="426.98" x2="548.86" y2="368.54" gradientUnits="userSpaceOnUse"><stop offset="0" stop-color="#4042e2"/><stop offset="1" stop-color="#4f52ff"/></linearGradient><linearGradient id="linear-gradient-4" x1="543.21" y1="427.41" x2="552.75" y2="367.42" xlink:href="#linear-gradient-3"/><linearGradient id="linear-gradient-5" x1="536.12" y1="426.43" x2="545.41" y2="367.99" xlink:href="#linear-gradient-3"/><linearGradient id="linear-gradient-6" x1="520.25" y1="382.06" x2="468.19" y2="423.9" gradientUnits="userSpaceOnUse"><stop offset="0" stop-color="#ff928e"/><stop offset="1" stop-color="#feb3b1"/></linearGradient><linearGradient id="linear-gradient-7" x1="514.72" y1="409.69" x2="510.22" y2="478.62" xlink:href="#linear-gradient-3"/><linearGradient id="linear-gradient-8" x1="538.58" y1="337.62" x2="497.36" y2="386.59" xlink:href="#linear-gradient-6"/><linearGradient id="linear-gradient-9" x1="471.33" y1="406.86" x2="466.84" y2="475.79" xlink:href="#linear-gradient-3"/><linearGradient id="linear-gradient-10" x1="525.55" y1="274.33" x2="542.9" y2="321.75" xlink:href="#linear-gradient-6"/><linearGradient id="linear-gradient-11" x1="1958.89" y1="2498.85" x2="1979.97" y2="2474.67" gradientTransform="translate(-2560.73 771.75) rotate(-50.15)" xlink:href="#linear-gradient-6"/><linearGradient id="linear-gradient-12" x1="2391.73" y1="2006.1" x2="2343.93" y2="2055.83" gradientTransform="translate(-2560.73 771.75) rotate(-50.15)" gradientUnits="userSpaceOnUse"><stop offset="0" stop-color="#09005d"/><stop offset="1" stop-color="#1a0f91"/></linearGradient><linearGradient id="linear-gradient-13" x1="1964.37" y1="2503.63" x2="1985.45" y2="2479.45" gradientTransform="translate(-2560.73 771.75) rotate(-50.15)" xlink:href="#linear-gradient-6"/><linearGradient id="linear-gradient-14" x1="560.51" y1="299.16" x2="541.29" y2="347.2" xlink:href="#linear-gradient-6"/><linearGradient id="linear-gradient-15" x1="2412.97" y1="2026.53" x2="2365.17" y2="2076.26" xlink:href="#linear-gradient-12"/><linearGradient id="linear-gradient-16" x1="499.62" y1="502.83" x2="461.48" y2="513.29" gradientTransform="translate(28.39 -144.61) rotate(-2.83)" xlink:href="#linear-gradient-12"/><linearGradient id="linear-gradient-17" x1="500.62" y1="308.3" x2="473.56" y2="336.91" gradientTransform="matrix(1, 0, 0, 1, 0, 0)" xlink:href="#linear-gradient-12"/><linearGradient id="linear-gradient-18" x1="152.63" y1="12.81" x2="17.01" y2="217.69" gradientTransform="translate(31.82 -47.76) rotate(24.13)" gradientUnits="userSpaceOnUse"><stop offset="0" stop-color="#fe7062"/><stop offset="1" stop-color="#ff928e"/></linearGradient><linearGradient id="linear-gradient-19" x1="133.88" y1="33.31" x2="67.77" y2="125.58" gradientTransform="matrix(1, 0, 0, 1, 0, 0)" xlink:href="#linear-gradient-18"/><linearGradient id="linear-gradient-20" x1="143.47" y1="40.18" x2="77.35" y2="132.45" gradientTransform="matrix(1, 0, 0, 1, 0, 0)" xlink:href="#linear-gradient-18"/><linearGradient id="linear-gradient-21" x1="58.05" y1="84.04" x2="-77.58" y2="288.93" gradientTransform="matrix(1, 0, 0, 1, 0, 0)" xlink:href="#linear-gradient-18"/><linearGradient id="linear-gradient-22" x1="39.3" y1="104.54" x2="-26.82" y2="196.82" gradientTransform="matrix(1, 0, 0, 1, 0, 0)" xlink:href="#linear-gradient-18"/><linearGradient id="linear-gradient-23" x1="48.88" y1="111.41" x2="-17.24" y2="203.68" gradientTransform="matrix(1, 0, 0, 1, 0, 0)" xlink:href="#linear-gradient-18"/><linearGradient id="linear-gradient-24" x1="238.09" y1="88.4" x2="102.47" y2="293.29" gradientTransform="matrix(1, 0, 0, 1, 0, 0)" xlink:href="#linear-gradient-18"/><linearGradient id="linear-gradient-25" x1="219.34" y1="108.9" x2="153.22" y2="201.17" gradientTransform="matrix(1, 0, 0, 1, 0, 0)" xlink:href="#linear-gradient-18"/><linearGradient id="linear-gradient-26" x1="228.92" y1="115.77" x2="162.81" y2="208.04" gradientTransform="matrix(1, 0, 0, 1, 0, 0)" xlink:href="#linear-gradient-18"/><linearGradient id="linear-gradient-27" x1="143" y1="179.09" x2="16.95" y2="369.51" gradientTransform="translate(285.98 33.64) rotate(71.85)" xlink:href="#linear-gradient-18"/><linearGradient id="linear-gradient-28" x1="125.57" y1="198.14" x2="64.12" y2="283.9" gradientTransform="matrix(1, 0, 0, 1, 0, 0)" xlink:href="#linear-gradient-18"/><linearGradient id="linear-gradient-29" x1="134.48" y1="204.52" x2="73.03" y2="290.28" gradientTransform="matrix(1, 0, 0, 1, 0, 0)" xlink:href="#linear-gradient-18"/><linearGradient id="linear-gradient-30" x1="157.01" y1="81.85" x2="191.96" y2="81.85" gradientUnits="userSpaceOnUse"><stop offset="0" stop-color="#dae3fe"/><stop offset="1" stop-color="#e9effd"/></linearGradient><linearGradient id="linear-gradient-31" x1="162.26" y1="75.12" x2="184.03" y2="75.12" xlink:href="#linear-gradient-30"/><linearGradient id="linear-gradient-32" x1="44.28" y1="183.45" x2="79.23" y2="183.45" xlink:href="#linear-gradient-30"/><linearGradient id="linear-gradient-33" x1="49.53" y1="176.72" x2="71.3" y2="176.72" xlink:href="#linear-gradient-30"/><linearGradient id="linear-gradient-34" x1="170.72" y1="129.58" x2="174.49" y2="129.58" xlink:href="#linear-gradient-30"/><linearGradient id="linear-gradient-35" x1="155.19" y1="138.51" x2="168.53" y2="138.51" xlink:href="#linear-gradient-30"/><linearGradient id="linear-gradient-36" x1="149.23" y1="148.8" x2="153" y2="148.8" xlink:href="#linear-gradient-30"/><linearGradient id="linear-gradient-37" x1="149.23" y1="163.34" x2="150.92" y2="163.34" xlink:href="#linear-gradient-30"/><linearGradient id="linear-gradient-38" x1="149.23" y1="177.02" x2="150.92" y2="177.02" xlink:href="#linear-gradient-30"/><linearGradient id="linear-gradient-39" x1="128.29" y1="89.87" x2="129.98" y2="89.87" xlink:href="#linear-gradient-30"/><linearGradient id="linear-gradient-40" x1="128.29" y1="103.38" x2="129.98" y2="103.38" xlink:href="#linear-gradient-30"/><linearGradient id="linear-gradient-41" x1="128.29" y1="116.89" x2="129.98" y2="116.89" xlink:href="#linear-gradient-30"/><linearGradient id="linear-gradient-42" x1="157.68" y1="217.22" x2="162.07" y2="217.22" xlink:href="#linear-gradient-30"/><linearGradient id="linear-gradient-43" x1="165.72" y1="217.22" x2="183.42" y2="217.22" xlink:href="#linear-gradient-30"/><linearGradient id="linear-gradient-44" x1="187.07" y1="215.87" x2="191.46" y2="215.87" xlink:href="#linear-gradient-30"/><linearGradient id="linear-gradient-45" x1="189.77" y1="200.5" x2="191.46" y2="200.5" xlink:href="#linear-gradient-30"/><linearGradient id="linear-gradient-46" x1="189.77" y1="185.13" x2="191.46" y2="185.13" xlink:href="#linear-gradient-30"/><linearGradient id="linear-gradient-47" x1="71.88" y1="126.69" x2="76.27" y2="126.69" xlink:href="#linear-gradient-30"/><linearGradient id="linear-gradient-48" x1="79.31" y1="126.69" x2="95.19" y2="126.69" xlink:href="#linear-gradient-30"/><linearGradient id="linear-gradient-49" x1="98.23" y1="127.79" x2="104.2" y2="127.79" xlink:href="#linear-gradient-30"/><linearGradient id="linear-gradient-50" x1="106.03" y1="141.11" x2="118.27" y2="141.11" xlink:href="#linear-gradient-30"/><linearGradient id="linear-gradient-51" x1="120.1" y1="154.43" x2="123.37" y2="154.43" xlink:href="#linear-gradient-30"/><linearGradient id="linear-gradient-52" x1="70.61" y1="125.98" x2="77.54" y2="125.98" gradientTransform="translate(43.01 -16.83) rotate(18.18)" xlink:href="#linear-gradient-30"/><linearGradient id="linear-gradient-53" x1="119.93" y1="155.7" x2="126.86" y2="155.7" xlink:href="#linear-gradient-30"/><linearGradient id="linear-gradient-54" x1="126.01" y1="119.22" x2="132.94" y2="119.22" xlink:href="#linear-gradient-30"/><linearGradient id="linear-gradient-55" x1="126.01" y1="89.5" x2="132.94" y2="89.5" xlink:href="#linear-gradient-30"/><linearGradient id="linear-gradient-56" x1="168.57" y1="129.35" x2="175.5" y2="129.35" gradientTransform="translate(272.27 -61.12) rotate(80.81)" xlink:href="#linear-gradient-30"/><linearGradient id="linear-gradient-57" x1="146.95" y1="178.67" x2="153.88" y2="178.67" xlink:href="#linear-gradient-30"/><linearGradient id="linear-gradient-58" x1="155.74" y1="217.18" x2="162.66" y2="217.18" xlink:href="#linear-gradient-30"/><linearGradient id="linear-gradient-59" x1="187.49" y1="184.08" x2="194.41" y2="184.08" xlink:href="#linear-gradient-30"/><linearGradient id="linear-gradient-60" x1="-2435.68" y1="252.85" x2="-2456.66" y2="283.9" gradientTransform="matrix(-1, 0, 0, 1, -2060.65, 0)" xlink:href="#linear-gradient-3"/><linearGradient id="linear-gradient-61" x1="381.65" y1="263.3" x2="387.93" y2="263.3" xlink:href="#linear-gradient-30"/><linearGradient id="linear-gradient-62" x1="378.71" y1="270.43" x2="390.83" y2="270.43" xlink:href="#linear-gradient-30"/><linearGradient id="linear-gradient-63" x1="435.54" y1="263.43" x2="429.96" y2="354.58" xlink:href="#linear-gradient-30"/><linearGradient id="linear-gradient-64" x1="435.54" y1="272.88" x2="429.96" y2="364.04" xlink:href="#linear-gradient-30"/><linearGradient id="linear-gradient-65" x1="-2295.05" y1="243.41" x2="-2316.02" y2="274.46" gradientTransform="matrix(-1, 0, 0, 1, -2060.65, 0)" xlink:href="#linear-gradient-3"/><linearGradient id="linear-gradient-66" x1="241.01" y1="253.87" x2="247.3" y2="253.87" xlink:href="#linear-gradient-30"/><linearGradient id="linear-gradient-67" x1="238.08" y1="261" x2="250.19" y2="261" xlink:href="#linear-gradient-30"/><linearGradient id="linear-gradient-68" x1="148.73" y1="254.58" x2="223.05" y2="254.58" xlink:href="#linear-gradient-30"/><linearGradient id="linear-gradient-69" x1="148.73" y1="263.36" x2="223.05" y2="263.36" xlink:href="#linear-gradient-30"/><linearGradient id="linear-gradient-70" x1="93.37" y1="400.78" x2="98.11" y2="400.78" gradientTransform="translate(191.48 801.57) rotate(-180)" xlink:href="#linear-gradient-3"/><linearGradient id="linear-gradient-71" x1="74.94" y1="425.91" x2="116.54" y2="425.91" xlink:href="#linear-gradient-3"/><linearGradient id="linear-gradient-72" x1="8862.99" y1="426.53" x2="8873.9" y2="357.92" gradientTransform="matrix(-1, 0, 0, 1, 8966.72, 0)" gradientUnits="userSpaceOnUse"><stop offset="0" stop-color="#e1473d"/><stop offset="1" stop-color="#e9605a"/></linearGradient><linearGradient id="linear-gradient-73" x1="1287" y1="407.51" x2="1278.62" y2="424" gradientTransform="translate(-1153.25)" xlink:href="#linear-gradient-12"/><linearGradient id="linear-gradient-74" x1="1271.06" y1="414.07" x2="1279.41" y2="414.07" gradientTransform="translate(-1153.25)" gradientUnits="userSpaceOnUse"><stop offset="0" stop-color="#f9b776"/><stop offset="1" stop-color="#f47960"/></linearGradient><linearGradient id="linear-gradient-75" x1="1282.13" y1="424.18" x2="1253.07" y2="462.18" gradientTransform="translate(-1153.25)" xlink:href="#linear-gradient-12"/><linearGradient id="linear-gradient-76" x1="1267.59" y1="432.41" x2="1290.05" y2="432.41" gradientTransform="translate(-1153.25)" xlink:href="#linear-gradient-3"/><linearGradient id="linear-gradient-77" x1="1265.02" y1="421.78" x2="1272.86" y2="421.78" xlink:href="#linear-gradient-74"/><linearGradient id="linear-gradient-78" x1="166.09" y1="274.96" x2="147.5" y2="340.97" xlink:href="#linear-gradient-6"/><linearGradient id="linear-gradient-79" x1="115.58" y1="296.37" x2="99.31" y2="332.16" xlink:href="#linear-gradient-6"/><linearGradient id="linear-gradient-80" x1="1223.45" y1="314.35" x2="1277.1" y2="311.28" gradientTransform="translate(-1153.25)" xlink:href="#linear-gradient-72"/><linearGradient id="linear-gradient-81" x1="17.67" y1="408.1" x2="89.72" y2="340.7" xlink:href="#linear-gradient-6"/><linearGradient id="linear-gradient-82" x1="1279.04" y1="258.34" x2="1279.04" y2="289.95" gradientTransform="translate(-1153.25)" xlink:href="#linear-gradient-6"/><linearGradient id="linear-gradient-83" x1="1550.92" y1="-690.78" x2="1578.01" y2="-690.78" gradientTransform="translate(-1216.69 1329.72) rotate(-14.47)" xlink:href="#linear-gradient-12"/><linearGradient id="linear-gradient-84" x1="1269.09" y1="258.34" x2="1269.09" y2="289.95" gradientTransform="translate(-1153.25)" xlink:href="#linear-gradient-6"/><linearGradient id="linear-gradient-85" x1="8797.52" y1="910.58" x2="8761.96" y2="920.33" gradientTransform="matrix(-1, -0.05, -0.05, 1, 8938.34, -144.61)" xlink:href="#linear-gradient-12"/><linearGradient id="linear-gradient-86" x1="8812.2" y1="307.32" x2="8786.97" y2="333.98" gradientTransform="matrix(-1, 0, 0, 1, 8966.72, 0)" xlink:href="#linear-gradient-12"/><linearGradient id="linear-gradient-87" x1="468" y1="203.78" x2="568.8" y2="203.78" xlink:href="#linear-gradient-30"/><linearGradient id="linear-gradient-88" x1="585.45" y1="31.36" x2="428.99" y2="158.69" gradientTransform="translate(-12.11 74.09) rotate(1.17)" xlink:href="#linear-gradient-18"/><linearGradient id="linear-gradient-89" x1="513.51" y1="72.15" x2="504.01" y2="136.2" xlink:href="#linear-gradient-6"/><linearGradient id="linear-gradient-90" x1="605.53" y1="56.02" x2="449.06" y2="183.36" gradientTransform="translate(-12.11 74.09) rotate(1.17)" xlink:href="#linear-gradient-18"/><linearGradient id="linear-gradient-91" x1="608.2" y1="59.3" x2="451.73" y2="186.64" gradientTransform="translate(639.21 -331.09) rotate(90)" xlink:href="#linear-gradient-18"/><linearGradient id="linear-gradient-92" x1="614.19" y1="66.66" x2="457.72" y2="194" gradientTransform="translate(-12.11 74.09) rotate(1.17)" xlink:href="#linear-gradient-18"/><linearGradient id="linear-gradient-93" x1="401.38" y1="157.24" x2="546.23" y2="157.24" xlink:href="#linear-gradient-3"/><linearGradient id="linear-gradient-94" x1="408.99" y1="159.15" x2="539.77" y2="159.15" xlink:href="#linear-gradient-30"/><linearGradient id="linear-gradient-95" x1="468.7" y1="126.29" x2="535.29" y2="126.29" xlink:href="#linear-gradient-3"/><linearGradient id="linear-gradient-96" x1="468.7" y1="132.85" x2="535.29" y2="132.85" xlink:href="#linear-gradient-3"/><linearGradient id="linear-gradient-97" x1="458.02" y1="-2815.34" x2="459.07" y2="-2815.34" gradientTransform="matrix(1, 0, 0, 0.43, -2.46, 1385.38)" xlink:href="#linear-gradient-3"/><linearGradient id="linear-gradient-98" x1="478.81" y1="177.12" x2="479.86" y2="177.12" xlink:href="#linear-gradient-3"/><linearGradient id="linear-gradient-99" x1="497.89" y1="176.54" x2="499.94" y2="176.54" xlink:href="#linear-gradient-3"/><linearGradient id="linear-gradient-100" x1="517.98" y1="168.04" x2="519.03" y2="168.04" xlink:href="#linear-gradient-3"/><linearGradient id="linear-gradient-101" x1="418.51" y1="163.99" x2="425.61" y2="163.99" xlink:href="#linear-gradient-3"/><linearGradient id="linear-gradient-102" x1="418.51" y1="133.03" x2="425.61" y2="133.03" xlink:href="#linear-gradient-3"/><linearGradient id="linear-gradient-103" x1="419.96" y1="192.72" x2="533.91" y2="192.72" xlink:href="#linear-gradient-3"/><linearGradient id="linear-gradient-104" x1="419.96" y1="192.72" x2="533.91" y2="192.72" xlink:href="#linear-gradient-3"/><linearGradient id="linear-gradient-105" x1="429.19" y1="189.01" x2="516.55" y2="131" xlink:href="#linear-gradient-3"/><linearGradient id="linear-gradient-106" x1="435.67" y1="198.78" x2="523.04" y2="140.77" gradientUnits="userSpaceOnUse"><stop offset="0" stop-color="#53d8ff"/><stop offset="1" stop-color="#3840f7"/></linearGradient><linearGradient id="linear-gradient-107" x1="-505.81" y1="39.49" x2="-485.01" y2="39.49" gradientTransform="matrix(0.88, -0.48, 0.48, 0.88, 938.96, -207.45)" xlink:href="#linear-gradient-3"/><linearGradient id="linear-gradient-108" x1="-409.79" y1="-1069.2" x2="-391.59" y2="-1069.2" gradientTransform="matrix(0.37, -0.93, 0.93, 0.37, 1664.22, 92.96)" xlink:href="#linear-gradient-12"/><linearGradient id="linear-gradient-109" x1="516.71" y1="64.15" x2="519.4" y2="64.15" xlink:href="#linear-gradient-30"/><linearGradient id="linear-gradient-110" x1="-490.39" y1="55.23" x2="-476.65" y2="55.23" gradientTransform="matrix(0.88, -0.48, 0.48, 0.88, 938.96, -207.45)" xlink:href="#linear-gradient-3"/><linearGradient id="linear-gradient-111" x1="-407.62" y1="-1049.4" x2="-395.6" y2="-1049.4" gradientTransform="matrix(0.37, -0.93, 0.93, 0.37, 1664.22, 92.96)" xlink:href="#linear-gradient-12"/><linearGradient id="linear-gradient-112" x1="536.69" y1="72.36" x2="538.65" y2="72.36" xlink:href="#linear-gradient-30"/></defs><title>affiliates-right-image</title><g id="Layer_2" data-name="Layer 2"><g id="Layer_1-2" data-name="Layer 1"><circle class="cls-1" cx="534.62" cy="76.36" r="76.36" transform="translate(371.44 591.17) rotate(-80.54)"/><path class="cls-2" d="M689.11,321.88c.41-9.61-58.32,12.69-55.25-7.93,3.17-19.58,22.28-3.19,47.55-7.42,24.63-3.8,25.05-54.08,20.16-61.27-5.5-7.35-48.61,9.85-49.92-3.35-1-14,43-2,54.29-10,10.62-7.73,2.47-64.89-3.33-70.28-6.77-5.09-29.81,31.4-32.7,15.21-2.66-15.48,22.77-20.56,31.11-27.67,11.26-9.8,5.87-37.47,2.89-52.31-14.19,1-42,6.8-46.68,23-3.57,11.9,3.65,37.76-10.59,43.37-15.82,6.33,5.26-34.85-1.4-38.83-7-5-64.06,23.61-65.2,41.53-1.36,17.2,35,45.34,23.7,54-11.74,9.38-24.44-39.5-33-39.52-9.3-.44-52.56,48.41-36.78,71.53,15.48,22.28,41.31,19.72,30.69,39.23-11.59,21.88-42-37.82-47.74-29.22-6.52,9-25,52.71,4,73.77,17.48,13.09,42.51,39.6,51.84,61.7,17.93-17.81,53-28.8,74.56-30.23C682.11,364.33,688.51,330.75,689.11,321.88Z"/><path class="cls-3" d="M697.3,105.43A834.16,834.16,0,0,0,566.35,428.55"/><path class="cls-3" d="M709.23,184.62A301.28,301.28,0,0,1,641,202"/><path class="cls-3" d="M608.07,136.9s9.72,63.49,22.53,86.62"/><path class="cls-3" d="M704,262.48s-45.94,8.73-93.05,7.22"/><path class="cls-3" d="M545.92,202s37.17,82.63,55,94.66"/><path class="cls-3" d="M688.39,326.22s-57,15.22-100.68,11.36"/><path class="cls-3" d="M509.22,277.26s32.38,52.88,71.63,85"/><ellipse class="cls-4" cx="142.4" cy="168.3" rx="117.51" ry="126.84" transform="matrix(0.04, -1, 1, 0.04, -31.99, 303.18)"/><g class="cls-5"><path class="cls-6" d="M175.31,168.87c0,10.38-.4,20.76-1.21,31.11s-2.12,20.66-4,30.89A180.42,180.42,0,0,1,162.18,261a71.73,71.73,0,0,1-6.89,14.08,28.28,28.28,0,0,1-5.19,6,14.88,14.88,0,0,1-3.42,2.19,10.46,10.46,0,0,1-4,.93,9.91,9.91,0,0,1-4.07-.74,14,14,0,0,1-3.5-2.07,26.63,26.63,0,0,1-5.3-5.93,67.8,67.8,0,0,1-7-14,177.1,177.1,0,0,1-8-30.13,361.82,361.82,0,0,1-5.49-62c0-10.38.48-20.76,1.26-31.11s2-20.67,3.73-30.91a184.36,184.36,0,0,1,7.5-30.22A68.09,68.09,0,0,1,128.49,63a25.7,25.7,0,0,1,5.17-5.94,13.42,13.42,0,0,1,3.44-2,9.5,9.5,0,0,1,4-.69,10.73,10.73,0,0,1,3.91.9,15.25,15.25,0,0,1,3.38,2.09,29,29,0,0,1,5.28,5.84A69.89,69.89,0,0,1,160.86,77a173.17,173.17,0,0,1,8.61,29.93,293.55,293.55,0,0,1,4.43,30.82C174.82,148.1,175.27,158.49,175.31,168.87Zm-2.56,0c0-10.31-.34-20.63-1.18-30.91a303.93,303.93,0,0,0-3.94-30.67,172.84,172.84,0,0,0-8-29.8,69.46,69.46,0,0,0-6.87-13.74,28,28,0,0,0-5-5.73A11.22,11.22,0,0,0,141,55.1a10.2,10.2,0,0,0-6.8,2.66,24.59,24.59,0,0,0-4.87,5.81,66.51,66.51,0,0,0-6.33,14,181.74,181.74,0,0,0-6.89,30.09c-3.07,20.41-4,41.09-3.91,61.71A359,359,0,0,0,116.88,231a176.82,176.82,0,0,0,7.54,29.89,67.09,67.09,0,0,0,6.64,13.78,25.56,25.56,0,0,0,4.93,5.67,10.19,10.19,0,0,0,6.63,2.58,9,9,0,0,0,3.47-.86,13.47,13.47,0,0,0,3.07-2,27.47,27.47,0,0,0,4.83-5.77,69.73,69.73,0,0,0,6.53-13.83A179.35,179.35,0,0,0,168,230.49c1.73-10.16,2.87-20.42,3.64-30.7S172.76,179.18,172.75,168.87Z"/><path class="cls-6" d="M227.67,168.87a151.33,151.33,0,0,1-5.43,39.71A127.31,127.31,0,0,1,205.52,245a96.69,96.69,0,0,1-28.4,28,75.56,75.56,0,0,1-18.24,8.32,69,69,0,0,1-19.83,2.93A72.37,72.37,0,0,1,101,273.05a96.65,96.65,0,0,1-28.48-28,127.79,127.79,0,0,1-16.8-36.4,145.27,145.27,0,0,1-4.07-19.7,156.48,156.48,0,0,1-1.37-20.06,158.49,158.49,0,0,1,1.39-20.07,142.09,142.09,0,0,1,4.1-19.68A127.78,127.78,0,0,1,72.56,92.76,96.65,96.65,0,0,1,101,64.8a70.1,70.1,0,0,1,76,.06,96.3,96.3,0,0,1,28.39,28,128,128,0,0,1,16.77,36.33A148.84,148.84,0,0,1,227.67,168.87Zm-2.93,0a155.79,155.79,0,0,0-1.27-19.67,146.42,146.42,0,0,0-3.8-19.33,126.55,126.55,0,0,0-15.84-36,94.51,94.51,0,0,0-27.46-28,73.64,73.64,0,0,0-17.86-8.29,65.28,65.28,0,0,0-38.9,0A73.39,73.39,0,0,0,101.77,66C90.7,73.14,81.55,83,74.39,94a126.1,126.1,0,0,0-15.77,35.94,144.16,144.16,0,0,0-3.78,19.31,153.48,153.48,0,0,0-1.27,19.64,155.18,155.18,0,0,0,1.29,19.63,144.22,144.22,0,0,0,3.8,19.31,126.24,126.24,0,0,0,15.81,35.9,94.19,94.19,0,0,0,27.38,27.93,73.24,73.24,0,0,0,17.8,8.29,64.88,64.88,0,0,0,38.81,0,73.86,73.86,0,0,0,17.83-8.25c11.09-7.11,20.27-16.92,27.46-27.9a126.7,126.7,0,0,0,15.88-35.92A149.22,149.22,0,0,0,224.74,168.87Z"/><path class="cls-6" d="M36.33,123.24c8.82-.17,17.63-.24,26.44-.36l26.44-.2c8.81-.08,17.62-.07,26.43-.1l26.44-.06,26.43.07c8.81,0,17.63,0,26.44.11l26.43.22c8.82.13,17.63.21,26.44.38a.13.13,0,0,1,.13.14.13.13,0,0,1-.13.12c-8.81.18-17.62.26-26.44.39l-26.43.22c-8.81.09-17.63.07-26.44.11l-26.43.07-26.44-.06c-8.81,0-17.62,0-26.43-.11L62.77,124c-8.81-.12-17.62-.19-26.44-.35a.2.2,0,0,1,0-.39Z"/><path class="cls-6" d="M67,79c6.26-.16,12.51-.23,18.77-.35l18.77-.2c12.51-.14,25-.16,37.54-.17s25,0,37.53.18l18.77.22c6.26.13,12.51.21,18.77.39a.13.13,0,0,1,.13.13.13.13,0,0,1-.13.12c-6.26.18-12.51.26-18.77.39l-18.77.22c-12.51.14-25,.17-37.53.18s-25,0-37.54-.16L85.77,79.7c-6.26-.12-12.51-.19-18.77-.35a.2.2,0,0,1-.19-.2A.21.21,0,0,1,67,79Z"/><path class="cls-6" d="M27.15,167.52c9.57-.17,19.15-.24,28.73-.36l28.73-.2c9.58-.09,19.16-.08,28.73-.1l28.74-.06,28.73.06c9.58,0,19.15,0,28.73.12l28.73.22c9.58.13,19.16.2,28.74.38a.12.12,0,0,1,.12.13.13.13,0,0,1-.12.13c-9.58.18-19.16.25-28.74.38l-28.73.22c-9.58.1-19.15.07-28.73.12l-28.73.06-28.74-.06c-9.57,0-19.15,0-28.73-.1l-28.73-.2c-9.58-.12-19.16-.19-28.73-.36a.19.19,0,0,1-.19-.19A.18.18,0,0,1,27.15,167.52Z"/><path class="cls-6" d="M36.33,211.79c8.82-.16,17.63-.23,26.44-.35l26.44-.2c8.81-.09,17.62-.08,26.43-.11l26.44-.06,26.43.07c8.81,0,17.63,0,26.44.11l26.43.22c8.82.13,17.63.21,26.44.39a.13.13,0,0,1,.13.13.14.14,0,0,1-.13.13c-8.81.17-17.62.25-26.44.38l-26.43.22c-8.81.09-17.63.07-26.44.11l-26.43.07-26.44-.06c-8.81,0-17.62,0-26.43-.1l-26.44-.2c-8.81-.12-17.62-.19-26.44-.36a.2.2,0,0,1-.19-.2A.21.21,0,0,1,36.33,211.79Z"/><path class="cls-6" d="M220.93,256.94H70.79a.68.68,0,1,1,0-1.35H220.93a.68.68,0,1,1,0,1.35Z"/></g><path class="cls-7" d="M300.26,433.09a18.49,18.49,0,0,1-18.78-18.75V398c-21.62-1.51-42.38-6.5-58.81-13.69a19.27,19.27,0,0,1-10.74-22.57l5.6-20.69a19.2,19.2,0,0,1,26-12.6c12.66,5.3,32.5,11.63,55.14,11.63,15.81,0,32.69-4.42,32.69-16.81,0-8.45-6.67-15.86-39.23-24.59-34.64-9.48-80.82-27.69-80.82-76.38,0-37.5,26.25-65.66,70.17-74.43v-17A19.66,19.66,0,0,1,301,111.52h13.06c10.59,0,18.06,8.78,18.06,19.37v14c18.25,1.11,32,4,45.81,8.91a19.35,19.35,0,0,1,12.3,23.09l-5.05,19.14a19.13,19.13,0,0,1-18.43,14.18A18.92,18.92,0,0,1,360,209a128.4,128.4,0,0,0-46.24-8.39c-17.65,0-27.77,5.3-27.77,14.54,0,9.62,23.2,18.05,45.89,25,26.29,7.89,44.05,17.21,55.86,29.31C400,282,405.7,297.85,405.7,318c0,38.22-27.62,67.9-73.56,76.72v19.63a18.52,18.52,0,0,1-18.82,18.75Z"/><path class="cls-8" d="M287.37,414.34V392.11c-23.17-.92-46.08-6.39-62.35-13.51a12.87,12.87,0,0,1-7.11-15.19l5.65-20.7a13,13,0,0,1,17.58-8.48c16.15,6.77,36.08,12.13,57.57,12.13,22.31,0,39-7.57,39-23.07,0-14-12.85-22.31-43.86-30.63-44.25-12.1-76-31.39-76-70.34,0-35.17,25.72-62,70.34-69.21V130.89a13,13,0,0,1,12.95-12.95h13.06a12.94,12.94,0,0,1,12.94,12.95v20c21.44.86,37,4.53,49.43,8.88a12.88,12.88,0,0,1,8.05,15.55l-5.2,19.14a12.91,12.91,0,0,1-17,8.72,134.84,134.84,0,0,0-48.47-8.8c-26.47,0-34,11-34,20.8,0,12.1,15.88,20.42,50.29,31,49.16,14.75,69.58,35.17,69.58,71.85,0,33.66-25,63.91-73.36,71.48v24.87a12.94,12.94,0,0,1-12.95,12.94H300.31A12.94,12.94,0,0,1,287.37,414.34Z"/><rect class="cls-9" x="540.78" y="382.63" width="4.3" height="46.49"/><path class="cls-10" d="M525.38,427.22h35.1a1.28,1.28,0,0,1,1.28,1.28V430a0,0,0,0,1,0,0H524.1a0,0,0,0,1,0,0v-1.52A1.28,1.28,0,0,1,525.38,427.22Z"/><rect class="cls-11" x="520" y="372.21" width="47.34" height="13.43" rx="4.62" ry="4.62"/><path class="cls-12" d="M511.19,351.63a37.33,37.33,0,0,0-13.57,5.8,3.57,3.57,0,0,0-1.58,3.42c.86,6.81,4.4,28.86,16.06,50.39a5.46,5.46,0,0,1,.52,3.72l-2,9.43-3.75,3.52h9.67L523,410.47l-2.75-.87a5.2,5.2,0,0,1-3.64-4.88l-.32-18.7a21.31,21.31,0,0,0-5.11-14.08l15.45-.75Z"/><path class="cls-13" d="M503.06,429.61c-.88,1.15,9.48,2.67,14.72.15,0,0,7.26-12.63,7.26-19.13,0,0-.58-1.33-4.84-1,0,0-2.44,15-5,16.63s-7.2.17-7.2.17S504.36,427.91,503.06,429.61Z"/><path class="cls-14" d="M524.62,372.21c-.08-.14-16.63-2-16.63-2a38.39,38.39,0,0,1-1.15,12c-1.7,6.93-26,36.95-26,36.95l2.55,8.08a41,41,0,0,1-23.26,1.39l15.79-9.47s14.78-50.38,23.84-59.36L516.35,354Z"/><path class="cls-8" d="M561.75,342.9s9.54,14.19,10.32,20.66-2.61,9.1-12.62,9.54-36.72.42-36.72.42L499.92,354s16.62-5.92,20.94-7.6S561.75,342.9,561.75,342.9Z"/><path class="cls-15" d="M482.42,424.49s2.75,2.66.89,5.62c0,0-21.73,3.85-27.63,2.1,0,0,1.22-2.79,7.87-6l-.49.38a.79.79,0,0,0,.52,1.42C468,427.78,477,427,482.42,424.49Z"/><path class="cls-16" d="M536,341s-11.11-10.58-16.58-17.59a14.85,14.85,0,0,1-2.51-13.37c2.49-8.41,6.93-17.12,7.33-18.48.62-2.08,13.08-2,13.08-2s24.5,15.91,34.13,42.85l-10.81,3.36s-6.4-10.73-12.72-17.56c0,0,10.94,14.46,11.32,20.37Z"/><path class="cls-17" d="M522.7,280c.13.43,3.38,11.21,3.63,11.43s7.13.59,10.37-1.62l-6.49-15.45Z"/><path class="cls-18" d="M508.7,270.92s-1.86,6.09,2.09,14.59,8.87,8.72,11.68,6.19,6.34-6.88,5.93-14.94S511.33,263.18,508.7,270.92Z"/><path class="cls-19" d="M522.37,276.92s-6.69-11.35-13.85-3l-.27,3.14s-7.87-1.31-6.14-8.49a14.08,14.08,0,0,1,19-9.35c8.66,3.55,12,8.51,12.29,14.85s-4.68,4.72-4.68,4.72-1.43-4.52-3.73-5.1-1.87,2.93-1.87,2.93Z"/><path class="cls-20" d="M524.22,276.86s-3.47-5.82.4-6.48,3,5.65,2.45,8Z"/><path class="cls-21" d="M513.33,341.81l8.16-7.87,11.29,4.77s11.24,1.74,17.67,0l6.43-1.74,14.53-4.52,2.29,6.45a3.9,3.9,0,0,1-1.42,4.46,25.7,25.7,0,0,1-3.67,2.29c-1.92.84-47.19-.58-47.19-.58Z"/><path class="cls-22" d="M521.59,260.78a2.52,2.52,0,0,1-2.26-3.85c3.36-5.59,10.45-12.48,23.69-6.81,14.92,6.4,22.83,9.05,25.87,7.54a2.53,2.53,0,0,1,3.65,2.87c-.45,1.59-1.64,3.39-4.14,5.32C549.16,280.75,533.41,259.84,521.59,260.78Z"/><path class="cls-23" d="M544.21,345.52h-.11l-47.34,0a2.12,2.12,0,0,1,0-4.24l47.34,0a2.12,2.12,0,0,1,.1,4.24Z"/><path class="cls-24" d="M454.21,302.54h39.42a7.52,7.52,0,0,1,6.8,4.31l18.22,38.64h-49a4.57,4.57,0,0,1-4.25-2.88l-14.13-35.77A3.15,3.15,0,0,1,454.21,302.54Z"/><path class="cls-6" d="M610.38,347.25a1.75,1.75,0,0,0-.42-1.52,2,2,0,0,0-1.5-.66H410.92a2.32,2.32,0,0,0-1.9,1,2,2,0,0,0-.14,2L411,352.4a3,3,0,0,0,2.72,1.63H607.1a2.24,2.24,0,0,0,2.23-1.72Z"/><path class="cls-6" d="M422,438.78a1.7,1.7,0,0,1-.69-.14,1.79,1.79,0,0,1-.9-2.33l36.35-86.48a1.73,1.73,0,0,1,2.28-.93,1.79,1.79,0,0,1,.91,2.33l-36.36,86.48A1.73,1.73,0,0,1,422,438.78Z"/><path class="cls-6" d="M463,438.78a1.74,1.74,0,0,1-1.6-1.07L425,351.23a1.78,1.78,0,0,1,.9-2.33,1.73,1.73,0,0,1,2.28.93l36.36,86.48a1.79,1.79,0,0,1-.91,2.33A1.63,1.63,0,0,1,463,438.78Z"/><path class="cls-6" d="M565.16,438.78a1.7,1.7,0,0,1-.69-.14,1.79,1.79,0,0,1-.9-2.33l36.35-86.48a1.73,1.73,0,0,1,2.28-.93,1.79,1.79,0,0,1,.91,2.33l-36.36,86.48A1.73,1.73,0,0,1,565.16,438.78Z"/><path class="cls-6" d="M606.12,438.78a1.74,1.74,0,0,1-1.6-1.07l-36.35-86.48a1.78,1.78,0,0,1,.9-2.33,1.73,1.73,0,0,1,2.28.93l36.36,86.48a1.79,1.79,0,0,1-.91,2.33A1.63,1.63,0,0,1,606.12,438.78Z"/><circle class="cls-25" cx="127.64" cy="50.56" r="33.06" transform="translate(-9.52 56.6) rotate(-24.13)"/><circle class="cls-26" cx="128.36" cy="51.28" r="27.98"/><path class="cls-27" d="M136.93,40.71c0,4.73-3.84,9.85-8.58,9.85s-8.58-5.12-8.58-9.85,3.84-8.1,8.58-8.1S136.93,36,136.93,40.71Z"/><path class="cls-28" d="M117.71,68.8h20.94a5.07,5.07,0,0,0,4.82-3.53l1.13-3.52a5.05,5.05,0,0,0-3.06-6.3c-8.52-3.11-17.33-2.71-26.36.29A5,5,0,0,0,112,61.86l.87,3.2A5.05,5.05,0,0,0,117.71,68.8Z"/><circle class="cls-29" cx="33.06" cy="121.79" r="33.06"/><circle class="cls-26" cx="33.78" cy="122.51" r="27.98" transform="translate(-8.71 2.74) rotate(-4.12)"/><path class="cls-30" d="M42.34,111.94c0,4.74-3.84,9.85-8.57,9.85s-8.58-5.11-8.58-9.85,3.84-8.1,8.58-8.1S42.34,107.21,42.34,111.94Z"/><path class="cls-31" d="M23.12,140H44.06a5.07,5.07,0,0,0,4.83-3.52L50,133a5.06,5.06,0,0,0-3-6.3c-8.53-3.12-17.34-2.72-26.37.29a5,5,0,0,0-3.23,6.11l.87,3.2A5.06,5.06,0,0,0,23.12,140Z"/><circle class="cls-32" cx="213.1" cy="126.15" r="33.06"/><path class="cls-26" d="M182.63,125.21h0a.67.67,0,0,1-.64-.71,30.22,30.22,0,0,1,.46-3.91.67.67,0,0,1,.78-.55.67.67,0,0,1,.54.79,31.18,31.18,0,0,0-.43,3.75A.68.68,0,0,1,182.63,125.21Z"/><path class="cls-26" d="M185.84,113.09a.63.63,0,0,1-.3-.07.67.67,0,0,1-.3-.91A31.06,31.06,0,0,1,213.1,95a32.11,32.11,0,0,1,5.63.5.68.68,0,0,1,.54.79.67.67,0,0,1-.79.54,30.15,30.15,0,0,0-5.38-.48,29.73,29.73,0,0,0-26.66,16.41A.65.65,0,0,1,185.84,113.09Z"/><circle class="cls-26" cx="213.82" cy="126.87" r="27.98" transform="translate(42.8 307.33) rotate(-77.22)"/><path class="cls-33" d="M222.39,116.3c0,4.73-3.84,9.85-8.58,9.85s-8.58-5.12-8.58-9.85,3.84-8.1,8.58-8.1S222.39,111.56,222.39,116.3Z"/><path class="cls-34" d="M203.16,144.39H224.1a5.07,5.07,0,0,0,4.83-3.53l1.13-3.52A5.07,5.07,0,0,0,227,131c-8.52-3.11-17.34-2.71-26.36.29a5.06,5.06,0,0,0-3.24,6.12l.87,3.2A5.06,5.06,0,0,0,203.16,144.39Z"/><circle class="cls-35" cx="119.77" cy="214.17" r="30.72" transform="translate(-121.05 261.27) rotate(-71.85)"/><path class="cls-26" d="M91.45,213.34h0a.67.67,0,0,1-.64-.71A27.79,27.79,0,0,1,91.2,209a.68.68,0,1,1,1.33.24,26.91,26.91,0,0,0-.4,3.47A.67.67,0,0,1,91.45,213.34Z"/><path class="cls-26" d="M94.44,202.09a.64.64,0,0,1-.3-.08.66.66,0,0,1-.3-.9,28.91,28.91,0,0,1,25.93-16,29.51,29.51,0,0,1,5.24.47.68.68,0,1,1-.24,1.33,27.84,27.84,0,0,0-5-.45A27.56,27.56,0,0,0,95,201.72.68.68,0,0,1,94.44,202.09Z"/><circle class="cls-26" cx="120.44" cy="214.84" r="26"/><path class="cls-36" d="M128.41,205c0,4.4-3.57,9.15-8,9.15s-8-4.75-8-9.15,3.57-7.53,8-7.53S128.41,200.61,128.41,205Z"/><path class="cls-37" d="M110.54,231.13H130a4.72,4.72,0,0,0,4.49-3.28l1-3.27a4.7,4.7,0,0,0-2.84-5.86c-7.92-2.89-16.11-2.52-24.5.27a4.69,4.69,0,0,0-3,5.69l.8,3A4.72,4.72,0,0,0,110.54,231.13Z"/><path class="cls-38" d="M174.49,105.13a5.66,5.66,0,0,1-4.88-2.74c-5.75-9.5-12.6-22-12.6-27.69,0-8.89,7.84-16.13,17.48-16.13S192,65.81,192,74.7c0,5.68-6.85,18.19-12.6,27.69A5.64,5.64,0,0,1,174.49,105.13Zm0-44.08c-8.27,0-15,6.12-15,13.65,0,3.93,4.46,13.55,12.24,26.4a3.21,3.21,0,0,0,5.51,0c7.78-12.85,12.25-22.47,12.25-26.4C189.49,67.17,182.76,61.05,174.49,61.05Z"/><path class="cls-39" d="M173.14,86a10.9,10.9,0,0,1-10.88-10.89,1.24,1.24,0,0,1,2.48,0,8.39,8.39,0,1,0,1.66-5,1.24,1.24,0,1,1-2-1.48A10.88,10.88,0,1,1,173.14,86Z"/><path class="cls-40" d="M61.76,206.73A5.65,5.65,0,0,1,56.88,204c-5.75-9.5-12.6-22-12.6-27.69,0-8.89,7.84-16.13,17.48-16.13s17.47,7.24,17.47,16.13c0,5.68-6.85,18.19-12.6,27.69A5.64,5.64,0,0,1,61.76,206.73Zm0-44.08c-8.27,0-15,6.12-15,13.65,0,3.93,4.46,13.55,12.24,26.4a3.21,3.21,0,0,0,5.51,0c7.78-12.85,12.24-22.47,12.24-26.4C76.75,168.77,70,162.65,61.76,162.65Z"/><path class="cls-41" d="M60.41,187.61a10.9,10.9,0,0,1-10.88-10.89,1.24,1.24,0,1,1,2.48,0,8.41,8.41,0,1,0,8.4-8.4,8.33,8.33,0,0,0-6.74,3.38,1.24,1.24,0,0,1-2-1.48,10.89,10.89,0,1,1,8.73,17.39Z"/><path class="cls-42" d="M171.57,131.29a.8.8,0,0,1-.65-.31.83.83,0,0,1,.11-1.18l2.07-1.73a.85.85,0,1,1,1.08,1.3l-2.07,1.72A.81.81,0,0,1,171.57,131.29Z"/><path class="cls-43" d="M156,144.2a.83.83,0,0,1-.65-.31.84.84,0,0,1,.11-1.19l3.88-3.22a.85.85,0,1,1,1.08,1.3L156.58,144A.86.86,0,0,1,156,144.2Zm7.76-6.46a.84.84,0,0,1-.54-1.49l3.88-3.23a.85.85,0,0,1,1.08,1.3l-3.88,3.23A.85.85,0,0,1,163.8,137.74Z"/><path class="cls-44" d="M150.08,151.86a.85.85,0,0,1-.85-.85v-2.7a.86.86,0,0,1,.31-.65l2.08-1.73a.85.85,0,0,1,1.08,1.3l-1.78,1.48V151A.84.84,0,0,1,150.08,151.86Z"/><path class="cls-45" d="M150.08,171.58a.85.85,0,0,1-.85-.84v-4.93a.85.85,0,0,1,.85-.85.84.84,0,0,1,.84.85v4.93A.84.84,0,0,1,150.08,171.58Zm0-9.86a.85.85,0,0,1-.85-.85v-4.93a.85.85,0,0,1,.85-.84.84.84,0,0,1,.84.84v4.93A.84.84,0,0,1,150.08,161.72Z"/><path class="cls-46" d="M150.08,179.22a.85.85,0,0,1-.85-.85v-2.7a.84.84,0,0,1,.85-.84.83.83,0,0,1,.84.84v2.7A.84.84,0,0,1,150.08,179.22Z"/><path class="cls-47" d="M129.14,92.07a.85.85,0,0,1-.85-.85v-2.7a.85.85,0,0,1,1.69,0v2.7A.85.85,0,0,1,129.14,92.07Z"/><path class="cls-48" d="M129.14,111.52a.84.84,0,0,1-.85-.84v-4.86a.85.85,0,1,1,1.69,0v4.86A.84.84,0,0,1,129.14,111.52Zm0-9.72a.85.85,0,0,1-.85-.85V96.09a.85.85,0,1,1,1.69,0V101A.85.85,0,0,1,129.14,101.8Z"/><path class="cls-49" d="M129.14,119.09a.85.85,0,0,1-.85-.84v-2.71a.85.85,0,0,1,1.69,0v2.71A.85.85,0,0,1,129.14,119.09Z"/><path class="cls-50" d="M161.23,218.06h-2.71a.85.85,0,0,1,0-1.69h2.71a.85.85,0,0,1,0,1.69Z"/><path class="cls-51" d="M182.57,218.06h-5.33a.85.85,0,1,1,0-1.69h5.33a.85.85,0,1,1,0,1.69Zm-10.67,0h-5.34a.85.85,0,0,1,0-1.69h5.34a.85.85,0,0,1,0,1.69Z"/><path class="cls-52" d="M190.61,218.06h-2.7a.85.85,0,0,1,0-1.69h1.86v-1.85a.85.85,0,1,1,1.69,0v2.7A.85.85,0,0,1,190.61,218.06Z"/><path class="cls-53" d="M190.61,209.75a.85.85,0,0,1-.84-.84V203.3a.85.85,0,0,1,1.69,0v5.61A.85.85,0,0,1,190.61,209.75Zm0-11.21a.85.85,0,0,1-.84-.85v-5.6a.85.85,0,1,1,1.69,0v5.6A.85.85,0,0,1,190.61,198.54Z"/><path class="cls-54" d="M190.61,187.32a.84.84,0,0,1-.84-.84v-2.7a.85.85,0,1,1,1.69,0v2.7A.84.84,0,0,1,190.61,187.32Z"/><path class="cls-55" d="M75.43,127.54h-2.7a.85.85,0,0,1-.85-.85.84.84,0,0,1,.85-.84h2.7a.84.84,0,0,1,.84.84A.85.85,0,0,1,75.43,127.54Z"/><path class="cls-56" d="M94.34,127.54H89.62a.85.85,0,0,1-.85-.85.84.84,0,0,1,.85-.84h4.72a.84.84,0,0,1,.85.84A.85.85,0,0,1,94.34,127.54Zm-9.45,0H80.16a.85.85,0,0,1-.85-.85.84.84,0,0,1,.85-.84h4.73a.84.84,0,0,1,.84.84A.85.85,0,0,1,84.89,127.54Z"/><path class="cls-57" d="M103.35,129.73a.83.83,0,0,1-.68-.35l-1.33-1.84H99.07a.85.85,0,0,1-.84-.85.84.84,0,0,1,.84-.84h2.71a.84.84,0,0,1,.68.35l1.58,2.19a.85.85,0,0,1-.19,1.18A.83.83,0,0,1,103.35,129.73Z"/><path class="cls-58" d="M117.43,149.29a.86.86,0,0,1-.69-.35l-3.51-4.89a.84.84,0,0,1,.19-1.18.85.85,0,0,1,1.18.19l3.51,4.89a.84.84,0,0,1-.19,1.18A.82.82,0,0,1,117.43,149.29Zm-7-9.78a.83.83,0,0,1-.68-.35l-3.52-4.89a.84.84,0,0,1,.19-1.18.85.85,0,0,1,1.18.19l3.52,4.89a.85.85,0,0,1-.2,1.18A.8.8,0,0,1,110.39,139.51Z"/><path class="cls-59" d="M122.53,156.37a.84.84,0,0,1-.69-.35l-1.58-2.19a.85.85,0,0,1,.2-1.18.84.84,0,0,1,1.17.19l1.58,2.19a.85.85,0,0,1-.19,1.18A.82.82,0,0,1,122.53,156.37Z"/><circle class="cls-60" cx="74.08" cy="125.98" r="3.46" transform="translate(-35.61 29.41) rotate(-18.18)"/><circle class="cls-61" cx="123.39" cy="155.7" r="3.46"/><circle class="cls-62" cx="129.47" cy="119.22" r="3.46"/><circle class="cls-63" cx="129.47" cy="89.5" r="3.46"/><circle class="cls-64" cx="172.04" cy="129.35" r="3.46" transform="translate(16.88 278.54) rotate(-80.81)"/><circle class="cls-65" cx="150.42" cy="178.67" r="3.46"/><circle class="cls-66" cx="159.2" cy="217.18" r="3.46"/><circle class="cls-67" cx="190.95" cy="184.08" r="3.46"/><path class="cls-6" d="M370.67,256.64v19.49a2.87,2.87,0,0,0,2.87,2.87H468a2.88,2.88,0,0,1,2.79,2.18l1.69,6.79a1,1,0,0,0,1.81.11l2.18-5.74a2.89,2.89,0,0,1,2.69-1.85h4.06a2.88,2.88,0,0,0,2.88-2.88v-20a2.89,2.89,0,0,0-2.86-2.88l-109.68-.94A2.88,2.88,0,0,0,370.67,256.64Z"/><ellipse class="cls-68" cx="384.52" cy="266.9" rx="9.41" ry="9.66"/><path class="cls-69" d="M387.93,263c0,1.74-1.41,3.61-3.14,3.61s-3.14-1.87-3.14-3.61a3.15,3.15,0,0,1,6.28,0Z"/><path class="cls-70" d="M380.89,273.27h7.67a1.86,1.86,0,0,0,1.77-1.29l.41-1.29a1.85,1.85,0,0,0-1.12-2.3,14.26,14.26,0,0,0-9.66.1,1.85,1.85,0,0,0-1.18,2.24l.32,1.17A1.85,1.85,0,0,0,380.89,273.27Z"/><path class="cls-71" d="M472.83,261.15a2.36,2.36,0,0,1-2.36,2.36H400.88a2.36,2.36,0,0,1-2.36-2.36h0a2.37,2.37,0,0,1,2.36-2.37h69.59a2.37,2.37,0,0,1,2.36,2.37Z"/><path class="cls-72" d="M472.83,270.61a2.36,2.36,0,0,1-2.36,2.36H400.88a2.36,2.36,0,0,1-2.36-2.36h0a2.37,2.37,0,0,1,2.36-2.37h69.59a2.37,2.37,0,0,1,2.36,2.37Z"/><path class="cls-73" d="M257.26,248.72v19.49a2.87,2.87,0,0,1-2.87,2.87H159.92a2.89,2.89,0,0,0-2.79,2.18l-1.69,6.79a1,1,0,0,1-1.81.11l-2.18-5.74a2.89,2.89,0,0,0-2.69-1.85H144.7a2.87,2.87,0,0,1-2.87-2.87v-20a2.88,2.88,0,0,1,2.85-2.88l109.68-.94A2.88,2.88,0,0,1,257.26,248.72Z"/><path class="cls-74" d="M234.47,257.46a9.42,9.42,0,1,0,9.42-9.66A9.54,9.54,0,0,0,234.47,257.46Z"/><path class="cls-75" d="M247.3,253.54c0,1.74-1.41,3.61-3.15,3.61s-3.14-1.87-3.14-3.61a3.15,3.15,0,0,1,6.29,0Z"/><path class="cls-76" d="M240.25,263.84h7.67a1.86,1.86,0,0,0,1.77-1.3l.42-1.29A1.85,1.85,0,0,0,249,259a14.26,14.26,0,0,0-9.66.1,1.85,1.85,0,0,0-1.19,2.24l.32,1.17A1.87,1.87,0,0,0,240.25,263.84Z"/><path class="cls-77" d="M223.05,254.58a2.36,2.36,0,0,1-2.37,2.36H151.1a2.36,2.36,0,0,1-2.37-2.36h0a2.36,2.36,0,0,1,2.37-2.36h69.58a2.36,2.36,0,0,1,2.37,2.36Z"/><path class="cls-78" d="M223.05,263.36a2.37,2.37,0,0,1-2.37,2.37H151.1a2.37,2.37,0,0,1-2.37-2.37h0A2.37,2.37,0,0,1,151.1,261h69.58a2.37,2.37,0,0,1,2.37,2.36Z"/><rect class="cls-79" x="93.37" y="375.11" width="4.75" height="51.36" transform="translate(191.48 801.57) rotate(180)"/><path class="cls-80" d="M74.94,427.45h41.6a3.09,3.09,0,0,0-3.09-3.09H78a3.09,3.09,0,0,0-3.09,3.09Z"/><rect class="cls-81" x="67.08" y="362.88" width="55.58" height="15.76" rx="5.43" ry="5.43"/><path class="cls-82" d="M122.19,417.36s13.56,9.78,11.21,16.34c0,0-14.84-6.4-16.63-11.44s.3-7.27.3-7.27Z"/><path class="cls-83" d="M120.15,409.17l-2.21,6.41a2.23,2.23,0,0,0,.86,2.62,6.08,6.08,0,0,0,1.84.71,2.59,2.59,0,0,0,2.87-1.31l2.65-5Z"/><path class="cls-84" d="M98.57,351.47s27.86,4.83,39.81,15.87-11,46.24-11,46.24-3.76,0-8.31-3.92c0,0,13.59-26.48,1.88-34.2-13.16-8.68-28.33-10.64-28.33-10.64l5.66-12.49Z"/><path class="cls-85" d="M131,430.07c-3-1.38-11.43-7.29-12.85-7.55s-3.89,1.41-3.89,1.41a3.87,3.87,0,0,0,0,3c2,2.39,6.38,7,12.3,8.67,4.35,1.25,7.39.08,9.29-1.28A12.53,12.53,0,0,0,131,430.07Z"/><path class="cls-86" d="M126.64,435.57c-5.92-1.7-10.32-6.28-12.3-8.67a11.91,11.91,0,0,0,3.57,4.83c5.31,4.77,15.44,6.49,17.59,6.16,1.73-.27,1.57-1.87.43-3.6C134,435.65,131,436.82,126.64,435.57Z"/><path class="cls-87" d="M111.77,419.76c0,.82,1.71,3.64,2.69,5.22a2.57,2.57,0,0,0,2.17,1.21,6.17,6.17,0,0,0,1.79-.21,1.66,1.66,0,0,0,1.12-2.07l-1.92-6.55Z"/><path class="cls-84" d="M71.76,343.11s-6.18,16.54,0,21.57S92.71,375.38,96,385.39s8.89,29.49,16.38,36.39c0,0,5.26-.51,7.23-2.61,0,0-4.27-29.06-7.08-36.52-2.43-6.46-6-15.78-12.9-21-2-1.49-1.62-3.86-.71-6.15l1.66-4.18Z"/><path class="cls-8" d="M136.28,330.15c-10.38.63-7.14-15.94-7-16.6l-15.74,11.12s.84,8.86,13.92,13.5a16.3,16.3,0,0,0,9,.66A14.33,14.33,0,0,1,136.28,330.15Z"/><path class="cls-88" d="M156.33,325.16c-3.86-2.69-8.24,0-8.24,0-5.17,3.38-9,4.82-11.81,5a14.33,14.33,0,0,0,.24,8.68c5.79-1.25,9.93-5.44,11.73-7.59a1.86,1.86,0,0,1,2.58-.28c.81.64,1.59,1.51,1.45,2.42-.28,1.81,1.82,2.38,2,1.73a26.83,26.83,0,0,0-.71-4.54s4.19,4.21,5.82,5.83,3.7,0,3.7,0S160.2,327.85,156.33,325.16Z"/><path class="cls-8" d="M87.92,288s15.08-6,43.16,17.14c0,0,2.35,4.85-.21,9.18s-26.94,25.37-30.29,37.05c0,0-14.52,4.72-29.55-6.47C71,344.86,72.36,312.36,87.92,288Z"/><path class="cls-89" d="M117.74,282.57l-7.42,9a3,3,0,0,0-.39,3.18c1,2.1,3.47,5.16,8.9,4.74a4.58,4.58,0,0,0,3.75-2.56l5.19-10.73Z"/><path class="cls-8" d="M76.23,326.52c-1.75-7.13,16-23,16-23L87.92,288s-38.32,25.5-28.55,46a15,15,0,0,0,5.41,6.38C67.87,332.05,72.78,328.24,76.23,326.52Z"/><path class="cls-90" d="M76.22,325.48a.42.42,0,0,1-.41-.31c-1.79-7.3,15.39-22.8,16.12-23.45a.42.42,0,0,1,.56.62C92.32,302.5,75,318.16,76.63,325a.41.41,0,0,1-.31.5Z"/><path class="cls-91" d="M103.11,325.91s-21,8.17-26.17,2a3.42,3.42,0,0,1-.71-1.41c-3.45,1.72-8.36,5.53-11.45,13.83,11.06,7.07,30-3.93,35.09-7.18a3.84,3.84,0,0,1,2.82-.52c2,.41,5.38,1,7.22.73,2.69-.41,6.55,9.07,10.91,6.14C120.82,339.52,117.09,323,103.11,325.91Z"/><path class="cls-92" d="M133.91,269.34c.05.21-1,13.08-1.64,20.08a3.64,3.64,0,0,1-4.65,3.18L123,291.23a7,7,0,0,1-3.9-2.9l-1.4-2.14,2.24-17.06S132.66,264.49,133.91,269.34Z"/><path class="cls-93" d="M133,260.22a4.17,4.17,0,0,0-4.55,2.93,1.38,1.38,0,0,1-1.87.8,1.12,1.12,0,0,0-1.26.09,1.39,1.39,0,0,1-1.79,0,5.12,5.12,0,0,0-6.23-.8c-2.64,1.55-2.17,3.79-1.48,5.21a1.39,1.39,0,0,1-.68,1.89c-3.46,1.57-2.47,4.34-1.85,5.52a1.38,1.38,0,0,0,.85.68c1.1.31,3.68,1.23,4.13,3.2,0,.17.07.39.11.63a19.05,19.05,0,0,1,4.31-.73l.15-6.59a1.41,1.41,0,0,1,.54-1.07c1.06-.81,3.52-2.37,5.67-1.37,2.81,1.31,8.21,1.95,9.16-1.38S138,260.52,133,260.22Z"/><path class="cls-94" d="M118.2,283.37s1.4-5.87-.83-7-5.21-.11-4.09,3.91C114.68,285.26,118.2,283.37,118.2,283.37Z"/><path class="cls-95" d="M113.88,342h.1l44.14,0a2,2,0,0,0,0-4l-44.14.05a2,2,0,0,0-.1,3.94Z"/><path class="cls-96" d="M197.8,301.94H161a7,7,0,0,0-6.34,4l-17,36h45.68a4.26,4.26,0,0,0,4-2.69L200.53,306A2.94,2.94,0,0,0,197.8,301.94Z"/><path class="cls-6" d="M191.84,436.68a1.91,1.91,0,0,0,.73-.15,1.77,1.77,0,0,0,1-2.36l-38.9-87.54a1.87,1.87,0,0,0-2.43-.94,1.77,1.77,0,0,0-1,2.36l38.89,87.54A1.88,1.88,0,0,0,191.84,436.68Z"/><path class="cls-6" d="M148,436.68a1.85,1.85,0,0,0,1.7-1.09l38.9-87.54a1.77,1.77,0,0,0-1-2.36,1.89,1.89,0,0,0-2.44.94l-38.89,87.54a1.77,1.77,0,0,0,1,2.36A1.87,1.87,0,0,0,148,436.68Z"/><path class="cls-6" d="M71.43,436.68a1.83,1.83,0,0,0,.73-.15,1.78,1.78,0,0,0,1-2.36l-38.9-87.54a1.89,1.89,0,0,0-2.44-.94,1.77,1.77,0,0,0-1,2.36l38.9,87.54A1.85,1.85,0,0,0,71.43,436.68Z"/><path class="cls-6" d="M27.61,436.68a1.87,1.87,0,0,0,1.71-1.09l38.9-87.54a1.78,1.78,0,0,0-1-2.36,1.87,1.87,0,0,0-2.43.94l-38.9,87.54a1.77,1.77,0,0,0,1,2.36A1.91,1.91,0,0,0,27.61,436.68Z"/><path class="cls-6" d="M23.05,343.93a2.14,2.14,0,0,1,.37-1.62,1.68,1.68,0,0,1,1.35-.71h177a2,2,0,0,1,1.69,1,2.48,2.48,0,0,1,.13,2.16l-1.91,4.64a2.68,2.68,0,0,1-2.44,1.75H26a2.11,2.11,0,0,1-2-1.85Z"/><path class="cls-6" d="M560.81,243.36l-90.67-8a7.16,7.16,0,0,1-6.52-7.09l-.33-61.13a7.16,7.16,0,0,1,7.65-7.18l96.55,6.72a7.15,7.15,0,0,1,6.62,7.77l-5.54,62.46A7.15,7.15,0,0,1,560.81,243.36Z"/><path class="cls-97" d="M468.6,173,468,225.8a4.41,4.41,0,0,0,4,4.45l86.94,8.64a4.43,4.43,0,0,0,4.85-4l5-56.44a4.42,4.42,0,0,0-4.17-4.81l-91.35-5A4.43,4.43,0,0,0,468.6,173Z"/><path class="cls-73" d="M509.82,219.13,559,222a.9.9,0,0,1,.84,1l-.07.79a.91.91,0,0,1-1,.82l-49.14-3.68a.88.88,0,0,1-.82-1h0A.9.9,0,0,1,509.82,219.13Z"/><rect class="cls-73" x="532.86" y="200.96" width="2.13" height="51.06" rx="0.9" ry="0.9" transform="translate(261.18 738.33) rotate(-84.93)"/><path class="cls-73" d="M523,229.78l0,.15a.9.9,0,0,0,.82,1l34.18,3a.9.9,0,0,0,1-.82l.06-.69a.89.89,0,0,0-.83-1L524,229A.89.89,0,0,0,523,229.78Z"/><path class="cls-98" d="M553.21,221.52l-107-2.17a8.42,8.42,0,0,1-8.22-7.79l-5.29-71.69a8.42,8.42,0,0,1,8.4-9l113.8.15a8.41,8.41,0,0,1,8.39,8.58l-1.5,73.72A8.4,8.4,0,0,1,553.21,221.52Z"/><path class="cls-99" d="M439.41,146.39l3.53,62a5.21,5.21,0,0,0,5,4.91l102.68,3.16a5.2,5.2,0,0,0,5.36-5.09l1.36-66.61a5.19,5.19,0,0,0-5.28-5.3l-107.55,1.47A5.21,5.21,0,0,0,439.41,146.39Z"/><path class="cls-100" d="M491.46,197.18l57.95-.55a1.05,1.05,0,0,1,1.06,1.08l0,.93a1.05,1.05,0,0,1-1.06,1l-57.93-.38a1.05,1.05,0,0,1-1-1.07h0A1.07,1.07,0,0,1,491.46,197.18Z"/><rect class="cls-101" x="519.07" y="173.86" width="2.5" height="60.03" rx="1.05" ry="1.05" transform="translate(305.85 719.93) rotate(-88.83)"/><path class="cls-102" d="M507.79,208.62v.18a1.05,1.05,0,0,0,1,1.07l40.34.82a1.07,1.07,0,0,0,1.08-1v-.82a1.06,1.06,0,0,0-1-1.08l-40.35-.17A1.05,1.05,0,0,0,507.79,208.62Z"/><path class="cls-103" d="M536.9,207.46H418.19A9.32,9.32,0,0,1,408.9,199l-7.48-79.38a9.32,9.32,0,0,1,9.11-10.2L536.72,107a9.33,9.33,0,0,1,9.51,9.32v81.78A9.33,9.33,0,0,1,536.9,207.46Z"/><path class="cls-104" d="M409,126.71l5.3,68.63a5.77,5.77,0,0,0,5.69,5.33l113.94,1.19a5.77,5.77,0,0,0,5.83-5.77V122.2a5.77,5.77,0,0,0-6-5.77L414.56,120.5A5.76,5.76,0,0,0,409,126.71Z"/><path class="cls-105" d="M469.83,126.08l64.25-1.92a1.17,1.17,0,0,1,1.21,1.16v1a1.18,1.18,0,0,1-1.16,1.17l-64.25.88a1.16,1.16,0,0,1-1.18-1.16h0A1.17,1.17,0,0,1,469.83,126.08Z"/><rect class="cls-106" x="468.7" y="131.47" width="66.59" height="2.78" rx="1.17" ry="1.17"/><path class="cls-107" d="M453,190.41a.52.52,0,0,1-.53-.52v-1.57a.52.52,0,0,1,.52-.53h0a.52.52,0,0,1,.53.52v1.57a.52.52,0,0,1-.52.53Zm0-5.24a.53.53,0,0,1-.52-.52v-1.58a.52.52,0,0,1,.52-.52h0a.52.52,0,0,1,.52.52v1.57a.53.53,0,0,1-.52.53Zm0-5.24a.52.52,0,0,1-.52-.53v-1.57a.52.52,0,0,1,.53-.52h0a.52.52,0,0,1,.52.52v1.57a.53.53,0,0,1-.53.53Zm0-5.25a.52.52,0,0,1-.53-.52v-1.57a.52.52,0,0,1,.52-.53h0a.53.53,0,0,1,.53.53v1.57a.52.52,0,0,1-.52.52Z"/><path class="cls-108" d="M479.34,188.92a.53.53,0,0,1-.53-.53v-1.57a.53.53,0,0,1,1.05,0v1.57A.53.53,0,0,1,479.34,188.92Zm0-5.25a.52.52,0,0,1-.53-.52v-1.57a.53.53,0,1,1,1.05,0v1.57A.52.52,0,0,1,479.34,183.67Zm0-5.24a.52.52,0,0,1-.53-.52v-1.57a.53.53,0,1,1,1.05,0v1.57A.52.52,0,0,1,479.34,178.43Zm0-5.24a.52.52,0,0,1-.53-.52v-1.58a.53.53,0,0,1,1.05,0v1.58A.52.52,0,0,1,479.34,173.19Zm0-5.24a.53.53,0,0,1-.53-.53v-1.57a.53.53,0,0,1,1.05,0v1.57A.53.53,0,0,1,479.34,168Z"/><path class="cls-109" d="M499.42,193.25a.53.53,0,0,1-.53-.51l0-.94a.53.53,0,0,1,.51-.54.51.51,0,0,1,.54.51l0,.94a.53.53,0,0,1-.51.54Zm-.15-4.61a.52.52,0,0,1-.52-.51l-.05-1.57a.53.53,0,0,1,1.05,0l.05,1.57a.53.53,0,0,1-.51.54Zm-.16-5.24a.52.52,0,0,1-.52-.5l0-1.58a.53.53,0,0,1,.51-.54.55.55,0,0,1,.54.51l0,1.57a.52.52,0,0,1-.5.54Zm-.16-5.24a.53.53,0,0,1-.53-.5l0-1.58a.52.52,0,0,1,.5-.54.53.53,0,0,1,.54.51l.05,1.57a.53.53,0,0,1-.51.54Zm-.16-5.24a.52.52,0,0,1-.53-.5l-.05-1.58a.53.53,0,0,1,1.05,0l.05,1.57a.52.52,0,0,1-.51.54Zm-.17-5.24a.52.52,0,0,1-.52-.5l-.05-1.58a.53.53,0,0,1,.51-.54.52.52,0,0,1,.54.51l0,1.57a.52.52,0,0,1-.51.54Zm-.16-5.23a.53.53,0,0,1-.52-.51l-.05-1.57a.53.53,0,0,1,.51-.55.53.53,0,0,1,.54.51l0,1.57a.53.53,0,0,1-.5.55Z"/><path class="cls-110" d="M518.5,190.31a.52.52,0,0,1-.52-.52v-1.57a.52.52,0,0,1,.52-.53.53.53,0,0,1,.53.53v1.57A.52.52,0,0,1,518.5,190.31Zm0-5.24a.52.52,0,0,1-.52-.52V183a.52.52,0,0,1,.52-.53.53.53,0,0,1,.53.53v1.57A.52.52,0,0,1,518.5,185.07Zm0-5.24a.52.52,0,0,1-.52-.52v-1.58a.52.52,0,0,1,.52-.52.52.52,0,0,1,.53.52v1.58A.52.52,0,0,1,518.5,179.83Zm0-5.24a.52.52,0,0,1-.52-.53v-1.57a.52.52,0,0,1,.52-.52.52.52,0,0,1,.53.52v1.57A.53.53,0,0,1,518.5,174.59Zm0-5.24a.52.52,0,0,1-.52-.53v-1.57a.52.52,0,0,1,.52-.52.52.52,0,0,1,.53.52v1.57A.53.53,0,0,1,518.5,169.35Zm0-5.25a.52.52,0,0,1-.52-.52V162a.52.52,0,0,1,.52-.53.53.53,0,0,1,.53.53v1.57A.52.52,0,0,1,518.5,164.1Zm0-5.24a.52.52,0,0,1-.52-.52v-1.57a.52.52,0,0,1,.52-.53.53.53,0,0,1,.53.53v1.57A.52.52,0,0,1,518.5,158.86Zm0-5.24a.52.52,0,0,1-.52-.52v-1.58a.52.52,0,0,1,.52-.52.52.52,0,0,1,.53.52v1.58A.52.52,0,0,1,518.5,153.62Zm0-5.24a.52.52,0,0,1-.52-.53v-1.57a.52.52,0,0,1,.52-.52.52.52,0,0,1,.53.52v1.57A.53.53,0,0,1,518.5,148.38Z"/><path class="cls-111" d="M424.82,196.5a.79.79,0,0,1-.78-.72l-5.37-63.46a.78.78,0,0,1,.72-.85.8.8,0,0,1,.85.72l5.37,63.46a.79.79,0,0,1-.72.85Z"/><polygon class="cls-112" points="417.06 135.6 419.49 132.72 422.37 135.15 422.18 132.89 419.3 130.46 416.87 133.34 417.06 135.6"/><path class="cls-113" d="M531.32,193.51H420.75a.79.79,0,1,1,0-1.57H531.32a.79.79,0,1,1,0,1.57Z"/><polygon class="cls-114" points="528.19 195.39 530.86 192.72 528.19 190.06 530.46 190.06 533.12 192.72 530.46 195.39 528.19 195.39"/><path class="cls-115" d="M429.43,175.28a.79.79,0,0,1-.78-.69.78.78,0,0,1,.67-.88c.58-.08,58.48-8,90.17-31.37a.78.78,0,1,1,.93,1.26c-32,23.61-90.31,31.59-90.89,31.67Z"/><path class="cls-116" d="M520.2,147.15h-.06a.79.79,0,0,1-.72-.85l.24-3.09L515.3,143a.79.79,0,0,1-.73-.84.76.76,0,0,1,.83-.73l5.15.3a.79.79,0,0,1,.55.27.77.77,0,0,1,.19.58l-.31,3.89A.78.78,0,0,1,520.2,147.15Z"/><path class="cls-6" d="M604.15,113.15l-.76-.66-.13-.11c-.21-.2-.65-.61-1.29-1.14a.47.47,0,0,1-.08-.61.36.36,0,0,1,.54-.1c.28.23.52.43.72.61a.38.38,0,0,1,.74.1c.08.54.12.84.12.84Zm-1-4.26-.1,0a.4.4,0,0,1-.47-.33c-.18-.91-.38-1.85-.6-2.77a.44.44,0,0,1,.28-.53.4.4,0,0,1,.48.31c.22.93.42,1.88.6,2.8A.46.46,0,0,1,603.19,108.89Zm-2.93.79a.37.37,0,0,1-.39,0,23.68,23.68,0,0,0-2.21-1.34.46.46,0,0,1-.19-.58.37.37,0,0,1,.52-.21,25.3,25.3,0,0,1,2.29,1.38.47.47,0,0,1,.13.6A.46.46,0,0,1,600.26,109.68Zm-4.63-2.42a.32.32,0,0,1-.3,0,14.44,14.44,0,0,0-2.43-.66.44.44,0,0,1-.32-.5.41.41,0,0,1,.45-.37,15.84,15.84,0,0,1,2.54.7.45.45,0,0,1,.25.55A.41.41,0,0,1,595.63,107.26Zm6.26-3.91-.07,0a.39.39,0,0,1-.49-.29c-.24-.91-.5-1.82-.77-2.71a.44.44,0,0,1,.24-.55.38.38,0,0,1,.5.27c.27.9.53,1.82.78,2.74A.45.45,0,0,1,601.89,103.35Zm-11.28,3a.35.35,0,0,1-.18,0,10,10,0,0,0-1.74.21l-.74.14a.41.41,0,0,1-.45-.37.44.44,0,0,1,.33-.5l.71-.13a11.65,11.65,0,0,1,1.87-.23.43.43,0,0,1,.4.43A.45.45,0,0,1,590.61,106.39ZM581.78,111l-.69.4a2.41,2.41,0,0,0-1.46-1.1.44.44,0,0,1-.27-.54.39.39,0,0,1,.49-.29,3.33,3.33,0,0,1,1.36.77.4.4,0,0,1,.39.27Zm3.75-4a.41.41,0,0,1-.19,0,9.28,9.28,0,0,1-2.62-.41.45.45,0,0,1-.27-.54.38.38,0,0,1,.48-.3,8.3,8.3,0,0,0,2.42.37.43.43,0,0,1,.39.45A.49.49,0,0,1,585.53,107Zm14.71-9,0,0a.38.38,0,0,1-.5-.25q-.47-1.35-1-2.64a.45.45,0,0,1,.2-.57.37.37,0,0,1,.51.22c.34.87.67,1.77,1,2.67A.46.46,0,0,1,600.24,97.93Zm-19.76,10.44-.05,0a.38.38,0,0,1-.5-.25c-.36-1-.67-2-.91-2.7a.47.47,0,0,1,.24-.56.38.38,0,0,1,.5.27c.24.74.54,1.64.9,2.67A.46.46,0,0,1,580.48,108.37Zm-3.06,1.35a.36.36,0,0,1-.25,0c-.76-.13-1.59-.3-2.54-.56a.43.43,0,0,1-.28-.53.39.39,0,0,1,.47-.32,24.25,24.25,0,0,0,2.47.55.43.43,0,0,1,.33.5A.47.47,0,0,1,577.42,109.72Zm3.33-4.44a.36.36,0,0,1-.44,0,7.62,7.62,0,0,1-1.45-1.8l-.21-.31a.51.51,0,0,1,0-.64.35.35,0,0,1,.54,0,.53.53,0,0,1,.09.11,3.71,3.71,0,0,1,.26.39,7.5,7.5,0,0,0,1.31,1.62.46.46,0,0,1,.06.61A.43.43,0,0,1,580.75,105.28Zm17.45-12.6h0a.38.38,0,0,1-.53-.2c-.33-.76-.68-1.51-1-2.23l-.14-.29a.46.46,0,0,1,.16-.59h0a.37.37,0,0,1,.53.17l.14.29c.36.73.71,1.49,1,2.27A.45.45,0,0,1,598.2,92.68Zm-25.73,15.64a.36.36,0,0,1-.32,0,23.53,23.53,0,0,1-2.38-1.15.44.44,0,0,1-.18-.58.37.37,0,0,1,.52-.2,24.3,24.3,0,0,0,2.31,1.11.45.45,0,0,1,.23.56A.42.42,0,0,1,572.47,108.32Zm-4.58-2.5a.37.37,0,0,1-.39,0l-.48-.33a19.36,19.36,0,0,1-1.67-1.32.49.49,0,0,1-.06-.62.36.36,0,0,1,.55-.07,16.52,16.52,0,0,0,1.6,1.27l.46.32a.45.45,0,0,1,.13.6A.36.36,0,0,1,567.89,105.82Zm27.83-18.14a.36.36,0,0,1-.51-.15c-.46-.81-.93-1.6-1.41-2.35a.46.46,0,0,1,.09-.61.35.35,0,0,1,.54.1c.49.76,1,1.57,1.44,2.39a.49.49,0,0,1-.12.61Zm-31.8,14.57a.37.37,0,0,1-.48-.09,18.84,18.84,0,0,1-1.62-2.29.47.47,0,0,1,.11-.61.37.37,0,0,1,.54.12,19.15,19.15,0,0,0,1.55,2.19.48.48,0,0,1,0,.62ZM592.74,83a.36.36,0,0,1-.49-.11c-.54-.73-1.11-1.44-1.68-2.1a.47.47,0,0,1,0-.62.36.36,0,0,1,.55,0c.59.68,1.17,1.4,1.72,2.16a.46.46,0,0,1-.05.61ZM561.06,97.52h0a.36.36,0,0,1-.52-.2,22.33,22.33,0,0,1-1-2.71.45.45,0,0,1,.26-.55.38.38,0,0,1,.49.28,20.52,20.52,0,0,0,.92,2.6A.45.45,0,0,1,561.06,97.52Zm28.12-18.58a.35.35,0,0,1-.44,0c-.64-.62-1.31-1.21-2-1.74a.5.5,0,0,1-.09-.62.37.37,0,0,1,.55-.1c.69.55,1.37,1.16,2,1.8a.47.47,0,0,1,0,.61A.26.26,0,0,1,589.18,78.94ZM559.52,92.09l-.13,0a.4.4,0,0,1-.45-.36,13.48,13.48,0,0,1-.17-3h0l.27-1.2a.4.4,0,0,1,.48-.31.44.44,0,0,1,.28.53L559.52,89a12.54,12.54,0,0,0,.19,2.62A.46.46,0,0,1,559.52,92.09ZM585,75.63a.35.35,0,0,1-.38,0,21.53,21.53,0,0,0-2.24-1.25.47.47,0,0,1-.21-.58.39.39,0,0,1,.52-.23,24.32,24.32,0,0,1,2.32,1.3.48.48,0,0,1,.15.6A.35.35,0,0,1,585,75.63Zm-4.68-2.26a.35.35,0,0,1-.3,0,20.31,20.31,0,0,0-2.43-.67.44.44,0,0,1-.31-.52.39.39,0,0,1,.45-.34,21.32,21.32,0,0,1,2.52.7.44.44,0,0,1,.26.54A.4.4,0,0,1,580.34,73.37ZM560.25,85.28a.37.37,0,0,1-.29,0,.45.45,0,0,1-.28-.53l.64-2.77a.4.4,0,0,1,.48-.31.44.44,0,0,1,.28.53L560.44,85A.47.47,0,0,1,560.25,85.28Zm15.09-13a.34.34,0,0,1-.22,0c-.82-.07-1.66-.11-2.52-.1a.44.44,0,0,1,0-.87,24.41,24.41,0,0,1,2.58.1.42.42,0,0,1,.36.48A.43.43,0,0,1,575.34,72.29Zm-13.81,7.45a.37.37,0,0,1-.29,0,.44.44,0,0,1-.28-.53l.64-2.77a.4.4,0,0,1,.48-.31.44.44,0,0,1,.28.53l-.64,2.77A.47.47,0,0,1,561.53,79.74Zm8.71-7.39a.27.27,0,0,1-.15.05c-.81.09-1.65.23-2.5.39a.39.39,0,0,1-.45-.35.44.44,0,0,1,.32-.51c.86-.17,1.72-.3,2.55-.4a.4.4,0,0,1,.43.39A.45.45,0,0,1,570.24,72.35Zm-5,1-.09,0c-.73.2-1.48.44-2.22.7a.37.37,0,0,1-.39.14.46.46,0,0,1-.28-.54l.07-.3.21-.07c.81-.29,1.62-.56,2.41-.78a.39.39,0,0,1,.48.32A.48.48,0,0,1,565.22,73.36Z"/><path class="cls-8" d="M561.16,82.92s.94,12.64,9.3,12.87S587.3,93.93,590,97.11c0,0-6-23.87-27.45-18.37Z"/><path class="cls-8" d="M537.53,86.57s-3,12-.31,14.91,26.57,11.32,28.91,12.14a.2.2,0,0,0,.26-.13h0a3.53,3.53,0,0,0-.22-2.88C563.84,106.42,556.82,94,553.61,91,549.75,87.38,537.53,86.57,537.53,86.57Z"/><path class="cls-8" d="M547.21,59.76s5.27-11,9-11c3.59,0,26.14,12.52,28.33,13.75a.23.23,0,0,1,.1.29h0a2.94,2.94,0,0,1-1.94,1.9c-4.27,1.21-17,4.68-21.2,4.35C556.5,68.67,547.21,59.76,547.21,59.76Z"/><path class="cls-84" d="M503,70.76A56.56,56.56,0,0,0,518.3,81.14c19.05,8.69,34.39,11.39,38.78,12a2.11,2.11,0,0,0,2-1,46,46,0,0,0,7-19,3.74,3.74,0,0,0-1.27-3.4A160.89,160.89,0,0,0,530,48.7a52.6,52.6,0,0,0-17.36-4.45C506.19,53.64,503.92,64.51,503,70.76Z"/><path class="cls-8" d="M512.65,44.25a53.82,53.82,0,0,0-24.1,3.61,1.25,1.25,0,0,0-.6,1.64,66.53,66.53,0,0,0,15,21.26C503.92,64.51,506.19,53.64,512.65,44.25Z"/><path class="cls-117" d="M526.78,53.63c4.94,2.24,7.2,8.86,5.06,14.79S524,77.36,519,75.12s-7.21-8.85-5.07-14.79S521.84,51.4,526.78,53.63Z"/><path class="cls-118" d="M525.85,55.4c3.93,1.78,5.74,7.06,4,11.79s-6.28,7.12-10.22,5.34-5.74-7.06-4-11.79S521.91,53.62,525.85,55.4Z"/><path class="cls-119" d="M519.26,69.36a.23.23,0,0,1-.28,0,7.79,7.79,0,0,1-1.79-8.28,8,8,0,0,1,1.09-2,.24.24,0,0,1,.36,0,.3.3,0,0,1,0,.4,7.36,7.36,0,0,0,.63,9.51.31.31,0,0,1,0,.4A.27.27,0,0,1,519.26,69.36Z"/><path class="cls-120" d="M543.43,65.41c3.27,1.47,4.77,5.85,3.35,9.77s-5.21,5.9-8.47,4.43-4.76-5.85-3.35-9.78S540.17,63.93,543.43,65.41Z"/><path class="cls-121" d="M542.82,66.58c2.6,1.17,3.79,4.66,2.67,7.78s-4.15,4.71-6.75,3.53-3.8-4.66-2.67-7.79S540.22,65.4,542.82,66.58Z"/><path class="cls-122" d="M538.51,75.88a.23.23,0,0,1-.28,0A5.27,5.27,0,0,1,537,70.27a5.17,5.17,0,0,1,.74-1.37.24.24,0,0,1,.36,0,.3.3,0,0,1,0,.4,4.78,4.78,0,0,0,.4,6.14.31.31,0,0,1,0,.4A.18.18,0,0,1,538.51,75.88Z"/><path class="cls-6" d="M612.11,327.49a.69.69,0,0,1-.31-.87l.59-1.5a.56.56,0,0,1,.77-.34.69.69,0,0,1,.3.86l-.58,1.51a.66.66,0,0,1-.28.33A.53.53,0,0,1,612.11,327.49Zm2.19-5.74a.68.68,0,0,1-.31-.86l.67-1.81a.57.57,0,0,1,.77-.36.69.69,0,0,1,.32.86c-.23.6-.45,1.21-.68,1.82a.65.65,0,0,1-.29.34A.51.51,0,0,1,614.3,321.75Zm2.23-6.07a.7.7,0,0,1-.33-.86l.64-1.83a.58.58,0,0,1,.76-.37.68.68,0,0,1,.33.85l-.64,1.84a.64.64,0,0,1-.29.35A.55.55,0,0,1,616.53,315.68Zm2.12-6.12a.68.68,0,0,1-.34-.85l.61-1.84a.57.57,0,0,1,.75-.39.68.68,0,0,1,.35.84c-.2.62-.41,1.24-.62,1.85a.59.59,0,0,1-.29.36A.53.53,0,0,1,618.65,309.56Zm2-6.17a.67.67,0,0,1-.36-.83l.57-1.86a.58.58,0,0,1,.75-.4.66.66,0,0,1,.36.83c-.19.62-.38,1.24-.58,1.86a.61.61,0,0,1-.29.37A.51.51,0,0,1,620.67,303.39Zm1.89-6.2a.69.69,0,0,1-.37-.83l.54-1.87a.57.57,0,0,1,.73-.42.66.66,0,0,1,.38.82l-.54,1.88a.61.61,0,0,1-.3.38A.56.56,0,0,1,622.56,297.19Zm1.77-6.26a.66.66,0,0,1-.39-.81c.16-.63.33-1.26.49-1.88a.58.58,0,0,1,.73-.45.67.67,0,0,1,.4.81c-.17.63-.33,1.26-.5,1.89a.63.63,0,0,1-.31.41A.55.55,0,0,1,624.33,290.93Zm1.62-6.3a.66.66,0,0,1-.41-.8l.45-1.89a.57.57,0,0,1,.71-.47.65.65,0,0,1,.42.8c-.14.63-.3,1.27-.45,1.9a.65.65,0,0,1-.31.42A.49.49,0,0,1,626,284.63Zm1.47-6.34a.67.67,0,0,1-.44-.79c.14-.64.27-1.27.4-1.91a.59.59,0,0,1,.7-.49.65.65,0,0,1,.44.78c-.13.64-.26,1.28-.4,1.92a.64.64,0,0,1-.31.44A.59.59,0,0,1,627.42,278.29Zm1.29-6.39a.66.66,0,0,1-.46-.78c.12-.64.23-1.28.34-1.92a.6.6,0,0,1,.69-.52.66.66,0,0,1,.46.77c-.11.65-.22,1.29-.34,1.93a.64.64,0,0,1-.32.46A.53.53,0,0,1,628.71,271.9Zm1.09-6.44a.66.66,0,0,1-.48-.76c.1-.64.19-1.29.28-1.93a.6.6,0,0,1,.67-.55.65.65,0,0,1,.49.75c-.09.65-.19,1.3-.28,1.95a.66.66,0,0,1-.33.48A.53.53,0,0,1,629.8,265.46Zm.88-6.49a.64.64,0,0,1-.51-.73q.12-1,.21-1.95a.6.6,0,0,1,.65-.57.65.65,0,0,1,.52.72c-.07.66-.14,1.31-.22,2a.63.63,0,0,1-.32.5A.47.47,0,0,1,630.68,259Zm.64-6.52a.63.63,0,0,1-.54-.71c.05-.65.09-1.3.13-2a.62.62,0,0,1,.63-.61.64.64,0,0,1,.54.7c0,.66-.08,1.31-.13,2a.68.68,0,0,1-.33.54A.52.52,0,0,1,631.32,252.45Zm.36-6.54a.64.64,0,0,1-.56-.68c0-.66,0-1.31,0-2a.59.59,0,1,1,1.17,0c0,.66,0,1.32,0,2a.67.67,0,0,1-.33.57A.64.64,0,0,1,631.68,245.91Zm.07-6.56a.63.63,0,0,1-.6-.65c0-.65,0-1.3,0-1.95a.62.62,0,0,1,.56-.68.6.6,0,0,1,.61.63c0,.66,0,1.32.05,2a.66.66,0,0,1-.33.61A.61.61,0,0,1,631.75,239.35Zm-.26-6.56a.61.61,0,0,1-.63-.6c-.05-.65-.1-1.3-.16-1.95a.65.65,0,0,1,.52-.72.62.62,0,0,1,.65.59c0,.66.11,1.32.16,2a.69.69,0,0,1-.33.65Zm-.63-6.52a.6.6,0,0,1-.67-.55c-.06-.5-.13-1-.21-1.48a.58.58,0,0,1-.22-.32.67.67,0,0,1,.35-.84q.82-.33,1.62-.69a.57.57,0,0,1,.77.36.68.68,0,0,1-.33.85l-1,.46c.08.48.14,1,.21,1.46a.68.68,0,0,1-.32.69A.49.49,0,0,1,630.86,226.27Zm4.3-4.89a.68.68,0,0,1,.25-.88c.51-.3,1-.61,1.52-.93a.55.55,0,0,1,.8.24.7.7,0,0,1-.21.9c-.52.33-1,.65-1.57.95h0A.56.56,0,0,1,635.16,221.38Zm5-3.33a.7.7,0,0,1,.14-.92c.47-.37.93-.76,1.38-1.16a.56.56,0,0,1,.83.11.71.71,0,0,1-.1.92c-.46.41-1,.81-1.43,1.2l-.09.06A.56.56,0,0,1,640.2,218.05Zm-13.65,7.66c-.57.17-1.15.33-1.72.48a.6.6,0,0,1-.71-.49.67.67,0,0,1,.44-.79c.57-.15,1.13-.3,1.69-.47a.59.59,0,0,1,.72.46.69.69,0,0,1-.32.76A.31.31,0,0,1,626.55,225.71Zm18.2-11.79a.71.71,0,0,1,0-.92l.28-.31c.32-.36.63-.71.94-1.08a.54.54,0,0,1,.82,0,.71.71,0,0,1,0,.93q-.47.56-1,1.11l-.29.31a.45.45,0,0,1-.15.13A.55.55,0,0,1,644.75,213.92Zm-24,13.14c-.58.1-1.17.19-1.76.27a.61.61,0,0,1-.65-.58.64.64,0,0,1,.51-.73c.58-.07,1.15-.16,1.73-.26a.59.59,0,0,1,.66.55.67.67,0,0,1-.32.69A.49.49,0,0,1,620.75,227.06Zm9-7.24a.59.59,0,0,1-.7-.49c-.13-.64-.27-1.27-.42-1.9a.66.66,0,0,1,.42-.8.58.58,0,0,1,.71.47c.15.64.3,1.28.43,1.93a.68.68,0,0,1-.31.74Zm-14.94,7.88c-.59,0-1.18.06-1.77.07a.66.66,0,0,1,0-1.32q.87,0,1.74-.06a.62.62,0,0,1,.61.63.68.68,0,0,1-.33.62A.46.46,0,0,1,614.86,227.7Zm33.82-18.64a.7.7,0,0,1-.12-.92c.34-.51.67-1,1-1.57a.56.56,0,0,1,.82-.18.7.7,0,0,1,.16.91c-.33.55-.68,1.1-1,1.63a.83.83,0,0,1-.22.2A.53.53,0,0,1,648.68,209.06Zm-39.74,18.62c-.59,0-1.18-.08-1.77-.14a.63.63,0,0,1-.53-.7.59.59,0,0,1,.63-.6l1.74.13a.67.67,0,0,1,.22,1.24A.57.57,0,0,1,608.94,227.68Zm42.93-24.1a.7.7,0,0,1-.24-.89c.27-.57.53-1.15.77-1.73a.57.57,0,0,1,.78-.32.69.69,0,0,1,.28.88c-.25.6-.52,1.2-.8,1.78a.62.62,0,0,1-.26.29A.55.55,0,0,1,651.87,203.58Zm-23.61,9.91a.58.58,0,0,1-.74-.41c-.18-.62-.37-1.23-.57-1.84a.67.67,0,0,1,.34-.85.58.58,0,0,1,.76.39c.2.63.4,1.25.58,1.88a.67.67,0,0,1-.3.8ZM603.06,227c-.59-.09-1.17-.2-1.75-.32a.67.67,0,0,1-.48-.76.6.6,0,0,1,.69-.53l1.71.32a.68.68,0,0,1,.17,1.24A.49.49,0,0,1,603.06,227Zm51.24-29.39a.67.67,0,0,1-.35-.83c.2-.61.38-1.23.55-1.85a.59.59,0,0,1,.74-.43.67.67,0,0,1,.38.82c-.18.64-.37,1.27-.57,1.9a.64.64,0,0,1-.29.37A.53.53,0,0,1,654.3,197.61Zm-57,28.08c-.58-.16-1.15-.34-1.72-.52a.67.67,0,0,1-.4-.81.58.58,0,0,1,.73-.45q.84.27,1.68.51a.67.67,0,0,1,.42.8.64.64,0,0,1-.31.43A.55.55,0,0,1,597.26,225.69ZM656,191.33a.66.66,0,0,1-.45-.78c.12-.63.23-1.27.33-1.91a.59.59,0,0,1,.68-.53.66.66,0,0,1,.48.76c-.1.65-.22,1.31-.34,2a.66.66,0,0,1-.32.45A.55.55,0,0,1,656,191.33Zm-29.8,16a.57.57,0,0,1-.78-.32c-.16-.4-.33-.8-.5-1.2l-.24-.56a.68.68,0,0,1,.26-.88h0a.56.56,0,0,1,.78.29c.08.2.16.39.25.58l.51,1.22a.68.68,0,0,1-.28.86Zm-34.57,16.32c-.56-.24-1.11-.5-1.65-.76a.69.69,0,0,1-.3-.87.56.56,0,0,1,.77-.33c.53.26,1.06.5,1.6.74a.69.69,0,0,1,.34.85.65.65,0,0,1-.3.35A.5.5,0,0,1,591.61,223.68Zm65.31-38.83a.64.64,0,0,1-.53-.71c.05-.64.09-1.29.13-1.94a.61.61,0,0,1,.61-.62.64.64,0,0,1,.56.69c0,.66-.08,1.33-.13,2a.66.66,0,0,1-.33.53A.54.54,0,0,1,656.92,184.85ZM622.7,201.31c-.3-.56-.61-1.1-.93-1.64a.7.7,0,0,1,.16-.91.56.56,0,0,1,.82.18c.33.55.64,1.12,1,1.68a.7.7,0,0,1-.19.9l0,0A.56.56,0,0,1,622.7,201.31Zm-36.46,19.5c-.52-.34-1-.69-1.52-1.05a.71.71,0,0,1-.17-.91.54.54,0,0,1,.81-.19c.47.35,1,.69,1.47,1a.68.68,0,0,1,.21.89.57.57,0,0,1-.25.26A.54.54,0,0,1,586.24,220.81Zm70.93-42.51a.61.61,0,0,1-.6-.64c0-.65-.05-1.3-.08-1.95A.62.62,0,0,1,657,175a.61.61,0,0,1,.62.61c0,.67.06,1.33.08,2a.68.68,0,0,1-.33.61A.55.55,0,0,1,657.17,178.3Zm-75.78,38.62c-.45-.45-.89-.91-1.3-1.38a.71.71,0,0,1,0-.93.54.54,0,0,1,.83,0c.4.45.82.9,1.25,1.32a.73.73,0,0,1,.05.93.67.67,0,0,1-.18.16A.55.55,0,0,1,581.39,216.92Zm38-20.91c-.36-.5-.74-1-1.12-1.49a.71.71,0,0,1,.06-.92.55.55,0,0,1,.83.06q.58.75,1.14,1.53a.69.69,0,0,1-.09.92l-.11.08A.55.55,0,0,1,619.38,196Zm37.36-24.26a.58.58,0,0,1-.66-.55c-.08-.65-.17-1.29-.27-1.93a.65.65,0,0,1,.47-.76.6.6,0,0,1,.68.54c.1.65.2,1.31.28,2a.69.69,0,0,1-.33.69A.48.48,0,0,1,656.74,171.75ZM577.4,211.91c-.33-.55-.65-1.13-.95-1.71a.71.71,0,0,1,.22-.9.56.56,0,0,1,.8.25c.28.55.59,1.1.9,1.63a.69.69,0,0,1-.15.91l-.08,0A.56.56,0,0,1,577.4,211.91Zm38.06-20.65c-.42-.45-.84-.88-1.28-1.31a.71.71,0,0,1-.06-.92A.54.54,0,0,1,615,189c.45.44.89.88,1.32,1.34a.73.73,0,0,1,0,.93.55.55,0,0,1-.83,0Zm40.2-25.95a.59.59,0,0,1-.71-.48c-.14-.62-.3-1.25-.46-1.87a.68.68,0,0,1,.4-.82.58.58,0,0,1,.73.45c.16.64.32,1.27.47,1.92a.68.68,0,0,1-.32.75ZM611,187.16c-.47-.37-1-.73-1.44-1.08a.7.7,0,0,1-.18-.9.55.55,0,0,1,.81-.2c.5.35,1,.72,1.48,1.11a.7.7,0,0,1,.15.91.57.57,0,0,1-.82.16Zm-35.53,19.15a.57.57,0,0,1-.75-.41c-.19-.63-.36-1.29-.51-1.93a.67.67,0,0,1,.42-.8.59.59,0,0,1,.72.47c.13.62.3,1.23.48,1.84a.68.68,0,0,1-.29.8ZM654,159a.57.57,0,0,1-.76-.38c-.21-.6-.42-1.2-.65-1.8a.69.69,0,0,1,.32-.86.56.56,0,0,1,.76.35c.23.61.45,1.23.66,1.85a.69.69,0,0,1-.29.82ZM606,183.88c-.51-.28-1-.55-1.57-.8a.68.68,0,0,1-.31-.86.57.57,0,0,1,.77-.35c.54.26,1.09.54,1.62.83a.69.69,0,0,1,.27.88.57.57,0,0,1-.27.3A.52.52,0,0,1,606,183.88ZM574.2,199.93a.63.63,0,0,1-.62-.63c0-.68,0-1.36,0-2a.61.61,0,0,1,.61-.62.63.63,0,0,1,.56.68c0,.63,0,1.27,0,1.91a.64.64,0,0,1-.33.62A.57.57,0,0,1,574.2,199.93Zm26.47-18.35c-.55-.17-1.11-.33-1.67-.47a.67.67,0,0,1-.45-.79.59.59,0,0,1,.7-.49c.58.14,1.17.31,1.74.49a.67.67,0,0,1,.4.81.62.62,0,0,1-.3.41A.52.52,0,0,1,600.67,181.58Zm50.16-28.84c-.27-.57-.55-1.14-.83-1.7a.71.71,0,0,1,.22-.9.55.55,0,0,1,.8.25c.29.57.57,1.16.85,1.75a.69.69,0,0,1-.25.88h0A.56.56,0,0,1,650.83,152.74Zm-76.14,40.67a.66.66,0,0,1-.39-.81,17.21,17.21,0,0,1,.62-1.92.56.56,0,0,1,.77-.34.68.68,0,0,1,.31.86,16.84,16.84,0,0,0-.58,1.78.67.67,0,0,1-.31.4A.51.51,0,0,1,574.69,193.41Zm20.34-13c-.57,0-1.15-.07-1.72-.07a.66.66,0,0,1,0-1.31c.6,0,1.2,0,1.8.07a.63.63,0,0,1,.54.7.65.65,0,0,1-.33.55A.46.46,0,0,1,595,180.45Zm-17.81,7.09a.7.7,0,0,1-.08-.92,16.18,16.18,0,0,1,1.24-1.5.55.55,0,0,1,.83,0,.73.73,0,0,1,0,.93,16.84,16.84,0,0,0-1.14,1.39.67.67,0,0,1-.2.18A.55.55,0,0,1,577.22,187.54Zm12.1-6.81c-.57.11-1.13.23-1.68.38a.59.59,0,0,1-.71-.49.67.67,0,0,1,.44-.79c.57-.15,1.17-.28,1.76-.39a.6.6,0,0,1,.68.54.7.7,0,0,1-.33.7Zm-7.77,2.44a.7.7,0,0,1,.22-.89c.51-.33,1.06-.64,1.61-.93a.57.57,0,0,1,.78.33.7.7,0,0,1-.29.87c-.52.27-1,.56-1.52.87l0,0A.56.56,0,0,1,581.55,183.17Zm66.31-36c-.32-.54-.65-1.07-1-1.6a.72.72,0,0,1,.13-.92.55.55,0,0,1,.82.16c.34.54.68,1.08,1,1.63a.7.7,0,0,1-.16.91l-.07.05A.56.56,0,0,1,647.86,147.17ZM644.41,142c-.37-.5-.75-1-1.13-1.49a.71.71,0,0,1,.06-.92.55.55,0,0,1,.83.06c.39.5.77,1,1.14,1.52a.7.7,0,0,1-.08.92.54.54,0,0,1-.12.09A.55.55,0,0,1,644.41,142Zm-3.89-4.82c-.41-.47-.82-.92-1.24-1.37a.71.71,0,0,1,0-.93.55.55,0,0,1,.83,0c.43.46.85.92,1.26,1.39a.71.71,0,0,1,0,.93.65.65,0,0,1-.16.13A.56.56,0,0,1,640.52,137.14Zm-4.26-4.43c-.44-.42-.89-.83-1.34-1.24a.73.73,0,0,1-.09-.93.55.55,0,0,1,.83-.09c.46.41.91.84,1.36,1.26a.71.71,0,0,1,.07.93.56.56,0,0,1-.19.16A.53.53,0,0,1,636.26,132.71Zm-4.58-4c-.47-.38-.94-.76-1.42-1.13a.69.69,0,0,1-.15-.91.54.54,0,0,1,.81-.17l1.45,1.14a.72.72,0,0,1,.13.92.63.63,0,0,1-.22.21A.55.55,0,0,1,631.68,128.7Zm-4.84-3.61c-.49-.35-1-.68-1.49-1a.7.7,0,0,1-.21-.9.55.55,0,0,1,.8-.23c.51.33,1,.67,1.52,1a.7.7,0,0,1,.19.9.72.72,0,0,1-.24.25A.56.56,0,0,1,626.84,125.09Zm-5.06-3.22c-.51-.31-1-.6-1.55-.89a.71.71,0,0,1-.27-.88.56.56,0,0,1,.79-.3l1.58.91a.69.69,0,0,1,.24.88.62.62,0,0,1-.26.29A.55.55,0,0,1,621.78,121.87ZM616.54,119l-1.61-.78a.7.7,0,0,1-.31-.86.56.56,0,0,1,.77-.34c.54.25,1.09.51,1.62.78a.69.69,0,0,1,.3.87.6.6,0,0,1-.28.32A.53.53,0,0,1,616.54,119Z"/></g></g></svg>