<svg width="561" height="532" viewBox="0 0 561 532" fill="none" xmlns="http://www.w3.org/2000/svg">
<path fill-rule="evenodd" clip-rule="evenodd" d="M0.00271844 290.708C0.364263 235.179 35.6507 186.88 72.3199 145.252C106.196 106.794 152.825 87.3194 198.88 64.9345C253.513 38.3805 306.629 -12.4492 365.411 2.79661C424.335 18.0794 447.245 87.7846 481.472 138.228C514.436 186.812 558.033 232.018 560.763 290.708C563.55 350.628 541.765 415.04 496.155 453.88C453.377 490.308 388.93 469.489 334.529 483.361C285.484 495.867 244.08 539.524 194.214 530.875C142.058 521.828 103.744 478.764 70.4168 437.55C35.4439 394.301 -0.35973 346.376 0.00271844 290.708Z" fill="url(#paint0_linear)"/>
<defs>
<linearGradient id="paint0_linear" x1="561" y1="532" x2="29.7485" y2="-28.2107" gradientUnits="userSpaceOnUse">
<stop stop-color="#EAF6FE"/>
<stop offset="1" stop-color="#ECFCFF"/>
</linearGradient>
</defs>
</svg>
