<svg xmlns="http://www.w3.org/2000/svg" xmlns:xlink="http://www.w3.org/1999/xlink" viewBox="0 0 494.58 260.33"><defs><style>.cls-1{fill:url(#linear-gradient);}.cls-2{fill:#bfd1ff;}.cls-3{fill:#80b377;}.cls-17,.cls-24,.cls-4,.cls-6,.cls-7{fill:none;}.cls-4,.cls-6{stroke:#2e5e26;}.cls-4,.cls-6,.cls-7{stroke-miterlimit:10;}.cls-4{stroke-width:0.75px;}.cls-5{fill:url(#linear-gradient-2);}.cls-6{stroke-width:0.69px;}.cls-7{stroke:#000;}.cls-24,.cls-7{stroke-width:0.96px;}.cls-19,.cls-21,.cls-8{fill:#1b1b25;}.cls-9{fill:#ffb54a;}.cls-10{fill:#fcf0e3;}.cls-11{fill:#ffbb10;}.cls-12{fill:#fff;}.cls-13{fill:#4e69ff;}.cls-14{fill:#203e87;}.cls-15{fill:#e03726;}.cls-16{fill:#fec29e;}.cls-18,.cls-20,.cls-22,.cls-23{fill:#ff887c;}.cls-18{opacity:0.17;}.cls-19{opacity:0.05;}.cls-20{opacity:0.18;}.cls-21{opacity:0.35;}.cls-22{opacity:0.32;}.cls-23{opacity:0.08;}.cls-24{stroke:#203e87;stroke-linecap:round;stroke-linejoin:round;}</style><linearGradient id="linear-gradient" x1="146.39" y1="177.41" x2="395.67" y2="177.41" gradientUnits="userSpaceOnUse"><stop offset="0" stop-color="#bfd1ff"/><stop offset="1" stop-color="#fff"/></linearGradient><linearGradient id="linear-gradient-2" x1="157.78" y1="-38.43" x2="157.78" y2="137.87" gradientTransform="translate(120.37 -110.35) rotate(58.96)" gradientUnits="userSpaceOnUse"><stop offset="0" stop-color="#ffd97a"/><stop offset="1" stop-color="#fff"/></linearGradient></defs><title>bonus-image</title><g id="Layer_2" data-name="Layer 2"><g id="Layer_1-2" data-name="Layer 1"><path class="cls-1" d="M146.39,259.9,273.21,105.26a28.23,28.23,0,0,1,47,5.18L395.67,259.9Z"/><path class="cls-2" d="M184.93,259.9,342.63,67.6c13.37-16.3,39.55-10.81,45.24,9.49L439.09,259.9Z"/><path class="cls-3" d="M457.58,207.11c.2-4.67-28.32,6.16-26.83-3.85,1.54-9.51,10.82-1.55,23.09-3.61,12-1.84,12.16-26.25,9.79-29.75-2.67-3.56-23.61,4.79-24.24-1.62-.5-6.79,20.88-1,26.36-4.86,5.16-3.76,1.2-31.51-1.62-34.13-3.29-2.47-14.47,15.25-15.87,7.38-1.3-7.51,11.05-10,15.1-13.43,5.47-4.76,2.85-18.2,1.4-25.4-6.88.5-20.38,3.3-22.66,11.14-1.74,5.78,1.77,18.34-5.15,21.06-7.67,3.07,2.56-16.92-.68-18.85-3.39-2.41-31.1,11.46-31.65,20.16-.66,8.36,17,22,11.51,26.23-5.71,4.55-11.87-19.18-16.05-19.19-4.52-.22-25.52,23.5-17.86,34.73,7.52,10.82,20.06,9.57,14.9,19-5.63,10.62-20.37-18.37-23.18-14.19-3.17,4.37-12.12,25.59,1.94,35.82,8.49,6.35,20.64,19.22,25.17,30,8.71-8.65,25.74-14,36.2-14.68C454.18,227.72,457.29,211.41,457.58,207.11Z"/><path class="cls-4" d="M461.56,102A405,405,0,0,0,398,258.9"/><path class="cls-4" d="M467.35,140.46a146.11,146.11,0,0,1-33.16,8.41"/><path class="cls-4" d="M418.23,117.29s4.72,30.83,10.94,42.06"/><path class="cls-4" d="M464.8,178.27a236.16,236.16,0,0,1-45.18,3.5"/><path class="cls-4" d="M388.05,148.87s18.05,40.12,26.72,46"/><path class="cls-4" d="M457.23,209.22s-27.68,7.39-48.89,5.51"/><path class="cls-4" d="M370.23,185.44S386,211.12,405,226.72"/><circle class="cls-5" cx="157.78" cy="51.29" r="51.29" transform="translate(32.48 160.03) rotate(-58.96)"/><path class="cls-3" d="M19.26,195c-.24-5.51,33.44,7.28,31.68-4.55-1.82-11.23-12.78-1.82-27.27-4.25-14.12-2.18-14.36-31-11.56-35.13,3.16-4.22,27.88,5.64,28.63-1.92.59-8-24.66-1.16-31.13-5.74-6.09-4.44-1.42-37.21,1.91-40.3,3.88-2.92,17.09,18,18.74,8.72,1.53-8.88-13-11.79-17.83-15.87C6,90.37,9.06,74.5,10.77,66c8.13.59,24.07,3.89,26.76,13.15,2,6.83-2.09,21.65,6.08,24.87,9.07,3.63-3-20,.8-22.27,4-2.84,36.73,13.54,37.38,23.81.78,9.87-20.08,26-13.59,31,6.74,5.38,14-22.65,19-22.66,5.34-.25,30.13,27.76,21.09,41-8.88,12.78-23.69,11.31-17.6,22.5,6.65,12.54,24.07-21.69,27.38-16.76,3.74,5.16,14.31,30.23-2.29,42.3-10,7.5-24.38,22.7-29.73,35.37C75.73,228.08,55.62,221.78,43.26,221,23.27,219.36,19.6,200.1,19.26,195Z"/><path class="cls-6" d="M14.56,71.5A478.25,478.25,0,0,1,89.64,256.76"/><path class="cls-6" d="M7.72,116.9a173.13,173.13,0,0,0,39.15,9.94"/><path class="cls-6" d="M65.72,89.54S60.15,126,52.8,139.21"/><path class="cls-6" d="M10.73,161.54s26.34,5,53.35,4.14"/><path class="cls-6" d="M101.36,126.84S80,174.21,69.81,181.11"/><path class="cls-6" d="M19.67,198.09s32.68,8.73,57.72,6.51"/><path class="cls-6" d="M122.4,170s-18.57,30.32-41.07,48.74"/><line class="cls-7" x1="36.68" y1="259.86" x2="439.84" y2="259.86"/><circle class="cls-8" cx="236" cy="52.79" r="43.66"/><circle class="cls-9" cx="231.39" cy="48.19" r="43.66"/><path class="cls-10" d="M231.39,83.44a35.17,35.17,0,1,1,35.17-35.17A35.21,35.21,0,0,1,231.39,83.44Zm0-68.06a32.89,32.89,0,1,0,32.89,32.89A32.93,32.93,0,0,0,231.39,15.38Z"/><path class="cls-8" d="M228.82,64a24.86,24.86,0,0,1-6.35-1.65,23.9,23.9,0,0,1-5.59-3.16l3.94-5.77a30.34,30.34,0,0,0,4,2.61,15.33,15.33,0,0,0,4.22,1.49V49.51a33.81,33.81,0,0,1-4.78-1.67,12,12,0,0,1-3.39-2.17,8.26,8.26,0,0,1-2-3,10.31,10.31,0,0,1-.69-3.92v-.1a9.55,9.55,0,0,1,.76-3.85,8.82,8.82,0,0,1,2.15-3,11,11,0,0,1,3.37-2.05,16.5,16.5,0,0,1,4.35-1V25.83h5.26v3a21.06,21.06,0,0,1,9.42,3.75l-3.39,5.92a28.49,28.49,0,0,0-3.09-1.8,15.83,15.83,0,0,0-3.19-1.19v7.65q5.78,1.56,8.38,4.1a9,9,0,0,1,2.6,6.78v.1A9.15,9.15,0,0,1,244,58a9,9,0,0,1-2.18,3,11.51,11.51,0,0,1-3.36,2.08,16,16,0,0,1-4.41,1.06v5h-5.26Zm.25-28.95a4.53,4.53,0,0,0-2.65,1.09,2.77,2.77,0,0,0-.84,2v.1a3,3,0,0,0,.71,2,6.9,6.9,0,0,0,2.78,1.59Zm4.76,22.72q3.6-.56,3.6-3.24v-.1a3.1,3.1,0,0,0-.76-2.15,7.28,7.28,0,0,0-2.84-1.59Z"/><circle class="cls-8" cx="236" cy="52.79" r="43.66"/><circle class="cls-11" cx="231.39" cy="48.19" r="43.66"/><path class="cls-10" d="M231.39,83.44a35.17,35.17,0,1,1,35.17-35.17A35.21,35.21,0,0,1,231.39,83.44Zm0-68.06a32.89,32.89,0,1,0,32.89,32.89A32.93,32.93,0,0,0,231.39,15.38Z"/><path class="cls-8" d="M228.82,64a24.86,24.86,0,0,1-6.35-1.65,23.9,23.9,0,0,1-5.59-3.16l3.94-5.77a30.34,30.34,0,0,0,4,2.61,15.33,15.33,0,0,0,4.22,1.49V49.51a33.81,33.81,0,0,1-4.78-1.67,12,12,0,0,1-3.39-2.17,8.26,8.26,0,0,1-2-3,10.31,10.31,0,0,1-.69-3.92v-.1a9.55,9.55,0,0,1,.76-3.85,8.82,8.82,0,0,1,2.15-3,11,11,0,0,1,3.37-2.05,16.5,16.5,0,0,1,4.35-1V25.83h5.26v3a21.06,21.06,0,0,1,9.42,3.75l-3.39,5.92a28.49,28.49,0,0,0-3.09-1.8,15.83,15.83,0,0,0-3.19-1.19v7.65q5.78,1.56,8.38,4.1a9,9,0,0,1,2.6,6.78v.1A9.15,9.15,0,0,1,244,58a9,9,0,0,1-2.18,3,11.51,11.51,0,0,1-3.36,2.08,16,16,0,0,1-4.41,1.06v5h-5.26Zm.25-28.95a4.53,4.53,0,0,0-2.65,1.09,2.77,2.77,0,0,0-.84,2v.1a3,3,0,0,0,.71,2,6.9,6.9,0,0,0,2.78,1.59Zm4.76,22.72q3.6-.56,3.6-3.24v-.1a3.1,3.1,0,0,0-.76-2.15,7.28,7.28,0,0,0-2.84-1.59Z"/><circle class="cls-8" cx="187.88" cy="27.98" r="19.76"/><circle class="cls-11" cx="185.8" cy="25.89" r="19.76"/><path class="cls-10" d="M185.8,41.85a15.92,15.92,0,1,1,15.91-15.92A15.93,15.93,0,0,1,185.8,41.85Zm0-30.8a14.88,14.88,0,1,0,14.88,14.88A14.9,14.9,0,0,0,185.8,11.05Z"/><path class="cls-8" d="M184.64,33.07a11.53,11.53,0,0,1-2.88-.75,11,11,0,0,1-2.53-1.43L181,28.28a13.94,13.94,0,0,0,1.82,1.18,7.23,7.23,0,0,0,1.91.68V26.49a15.42,15.42,0,0,1-2.16-.75,5.45,5.45,0,0,1-1.54-1,3.63,3.63,0,0,1-.91-1.34,4.62,4.62,0,0,1-.31-1.77v-.05a4.25,4.25,0,0,1,.34-1.74,4,4,0,0,1,1-1.35,5,5,0,0,1,1.52-.93,7.79,7.79,0,0,1,2-.47V15.78H187v1.37a10,10,0,0,1,2.28.61,9.61,9.61,0,0,1,2,1.09l-1.54,2.67a14,14,0,0,0-1.39-.81,8.44,8.44,0,0,0-1.44-.54v3.46a8.63,8.63,0,0,1,3.79,1.86,4.08,4.08,0,0,1,1.17,3.07v0a4,4,0,0,1-1.34,3.09,5,5,0,0,1-1.52.94,6.75,6.75,0,0,1-2,.48v2.27h-2.38Zm.11-13.1a2,2,0,0,0-1.2.49,1.27,1.27,0,0,0-.38.93v0a1.38,1.38,0,0,0,.32.91,3.2,3.2,0,0,0,1.26.72Zm2.16,10.28q1.62-.26,1.62-1.47v0a1.37,1.37,0,0,0-.34-1,3.25,3.25,0,0,0-1.28-.73Z"/><path class="cls-12" d="M163.49,61.37h0a8.58,8.58,0,0,0-8.58-8.58h0a8.58,8.58,0,0,0,8.58-8.58h0a8.58,8.58,0,0,0,8.58,8.58h0A8.58,8.58,0,0,0,163.49,61.37Z"/><path class="cls-12" d="M264.28,104.51h0a6.3,6.3,0,0,0-6.3-6.3h0a6.3,6.3,0,0,0,6.3-6.3h0a6.3,6.3,0,0,0,6.3,6.3h0A6.3,6.3,0,0,0,264.28,104.51Z"/><path class="cls-12" d="M223.09,134.85h0a11.57,11.57,0,0,0-11.58-11.58h0a11.58,11.58,0,0,0,11.58-11.59h0a11.59,11.59,0,0,0,11.59,11.59h0A11.58,11.58,0,0,0,223.09,134.85Z"/><path class="cls-10" d="M263.09,45.46h0A10.86,10.86,0,0,0,252.24,34.6h0a10.86,10.86,0,0,0,10.85-10.86h0A10.86,10.86,0,0,0,274,34.6h0A10.86,10.86,0,0,0,263.09,45.46Z"/><path class="cls-12" d="M299.39,52.79h0a6,6,0,0,0-6-6h0a6,6,0,0,0,6-6h0a6,6,0,0,0,6,6h0A6,6,0,0,0,299.39,52.79Z"/><path class="cls-13" d="M115.86,32.81H49.15a12.42,12.42,0,1,0,0,24.84h55l7.56,6.9v-6.9h4.17a12.42,12.42,0,1,0,0-24.84Z"/><path class="cls-2" d="M55.17,43.52a3.94,3.94,0,1,0-5,0,7.31,7.31,0,0,0-4.79,6.85c0,4,14.61,4,14.61,0A7.31,7.31,0,0,0,55.17,43.52Z"/><path class="cls-12" d="M116.7,39.49H68.9a.38.38,0,0,1,0-.76h47.8a.38.38,0,1,1,0,.76Z"/><path class="cls-12" d="M109.28,50.7H68.9a.38.38,0,0,1,0-.76h40.38a.38.38,0,1,1,0,.76Z"/><path class="cls-12" d="M98.28,45.45H68.9a.38.38,0,0,1,0-.76H98.28a.38.38,0,1,1,0,.76Z"/><path class="cls-12" d="M116.7,45.45H102a.38.38,0,1,1,0-.76H116.7a.38.38,0,1,1,0,.76Z"/><path class="cls-12" d="M57.38,49.24a1.18,1.18,0,0,1-.81-.34L53.71,46a1.15,1.15,0,0,1,0-1.61,1.13,1.13,0,0,1,1.61,0l2.06,2L62.91,41a1.13,1.13,0,0,1,1.61,0,1.15,1.15,0,0,1,0,1.61L58.19,48.9A1.18,1.18,0,0,1,57.38,49.24Z"/><path class="cls-11" d="M413.39,97.51h68.44a12.75,12.75,0,1,1,0,25.49h-56.4l-7.76,7.07V123h-4.28a12.75,12.75,0,1,1,0-25.49Z"/><path class="cls-2" d="M480.3,108.38a3.94,3.94,0,1,0-5,0,7.3,7.3,0,0,0-4.79,6.85c0,4,14.61,4,14.61,0A7.3,7.3,0,0,0,480.3,108.38Z"/><path class="cls-12" d="M486.3,110.57h-1.89v-1.89a.37.37,0,0,0-.37-.37h-1.72a.38.38,0,0,0-.37.37v1.89h-1.89a.37.37,0,0,0-.37.37v1.72a.37.37,0,0,0,.37.37H482v1.89a.38.38,0,0,0,.37.37H484a.37.37,0,0,0,.37-.37V113h1.89a.37.37,0,0,0,.37-.37v-1.72A.37.37,0,0,0,486.3,110.57Z"/><path class="cls-12" d="M464.5,105.11H416.7a.38.38,0,0,1,0-.76h47.8a.38.38,0,0,1,0,.76Z"/><path class="cls-12" d="M457.09,116.32H416.7a.38.38,0,0,1,0-.76h40.39a.38.38,0,1,1,0,.76Z"/><path class="cls-12" d="M446.09,111.07H416.7a.38.38,0,0,1,0-.76h29.39a.38.38,0,1,1,0,.76Z"/><path class="cls-12" d="M464.5,111.07H449.76a.38.38,0,0,1,0-.76H464.5a.38.38,0,0,1,0,.76Z"/><path class="cls-14" d="M327.36,24h47.15a8.78,8.78,0,1,1,0,17.56H327.36a8.78,8.78,0,0,1,0-17.56Z"/><path class="cls-12" d="M369.18,29.92H332.63a.38.38,0,1,1,0-.76h36.55a.38.38,0,0,1,0,.76Z"/><path class="cls-12" d="M363.51,36.56H332.63a.38.38,0,1,1,0-.76h30.88a.38.38,0,0,1,0,.76Z"/><path class="cls-12" d="M355.1,33.45H332.63a.38.38,0,1,1,0-.76H355.1a.38.38,0,0,1,0,.76Z"/><path class="cls-12" d="M369.18,33.45H357.9a.38.38,0,1,1,0-.76h11.28a.38.38,0,0,1,0,.76Z"/><path class="cls-15" d="M7.81,148.51H49.73a7.81,7.81,0,1,1,0,15.61H7.81a7.81,7.81,0,1,1,0-15.61Z"/><path class="cls-12" d="M45,153.79H12.49a.38.38,0,0,1,0-.76H45a.38.38,0,0,1,0,.76Z"/><path class="cls-12" d="M40,159.69H12.49a.38.38,0,0,1,0-.76H40a.38.38,0,0,1,0,.76Z"/><path class="cls-12" d="M32.48,156.93h-20a.38.38,0,0,1,0-.76h20a.38.38,0,1,1,0,.76Z"/><path class="cls-12" d="M45,156.93H35a.38.38,0,1,1,0-.76H45a.38.38,0,1,1,0,.76Z"/><path class="cls-12" d="M317.66,190.72H243.18a.38.38,0,0,1,0-.76h74.48a.38.38,0,0,1,0,.76Z"/><path class="cls-12" d="M317.66,208.2H254.73a.38.38,0,1,1,0-.76h62.93a.38.38,0,0,1,0,.76Z"/><path class="cls-12" d="M317.66,200H271.87a.38.38,0,0,1,0-.76h45.79a.38.38,0,0,1,0,.76Z"/><path class="cls-12" d="M266.16,200h-23a.38.38,0,0,1,0-.76h23a.38.38,0,0,1,0,.76Z"/><path class="cls-12" d="M233.42,218.45H158.93a.38.38,0,0,1,0-.76h74.49a.38.38,0,1,1,0,.76Z"/><path class="cls-12" d="M221.86,235.92H158.93a.38.38,0,0,1,0-.76h62.93a.38.38,0,0,1,0,.76Z"/><path class="cls-12" d="M204.72,227.74H158.93a.38.38,0,1,1,0-.76h45.79a.38.38,0,0,1,0,.76Z"/><path class="cls-12" d="M233.42,227.74h-23a.38.38,0,1,1,0-.76h23a.38.38,0,1,1,0,.76Z"/><path class="cls-16" d="M289.58,147.85l0-.08,11-38.27-.05,0a13.86,13.86,0,0,1,4.41-4.87A12.74,12.74,0,0,0,310,96.18c2.42-2.34,5.15-4.34,7.62-6.63a1.8,1.8,0,0,0,.61-.84,1.48,1.48,0,0,0-.32-1.1,4.36,4.36,0,0,0-5.57-1.29,13.64,13.64,0,0,0-3.12,2,16.31,16.31,0,0,0-2.48,2.11l8.75-18.68a3.12,3.12,0,0,0-1.12-4.21h0a2.65,2.65,0,0,0-2.22,0,3.58,3.58,0,0,0-1.21,1l0-.22c-10.25-8.62-22.89,20.71-22.89,20.71l-3.59,8.47L254.09,154a16.39,16.39,0,0,0,7.33,22.36h0l.36.17a16.52,16.52,0,0,0,8.29,2.22H330l12.91-30.68Zm17.06-57.1Z"/><path class="cls-17" d="M287.86,153.83l-1.53,5.33C286.88,157.32,287.41,155.51,287.86,153.83Z"/><path class="cls-18" d="M279.32,178.73Z"/><path class="cls-18" d="M279.33,178.73l.49,0Z"/><path class="cls-18" d="M289.6,147.77l-1.74,6.06c-.45,1.68-1,3.49-1.53,5.33l-2.11,7.33a16.59,16.59,0,0,1-1.09,2.67c-1.81,5.43-3.31,9.59-3.31,9.59l21.54-30.85C296,147.9,294.77,147.77,289.6,147.77Z"/><path class="cls-18" d="M279.32,178.73h0Z"/><path class="cls-15" d="M427.83,203.58l-14.69-40.06c-1.75-8.79-10.11-15.45-20.17-15.45l-41.05-.33-46.24.18v30.83H320l-7.41,80.4,101.83.58-.57-54.45Z"/><path class="cls-19" d="M351.84,148.09l.08-.35-46.24.18v30.83H320l.07-.82C320.1,161.66,334.25,148.44,351.84,148.09Z"/><path class="cls-20" d="M293.4,103.48s2.6,22,2.75,21.51l4.45-15.49Z"/><path class="cls-8" d="M354,215.08l-3.88-19.58-3-15.11a3.31,3.31,0,0,0-3.87-2.6l-15,3a3.31,3.31,0,0,0-2.59,3.88l3,15.21,2.4,12.06,1.47,7.42a3.3,3.3,0,0,0,3.87,2.59l8.87-1.75,6.14-1.22A3.31,3.31,0,0,0,354,215.08Z"/><path class="cls-16" d="M433.91,233.13l-6.77-29.47-30.77,3.76,1.69,7.5-.16,0-33.45-8.28,0,0a11.12,11.12,0,0,1-4.18-3.84,10,10,0,0,0-7.52-4.31c-.91-1-1.75-2-2.59-3l.78,3.95-.19.1a12.65,12.65,0,0,1-6.93,1.44l-14.71-1.15a2.25,2.25,0,0,0-2.2,1.25c-4.31,9,14.18,17.33,18.4,19.08h0l.15.06.17.07.16.06.14.06.12,0,.05,0,.06,0,7.24,2.71,57.27,28.19a15,15,0,0,0,1.62.67,14.2,14.2,0,0,0,9.18.95h0A16.6,16.6,0,0,0,433.91,233.13Z"/><path class="cls-18" d="M431.73,223.63l-35.36-16.21c1.18,5.15.49,2.88,1.53,7.46l2.41.6C410.49,216.17,431.73,223.63,431.73,223.63Z"/><path class="cls-21" d="M393.51,207.8a.37.37,0,0,1-.37-.3l-4.42-21.4a.38.38,0,0,1,.3-.45.37.37,0,0,1,.44.3L393.81,207l14.88-1.89a.38.38,0,0,1,.43.33.37.37,0,0,1-.33.42l-15.23,1.94Z"/><path class="cls-18" d="M432,224.85l.06.3Z"/><path class="cls-18" d="M432,225.15Z"/><path class="cls-18" d="M431.73,223.63l.16.81C431.85,224.23,431.8,224,431.73,223.63Z"/><path class="cls-18" d="M431.89,224.44l.08.41Z"/><path class="cls-8" d="M390,68.72a12.13,12.13,0,0,0-13.35-10.31A12.3,12.3,0,0,0,371.93,60a10.64,10.64,0,0,0-16.53-2.11A14.07,14.07,0,0,0,339.8,81L336.94,96.3a8.09,8.09,0,0,0,6.46,9.44l33.9,6.34a8.08,8.08,0,0,0,9.43-6.45L392.29,76A8.08,8.08,0,0,0,390,68.72Z"/><path class="cls-16" d="M384.54,98.68l-.74-.14-7.48-16.08a12.22,12.22,0,0,1-5.07-2,9.11,9.11,0,0,1-12.86.54,14.08,14.08,0,0,1-17,1.2l-5.21,27.85a15.34,15.34,0,0,0,1.93,10.73,15.58,15.58,0,0,0,11,9.36v18.39a11.66,11.66,0,0,0,11.62,11.62h3.66A11.66,11.66,0,0,0,376,148.57V127.69a15.53,15.53,0,0,0,3.8-7.61l1-5.09.74.14a8.16,8.16,0,0,0,9.5-6.5l.09-.45A8.18,8.18,0,0,0,384.54,98.68Z"/><path class="cls-22" d="M379,114.35l-.68,3.63a15.41,15.41,0,0,1-18,12.31l-11.83-2.21a15.38,15.38,0,0,1-10.39-7.26,15.6,15.6,0,0,0,11.6,9.52l.47.08A11.63,11.63,0,0,0,360.64,137h3.71a11.66,11.66,0,0,0,11.3-9,15.6,15.6,0,0,0,4.12-8l1-5.09Z"/><rect class="cls-18" x="360.44" y="104.11" width="5.71" height="2.39" rx="1.16" ry="1.16" transform="translate(712.55 250.55) rotate(-173.58)"/><path class="cls-18" d="M339.43,100.61h3.38a1.16,1.16,0,0,1,1.16,1.16v.06a1.17,1.17,0,0,1-1.17,1.17h-3.38a1.16,1.16,0,0,1-1.16-1.16v-.06a1.17,1.17,0,0,1,1.17-1.17Z" transform="translate(668.73 241.11) rotate(-173.58)"/><path class="cls-16" d="M224.94,159.81l-30.43-56.44-3.59-8.46S178.27,65.58,168,74.19l0,.22a3.61,3.61,0,0,0-1.22-1,2.59,2.59,0,0,0-2.21,0h0a3.1,3.1,0,0,0-1.13,4.2l8.75,18.69a15,15,0,0,0-2.48-2.12,13.22,13.22,0,0,0-3.12-2,4.37,4.37,0,0,0-5.57,1.29,1.45,1.45,0,0,0-.31,1.1,1.73,1.73,0,0,0,.6.85c2.47,2.28,5.2,4.28,7.62,6.63a12.71,12.71,0,0,0,5.08,8.4,13.72,13.72,0,0,1,4.4,4.88l0,0,11,38.36-16.1.21v30.68H209a16.53,16.53,0,0,0,8.3-2.22l.36-.16h0A16.4,16.4,0,0,0,224.94,159.81Z"/><path class="cls-18" d="M199.22,184.56h0s-8.28-22.26-9.7-31c-5.48,0-6.32.24-11.8.24Z"/><path class="cls-20" d="M177.06,113.14l11.76-1.45-7.27,14.47S179.39,115.4,177.06,113.14Z"/><path class="cls-11" d="M129.8,153.88v0l-.55,0H92.09a18.88,18.88,0,0,0-17.65,12.19h0l-.05.16,0,.07L58.54,209.39l14.68,1.79V259h79.86l6-74.48h13.89V153.73Z"/><path class="cls-19" d="M173.36,153.73l-42.43.18h0a29.87,29.87,0,0,1,28.6,29.84l-.07.81h13.9Z"/><path class="cls-8" d="M158.54,186.59l-15-3a3.31,3.31,0,0,0-3.88,2.59l-3,15.11-3.89,19.59a3.3,3.3,0,0,0,2.59,3.87l6.15,1.22,8.86,1.76a3.31,3.31,0,0,0,3.87-2.59l1.48-7.43,2.39-12.06,3-15.21A3.3,3.3,0,0,0,158.54,186.59Z"/><path class="cls-16" d="M160.11,206.75a2.2,2.2,0,0,0-.84-.92l-.18-.28-.36,0a2.49,2.49,0,0,0-.82-.09l-14.71,1.15a12.65,12.65,0,0,1-6.93-1.44l-.35-.19.74-3.71c-.8,1-1.6,1.93-2.46,2.84a10.44,10.44,0,0,0-5.23,2,9.45,9.45,0,0,0-2.42,2.49,12.21,12.21,0,0,1-2.72,2.92,9.12,9.12,0,0,1-1.26.77l0,0-33.45,8.28-.16,0,1.7-7.53-30.78-3.73-6.77,29.47A16.61,16.61,0,0,0,65.55,258.7h0a14.2,14.2,0,0,0,9.18-.95,15,15,0,0,0,1.62-.67L133,229.21l7.67-2.88.86-.34-.12,0C144.9,224.54,164.53,216.05,160.11,206.75Z"/><path class="cls-18" d="M54.82,230.64l-.06.3Z"/><path class="cls-18" d="M88.88,220.7c.69-3.19.49-2.92,1.54-7.5L55.06,229.45s3.5-1.06,8.34-2.34c.45-.17.9-.32,1.38-.45Z"/><path class="cls-18" d="M54.91,230.2l-.09.44Z"/><path class="cls-18" d="M54.76,230.94Z"/><path class="cls-18" d="M55.06,229.45c-.07.31-.11.54-.15.75C55,229.82,55.06,229.45,55.06,229.45Z"/><path class="cls-21" d="M93.27,213.58h0l-6.72-.83a.37.37,0,0,1-.33-.42.38.38,0,0,1,.42-.33l6.36.78,3.53-22.56a.38.38,0,1,1,.75.12l-3.59,22.92A.38.38,0,0,1,93.27,213.58Z"/><path class="cls-23" d="M101.12,217.54l15.16-.38c2.83.37,7.33-2.18,6.81-5h0Z"/><path class="cls-14" d="M149,144.18l-5.15-35.1a39.09,39.09,0,0,0-3.25-10.81l2.8-.45s-2-28.49-33.92-21.69a39.11,39.11,0,0,0-9.65.21h0a28.41,28.41,0,0,0-24,32.23l3,20.46A28.4,28.4,0,0,0,111,153l35.19-5.17A3.22,3.22,0,0,0,149,144.18Z"/><path class="cls-16" d="M137.66,98.73l-28.13,4.52-6.82-10.1c1.34,11.27-7,18.54-7,18.54l-.23-.33-.23,0a8.15,8.15,0,0,0-6.5,9.49h0a8.15,8.15,0,0,0,9.49,6.51l.54-.1A20.92,20.92,0,0,0,104.9,138v18a11.65,11.65,0,0,0,11.61,11.62h0A11.66,11.66,0,0,0,128.13,156V141.75a21.08,21.08,0,0,0,10.32-10.35v0a20.79,20.79,0,0,0,2.59-14.51Z"/><path class="cls-22" d="M124.39,141.2h0a20.86,20.86,0,0,1-23.67-14c-.1-.32-1.94.1-1.89.3A20.9,20.9,0,0,0,105,138a11.66,11.66,0,0,0,11.56,10.55h0a11.63,11.63,0,0,0,10.29-6.26,21.06,21.06,0,0,0,11.66-10.92A20.78,20.78,0,0,1,124.39,141.2Z"/><path class="cls-18" d="M117.47,118.86l-3.21.36a1.16,1.16,0,0,1-1.29-1h0a1.17,1.17,0,0,1,1-1.29l3.21-.36a1.16,1.16,0,0,1,1.28,1h0A1.16,1.16,0,0,1,117.47,118.86Z"/><path class="cls-18" d="M139,115.47l-3.21.36a1.17,1.17,0,0,1-1.29-1h0a1.17,1.17,0,0,1,1-1.29l3.21-.36a1.16,1.16,0,0,1,1.28,1h0A1.17,1.17,0,0,1,139,115.47Z"/><path class="cls-24" d="M439.92,62.08c-6.78-6.55-11.39.81-11.39.81s-4.62-7.36-11.4-.81"/><path class="cls-24" d="M456.78,34.9c-6.77-6.55-11.39.81-11.39.81s-4.62-7.36-11.39-.81"/></g></g></svg>