<svg xmlns="http://www.w3.org/2000/svg" xmlns:xlink="http://www.w3.org/1999/xlink" viewBox="0 0 473.25 466.72"><defs><style>.cls-1{isolation:isolate;}.cls-2{fill:url(#linear-gradient);}.cls-3{fill:#bfd1ff;}.cls-4{fill:url(#linear-gradient-2);}.cls-5,.cls-7{fill:none;stroke-miterlimit:10;}.cls-5{stroke:#000;stroke-width:0.89px;}.cls-6{fill:#80b377;}.cls-7{stroke:#2e5e26;stroke-width:0.7px;}.cls-8{fill:#cc231b;}.cls-9{fill:#e03726;}.cls-10{opacity:0.26;fill:url(#Degradado_sin_nombre_8);}.cls-11{fill:#203e87;}.cls-12{fill:#5dcbf4;}.cls-13{fill:url(#linear-gradient-3);}.cls-14{opacity:0.56;fill:url(#linear-gradient-4);}.cls-14,.cls-21{mix-blend-mode:multiply;}.cls-15{fill:#f3f3f5;}.cls-16{fill:url(#Degradado_sin_nombre_18);}.cls-17{fill:#9e9e9e;}.cls-18{fill:#d6d6d6;}.cls-19{fill:#ededed;}.cls-20{fill:url(#Degradado_sin_nombre_21);}.cls-21{opacity:0.38;}.cls-22{fill:#606060;}</style><linearGradient id="linear-gradient" x1="197.04" y1="385.29" x2="353.37" y2="-131.92" gradientUnits="userSpaceOnUse"><stop offset="0" stop-color="#bfd1ff"/><stop offset="1" stop-color="#fff"/></linearGradient><linearGradient id="linear-gradient-2" x1="104.08" y1="-77.99" x2="104.08" y2="279.78" gradientTransform="translate(189.64 -15.69) rotate(80.54)" gradientUnits="userSpaceOnUse"><stop offset="0" stop-color="#ffd97a"/><stop offset="1" stop-color="#fff"/></linearGradient><linearGradient id="Degradado_sin_nombre_8" x1="254.43" y1="127.54" x2="254.43" y2="80.65" gradientTransform="matrix(-1, 0, 0, 1, 497.99, 0)" gradientUnits="userSpaceOnUse"><stop offset="0.06" stop-color="#fff"/><stop offset="0.14" stop-color="#fff" stop-opacity="0.98"/><stop offset="0.26" stop-color="#fff" stop-opacity="0.9"/><stop offset="0.4" stop-color="#fff" stop-opacity="0.79"/><stop offset="0.55" stop-color="#fff" stop-opacity="0.63"/><stop offset="0.72" stop-color="#fff" stop-opacity="0.42"/><stop offset="0.89" stop-color="#fff" stop-opacity="0.18"/><stop offset="1" stop-color="#fff" stop-opacity="0"/></linearGradient><linearGradient id="linear-gradient-3" x1="223.27" y1="239.95" x2="223.78" y2="125.43" gradientUnits="userSpaceOnUse"><stop offset="0" stop-color="#020202"/><stop offset="0.67" stop-opacity="0"/></linearGradient><linearGradient id="linear-gradient-4" x1="244.21" y1="217.62" x2="272" y2="217.62" gradientUnits="userSpaceOnUse"><stop offset="0.13"/><stop offset="1" stop-color="#fff"/></linearGradient><linearGradient id="Degradado_sin_nombre_18" x1="71.49" y1="146.44" x2="144.95" y2="146.44" gradientTransform="matrix(1, 0, 0, -1, 281.55, 292.89)" gradientUnits="userSpaceOnUse"><stop offset="0" stop-color="#fff"/><stop offset="1" stop-color="#fff" stop-opacity="0"/></linearGradient><linearGradient id="Degradado_sin_nombre_21" x1="112.95" y1="154.52" x2="187.72" y2="154.52" gradientTransform="matrix(-1, 0, 0, 1, 497.99, 0)" gradientUnits="userSpaceOnUse"><stop offset="0.35" stop-color="#fff"/><stop offset="0.41" stop-color="#fff" stop-opacity="0.98"/><stop offset="0.49" stop-color="#fff" stop-opacity="0.91"/><stop offset="0.58" stop-color="#fff" stop-opacity="0.8"/><stop offset="0.69" stop-color="#fff" stop-opacity="0.65"/><stop offset="0.79" stop-color="#fff" stop-opacity="0.45"/><stop offset="0.91" stop-color="#fff" stop-opacity="0.22"/><stop offset="1" stop-color="#fff" stop-opacity="0"/></linearGradient></defs><title>contact-image</title><g class="cls-1"><g id="Layer_2" data-name="Layer 2"><g id="Layer_1-2" data-name="Layer 1"><path class="cls-2" d="M261.73,466.28H91.46L218.35,19.77A26.76,26.76,0,0,1,244.08.33H394.15Z"/><path class="cls-3" d="M351.27,466.28H181L295.2,64.41A88.19,88.19,0,0,1,380,.33h60.91A32.29,32.29,0,0,1,472,41.45Z"/><circle class="cls-4" cx="104.08" cy="104.08" r="104.08" transform="translate(-15.69 189.64) rotate(-80.54)"/><line class="cls-5" x1="43.78" y1="466.28" x2="463.64" y2="466.28"/><path class="cls-6" d="M109.73,374.75c-.35-8.16,49.51,10.77,46.91-6.73-2.7-16.63-18.92-2.71-40.37-6.3-20.91-3.23-21.27-45.91-17.12-52,4.67-6.23,41.27,8.36,42.38-2.84.88-11.86-36.51-1.71-46.09-8.5-9-6.57-2.09-55.09,2.83-59.67,5.75-4.32,25.31,26.66,27.76,12.91,2.26-13.14-19.33-17.45-26.41-23.48-9.56-8.32-5-31.82-2.45-44.41,12,.88,35.63,5.77,39.62,19.48,3,10.1-3.09,32.06,9,36.82,13.42,5.37-4.47-29.59,1.19-33,5.93-4.21,54.37,20.05,55.34,35.26,1.16,14.61-29.74,38.49-20.12,45.85,10,8,20.75-33.53,28.06-33.55,7.9-.37,44.61,41.1,31.22,60.72-13.14,18.92-35.07,16.74-26.06,33.31,9.85,18.57,35.63-32.11,40.54-24.81,5.53,7.64,21.19,44.75-3.39,62.63-14.84,11.11-36.09,33.61-44,52.37-15.22-15.12-45-24.44-63.29-25.66C115.67,410.79,110.24,382.28,109.73,374.75Z"/><path class="cls-7" d="M102.77,191.86A708,708,0,0,1,213.94,466.17"/><path class="cls-7" d="M92.65,259.09a256.37,256.37,0,0,0,58,14.71"/><path class="cls-7" d="M178.52,218.58s-8.25,53.9-19.12,73.53"/><path class="cls-7" d="M97.1,325.18s39,7.41,79,6.14"/><path class="cls-7" d="M231.29,273.8s-31.56,70.14-46.71,80.36"/><path class="cls-7" d="M110.34,379.3s48.38,12.92,85.47,9.64"/><path class="cls-7" d="M262.44,337.73S235,382.62,201.64,409.9"/><path class="cls-8" d="M274.26,196.06V128.32A56.13,56.13,0,0,0,218.13,72.2h-3.42a56.13,56.13,0,0,0-56.12,56.12v67.74"/><path class="cls-9" d="M163.24,196.06H344.11V72.2H218.29c-24.65,0-55,20-55,44.64Z"/><path class="cls-10" d="M194.81,127.54h86.24a18.53,18.53,0,0,0,18.39-16.18l10.37-30.71H212.1c-15.93,0-37.64,12.95-34.47,31.28,1.4,8.13,7.36,15,15.92,15.58Q194.18,127.54,194.81,127.54Z"/><path class="cls-11" d="M237.44,25.41h26.72V128.87a15.46,15.46,0,1,1-30.91,0V109.22L253,95.86V46.3H237.44A7.5,7.5,0,0,1,230,38.8V32.9A7.5,7.5,0,0,1,237.44,25.41Z"/><path class="cls-12" d="M243.54,127.54a5.44,5.44,0,1,0,5.44-5.43A5.43,5.43,0,0,0,243.54,127.54Z"/><rect class="cls-13" x="163.24" y="164.39" width="120.58" height="31.66"/><path class="cls-9" d="M286.28,72.2H401.94a0,0,0,0,1,0,0v67.74a56.12,56.12,0,0,1-56.12,56.12H342.4a56.12,56.12,0,0,1-56.12-56.12V72.2a0,0,0,0,1,0,0Z" transform="translate(688.22 268.26) rotate(-180)"/><rect class="cls-8" x="286.28" y="184.53" width="176.85" height="11.53" transform="translate(749.4 380.59) rotate(-180)"/><rect class="cls-9" x="244.21" y="196.06" width="27.8" height="269.39" transform="translate(516.21 661.5) rotate(-180)"/><polygon class="cls-14" points="244.21 225.48 272 239.17 272 196.06 244.21 196.06 244.21 225.48"/><path class="cls-15" d="M294.7,108.36H426.5v76.17H290.66V128.32A51.09,51.09,0,0,1,294.7,108.36Z"/><rect class="cls-16" x="353.04" y="108.36" width="73.45" height="76.17" transform="translate(779.54 292.89) rotate(-180)"/><rect class="cls-17" x="393.26" y="118.26" width="24.01" height="2.11" transform="translate(810.52 238.64) rotate(-180)"/><rect class="cls-17" x="393.26" y="123.38" width="24.01" height="2.11" transform="translate(810.52 248.86) rotate(-180)"/><rect class="cls-17" x="393.26" y="128.49" width="24.01" height="2.11" transform="translate(810.52 259.09) rotate(-180)"/><rect class="cls-17" x="408.43" y="133.6" width="8.83" height="2.11" transform="translate(825.7 269.32) rotate(-180)"/><circle class="cls-18" cx="320.1" cy="136.99" r="15.81"/><rect class="cls-19" x="310.27" y="141.22" width="74.77" height="43.31" transform="translate(695.3 325.75) rotate(-180)"/><polygon class="cls-20" points="385.04 141.22 347.65 167.82 310.27 141.22 385.04 141.22"/><g class="cls-21"><path class="cls-22" d="M346.78,72.2h3.42a56.37,56.37,0,0,1,13.9,1.74,56.13,56.13,0,0,0-42.23,54.38v67.74H290.66V128.32A56.13,56.13,0,0,1,346.78,72.2Z"/></g><path class="cls-8" d="M342.4,67.41h3.42a60.43,60.43,0,0,1,57.61,41H393.08A50.86,50.86,0,0,0,345.82,77H342.4a51.39,51.39,0,0,0-51.33,51.33v67.74h-9.59V128.32A61,61,0,0,1,342.4,67.41Z"/></g></g></g></svg>