<svg xmlns="http://www.w3.org/2000/svg" xmlns:xlink="http://www.w3.org/1999/xlink" viewBox="0 0 591.49 415.16"><defs><style>.cls-1{isolation:isolate;}.cls-2{fill:url(#linear-gradient);}.cls-3{fill:url(#linear-gradient-2);}.cls-4{fill:#bfd1ff;}.cls-5{fill:#80b377;}.cls-6,.cls-7,.cls-8{fill:none;stroke-miterlimit:10;}.cls-6,.cls-7{stroke:#2e5e26;}.cls-6{stroke-width:0.69px;}.cls-7{stroke-width:0.75px;}.cls-8{stroke:#000;stroke-width:0.96px;}.cls-9{fill:#e6e6e6;}.cls-23,.cls-9{mix-blend-mode:multiply;}.cls-10{fill:#203e87;}.cls-11{fill:#ff9c91;}.cls-12{fill:#f79178;}.cls-13{fill:#ffbb10;}.cls-14{fill:#ff9278;}.cls-15{fill:#e03726;}.cls-16{fill:#334062;}.cls-17{fill:#5dcbf4;}.cls-18{fill:#ff8365;}.cls-19{fill:#1c294a;}.cls-20{fill:#fcce51;}.cls-21{fill:#f04d4d;}.cls-22{fill:#d92929;}.cls-23{opacity:0.56;fill:url(#linear-gradient-3);}</style><linearGradient id="linear-gradient" x1="161.11" y1="-65.83" x2="161.11" y2="236.13" gradientTransform="translate(109.3 -88.2) rotate(45)" gradientUnits="userSpaceOnUse"><stop offset="0" stop-color="#ffd97a"/><stop offset="1" stop-color="#fff"/></linearGradient><linearGradient id="linear-gradient-2" x1="58.79" y1="290.39" x2="432.51" y2="290.39" gradientUnits="userSpaceOnUse"><stop offset="0" stop-color="#bfd1ff"/><stop offset="1" stop-color="#fff"/></linearGradient><linearGradient id="linear-gradient-3" x1="168.89" y1="226.99" x2="168.89" y2="277.63" gradientUnits="userSpaceOnUse"><stop offset="0.13"/><stop offset="1" stop-color="#fff"/></linearGradient></defs><title>faq-main-image</title><g class="cls-1"><g id="Layer_2" data-name="Layer 2"><g id="Layer_1-2" data-name="Layer 1"><circle class="cls-2" cx="161.11" cy="87.84" r="87.84" transform="translate(-14.92 139.65) rotate(-45)"/><path class="cls-3" d="M58.79,414.06,248.91,182.22A42.34,42.34,0,0,1,319.45,190L432.51,414.06Z"/><path class="cls-4" d="M116.57,415.16,353,126.87c20-24.44,59.3-16.2,67.82,14.23L497.6,415.16Z"/><path class="cls-5" d="M19.16,316.34c-.35-8.37,50.82,11.07,48.15-6.9-2.77-17.07-19.42-2.78-41.44-6.47C4.41,299.66,4,255.85,8.31,249.58c4.79-6.4,42.35,8.58,43.49-2.92.9-12.17-37.47-1.75-47.31-8.72-9.25-6.74-2.15-56.55,2.91-61.25,5.9-4.43,26,27.37,28.49,13.26C38.21,176.46,16.05,172,8.78,165.84-1,157.3,3.67,133.19,6.27,120.26c12.35.9,36.57,5.93,40.67,20,3.11,10.37-3.18,32.9,9.23,37.79,13.78,5.51-4.59-30.37,1.22-33.84,6.09-4.32,55.81,20.58,56.81,36.19,1.18,15-30.53,39.5-20.66,47.06,10.24,8.18,21.3-34.42,28.8-34.43,8.11-.39,45.8,42.18,32,62.32-13.49,19.42-36,17.19-26.74,34.19,10.1,19.06,36.57-33,41.6-25.47,5.68,7.84,21.75,45.94-3.48,64.29-15.23,11.4-37,34.5-45.17,53.75C105,366.59,74.42,357,55.64,355.78,25.26,353.34,19.68,324.07,19.16,316.34Z"/><path class="cls-6" d="M12,128.63a726.7,726.7,0,0,1,114.1,281.55"/><path class="cls-6" d="M1.63,197.63a262.69,262.69,0,0,0,59.5,15.1"/><path class="cls-6" d="M89.77,156.05s-8.47,55.33-19.63,75.48"/><path class="cls-6" d="M6.2,265.47s40,7.61,81.09,6.3"/><path class="cls-6" d="M143.93,212.73s-32.39,72-47.94,82.49"/><path class="cls-6" d="M19.79,321s49.66,13.26,87.72,9.89"/><path class="cls-6" d="M175.91,278.35s-28.21,46.08-62.42,74.08"/><path class="cls-5" d="M570.55,313.51c.39-9.15-55.53,12.09-52.6-7.55,3-18.64,21.21-3,45.27-7.06,23.45-3.62,23.86-51.49,19.2-58.34-5.24-7-46.29,9.37-47.53-3.19-1-13.3,41-1.92,51.69-9.53,10.11-7.37,2.35-61.79-3.17-66.93-6.45-4.84-28.39,29.9-31.13,14.49-2.54-14.74,21.68-19.57,29.62-26.35,10.71-9.33,5.58-35.68,2.74-49.8-13.5,1-40,6.48-44.43,21.85-3.41,11.33,3.47,36-10.1,41.29-15.05,6,5-33.18-1.33-37-6.65-4.72-61,22.49-62.07,39.54-1.3,16.38,33.35,43.17,22.57,51.42-11.19,8.94-23.27-37.6-31.47-37.62-8.86-.42-50,46.09-35,68.1,14.74,21.22,39.33,18.78,29.22,37.35-11,20.84-40-36-45.46-27.82-6.21,8.57-23.76,50.19,3.8,70.24,16.65,12.46,40.48,37.7,49.36,58.74,17.07-16.95,50.47-27.42,71-28.78C563.89,353.93,570,322,570.55,313.51Z"/><path class="cls-7" d="M578.36,107.43A794.06,794.06,0,0,0,453.68,415.08"/><path class="cls-7" d="M589.71,182.82a286.74,286.74,0,0,1-65,16.5"/><path class="cls-7" d="M493.4,137.39s9.25,60.45,21.45,82.47"/><path class="cls-7" d="M584.72,257s-43.75,8.31-88.6,6.88"/><path class="cls-7" d="M434.22,199.32s35.4,78.67,52.39,90.14"/><path class="cls-7" d="M569.87,317.64s-54.26,14.5-95.86,10.82"/><path class="cls-7" d="M399.28,271s30.83,50.35,68.2,80.94"/><line class="cls-8" x1="22.4" y1="414.07" x2="529.61" y2="414.07"/><ellipse class="cls-9" cx="155.12" cy="409.73" rx="44.36" ry="4.66"/><path class="cls-10" d="M194.2,167.05c0,13.32-11.9,15.45-26.57,15.45s-26.56-2.13-26.56-15.45,11.89-32.77,26.56-32.77S194.2,153.74,194.2,167.05Z"/><path class="cls-11" d="M139,184.36s-24.52,23.56-24.52,26.78,27.35,36.69,27.35,36.69l2.53-4s-9.54-25.66-15.58-29.29l14-12.47s5.38-6.13,2.92-13.7S139,184.36,139,184.36Z"/><path class="cls-12" d="M196.86,184.36l17.73,14.19,11.6-17.83,4.72,1s-10.76,35.91-16.32,35.91-21.49-15.58-21.49-15.58-5.39-6.13-2.93-13.7S196.86,184.36,196.86,184.36Z"/><polygon class="cls-11" points="141.25 299.27 137.45 395.92 141.79 395.92 159.63 299.27 141.25 299.27"/><polygon class="cls-11" points="186.05 301.1 174.98 397.08 170.7 397.08 167.91 298.11 186.05 301.1"/><path class="cls-13" d="M196.86,184.36S185.1,173,174,173l-6.13,1.06L161.79,173C150.73,173,139,184.36,139,184.36s7.69,2,3.77,17.73c0,0,1.79,6.43,7.44,8.79,0,0,4,16.94,2,22.59,0,0,2.52,3.92,15.77,3.92s15.77-3.92,15.77-3.92c-2-5.65,2-22.59,2-22.59,5.65-2.36,7.44-8.79,7.44-8.79C189.18,186.4,196.86,184.36,196.86,184.36Z"/><path class="cls-11" d="M174,173V162.17H161.79V173c-8.7,2.27-12,12.94,6.12,12.94S182.74,175.26,174,173Z"/><path class="cls-14" d="M177.1,155.93s1.53-11.43-9.19-11.43-9.18,11.43-9.18,11.43-4.7-4-3.37,2.15,3.67,1.75,3.67,1.75c.92,10.41,7.85,12.45,8.88,12.45s8-2,8.89-12.45c0,0,2.34,4.38,3.67-1.75S177.1,155.93,177.1,155.93Z"/><path class="cls-15" d="M152.58,230.56C138.15,248.77,135.32,281,139,321.47h46.92a232,232,0,0,0,7.72-57.18c0-30.39-10.53-33.73-10.53-33.73Z"/><polygon class="cls-16" points="144.56 395.34 140.57 409.73 138.12 409.73 138.12 405.69 135.37 409.73 119.06 409.73 134.35 400.49 133.04 395.34 144.56 395.34"/><polygon class="cls-16" points="167.28 395.34 169.99 409.73 172.45 409.73 172.45 405.69 175.19 409.73 191.5 409.73 176.22 400.49 178.8 395.34 167.28 395.34"/><path class="cls-10" d="M171.57,149.46c-5.38,10.24-17.35,8.93-17.35,8.93s-10.87-16.78,13.61-16.78,12.88,18.09,12.88,18.09S173.12,156.49,171.57,149.46Z"/><path class="cls-11" d="M139.2,257.64c4.21,1.64,5.59-8.47,5.88-12.8a.82.82,0,0,0-1.4-.65C140.48,247.34,133.48,255.41,139.2,257.64Z"/><path class="cls-17" d="M228.29,284.17h47v33.11h-47V413H191.86V181.17h96.37v33.12H228.29Z"/><path class="cls-11" d="M240.78,182.31c.39-4.51-9.7-3-13.94-2.08a.83.83,0,0,0-.23,1.53C230.53,184,240.24,188.42,240.78,182.31Z"/><ellipse class="cls-9" cx="442.86" cy="409.73" rx="49.14" ry="4.66"/><path class="cls-10" d="M468.47,253.56H416.42l-6,152.46h4.35L437.5,282.87h0a10.79,10.79,0,0,1,9.89,0h0L470.13,406h4.34Z"/><rect class="cls-18" x="433.85" y="152.89" width="17.2" height="25.68"/><path class="cls-12" d="M457.87,144c-1.62-1.41-3.63,2-3.63,2s1.07-14.6-11.79-14.6S430.66,146,430.66,146s-2-3.43-3.64-2-.57,7,3.25,6.77c0,0,.29,5.1,1.82,6.86s6.55,6.07,10.36,6.07,8.82-4.31,10.35-6.07,1.82-6.86,1.82-6.86C458.45,151,459.5,145.42,457.87,144Z"/><path d="M431.34,128c3.74-2.27,7-.09,12.41-2.2s6.86-8.18,15.3-3-2.6,21.29-16.6,18.3-11.9,7.3-11.9,7.3.12-4.12-2.09-4.61C428.46,143.8,425.28,131.69,431.34,128Z"/><path d="M455.44,138.46l.31,5.76L454.24,146s4.37,19.7-11.79,19.7-12-18.87-12-18.87l0-4.71,2.3-1.25s-.91,12.55,2,12.69,3-3.14,7.66-3.14,4.33,3.28,7.19,3.28,1.95-13.46,1.95-13.46l1.89-1.81Z"/><path class="cls-15" d="M477.44,181.48c-1.47-3.77-26.39-14.65-26.39-14.65,0,8.16-8.6,9-8.6,9s-8.6-.84-8.6-9c0,0-24.93,10.88-26.39,14.65s-6.7,38.28-6.49,40.16,5.86,37,5.86,37h71.23s5.65-35.15,5.86-37S478.9,185.24,477.44,181.48Z"/><path class="cls-19" d="M414.61,259.12a.45.45,0,0,1-.45-.44l-.88-38.91c.87-10.48,2.76-38.17,1.11-41a.45.45,0,0,1,.16-.62.47.47,0,0,1,.62.16c2.1,3.56-.66,37.59-1,41.46l.89,38.86a.45.45,0,0,1-.45.46Z"/><path class="cls-19" d="M470.28,259.12h0a.46.46,0,0,1-.45-.46l.89-38.91c-.32-3.82-3.09-37.85-1-41.41a.48.48,0,0,1,.63-.16.46.46,0,0,1,.16.62c-1.66,2.8.24,30.49,1.1,40.92l-.88,39A.45.45,0,0,1,470.28,259.12Z"/><polygon class="cls-15" points="414.36 406.02 414.36 409.73 401.79 409.73 410.87 407.16 410.87 406.02 414.36 406.02"/><polygon class="cls-15" points="470.58 406.02 470.58 409.73 483.15 409.73 474.07 407.16 474.07 406.02 470.58 406.02"/><path class="cls-17" d="M386.09,112.46c0-36.6,19.29-57.52,54.58-57.52s54.58,20.92,54.58,57.52v119c0,12.75-2.29,23.53-6.87,32,1.64,4.25,4.25,4.9,10.13,4.9h3.27v32h-4.9c-16,0-26.14-5.89-31.05-15.69a73.79,73.79,0,0,1-25.16,4.25c-35.29,0-54.58-20.92-54.58-57.52ZM422,233.7c0,16.34,7.19,22.55,18.63,22.55S459.3,250,459.3,233.7V110.17c0-16.34-7.19-22.55-18.63-22.55S422,93.83,422,110.17Z"/><path class="cls-12" d="M397.4,268.8a5.26,5.26,0,0,0,1.75,6.72c2.78,2,6.4,1.77,8.15,1.48a.83.83,0,0,0,.61-1.17C406.41,272.71,401.39,263.32,397.4,268.8Z"/><path class="cls-12" d="M498.24,248.63a5.28,5.28,0,0,1,.66,6.92c-1.93,2.87-5.42,3.85-7.16,4.18a.83.83,0,0,1-1-.9C491.1,255.39,492.62,244.85,498.24,248.63Z"/><ellipse class="cls-9" cx="340.42" cy="409.73" rx="34.04" ry="4.66"/><path class="cls-20" d="M358.71,153.55c0,13.31,31.72,90.41-26.56,90.41s-26.56-77.1-26.56-90.41,11.89-32.78,26.56-32.78S358.71,140.23,358.71,153.55Z"/><polygon class="cls-14" points="355.65 306.79 359.45 404.6 355.11 404.6 337.27 306.79 355.65 306.79"/><polygon class="cls-14" points="310.85 308.62 321.92 404.6 326.2 404.6 328.99 305.63 310.85 308.62"/><path class="cls-16" d="M349.74,228.74l-17.59-3-17.59,3s-19.35,22.44-19.35,96h73.88C369.09,251.18,349.74,228.74,349.74,228.74Z"/><path class="cls-21" d="M361,177.4c-4-5.56-10.38-9.05-28.88-9.05s-24.91,3.49-28.88,9.05.91,44.63,11.29,51.34h35.18C360.11,222,365,183,361,177.4Z"/><path class="cls-18" d="M336.54,159.3h-8.78V173a4.39,4.39,0,0,0,4.39,4.39h0a4.39,4.39,0,0,0,4.39-4.39Z"/><path class="cls-14" d="M336.32,134.44s.46,15.58-15,17.61c0,0,4.05,12,10.84,12,2.45,0,7.79-1.92,10.83-12.08C343,151.93,336.1,144.37,336.32,134.44Z"/><path class="cls-22" d="M313.18,207.46a.45.45,0,0,1-.45-.43c-.34-8.87-1.48-26.43-3.38-29.38a.46.46,0,0,1,.14-.63.45.45,0,0,1,.63.14c2.5,3.89,3.48,28.77,3.52,29.83a.46.46,0,0,1-.44.47Z"/><path class="cls-22" d="M351.11,207.46h0a.46.46,0,0,1-.44-.47c0-1.06,1-25.94,3.52-29.83a.45.45,0,1,1,.76.49c-1.89,2.95-3,20.51-3.37,29.38A.45.45,0,0,1,351.11,207.46Z"/><polygon class="cls-16" points="314.43 360.29 328.54 360.29 326.2 409.73 314.43 409.73 322.07 406.6 314.43 360.29"/><polygon class="cls-16" points="345.56 360.29 355.11 409.73 371.03 409.73 360.16 406.5 359.45 360.29 345.56 360.29"/><path class="cls-17" d="M396.08,413H359.32L353,370.93H308.32L302,413H268.58l37.09-231.82H359ZM313,339.47h35.1L330.51,222.24Z"/><path class="cls-12" d="M314.89,177.73a4.15,4.15,0,0,0-4.24-3.47c-3.73,0-6.44,3.47-6.44,3.47S314.89,184.09,314.89,177.73Z"/><path class="cls-12" d="M351.35,177.73a4.16,4.16,0,0,1,4.24-3.47c3.73,0,6.44,3.47,6.44,3.47S351.35,184.09,351.35,177.73Z"/><path class="cls-23" d="M183.83,230.61l-31.23,0c-1.89,2.36-3.34,5.16-5.43,8.42a18.81,18.81,0,0,0-2.82,11.6c16.82,7.68,32.23,14.61,49.05,22.29.1-8.59.88-20.18-3-32.24a18.14,18.14,0,0,0-4.5-8.07"/><path class="cls-13" d="M209.13,147.24a85.54,85.54,0,0,0-9.62-2.29A20.63,20.63,0,0,1,183.58,131l0-.13a8.62,8.62,0,0,0-9.16-5.94l-20,2.19a8.63,8.63,0,0,0-7.65,7.78l-.1,1.08a20.31,20.31,0,0,1-10.77,16.33c-2.12,1.09-4.23,2.3-6.31,3.63Z"/></g></g></g></svg>