<svg width="842" height="846" viewBox="0 0 842 846" fill="none" xmlns="http://www.w3.org/2000/svg">
<g opacity="0.5">
<path fill-rule="evenodd" clip-rule="evenodd" d="M347.161 649.34C392.796 659.641 430.068 613.971 473.376 596.275C518.903 577.671 584.95 587.006 607.132 543.11C629.515 498.816 588.866 448.783 571.376 402.34C558.489 368.119 537.993 340.263 518.978 309.03C494.124 268.205 485.562 213.395 443.049 191.554C397.192 167.996 334.106 162.52 292.173 192.512C250.445 222.356 260.033 285.979 243.246 334.457C230.53 371.179 203.499 403.065 205.829 441.856C208.22 481.661 233.575 514.254 256.024 547.211C282.355 585.866 301.538 639.041 347.161 649.34Z" stroke="url(#paint0_linear)"/>
<path fill-rule="evenodd" clip-rule="evenodd" d="M367.113 587.823C400.368 595.33 427.528 562.05 459.086 549.154C492.262 535.598 540.391 542.4 556.555 510.413C572.865 478.136 543.245 441.677 530.499 407.833C521.108 382.897 506.173 362.598 492.317 339.838C474.206 310.089 467.967 270.148 436.987 254.233C403.57 237.066 357.6 233.076 327.043 254.931C296.635 276.679 303.622 323.04 291.39 358.367C282.123 385.126 262.426 408.362 264.124 436.629C265.866 465.635 284.342 489.386 300.701 513.401C319.889 541.57 333.867 580.318 367.113 587.823Z" stroke="url(#paint1_linear)"/>
<path fill-rule="evenodd" clip-rule="evenodd" d="M373.302 528.47C394.879 533.341 412.5 511.748 432.976 503.381C454.501 494.585 485.728 498.999 496.216 478.245C506.798 457.303 487.58 433.648 479.31 411.689C473.217 395.51 463.527 382.34 454.537 367.573C442.786 348.271 438.738 322.357 418.638 312.03C396.957 300.892 367.13 298.303 347.304 312.483C327.575 326.594 332.108 356.674 324.172 379.594C318.159 396.956 305.379 412.032 306.481 430.372C307.611 449.192 319.599 464.602 330.213 480.184C342.662 498.46 351.732 523.601 373.302 528.47Z" stroke="url(#paint2_linear)"/>
</g>
<defs>
<linearGradient id="paint0_linear" x1="264.496" y1="147.706" x2="639.754" y2="650.574" gradientUnits="userSpaceOnUse">
<stop stop-color="#4EA5D9"/>
<stop offset="1" stop-color="#3DBFD9"/>
</linearGradient>
<linearGradient id="paint1_linear" x1="306.875" y1="222.28" x2="580.327" y2="588.722" gradientUnits="userSpaceOnUse">
<stop stop-color="#4EA5D9"/>
<stop offset="1" stop-color="#3DBFD9"/>
</linearGradient>
<linearGradient id="paint2_linear" x1="334.219" y1="291.299" x2="511.639" y2="529.053" gradientUnits="userSpaceOnUse">
<stop stop-color="#4EA5D9"/>
<stop offset="1" stop-color="#3DBFD9"/>
</linearGradient>
</defs>
</svg>
