<svg width="712" height="758" viewBox="0 0 712 758" fill="none" xmlns="http://www.w3.org/2000/svg">
<path fill-rule="evenodd" clip-rule="evenodd" d="M228.367 662.146C285.954 681.963 340.675 628.164 399.23 611.421C460.786 593.82 544.923 615.288 579.865 561.641C615.124 507.507 569.638 436.987 553.608 374.403C541.796 328.291 519.235 289.333 499.07 246.214C472.712 189.854 469.424 117.714 417.517 83.4095C361.527 46.4067 280.674 30.3543 222.149 63.202C163.912 95.8888 167.275 179.578 138.662 239.921C116.988 285.631 77.4781 323.049 74.9788 373.576C72.4142 425.422 100.59 471.201 124.954 517.038C153.532 570.8 170.795 642.334 228.367 662.146Z" stroke="url(#paint0_linear)"/>
<path fill-rule="evenodd" clip-rule="evenodd" d="M237.355 585.381C279.319 599.822 319.194 560.619 361.863 548.418C406.719 535.592 468.03 551.235 493.493 512.143C519.186 472.695 486.041 421.307 474.359 375.702C465.752 342.1 449.312 313.711 434.617 282.29C415.41 241.22 413.014 188.651 375.189 163.654C334.389 136.689 275.471 124.992 232.824 148.928C190.386 172.747 192.837 233.732 171.987 277.704C156.192 311.013 127.402 338.28 125.58 375.099C123.711 412.879 144.243 446.239 161.998 479.64C182.822 518.817 195.402 570.944 237.355 585.381Z" stroke="url(#paint1_linear)"/>
<defs>
<linearGradient id="paint0_linear" x1="192.706" y1="1.28937" x2="606.802" y2="705.334" gradientUnits="userSpaceOnUse">
<stop stop-color="#4EA5D9"/>
<stop offset="1" stop-color="#3DBFD9"/>
</linearGradient>
<linearGradient id="paint1_linear" x1="211.369" y1="103.812" x2="513.122" y2="616.853" gradientUnits="userSpaceOnUse">
<stop stop-color="#4EA5D9"/>
<stop offset="1" stop-color="#3DBFD9"/>
</linearGradient>
</defs>
</svg>
