<svg width="74" height="74" viewBox="0 0 74 74" fill="none" xmlns="http://www.w3.org/2000/svg">
<circle opacity="0.4" cx="2" cy="2" r="2" fill="#4EA5D9"/>
<circle opacity="0.4" cx="2" cy="12" r="2" fill="#4EA5D9"/>
<circle opacity="0.4" cx="2" cy="22" r="2" fill="#4EA5D9"/>
<circle opacity="0.4" cx="2" cy="32" r="2" fill="#4EA5D9"/>
<circle opacity="0.4" cx="2" cy="42" r="2" fill="#4EA5D9"/>
<circle opacity="0.4" cx="2" cy="52" r="2" fill="#4EA5D9"/>
<circle opacity="0.4" cx="2" cy="62" r="2" fill="#4EA5D9"/>
<circle opacity="0.4" cx="2" cy="72" r="2" fill="#4EA5D9"/>
<circle opacity="0.4" cx="22" cy="2" r="2" fill="#4EA5D9"/>
<circle opacity="0.4" cx="22" cy="12" r="2" fill="#4EA5D9"/>
<circle opacity="0.4" cx="22" cy="22" r="2" fill="#4EA5D9"/>
<circle opacity="0.4" cx="22" cy="32" r="2" fill="#4EA5D9"/>
<circle opacity="0.4" cx="22" cy="42" r="2" fill="#4EA5D9"/>
<circle opacity="0.4" cx="22" cy="52" r="2" fill="#4EA5D9"/>
<circle opacity="0.4" cx="22" cy="62" r="2" fill="#4EA5D9"/>
<circle opacity="0.4" cx="22" cy="72" r="2" fill="#4EA5D9"/>
<circle opacity="0.4" cx="42" cy="2" r="2" fill="#4EA5D9"/>
<circle opacity="0.4" cx="42" cy="12" r="2" fill="#4EA5D9"/>
<circle opacity="0.4" cx="42" cy="22" r="2" fill="#4EA5D9"/>
<circle opacity="0.4" cx="42" cy="32" r="2" fill="#4EA5D9"/>
<circle opacity="0.4" cx="42" cy="42" r="2" fill="#4EA5D9"/>
<circle opacity="0.4" cx="42" cy="52" r="2" fill="#4EA5D9"/>
<circle opacity="0.4" cx="42" cy="62" r="2" fill="#4EA5D9"/>
<circle opacity="0.4" cx="42" cy="72" r="2" fill="#4EA5D9"/>
<circle opacity="0.4" cx="62" cy="2" r="2" fill="#4EA5D9"/>
<circle opacity="0.4" cx="62" cy="12" r="2" fill="#4EA5D9"/>
<circle opacity="0.4" cx="62" cy="22" r="2" fill="#4EA5D9"/>
<circle opacity="0.4" cx="62" cy="32" r="2" fill="#4EA5D9"/>
<circle opacity="0.4" cx="62" cy="42" r="2" fill="#4EA5D9"/>
<circle opacity="0.4" cx="62" cy="52" r="2" fill="#4EA5D9"/>
<circle opacity="0.4" cx="62" cy="62" r="2" fill="#4EA5D9"/>
<circle opacity="0.4" cx="62" cy="72" r="2" fill="#4EA5D9"/>
<circle opacity="0.4" cx="12" cy="2" r="2" fill="#4EA5D9"/>
<circle opacity="0.4" cx="12" cy="12" r="2" fill="#4EA5D9"/>
<circle opacity="0.4" cx="12" cy="22" r="2" fill="#4EA5D9"/>
<circle opacity="0.4" cx="12" cy="32" r="2" fill="#4EA5D9"/>
<circle opacity="0.4" cx="12" cy="42" r="2" fill="#4EA5D9"/>
<circle opacity="0.4" cx="12" cy="52" r="2" fill="#4EA5D9"/>
<circle opacity="0.4" cx="12" cy="62" r="2" fill="#4EA5D9"/>
<circle opacity="0.4" cx="12" cy="72" r="2" fill="#4EA5D9"/>
<circle opacity="0.4" cx="32" cy="2" r="2" fill="#4EA5D9"/>
<circle opacity="0.4" cx="32" cy="12" r="2" fill="#4EA5D9"/>
<circle opacity="0.4" cx="32" cy="22" r="2" fill="#4EA5D9"/>
<circle opacity="0.4" cx="32" cy="32" r="2" fill="#4EA5D9"/>
<circle opacity="0.4" cx="32" cy="42" r="2" fill="#4EA5D9"/>
<circle opacity="0.4" cx="32" cy="52" r="2" fill="#4EA5D9"/>
<circle opacity="0.4" cx="32" cy="62" r="2" fill="#4EA5D9"/>
<circle opacity="0.4" cx="32" cy="72" r="2" fill="#4EA5D9"/>
<circle opacity="0.4" cx="52" cy="2" r="2" fill="#4EA5D9"/>
<circle opacity="0.4" cx="52" cy="12" r="2" fill="#4EA5D9"/>
<circle opacity="0.4" cx="52" cy="22" r="2" fill="#4EA5D9"/>
<circle opacity="0.4" cx="52" cy="32" r="2" fill="#4EA5D9"/>
<circle opacity="0.4" cx="52" cy="42" r="2" fill="#4EA5D9"/>
<circle opacity="0.4" cx="52" cy="52" r="2" fill="#4EA5D9"/>
<circle opacity="0.4" cx="52" cy="62" r="2" fill="#4EA5D9"/>
<circle opacity="0.4" cx="52" cy="72" r="2" fill="#4EA5D9"/>
<circle opacity="0.4" cx="72" cy="2" r="2" fill="#4EA5D9"/>
<circle opacity="0.4" cx="72" cy="12" r="2" fill="#4EA5D9"/>
<circle opacity="0.4" cx="72" cy="22" r="2" fill="#4EA5D9"/>
<circle opacity="0.4" cx="72" cy="32" r="2" fill="#4EA5D9"/>
<circle opacity="0.4" cx="72" cy="42" r="2" fill="#4EA5D9"/>
<circle opacity="0.4" cx="72" cy="52" r="2" fill="#4EA5D9"/>
<circle opacity="0.4" cx="72" cy="62" r="2" fill="#4EA5D9"/>
<circle opacity="0.4" cx="72" cy="72" r="2" fill="#4EA5D9"/>
</svg>
