<svg width="44" height="44" viewBox="0 0 44 44" fill="none" xmlns="http://www.w3.org/2000/svg">
<rect opacity="0.5" width="44" height="44" rx="10" fill="url(#paint0_linear)"/>
<rect x="5" y="5" width="34" height="34" rx="7" fill="url(#paint1_linear)"/>
<path d="M30.2934 18.3125H25.6875V13.7066C25.6875 13.3188 25.3687 13 24.9809 13H20.0244C19.6312 13 19.3125 13.3188 19.3125 13.7066V18.3125H14.7066C14.3188 18.3125 14 18.6312 14 19.0191V23.9756C14 24.3687 14.3188 24.6875 14.7066 24.6875H19.3125V29.2934C19.3125 29.6812 19.6312 30 20.0191 30H24.9756C25.3687 30 25.6875 29.6812 25.6875 29.2934V24.6875H30.2934C30.6812 24.6875 31 24.3687 31 23.9809V19.0244C31 18.6312 30.6812 18.3125 30.2934 18.3125ZM30.2934 23.9809H25.6875H24.9809V24.6875V29.2934H20.0244V24.6875V23.9809H19.3125H14.7066V19.0244H19.3125H20.0191V18.3125V13.7066H24.9756V18.3125V19.0191H25.6875H30.2934V23.9809Z" fill="url(#paint2_linear)"/>
<path d="M23.6962 20.8041C23.4465 20.6394 23.149 20.5438 22.8462 20.4588V18.015C22.8515 18.015 22.8515 18.015 22.8568 18.015C23.2234 17.9513 23.5156 17.9566 23.5421 17.9566C23.7387 17.9566 23.914 17.7972 23.914 17.6059C23.914 17.4147 23.7653 17.2606 23.574 17.25C23.5474 17.25 23.2499 17.2394 22.8515 17.2978V15.4809C22.8515 15.2844 22.6921 15.125 22.4956 15.125C22.299 15.125 22.1396 15.2844 22.1396 15.4809V17.4784C21.8368 17.59 21.534 17.7494 21.2843 17.9884C20.9124 18.3497 20.7212 18.8172 20.7212 19.3803C20.7212 19.9328 20.9337 20.3578 21.3481 20.65C21.5818 20.8147 21.8581 20.9209 22.1343 21.0006V22.9875C21.9378 23.0672 21.7465 23.1628 21.5765 23.2903C21.2365 23.5506 21.0665 23.9013 21.0665 24.3316C21.0665 25.0594 21.4331 25.665 22.129 26.0741C22.129 26.0741 22.1343 26.0741 22.1343 26.0794V27.5297C22.1343 27.7263 22.2937 27.8856 22.4903 27.8856C22.6868 27.8856 22.8462 27.7263 22.8462 27.5297V26.3875C22.9896 26.43 23.0959 26.4513 23.1278 26.4619C23.1278 26.4619 23.1809 26.4672 23.2021 26.4672C23.3987 26.4672 23.5581 26.3078 23.5581 26.1113C23.5581 25.9359 23.4306 25.7925 23.2659 25.7606C23.2659 25.7606 23.0853 25.7234 22.8462 25.6331V23.4763C23.1543 23.3647 23.4678 23.2372 23.7281 23.0353C24.0893 22.7538 24.2699 22.3659 24.2699 21.8931C24.2699 21.4203 24.0787 21.0538 23.6962 20.8041ZM22.1396 25.1869C21.9006 24.9478 21.7784 24.6609 21.7784 24.3263C21.7784 24.0606 21.8899 23.9066 22.1396 23.7684V25.1869ZM22.1396 20.2516C21.6828 20.0869 21.4331 19.8744 21.4331 19.375C21.4331 19.0084 21.5446 18.7216 21.7784 18.4984C21.8846 18.3975 22.0121 18.3125 22.1396 18.2488V20.2516ZM22.8462 22.7113V21.1972C23.3456 21.3566 23.5581 21.5106 23.5581 21.8878C23.5634 22.3181 23.3403 22.5094 22.8462 22.7113Z" fill="url(#paint3_linear)"/>
<defs>
<linearGradient id="paint0_linear" x1="0" y1="44" x2="44" y2="0" gradientUnits="userSpaceOnUse">
<stop stop-color="#EAF6FE"/>
<stop offset="1" stop-color="#ECFCFF"/>
</linearGradient>
<linearGradient id="paint1_linear" x1="5" y1="39" x2="39" y2="5" gradientUnits="userSpaceOnUse">
<stop stop-color="#EAF6FE"/>
<stop offset="1" stop-color="#ECFCFF"/>
</linearGradient>
<linearGradient id="paint2_linear" x1="14" y1="30" x2="31" y2="13" gradientUnits="userSpaceOnUse">
<stop stop-color="#4EA5D9"/>
<stop offset="1" stop-color="#3DBFD9"/>
</linearGradient>
<linearGradient id="paint3_linear" x1="20.7212" y1="27.8856" x2="27.3092" y2="26.0535" gradientUnits="userSpaceOnUse">
<stop stop-color="#4EA5D9"/>
<stop offset="1" stop-color="#3DBFD9"/>
</linearGradient>
</defs>
</svg>
