<svg width="1299" height="975" viewBox="0 0 1299 975" fill="none" xmlns="http://www.w3.org/2000/svg">
<path fill-rule="evenodd" clip-rule="evenodd" d="M529.969 773.596C588.093 791.778 641.272 736.455 699.33 718.065C760.365 698.732 845.075 717.814 878.487 663.201C912.203 608.093 864.743 538.886 846.951 476.78C833.841 431.02 810.189 392.715 788.813 350.183C760.873 294.59 755.549 222.572 702.694 189.747C645.681 154.341 564.406 140.579 506.833 175.067C449.542 209.386 455.269 292.947 428.372 354.074C407.997 400.378 369.561 438.898 368.49 489.475C367.391 541.372 396.849 586.338 422.498 631.468C452.583 684.401 471.86 755.419 529.969 773.596Z" stroke="#A3D7EC"/>
<path fill-rule="evenodd" clip-rule="evenodd" d="M562.349 695.885C604.704 709.135 643.456 668.82 685.763 655.419C730.239 641.331 791.967 655.236 816.315 615.44C840.884 575.282 806.3 524.851 793.334 479.594C783.782 446.248 766.546 418.335 750.969 387.342C730.61 346.831 726.73 294.351 688.214 270.432C646.668 244.631 587.443 234.603 545.489 259.734C503.741 284.743 507.914 345.634 488.314 390.178C473.467 423.92 445.458 451.989 444.678 488.845C443.877 526.663 465.343 559.429 484.034 592.315C505.957 630.888 520.004 682.639 562.349 695.885Z" stroke="#A3D7EC"/>
<path fill-rule="evenodd" clip-rule="evenodd" d="M592.434 623.232C619.914 631.829 645.057 605.672 672.507 596.977C701.364 587.836 741.414 596.858 757.212 571.038C773.153 544.982 750.714 512.262 742.301 482.898C736.103 461.263 724.92 443.152 714.814 423.044C701.604 396.76 699.087 362.709 674.097 347.19C647.142 330.45 608.715 323.944 581.495 340.249C554.408 356.475 557.115 395.983 544.399 424.884C534.766 446.776 516.593 464.988 516.087 488.9C515.567 513.437 529.495 534.697 541.622 556.034C555.846 581.061 564.96 614.638 592.434 623.232Z" stroke="#A3D7EC"/>
</svg>
