<svg width="54" height="54" viewBox="0 0 54 54" fill="none" xmlns="http://www.w3.org/2000/svg">
<path fill-rule="evenodd" clip-rule="evenodd" d="M38.5713 27.0004C38.5713 22.7399 42.0251 19.2861 46.2856 19.2861C50.5461 19.2861 53.9999 22.7399 53.9999 27.0004C53.9999 31.2609 50.5461 34.7147 46.2856 34.7147C42.0251 34.7147 38.5713 31.2609 38.5713 27.0004Z" fill="#74E1CE"/>
<path fill-rule="evenodd" clip-rule="evenodd" d="M0 27.0004C0 22.7399 3.45381 19.2861 7.71429 19.2861C11.9748 19.2861 15.4286 22.7399 15.4286 27.0004C15.4286 31.2609 11.9748 34.7147 7.71429 34.7147C3.45381 34.7147 0 31.2609 0 27.0004Z" fill="#74E1CE"/>
<path fill-rule="evenodd" clip-rule="evenodd" d="M19.2861 46.2856C19.2861 42.0251 22.7399 38.5713 27.0004 38.5713C31.2609 38.5713 34.7147 42.0251 34.7147 46.2856C34.7147 50.5461 31.2609 53.9999 27.0004 53.9999C22.7399 53.9999 19.2861 50.5461 19.2861 46.2856Z" fill="white"/>
<path fill-rule="evenodd" clip-rule="evenodd" d="M19.2861 7.71429C19.2861 3.45381 22.7399 0 27.0004 0C31.2609 0 34.7147 3.45381 34.7147 7.71429C34.7147 11.9748 31.2609 15.4286 27.0004 15.4286C22.7399 15.4286 19.2861 11.9748 19.2861 7.71429Z" fill="white"/>
</svg>
