<svg xmlns="http://www.w3.org/2000/svg" xmlns:xlink="http://www.w3.org/1999/xlink" viewBox="0 0 623.87 446.15"><defs><style>.cls-1{fill:url(#linear-gradient);}.cls-2{fill:#80b377;}.cls-3,.cls-4{fill:none;stroke:#2e5e26;stroke-miterlimit:10;}.cls-3{stroke-width:0.69px;}.cls-4{stroke-width:0.75px;}.cls-5{fill:#fcfae1;}.cls-6{fill:#5dcbf4;}.cls-7{fill:#bfd1ff;}.cls-8{fill:#203e87;}.cls-9{fill:#e03726;}.cls-10{fill:#f6e497;}.cls-11{fill:#ff7551;}.cls-12{fill:#ffbb10;}.cls-13{fill:#208299;opacity:0.6;}.cls-14{fill:#dd5790;}.cls-15{fill:#95d6a4;}.cls-16{fill:#3864a5;}.cls-17{fill:#47568c;}.cls-18{fill:#fdcb02;}.cls-19{fill:#86b1f2;}</style><linearGradient id="linear-gradient" x1="359.06" y1="-12.75" x2="165.77" y2="389.2" gradientTransform="matrix(0.89, 0.88, -0.89, 0.88, 282.38, -187.73)" gradientUnits="userSpaceOnUse"><stop offset="0" stop-color="#ffd97a"/><stop offset="1" stop-color="#fff"/></linearGradient></defs><title>about-img1</title><g id="Layer_2" data-name="Layer 2"><g id="Layer_1-2" data-name="Layer 1"><ellipse class="cls-1" cx="303.65" cy="223.08" rx="224.11" ry="222.04" transform="translate(-68.8 280.05) rotate(-45)"/><path class="cls-2" d="M16.09,309.52c-.3-7,42.68,9.29,40.43-5.8-2.32-14.33-16.3-2.33-34.79-5.43C3.7,295.51,3.39,258.72,7,253.45c4-5.37,35.58,7.21,36.53-2.44.76-10.23-31.47-1.48-39.73-7.33C-4,238,2,196.19,6.21,192.25c5-3.73,21.82,23,23.93,11.13,1.94-11.33-16.66-15-22.77-20.25C-.86,176,3.08,155.71,5.26,144.86c10.38.75,30.71,5,34.15,16.79,2.62,8.71-2.66,27.63,7.76,31.73,11.57,4.63-3.85-25.5,1-28.41,5.12-3.63,46.87,17.28,47.71,30.39,1,12.59-25.63,33.17-17.35,39.52,8.6,6.86,17.89-28.9,24.19-28.92,6.81-.32,38.46,35.42,26.91,52.34-11.32,16.31-30.23,14.43-22.46,28.71,8.49,16,30.71-27.68,34.94-21.39,4.77,6.59,18.26,38.58-2.92,54-12.79,9.57-31.11,29-37.94,45.14-13.11-13-38.78-21.07-54.55-22.12C21.21,340.58,16.53,316,16.09,309.52Z"/><path class="cls-3" d="M10.09,151.89a610.22,610.22,0,0,1,95.82,236.43"/><path class="cls-3" d="M1.37,209.83a220.69,220.69,0,0,0,50,12.68"/><path class="cls-3" d="M75.39,174.91s-7.11,46.46-16.49,63.38"/><path class="cls-3" d="M5.21,266.8s33.62,6.39,68.09,5.29"/><path class="cls-3" d="M120.87,222.51S93.66,283,80.61,291.78"/><path class="cls-3" d="M16.62,313.44s41.7,11.14,73.67,8.31"/><path class="cls-3" d="M147.72,277.62S124,316.31,95.31,339.82"/><path class="cls-2" d="M606.29,313.9c.33-7.68-46.63,10.15-44.17-6.33,2.53-15.66,17.81-2.55,38-5.94,19.7-3,20-43.24,16.12-49-4.39-5.87-38.86,7.88-39.91-2.67-.83-11.18,34.39-1.61,43.41-8,8.49-6.18,2-51.89-2.66-56.2-5.42-4.07-23.84,25.11-26.15,12.17-2.12-12.38,18.21-16.44,24.88-22.13,9-7.83,4.69-30,2.3-41.82-11.34.83-33.55,5.44-37.31,18.35-2.86,9.51,2.91,30.19-8.48,34.67-12.64,5.06,4.21-27.86-1.12-31-5.59-4-51.21,18.88-52.12,33.2-1.09,13.76,28,36.25,18.95,43.18-9.39,7.51-19.54-31.58-26.43-31.59-7.44-.36-42,38.7-29.4,57.19,12.37,17.81,33,15.76,24.54,31.36-9.27,17.5-33.56-30.23-38.18-23.36-5.21,7.19-20,42.15,3.19,59,14,10.46,34,31.65,41.45,49.32,14.34-14.24,42.38-23,59.61-24.16C600.7,347.85,605.81,321,606.29,313.9Z"/><path class="cls-4" d="M612.85,140.85A666.82,666.82,0,0,0,508.14,399.2"/><path class="cls-4" d="M622.38,204.16A240.62,240.62,0,0,1,567.78,218"/><path class="cls-4" d="M541.5,166s7.77,50.76,18,69.26"/><path class="cls-4" d="M618.19,266.41s-36.74,7-74.41,5.78"/><path class="cls-4" d="M491.8,218s29.73,66.07,44,75.7"/><path class="cls-4" d="M605.72,317.38s-45.57,12.17-80.5,9.08"/><path class="cls-4" d="M462.46,278.23s25.89,42.28,57.27,68"/><path class="cls-5" d="M107.68,290.77S99.29,296,94.05,302.3c0,0-13.89,7.1-22,17.05,0,0,200.18,12.16,234,48.8l.17-7.71L298.47,349s-15.71-44.37-140.58-56.38Z"/><path class="cls-5" d="M502.25,290.77s8.39,5.21,13.63,11.53c0,0,13.9,7.1,22,17.05,0,0-200.18,12.16-234,48.8l-.16-7.71,7.82-11.4S327.18,304.67,452,292.66Z"/><path class="cls-6" d="M306.1,363.82l-4.8-.49c0-.09,1.32-9.63-11.36-20.85C270.28,325.09,218.76,304.35,85,304.35v-3.79c136,0,188.61,21.55,208.81,39.62C307.79,352.69,306.17,363.37,306.1,363.82Z"/><path class="cls-6" d="M306.12,363.59l-4.84,0c0-.17-.16-17.5-24.83-34.85-23-16.19-72.56-35.7-177.81-36.67l0-3.79c47.23.44,87.49,4.59,119.65,12.36,25.89,6.25,46.67,14.85,61.74,25.56C306.09,344.64,306.13,362.83,306.12,363.59Z"/><path class="cls-7" d="M301.12,360.44s-20-43.37-234.73-43.37a86.12,86.12,0,0,0-15.71,15.59c185.31,1.39,229,25.13,236.87,30.91A97,97,0,0,1,301.12,360.44Z"/><path class="cls-7" d="M36.35,359.65a69.56,69.56,0,0,0-2.89,17.82c17.41-.25,61.91-.81,106.82-.79,84.31.07,110.68,2.17,119.62,3.89a47.58,47.58,0,0,1,6.33-6.07c-11.05-4-56.82-14.85-227.8-14.85Z"/><path class="cls-7" d="M33.4,381.56V393.7H252.5a29.88,29.88,0,0,1,4.6-9.49c-9.18-1.47-36.67-3.38-117.34-3.44C94.93,380.73,50.62,381.31,33.4,381.56Z"/><path class="cls-7" d="M47.64,336.73a81.76,81.76,0,0,0-9.93,18.82c177.45,0,222.23,11.81,232.55,16a63.8,63.8,0,0,1,12-6.14c-4.55-2.74-15.87-8.13-40.65-13.49C210.72,345.28,152.31,337.39,47.64,336.73Z"/><path class="cls-6" d="M33.46,377.47c0,.72-.06,1.43-.06,2.16v1.93c17.22-.25,61.53-.83,106.36-.79,80.67.06,108.16,2,117.34,3.44a41.58,41.58,0,0,1,2.8-3.64c-8.94-1.72-35.31-3.82-119.62-3.89C95.37,376.66,50.87,377.22,33.46,377.47Z"/><path class="cls-6" d="M37.71,355.55c-.49,1.34-.94,2.7-1.36,4.1h2.08c171,0,216.75,10.85,227.8,14.85q1.84-1.49,4-2.93C259.94,367.36,215.16,355.53,37.71,355.55Z"/><path class="cls-6" d="M50.68,332.66q-1.53,1.92-3,4.07c104.67.66,163.08,8.55,193.94,15.21,24.78,5.36,36.1,10.75,40.65,13.49q2.52-1,5.32-1.86C279.66,357.79,236,334.05,50.68,332.66Z"/><path class="cls-7" d="M306.29,360.44s20-43.37,234.73-43.37a85.91,85.91,0,0,1,15.7,15.59c-185.31,1.39-229,25.13-236.87,30.91A97.13,97.13,0,0,0,306.29,360.44Z"/><path class="cls-7" d="M571.05,359.65a69.56,69.56,0,0,1,2.9,17.82c-17.42-.25-61.91-.81-106.83-.79-84.31.07-110.68,2.17-119.62,3.89a48.08,48.08,0,0,0-6.32-6.07C352.27,370.48,398.36,359.56,571.05,359.65Z"/><path class="cls-7" d="M574,381.56V393.7H354.9a30,30,0,0,0-4.59-9.49c9.18-1.47,36.67-3.38,117.33-3.44C512.47,380.73,556.79,381.31,574,381.56Z"/><path class="cls-7" d="M559.76,336.73a81.38,81.38,0,0,1,9.93,18.82c-177.45,0-222.23,11.81-232.54,16a63.91,63.91,0,0,0-12-6.14c4.55-2.74,15.87-8.13,40.65-13.49C396.68,345.28,455.09,337.39,559.76,336.73Z"/><path class="cls-6" d="M574,377.47c0,.72,0,1.43,0,2.16v1.93c-17.21-.25-61.53-.83-106.36-.79-80.66.06-108.15,2-117.33,3.44a43.86,43.86,0,0,0-2.81-3.64c8.94-1.72,35.31-3.82,119.62-3.89C512,376.66,556.53,377.22,574,377.47Z"/><path class="cls-6" d="M569.69,355.55c.49,1.34.95,2.7,1.36,4.1H569c-171,0-216.74,10.85-227.79,14.85q-1.86-1.49-4-2.93C347.46,367.36,392.24,355.53,569.69,355.55Z"/><path class="cls-6" d="M556.72,332.66q1.53,1.92,3,4.07c-104.67.66-163.08,8.55-193.94,15.21-24.78,5.36-36.1,10.75-40.65,13.49q-2.52-1-5.32-1.86C327.75,357.79,371.41,334.05,556.72,332.66Z"/><path class="cls-6" d="M303.74,363.82l4.79-.49c0-.09-1.31-9.63,11.37-20.85,19.66-17.39,71.18-38.13,205-38.13v-3.79c-136,0-188.61,21.55-208.81,39.62C302.05,352.69,303.66,363.37,303.74,363.82Z"/><path class="cls-6" d="M303.72,363.59l4.83,0c0-.17.17-17.5,24.84-34.85,23-16.19,72.55-35.7,177.81-36.67l-.05-3.79c-47.24.44-87.49,4.59-119.65,12.36-25.9,6.25-46.67,14.85-61.74,25.56C303.75,344.64,303.71,362.83,303.72,363.59Z"/><path class="cls-8" d="M354.67,388.59c-5.65-20.57-28.33-30.86-51-30.87h0c-22.7,0-45.37,10.3-51,30.87H16.34v10.23h248c0-5.65,1.16-10.65,4.05-14.61,7.34-10.1,19.18,5.31,19.18,5.31h-8v6.14a2.85,2.85,0,0,0,1.18,2.23,4.64,4.64,0,0,0,2.85.93h40.28a4.64,4.64,0,0,0,2.85-.93,2.82,2.82,0,0,0,1.18-2.23v-6.14h-8.13s11.84-15.41,19.19-5.31c2.88,4,4,9,4,14.61H591V388.59Z"/><polygon class="cls-9" points="62.62 388.59 16.34 383.78 16.34 398.82 62.62 398.82 62.62 388.59"/><polygon class="cls-9" points="544.67 388.59 590.96 383.78 590.96 398.82 544.67 398.82 544.67 388.59"/><rect class="cls-6" x="135.05" y="76.47" width="21.76" height="59.98"/><rect class="cls-6" x="107.27" y="89.79" width="21.76" height="59.98"/><polygon class="cls-10" points="135.05 76.47 129.03 89.79 129.03 149.77 135.05 136.45 135.05 76.47"/><rect class="cls-6" x="79.5" y="103.12" width="21.76" height="59.98"/><polygon class="cls-10" points="107.28 89.8 101.25 103.12 101.25 163.1 107.28 149.77 107.28 89.8"/><path class="cls-9" d="M87.62,154.6s.18.13.21.16S87.57,154.57,87.62,154.6Z"/><polygon class="cls-9" points="87.42 153.89 87.5 153.95 87.33 153.76 87.42 153.89"/><path class="cls-9" d="M87.67,153.49c-.37-.17,0,.18-.2.18l-.09,0,.26.2C87.65,153.72,87.54,153.49,87.67,153.49Z"/><path class="cls-9" d="M88.55,153.74c-.14-.07-.08-.11-.07,0h0Z"/><path class="cls-9" d="M88.52,153.78c0,.05.13,0,0,0Z"/><path class="cls-9" d="M88.56,153.54l.09.13c.09,0,.13,0,.18.05C88.8,153.62,88.71,153.59,88.56,153.54Z"/><path class="cls-9" d="M88.34,153.33l0,.06S88.43,153.41,88.34,153.33Z"/><path class="cls-9" d="M88.44,153.52l-.07-.13c-.06,0-.17-.1,0,.05C88.3,153.37,88.39,153.45,88.44,153.52Z"/><path class="cls-9" d="M88.37,153.52c-.09,0-.17,0-.25-.14C88.1,153.52,88.35,153.65,88.37,153.52Z"/><path class="cls-9" d="M87.32,153.25l-.12,0,.09.11C87.24,153.28,87.43,153.31,87.32,153.25Z"/><path class="cls-9" d="M89,153.31a2.72,2.72,0,0,0-.3-.16l.06.09A.47.47,0,0,1,89,153.31Z"/><path class="cls-9" d="M88.65,153.15l-.09-.14S88.56,153.1,88.65,153.15Z"/><polygon class="cls-9" points="87.96 153.08 88.17 153.35 87.97 153.06 87.96 153.08"/><polygon class="cls-9" points="89.11 153.08 89.26 153.22 89.03 153 89.11 153.08"/><path class="cls-9" d="M89.17,152.91c.13.11.26.11.33.19s-.1-.17-.19-.27C89.35,152.9,89.32,152.93,89.17,152.91Z"/><path class="cls-9" d="M89.19,152.68a1.11,1.11,0,0,0,.12.15A.58.58,0,0,0,89.19,152.68Z"/><path class="cls-9" d="M88.66,152.93a.85.85,0,0,0,.24.08l-.22-.1Z"/><path class="cls-9" d="M88.67,152.9h0l0,0Z"/><path class="cls-9" d="M88.65,152.93h0S88.63,152.92,88.65,152.93Z"/><path class="cls-9" d="M88.25,153c-.1-.11-.18-.26-.4-.3C88,152.86,88.1,152.88,88.25,153Z"/><path class="cls-9" d="M88.38,152.8l-.09,0a1,1,0,0,1,.19.12Z"/><polygon class="cls-9" points="88.33 152.73 88.38 152.8 88.41 152.79 88.33 152.73"/><path class="cls-9" d="M88.92,152.67c-.07-.08-.06-.12,0-.16a.17.17,0,0,0-.13.07C88.8,152.63,88.91,152.71,88.92,152.67Z"/><path class="cls-9" d="M88.78,152.77h0S88.75,152.75,88.78,152.77Z"/><path class="cls-9" d="M89.08,152.17l0,0,0,0Z"/><path class="cls-9" d="M88.7,152.56c-.06,0,0,.05,0,.11a.25.25,0,0,1,0-.09Z"/><path class="cls-9" d="M89.15,152.52l-.15,0C89.08,152.53,89.2,152.56,89.15,152.52Z"/><path class="cls-9" d="M88.84,152.78h0S88.87,152.8,88.84,152.78Z"/><path class="cls-9" d="M88.84,152.78l-.11-.11a.36.36,0,0,0,0,.09Z"/><path class="cls-9" d="M87.81,151.24c.19.13.32.31.07.24a4.22,4.22,0,0,0,1.16.67.6.6,0,0,1-.24-.24c-.12,0-.33,0-.47-.17s.11,0,.24,0c-.27-.12-.29-.33-.65-.53l.08.16C87.94,151.33,87.87,151.25,87.81,151.24Z"/><path class="cls-9" d="M88.94,152.26v0a1,1,0,0,1,.32.07.75.75,0,0,0-.2-.2l-.1.12Z"/><path class="cls-9" d="M88.88,152.42c-.2-.15-.25-.27-.5-.37,0,.09.14.16.21.26,0-.15.09.11.27.1a.18.18,0,0,1,0,.1H89s0,0,0,0h0l-.08-.06c.07,0,.06,0,.08.06l0,0h0l0-.2S88.89,152.35,88.88,152.42Z"/><path class="cls-9" d="M87.44,152.4l0,0S87.46,152.39,87.44,152.4Z"/><path class="cls-9" d="M87.6,152.42s.1.09.06.11-.1-.07-.17-.11a.34.34,0,0,0,.25.17l0,0a1.16,1.16,0,0,1,.43.12A3.94,3.94,0,0,0,87.6,152.42Z"/><path class="cls-9" d="M88.19,152.39l0-.17-.22-.06.12.06C88,152.26,88.11,152.33,88.19,152.39Z"/><polygon class="cls-9" points="89.19 152.22 89.41 152.37 89.13 152.12 89.19 152.22"/><polygon class="cls-9" points="89.25 152.07 89.44 152.19 89.34 152.09 89.25 152.07"/><path class="cls-9" d="M91.55,143l0-.06Z"/><path class="cls-9" d="M91.4,143.18l.09.07C91.44,143.2,91.41,143.18,91.4,143.18Z"/><path class="cls-9" d="M91.27,148.74c.21.06.52.19.3.06l-.22-.12C91.37,148.74,91.33,148.75,91.27,148.74Z"/><path class="cls-9" d="M91.41,145.69l-.08,0,.19.15Z"/><path class="cls-9" d="M90.55,145.12l.17,0Z"/><path class="cls-9" d="M92.07,141.62l-.2-.16S92,141.55,92.07,141.62Z"/><path class="cls-9" d="M90,150.64a.3.3,0,0,0,.19,0C90.06,150.59,89.85,150.52,90,150.64Z"/><path class="cls-9" d="M93.74,144.44a.38.38,0,0,0-.11-.11A.23.23,0,0,0,93.74,144.44Z"/><path class="cls-9" d="M90.28,150.51h-.07c0,.05,0,.09,0,.12S90.4,150.64,90.28,150.51Z"/><path class="cls-9" d="M94.94,137.35h0Z"/><path class="cls-9" d="M97.86,137.39s0,0,0,.06S97.87,137.43,97.86,137.39Z"/><path class="cls-9" d="M89.68,151.58s0,0,0,0Z"/><path class="cls-9" d="M88.75,151.21a.38.38,0,0,0-.09-.08S88.74,151.19,88.75,151.21Z"/><path class="cls-9" d="M89.14,149.41Z"/><path class="cls-9" d="M89.55,151.57h0Z"/><path class="cls-9" d="M89.66,151.62h0S89.68,151.67,89.66,151.62Z"/><path class="cls-9" d="M89.69,151.54l0,0h0A.08.08,0,0,1,89.69,151.54Z"/><path class="cls-9" d="M94.06,140.05h0C94,140,94,140,94.06,140.05Z"/><polygon class="cls-9" points="89.53 146.64 89.54 146.65 89.55 146.65 89.53 146.64"/><path class="cls-9" d="M89.44,146.44c.23.2.19.21.11.21l.63.34Z"/><path class="cls-9" d="M91.81,142.4l-.23,0c-.26-.28-.11-.28-.42-.37.65.41-.11.32.55.74l-.17,0s0,0,0-.05c-.37-.1.44.37.27.43a.28.28,0,0,1-.25-.1l.11.19s-.14,0-.12-.07l0,.17h0c.09.08.22.23.28.29-.12,0-.06-.06-.15-.1l.11.17c-.19-.07-.31-.24-.26-.28-.7-.33.13.17-.35.09l0-.12c-.41-.19-.31-.05-.59-.11.13.06.69.2.81.39-.07,0-.11,0,0,.13-.23-.14-.2-.06-.22,0l-.31-.19c0,.11.21.21.33.33-.07.05-.32-.09-.54-.2-.11.08.44.17.42.33-.18,0-.09.16,0,.38-.15,0-.18-.13-.29-.16l.22.21s-.09,0-.13-.07.31.2.35.32c.33.24-.59-.15-.26.18-.1,0-.18-.13-.31-.2a2.4,2.4,0,0,0,.4.54l-.26,0a1.6,1.6,0,0,1,.69.55c.12,0,.23.09.29.1l.1.22a1.26,1.26,0,0,1-.28-.2l.06.07a1.17,1.17,0,0,1-.46-.3l.21.08a4.36,4.36,0,0,0-.55-.41.2.2,0,0,1,.06.09l-.12-.09s0,0,.09.11l-.36-.19.13.09-.31,0c.29.32.75.74.78,1a6.27,6.27,0,0,0-.71-.45c.35.15,0-.22.07-.26-.06,0-.2-.08-.25-.12l.2.34c-.25-.16-.21-.08-.34-.11.51.27.26.32.37.48-.17-.1-.33-.22-.24-.27-.42-.14.51.47.14.36,0,0,0,0,0-.08.12.14-.06.18-.19.06v0c-.14.09-.24.39.16.66l-.57-.38,1.26,1.08a8.46,8.46,0,0,1-1.38-.91c-.07,0-.15,0-.07.14a2.8,2.8,0,0,1,.57.31,6.25,6.25,0,0,0-.65-.19c.1,0,.64.4.59.44s-.55-.34-.6-.39l.47.46a2.83,2.83,0,0,0-.63-.36c.11.05-.08.1,0,.16l.16,0c-.17.09.68.61.57.73a2.46,2.46,0,0,0-.78-.44,9.88,9.88,0,0,1,1.4,1.22l-.17-.07.13.2c-.39-.32-1.18-1-1.47-1.33-.16,0-.2-.1-.23,0-.17-.07-.21-.19-.2-.21l-.21.12c.33.19.25.34.52.5l-.22-.41c.33.2.86.69.73.78a5.72,5.72,0,0,1-.68-.45c.1.09.14.26,0,.22l-.14-.16c-.17,0,.36.38,0,.27,0,0-.48-.17-.29-.05a17.7,17.7,0,0,1,1.83,1.09,3.55,3.55,0,0,1-.66-.14c-.32-.13-.65-.51-.93-.62a1,1,0,0,1,.21.19c-.09,0-.27-.19-.27-.1.33.22-.11.12.26.21.06.12-.11,0-.14.11a2.42,2.42,0,0,1,.74.65,2.35,2.35,0,0,0-.25-.14c-.12.12-.31.1-.39.22a1,1,0,0,1-.35-.15c0,.05.15.14.13.18-.33-.1,0-.11-.37-.27.19.13.21.27.29.4.31.16.14-.09,0-.22a2.45,2.45,0,0,1,.89.86c0,.17-.29-.12-.24-.07-.19.16.61.61.22.59a3.6,3.6,0,0,1-.72-.42c-.05-.14.24,0,.27-.09h-.17c-.07-.09-.1-.18,0-.17-.27-.09-.25.31-.56.32.08.08.14.19.26.23v-.07c.24.08.24.27.37.27s.3.37.13.39l-.31-.17c.09,0,.21,0,.14,0,.11.12-.49-.11-.13.17l.25.06c.11.16.38.44.23.46.32.14,0,0,.36.11-.46-.21.15-.19-.35-.39.43.19.23,0,.62.14-.1-.06-.21-.09-.12-.13l-.08-.06h0l-.17-.06c-.2-.17-.13-.27-.23-.38.08,0,.11.09.23.13l-.14-.16c.22.13.42.12.49.29l.07-.08c.15,0,.24,0,.17-.11s-.18-.25,0-.11l0-.22,0,0c.11-.12-.19-.5.29-.4,0-.08-.06-.17,0-.2l.2.1c0-.1.3-.05.11-.2.55.26.28-.2.44-.25l-.25-.15c.06-.06,0-.17,0-.32l-.22-.13c-.14-.18.27-.09.32-.22.08.06,0,.08,0,.07.58.16-.18-.52.26-.42-.06-.08,0-.09,0-.07h0l.14,0-.14,0a.19.19,0,0,0,0-.15l.25.13h0c.1,0-.1-.1-.29-.19a.58.58,0,0,0-.11-.13c.4.2-.07-.17.36,0-.18-.15,0-.28-.44-.55,0,0,.09,0,.08.06s.14,0,0-.13l.31.17L91,147.6a1,1,0,0,1,.53.3c-.28-.35-.07-.19-.35-.51l.19.12s-.21-.26,0-.19c.41.14.31-.39.79-.4-.6-.31.31.05-.12-.23a1,1,0,0,1,.33.19c-.06-.19.32,0,0-.34.14.07.18.14.27.18s-.1-.11,0-.07.1.09.15.14c.05-.13-.36-.39-.74-.64.22,0,.21,0,0-.19.14.06.29.1.29.2s.34-.13,0-.32c.09,0,.06-.05,0-.08s.11-.07.13-.18h-.06c-.36-.27,0-.13,0-.23l0,0c.37,0-.09-.15.32-.13l-.24-.13c-.49-.33.38,0,.25-.17l-.15,0c-.14-.16.77.27.86.26s.06.06.09.1c.38.05-.3-.21-.31-.35.18.08.41.28.48.23s-.42-.53,0-.42a.74.74,0,0,1-.35-.23c0-.09.6.11.24-.2l.11,0c-.07-.11-.06-.28-.26-.45.84.45-.19-.58.56-.12l.06-.19.08.05c.11-.08,0-.23-.2-.38a.32.32,0,0,1,.16.1c.25-.07.23-.1-.06-.46l.25.13c-.12-.12.52,0,.33-.32l.1.08c-.18-.35.93,0,.09-.61l-.15-.24c-.16.1-.37-.26-.55-.29,0-.09.36,0,.36.11h-.05c.44.3.27-.09.58.11.16-.31.59-.44.78-.7l-.38-.19.08-.08c.1,0,.3.14.24.2.23.09-.1-.22-.17-.27.22,0,.38.31.41.27V141h-.05c-.12-.14-.27-.24-.2-.31s.24.11.26.1,0,0,0,0l.11-.1-.31-.12c-.11-.14.08-.11-.27-.25.54.22.45-.34.63-.29-.16-.2-.11-.27,0-.35s-.39-.2-.31-.25c.64.43.38,0,.89.26-.35-.14.06-.28-.44-.46.09,0,.25.15.43.19-.16-.31.38-.24.41-.49a1.28,1.28,0,0,1-.34-.22l.5.16c0-.06-.48-.34-.14-.23a.5.5,0,0,1-.21-.12c.66-.13.14-1,1.16-.89-.2-.05-.19-.1-.18-.14a2,2,0,0,1-.33-.2l.43,0c-.31-.23.08-.18-.22-.39l0,.08a14.52,14.52,0,0,0-1.33-.7c.37.33-.74-.17-.22.31-.11,0-.14-.11-.26-.16.19.15.2.22.07.23l0,0c-.08.23-.33.2-.6.34l.24.12c-.06,0-.13,0-.21,0,.32.27.11-.12.46.17-.51-.23-.21.33-.77.05,0,.07.28.14.23.21l-.16-.07.18.14a.74.74,0,0,1-.38-.14s0,0,0-.07c-.21,0,0,.21-.12.2l.13,0c0,.29-.33.42-.15.79l.12.06c.11.27-.2,0-.2.26l0,0c.09.1.12.18.08.21-.1-.12-.3-.07-.4-.21.11.29.12.18.46.54l-.2-.09c.14.14.23.19.22.3-.11-.16-.3-.11-.46-.32-.5-.07.24.5-.39.23.46.38.37,0,.45.13s.34.29.25.32-.69-.31-.77-.16c0,0,0,0,0,0-.16,0,.11.21-.14.14.28.22-.07.07.31.32v-.18c.06.13.47.48.18.46a1,1,0,0,1-.2-.21c-.13,0,0,.11-.1.07-.38-.24,0-.2-.24-.46-.19-.06.19.32-.2,0,.49.38-.15.1.19.44l-.22-.15s.11.13.09.16l-.27-.24c.21.24-.31,0-.22.17.09-.16.3.14.51.18.2.37-.67-.27-.69,0,0-.05.21,0,.29.09a.7.7,0,0,1-.33,0c0,.16.25.12.35.27-.31-.13.08.14.13.25l-.23-.14c-.25.06.46.34.19.37l-.29-.26,0,.13-.26-.18c.15.2.08.19,0,.23.18.08.42.27.39.34s-.21-.16-.24,0c-.13-.11-.3-.25-.06-.16l-.21-.17c-.19,0-.11.11-.13.15a.1.1,0,0,1,.08,0l.23.35a.63.63,0,0,1-.22-.16s.11.13.1.19c-.18-.13-.38-.25-.43-.37l.12.27a1.42,1.42,0,0,1-.33-.13c-.16,0,.26.41,0,.42a.39.39,0,0,1,.08.1c-.11.07-.39,0-.2.28l-.38-.15c0,.14.48.18.52.41s-.31-.14-.43-.16c.14.15.44.46.1.38C91.75,142.44,91.82,142.45,91.81,142.4Zm-.51,1.18c0-.05-.16-.19,0-.12S91.4,143.59,91.3,143.58Zm-.44,2c-.07-.07,0-.07.09,0S90.93,145.58,90.86,145.57Zm-1.18,5.58h0C89.79,151.15,89.74,151.15,89.68,151.15Zm-.16,0a.31.31,0,0,0,.09.07s0-.07,0-.08S89.48,151.12,89.52,151.18Zm6.31-10.46-.07,0C95.72,140.61,95.77,140.66,95.83,140.72Z"/><path class="cls-9" d="M90.65,145.18l.13.07A.27.27,0,0,0,90.65,145.18Z"/><polygon class="cls-9" points="92.1 141.66 92.11 141.65 92.07 141.62 92.1 141.66"/><path class="cls-9" d="M88.45,148.45l.14,0C88.53,148.45,88.48,148.43,88.45,148.45Z"/><path class="cls-9" d="M89.6,151.94l0-.1s-.07,0-.11,0S89.61,151.92,89.6,151.94Z"/><path class="cls-9" d="M87.81,151.59s0,0,0,0l.11.06S87.88,151.58,87.81,151.59Z"/><path class="cls-9" d="M88.78,151.52c-.2-.12-.16,0-.15,0a0,0,0,0,0,0,0C88.91,151.73,88.85,151.62,88.78,151.52Z"/><path class="cls-9" d="M88.63,151.56a0,0,0,0,1,0,.05C88.72,151.68,88.65,151.61,88.63,151.56Z"/><path class="cls-9" d="M89.57,151.39c-.06,0,.25.17.16.13C90,151.7,89.51,151.19,89.57,151.39Z"/><polygon class="cls-9" points="88.11 151.15 88.36 151.29 88.18 151.14 88.11 151.15"/><path class="cls-9" d="M88.5,150.92l-.11,0a.15.15,0,0,1,.07.07S88.57,151,88.5,150.92Z"/><path class="cls-9" d="M88.46,151s0,0,0,.08A.13.13,0,0,0,88.46,151Z"/><polygon class="cls-9" points="88.09 151.01 88.16 151.03 88.21 150.99 88.09 151.01"/><path class="cls-9" d="M89,150.2l0-.12c-.08-.06-.14-.07-.12,0A.3.3,0,0,0,89,150.2Z"/><path class="cls-9" d="M88.2,150a.91.91,0,0,1,.2.08l-.3-.19Z"/><path class="cls-9" d="M88.26,149.76c-.08-.06-.17-.26-.21-.15S88.15,149.78,88.26,149.76Z"/><polygon class="cls-9" points="89.35 148.85 89.34 148.87 89.84 149.17 89.35 148.85"/><path class="cls-9" d="M88.78,147.11c-.17,0,.29.21.1.2.1.09.16,0,.25.09C89,147.27,89.12,147.29,88.78,147.11Z"/><path class="cls-9" d="M89.13,147.4l.05.08Z"/><polygon class="cls-9" points="98.26 137.34 98.4 137.35 98.21 137.28 98.26 137.34"/><path class="cls-9" d="M98,137l.32.18L98,137S98,137,98,137Z"/><path class="cls-9" d="M90.56,143.35l.08.05c.09,0,.1,0,.13,0Z"/><polygon class="cls-9" points="91.28 142.71 91.27 142.72 91.57 142.87 91.28 142.71"/><path class="cls-9" d="M91.32,141.82s0,.09,0,.11S91.69,142,91.32,141.82Z"/><path class="cls-11" d="M98.23,153s.19-.13.22-.15S98.19,153,98.23,153Z"/><polygon class="cls-11" points="97.55 153.01 97.63 152.96 97.4 153.06 97.55 153.01"/><path class="cls-11" d="M97.31,152.71c-.3.28.14.07.07.21l-.07.07.28-.18C97.5,152.77,97.26,152.83,97.31,152.71Z"/><path class="cls-11" d="M97.87,152c-.12.11-.14,0,0,.07l0,0S97.87,152,97.87,152Z"/><path class="cls-11" d="M97.88,152s.09-.11,0,0Z"/><path class="cls-11" d="M97.69,151.94l.15-.05c.06-.07,0-.12.11-.15C97.86,151.75,97.79,151.82,97.69,151.94Z"/><path class="cls-11" d="M97.43,152.08h.06S97.53,152,97.43,152.08Z"/><path class="cls-11" d="M97.63,152l-.14,0c0,.05-.15.13.06,0C97.45,152.13,97.55,152.07,97.63,152Z"/><path class="cls-11" d="M97.6,152.1c0,.08-.07.15-.21.19C97.5,152.34,97.71,152.15,97.6,152.1Z"/><path class="cls-11" d="M97,153l-.07.1L97,153C97,153,97.06,152.88,97,153Z"/><path class="cls-11" d="M97.65,151.54c-.07.05-.17.16-.26.24l.11,0A.63.63,0,0,1,97.65,151.54Z"/><path class="cls-11" d="M97.39,151.78l-.15,0C97.26,151.88,97.32,151.84,97.39,151.78Z"/><polygon class="cls-11" points="97.07 152.36 97.38 152.24 97.05 152.35 97.07 152.36"/><polygon class="cls-11" points="97.51 151.36 97.69 151.26 97.42 151.4 97.51 151.36"/><path class="cls-11" d="M97.39,151.26c.14-.08.2-.2.29-.25a.79.79,0,0,0-.3.11C97.46,151.1,97.47,151.14,97.39,151.26Z"/><path class="cls-11" d="M97.2,151.2l.18-.08Z"/><path class="cls-11" d="M97.21,151.72a.64.64,0,0,0,.16-.2l-.17.18Z"/><path class="cls-11" d="M97.19,151.7h0l0,0Z"/><path class="cls-11" d="M97.21,151.72h0S97.19,151.74,97.21,151.72Z"/><path class="cls-11" d="M97.14,152.1a.74.74,0,0,0-.4.28A3.86,3.86,0,0,1,97.14,152.1Z"/><path class="cls-11" d="M97,151.94V152a.86.86,0,0,1,.18-.14Z"/><polygon class="cls-11" points="96.91 151.96 96.99 151.94 96.99 151.91 96.91 151.96"/><path class="cls-11" d="M97.09,151.43a.18.18,0,0,1-.16,0,.18.18,0,0,0,0,.13C97,151.52,97.12,151.45,97.09,151.43Z"/><path class="cls-11" d="M97.12,151.57h0Z"/><path class="cls-11" d="M96.72,151.18l0,0,0,0Z"/><path class="cls-11" d="M96.91,151.6c0,.05,0,0,.11,0s-.06,0-.08,0Z"/><path class="cls-11" d="M97.05,151.2a.75.75,0,0,0-.07.12C97,151.26,97.11,151.16,97.05,151.2Z"/><path class="cls-11" d="M97.16,151.53h0S97.18,151.5,97.16,151.53Z"/><path class="cls-11" d="M97.16,151.53l-.14.06h.09Z"/><path class="cls-11" d="M95.44,152.08c.18-.13.38-.21.23,0a5.5,5.5,0,0,0,1-.86.66.66,0,0,1-.29.15c-.08.1-.14.29-.33.38s0-.1.09-.21c-.2.2-.39.18-.7.45l.16,0C95.57,152,95.47,152,95.44,152.08Z"/><path class="cls-11" d="M96.75,151.32h0a1,1,0,0,1,.18-.26.76.76,0,0,0-.24.12l0,.12Z"/><path class="cls-11" d="M96.86,151.41a2.44,2.44,0,0,0-.51.35c.06.05.19-.09.31-.12-.13,0,.13-.06.18-.21a.12.12,0,0,1,.09,0,.61.61,0,0,1,0-.12h0s0,0,0,0h0l-.08.06c0-.06,0,0,.08-.06l0,0h-.18S96.8,151.38,96.86,151.41Z"/><path class="cls-11" d="M96.28,152.66a.08.08,0,0,0,0,0Z"/><path class="cls-11" d="M96.37,152.53s.11-.07.11,0-.09.07-.16.12a.36.36,0,0,0,.24-.18l0,0a1.32,1.32,0,0,1,.26-.35C96.63,152.26,96.52,152.37,96.37,152.53Z"/><path class="cls-11" d="M96.56,152H96.4l-.13.18.1-.09C96.37,152.17,96.48,152.06,96.56,152Z"/><polygon class="cls-11" points="96.81 151.09 97.02 150.94 96.7 151.12 96.81 151.09"/><polygon class="cls-11" points="96.7 151.01 96.88 150.87 96.75 150.93 96.7 151.01"/><path class="cls-11" d="M89.82,147l-.07,0Z"/><path class="cls-11" d="M90,147.13l.09-.07C90,147.09,89.94,147.12,90,147.13Z"/><path class="cls-11" d="M94.64,148.49c.14-.17.36-.41.17-.25l-.19.17C94.68,148.4,94.67,148.44,94.64,148.49Z"/><path class="cls-11" d="M92.09,147.69l0,.05.2-.12Z"/><path class="cls-11" d="M91.27,148.31l.09-.15A.6.6,0,0,0,91.27,148.31Z"/><path class="cls-11" d="M88.87,146.19l-.22.14S88.77,146.27,88.87,146.19Z"/><path class="cls-11" d="M95.78,150a.37.37,0,0,0,.06-.17C95.76,150,95.61,150.13,95.78,150Z"/><path class="cls-11" d="M91.93,145.36a.5.5,0,0,0-.14.08A.34.34,0,0,0,91.93,145.36Z"/><path class="cls-11" d="M95.77,149.76l0,.05c.05,0,.09,0,.1,0S95.93,149.68,95.77,149.76Z"/><path class="cls-11" d="M86.33,142.72l0,0Z"/><path class="cls-11" d="M87.5,140.17s0,0,0,0S87.54,140.17,87.5,140.17Z"/><path class="cls-11" d="M96.45,150.52s0,0,0,0Z"/><path class="cls-11" d="M95.77,151.25l-.1.06Z"/><path class="cls-11" d="M94.39,150.51Z"/><path class="cls-11" d="M96.39,150.63l0-.08A.29.29,0,0,0,96.39,150.63Z"/><path class="cls-11" d="M96.48,150.55v0S96.53,150.54,96.48,150.55Z"/><path class="cls-11" d="M96.42,150.5a.07.07,0,0,1,0,.05l0,0Z"/><path class="cls-11" d="M88.3,144.1v0C88.21,144.12,88.23,144.12,88.3,144.1Z"/><polygon class="cls-11" points="92.17 149.54 92.19 149.53 92.19 149.53 92.17 149.54"/><path class="cls-11" d="M92,149.58c.26-.16.25-.12.22-.05l.54-.48Z"/><path class="cls-11" d="M89.44,146.59l-.13.2c-.34.16-.28,0-.48.28.61-.48.23.17.84-.31l-.09.14s0,0,0,0c-.23.31.48-.3.47-.14a.35.35,0,0,1-.18.2l.21,0s-.11.11-.11.08l.13.07h0a3.62,3.62,0,0,1,.35-.17c-.06.09-.07,0-.14.1l.19-.06c-.13.15-.33.23-.34.17-.56.54.2-.08-.06.33h-.12c-.32.31-.16.25-.32.49.1-.11.44-.56.64-.62,0,.05,0,.1.12,0-.22.18-.14.17-.09.2l-.29.23a1.86,1.86,0,0,0,.41-.22c0,.07-.19.26-.37.43,0,.12.31-.35.44-.29,0,.15.1.11.34.05-.06.13-.18.14-.25.22l.26-.14a.37.37,0,0,1-.11.09c.12,0,.29-.22.42-.23.32-.24-.37.49,0,.27a2,2,0,0,1-.29.22,2.28,2.28,0,0,0,.62-.23l-.13.22a1.81,1.81,0,0,1,.73-.47l.2-.24.22,0a1.31,1.31,0,0,1-.27.2l.08,0a1.79,1.79,0,0,1-.43.34c0-.06.1-.12.15-.18-.19.12-.4.26-.57.39l.1,0-.12.09s0,0,.13-.06l-.3.28.13-.1-.11.28a3.73,3.73,0,0,1,1.15-.46,5.52,5.52,0,0,0-.66.52c.26-.27-.21,0-.2-.12,0,.06-.14.16-.2.19l.37-.1c-.23.18-.15.17-.22.27.43-.38.37-.15.55-.21-.15.13-.31.24-.32.15-.29.34.59-.34.35,0,0,0,0,0-.07,0,.16-.07.12.1,0,.18h0c0,.14.23.3.62,0l-.55.41,1.42-.85a10,10,0,0,1-1.32,1c0,.06-.05.14.1.09a2.73,2.73,0,0,1,.49-.42,4,4,0,0,0-.41.52,2,2,0,0,1,.59-.41c-.08.05-.5.41-.56.44l.57-.32a2.9,2.9,0,0,0-.55.48c.09-.09.06.09.12.07l.09-.13c0,.16.79-.47.85-.34a3.11,3.11,0,0,0-.69.58,12.21,12.21,0,0,1,1.6-1l-.14.14.23-.07c-.42.27-1.34.8-1.71,1-.08.13-.16.15-.1.2a.29.29,0,0,1-.26.12l0,.21c.3-.25.39-.14.64-.34l-.44.1c.3-.25.92-.6.95-.46a6.92,6.92,0,0,1-.65.49c.12-.07.27-.06.21,0l-.19.09c-.07.15.46-.23.23.07,0,0-.33.37-.15.23a18.49,18.49,0,0,1,1.64-1.35,4.42,4.42,0,0,1-.38.54c-.24.26-.68.46-.89.68a.79.79,0,0,1,.24-.14c0,.08-.26.19-.18.21.31-.23.06.13.27-.18.13,0,0,.1,0,.15a3.19,3.19,0,0,1,.84-.51,2.12,2.12,0,0,0-.21.2c.06.12,0,.29,0,.39a1.13,1.13,0,0,1-.27.27c.07,0,.18-.1.21-.08-.22.27-.09,0-.37.27a1.05,1.05,0,0,1,.45-.17c.26-.23,0-.14-.17-.09a2.86,2.86,0,0,1,1.08-.59c.16,0-.22.23-.15.2.05.2.76-.4.59-.06a5.41,5.41,0,0,1-.64.54c-.15,0,.07-.22,0-.26l-.07.15c-.09,0-.19,0-.14,0-.18.21.16.28.06.56a.85.85,0,0,0,.29-.17h-.06c.16-.19.32-.15.37-.27s.44-.18.38,0l-.26.23c.08-.06.13-.17,0-.12.14-.07-.29.4.1.14l.15-.2c.17-.06.51-.23.48-.1.24-.25-.05,0,.23-.29-.36.35-.11-.17-.47.22.33-.34.09-.2.36-.51-.09.08-.16.16-.15.07l-.09.06h0a.53.53,0,0,1-.12.14c-.22.14-.28.05-.41.11,0-.06.11-.07.2-.16l-.2.09c.2-.17.27-.35.44-.38l0-.07c.08-.13.09-.21,0-.18s-.29.1-.11,0h-.21l0,0c0-.12-.49.06-.22-.34-.08,0-.17,0-.16-.08l.16-.15c-.09,0,.07-.27-.12-.14.43-.43-.07-.29-.05-.44l-.23.18c0-.06-.13-.06-.27-.05l-.2.16c-.21.08,0-.25-.06-.32.08-.06.08,0,0,0,.37-.47-.51,0-.25-.32-.1,0-.09,0,0-.06h0l.08-.12-.08.11a.27.27,0,0,0-.14,0l.2-.18h0c.06-.09-.12.06-.27.2l-.16.07c.33-.3-.17,0,.18-.3-.2.12-.25,0-.64.26,0,0,.06-.07.08-.06s0-.13-.09-.07l.26-.23-.42.23a1.14,1.14,0,0,1,.46-.4c-.4.16-.19,0-.57.19l.18-.13s-.31.12-.18,0c.28-.34-.21-.36,0-.78-.49.45.17-.27-.24,0a1.14,1.14,0,0,1,.3-.25c-.19,0,.09-.29-.3-.07.12-.11.19-.13.26-.2s-.13.06-.06,0a.46.46,0,0,1,.18-.1c-.1-.07-.48.23-.84.51.13-.18.09-.18-.17,0,.1-.11.2-.23.29-.21s0-.33-.27-.1c.06-.07,0-.06,0,0s0-.11-.1-.16l0,.06c-.37.25-.13,0-.21,0l0,0c.15-.33-.16,0,0-.31l-.21.17c-.47.36.18-.32-.05-.25l-.11.12c-.18.09.54-.61.57-.7s.07,0,.11-.05c.19-.32-.29.21-.42.19.14-.14.4-.29.39-.37s-.61.25-.38-.06a.94.94,0,0,1-.32.26c-.09,0,.32-.51-.09-.26l.08-.08a1.07,1.07,0,0,0-.48.12c.7-.63-.57,0,.11-.52l-.14-.09.07-.06c0-.12-.21,0-.39.09,0-.06.1-.09.14-.12,0-.23,0-.22-.42-.05l.21-.19c-.15.08.21-.45-.14-.36l.11-.07c-.37.08.35-.81-.49-.21l-.27.07c0,.17-.36.27-.46.42-.08,0,.15-.31.24-.29l0,0c.44-.32,0-.26.33-.48-.2-.21-.15-.62-.3-.84l-.31.29,0-.09c.07-.08.24-.23.27-.17.16-.17-.23,0-.3.1.05-.21.41-.27.4-.31l-.06,0,0,0c-.16.07-.31.18-.34.11s.18-.19.18-.21,0,0,0,0l0-.12-.23.25c-.16.06-.06-.1-.32.18.4-.43-.11-.47,0-.63-.23.1-.28,0-.31,0,0,.06-.32.31-.33.22.61-.46.17-.32.56-.72-.25.28-.21-.11-.56.28,0-.09.22-.18.33-.33-.33.07-.06-.39-.26-.47a1.48,1.48,0,0,1-.32.24l.33-.39c-.06,0-.48.34-.25.07-.06.06-.15.15-.19.15.15-.6-.79-.34-.31-1.21-.12.16-.15.15-.18.12s-.2.16-.3.25l.2-.37c-.32.22-.13-.11-.42.1h.08c-.37.22-.68.67-1.11,1,.42-.25-.44.6.18.26-.07.09-.15.09-.25.18.21-.12.27-.12.23,0l0,0c.17.12,0,.33.06.59l.2-.18c0,.06-.06.12-.1.18.35-.22-.07-.12.32-.36-.39.39.2.26-.26.69,0,0,.23-.22.27-.16l-.12.12.18-.12c0,.06-.15.21-.26.3s-.05,0-.07,0c-.11.17.17.09.13.15l0-.12c.24.05.22.38.61.31l.09-.09c.28,0,0,.18.15.24h0c.12-.05.2-.06.22,0-.15.06-.18.24-.35.31.3,0,.21-.07.64-.29l-.15.16c.18-.1.26-.16.35-.13-.18.06-.22.24-.45.34-.26.42.52-.1,0,.38.5-.31.16-.32.28-.36s.39-.23.37-.15-.52.54-.43.64,0,0,0,0c-.08.14.22,0,.07.15.3-.19,0,.08.39-.2l-.16,0c.14,0,.59-.3.47-.05-.08.05-.2.1-.26.13s.11,0,0,.1c-.36.28-.17,0-.48.11-.13.15.34-.1-.07.18.52-.35,0,.15.45-.08l-.21.17s.16-.07.17-.05l-.3.19c.28-.13-.12.27.05.22-.1-.11.24-.23.35-.4.4-.09-.48.53-.26.61,0,0,.07-.19.19-.23a.94.94,0,0,1-.16.28c.13.07.2-.2.37-.26-.23.25.15,0,.27-.05l-.22.18c0,.23.47-.33.39-.09l-.33.19h.12l-.25.18c.23-.08.2,0,.18.09.14-.14.39-.31.44-.26s-.22.15-.13.2c-.14.09-.33.21-.16,0l-.22.15c-.11.15,0,.12.07.15a.08.08,0,0,1,0-.07l.39-.13a.77.77,0,0,1-.22.16s.15-.06.2-.05a1.62,1.62,0,0,1-.48.3l.27-.05c-.07.07-.16.22-.24.26s.46-.13.38.06a.21.21,0,0,1,.12,0c0,.1-.15.34.16.23l-.27.3c.12,0,.34-.38.55-.36s-.25.24-.31.34c.19-.09.56-.28.37,0C89.45,146.65,89.48,146.6,89.44,146.59Zm.8.71c-.06,0-.22.11-.1,0S90.29,147.22,90.24,147.3Zm1.53.84c-.08.05-.06,0,0-.09S91.81,148.08,91.77,148.14Zm4.32,2.28h0C96.13,150.33,96.11,150.37,96.09,150.42Zm0,.15a.2.2,0,0,0,.09-.06s-.07,0-.07,0S96,150.59,96.05,150.57Zm-6.49-7.88,0,.06C89.42,142.77,89.49,142.74,89.56,142.69Z"/><path class="cls-11" d="M91.36,148.24l.11-.11A.38.38,0,0,0,91.36,148.24Z"/><polygon class="cls-11" points="88.91 146.17 88.91 146.16 88.87 146.19 88.91 146.17"/><path class="cls-11" d="M93.3,150.9a.47.47,0,0,1,.09-.12S93.3,150.86,93.3,150.9Z"/><path class="cls-11" d="M96.73,150.67h-.09s0,.06,0,.1S96.72,150.66,96.73,150.67Z"/><path class="cls-11" d="M95.73,152.16s0,0,0,0l.1-.08S95.75,152.09,95.73,152.16Z"/><path class="cls-11" d="M96.05,151.29c-.17.15-.09.13,0,.14h0C96.28,151.23,96.17,151.26,96.05,151.29Z"/><path class="cls-11" d="M96,151.43a0,0,0,0,1,0,0C96.17,151.38,96.07,151.43,96,151.43Z"/><path class="cls-11" d="M96.25,150.57c0,.05.24-.18.17-.11C96.66,150.3,96.06,150.58,96.25,150.57Z"/><polygon class="cls-11" points="95.48 151.8 95.69 151.61 95.5 151.73 95.48 151.8"/><path class="cls-11" d="M95.43,151.41l0,.1.09,0S95.5,151.35,95.43,151.41Z"/><path class="cls-11" d="M95.5,151.46s0,0,.07,0A.11.11,0,0,0,95.5,151.46Z"/><polygon class="cls-11" points="95.35 151.78 95.39 151.73 95.37 151.68 95.35 151.78"/><path class="cls-11" d="M95,150.8H94.9c-.08.06-.11.11-.06.11S95,150.87,95,150.8Z"/><path class="cls-11" d="M94.54,151.47a1.1,1.1,0,0,1,.15-.16l-.27.22Z"/><path class="cls-11" d="M94.34,151.35c-.08.06-.28.1-.21.15S94.32,151.46,94.34,151.35Z"/><polygon class="cls-11" points="93.99 150.2 94.01 150.21 94.46 149.84 93.99 150.2"/><path class="cls-11" d="M92.28,150.3c0,.16.3-.21.21,0,.12-.08.07-.15.18-.2C92.52,150.12,92.57,150,92.28,150.3Z"/><path class="cls-11" d="M92.67,150.07l.08,0Z"/><polygon class="cls-11" points="87.61 139.81 87.67 139.69 87.54 139.84 87.61 139.81"/><path class="cls-11" d="M87.21,140l.28-.24-.28.18S87.27,139.94,87.21,140Z"/><path class="cls-11" d="M89.76,147.9l.07-.06c.07-.06.07-.08.06-.11Z"/><polygon class="cls-11" points="89.49 147.12 89.5 147.14 89.74 146.91 89.49 147.12"/><path class="cls-11" d="M88.75,146.89s.09,0,.09,0S89.08,146.62,88.75,146.89Z"/><path class="cls-11" d="M149.42,112s-.18.13-.21.15S149.47,111.93,149.42,112Z"/><polygon class="cls-11" points="149.62 111.25 149.54 111.31 149.71 111.12 149.62 111.25"/><path class="cls-11" d="M149.37,110.85c.38-.18,0,.18.2.17l.09,0-.26.2C149.39,111.08,149.51,110.85,149.37,110.85Z"/><path class="cls-11" d="M148.49,111.1c.14-.07.09-.11.07,0h0S148.51,111.12,148.49,111.1Z"/><path class="cls-11" d="M148.52,111.14s-.13,0,0,0Z"/><path class="cls-11" d="M148.48,110.9l-.09.13c-.08,0-.13,0-.18,0S148.33,111,148.48,110.9Z"/><path class="cls-11" d="M148.7,110.69l0,.06S148.62,110.76,148.7,110.69Z"/><path class="cls-11" d="M148.6,110.88l.07-.13c.06,0,.17-.1,0,0C148.75,110.73,148.66,110.81,148.6,110.88Z"/><path class="cls-11" d="M148.67,110.88c.1,0,.17,0,.26-.14C148.94,110.88,148.69,111,148.67,110.88Z"/><path class="cls-11" d="M149.72,110.61l.13,0-.1.11C149.8,110.64,149.61,110.67,149.72,110.61Z"/><path class="cls-11" d="M148.09,110.66l.31-.15-.06.09A.56.56,0,0,0,148.09,110.66Z"/><path class="cls-11" d="M148.4,110.51l.09-.14S148.48,110.46,148.4,110.51Z"/><polygon class="cls-11" points="149.09 110.44 148.88 110.7 149.08 110.42 149.09 110.44"/><polygon class="cls-11" points="147.94 110.44 147.79 110.58 148.01 110.36 147.94 110.44"/><path class="cls-11" d="M147.87,110.26c-.12.12-.26.12-.33.2s.1-.17.19-.27C147.69,110.26,147.73,110.29,147.87,110.26Z"/><path class="cls-11" d="M147.86,110l-.13.15A.52.52,0,0,1,147.86,110Z"/><path class="cls-11" d="M148.39,110.29a.82.82,0,0,1-.25.08l.23-.11Z"/><path class="cls-11" d="M148.38,110.26h0l-.05,0Z"/><path class="cls-11" d="M148.39,110.29Z"/><path class="cls-11" d="M148.8,110.4a.62.62,0,0,1,.39-.3A2.93,2.93,0,0,0,148.8,110.4Z"/><path class="cls-11" d="M148.67,110.16l.09,0a.62.62,0,0,0-.19.12Z"/><polygon class="cls-11" points="148.72 110.09 148.67 110.16 148.64 110.15 148.72 110.09"/><path class="cls-11" d="M148.12,110c.07-.09.06-.12,0-.16a.19.19,0,0,1,.14.07C148.24,110,148.14,110.07,148.12,110Z"/><path class="cls-11" d="M148.26,110.13h0S148.3,110.11,148.26,110.13Z"/><path class="cls-11" d="M148,109.53l0,0,0,0Z"/><path class="cls-11" d="M148.35,109.92c.06,0,0,0,0,.11a.14.14,0,0,0,0-.09S148.35,109.91,148.35,109.92Z"/><path class="cls-11" d="M147.89,109.88l.15,0C148,109.89,147.84,109.92,147.89,109.88Z"/><path class="cls-11" d="M148.21,110.14h0S148.17,110.16,148.21,110.14Z"/><path class="cls-11" d="M148.21,110.14l.1-.11,0,.09Z"/><path class="cls-11" d="M149.24,108.6c-.19.12-.33.31-.08.24a4.91,4.91,0,0,1-1.15.67.59.59,0,0,0,.23-.24c.12,0,.33,0,.48-.17s-.11,0-.24,0c.26-.12.28-.33.65-.53l-.08.15S149.18,108.61,149.24,108.6Z"/><path class="cls-11" d="M148.1,109.62v0a1,1,0,0,0-.32.07.94.94,0,0,1,.2-.2l.11.12Z"/><path class="cls-11" d="M148.16,109.78c.2-.15.25-.27.5-.37,0,.08-.14.16-.2.26,0-.15-.1.11-.27.09a.26.26,0,0,0,0,.11h-.08l.07,0c-.06,0-.06,0-.07,0l0,0h0l0-.2S148.15,109.7,148.16,109.78Z"/><path class="cls-11" d="M149.6,109.76l0,0S149.59,109.74,149.6,109.76Z"/><path class="cls-11" d="M149.44,109.78s-.1.09-.06.11.1-.07.17-.11a.32.32,0,0,1-.25.16l0,0a1.05,1.05,0,0,0-.43.12A4.43,4.43,0,0,1,149.44,109.78Z"/><path class="cls-11" d="M148.86,109.74l0-.16.21-.06-.11.06C149.08,109.61,148.94,109.68,148.86,109.74Z"/><polygon class="cls-11" points="147.85 109.58 147.64 109.73 147.91 109.48 147.85 109.58"/><polygon class="cls-11" points="147.79 109.43 147.6 109.55 147.7 109.44 147.79 109.43"/><path class="cls-11" d="M145.5,100.33l0-.07Z"/><path class="cls-11" d="M145.64,100.54l-.09.07A.39.39,0,0,1,145.64,100.54Z"/><path class="cls-11" d="M145.77,106.1c-.2.06-.51.18-.29.06l.22-.12S145.72,106.1,145.77,106.1Z"/><path class="cls-11" d="M145.64,103.05l.07,0-.18.15Z"/><path class="cls-11" d="M146.49,102.48l-.17,0A.33.33,0,0,1,146.49,102.48Z"/><path class="cls-11" d="M145,99l.19-.17C145.2,98.87,145.08,98.91,145,99Z"/><path class="cls-11" d="M147,108c-.1,0-.16,0-.18,0C147,108,147.19,107.88,147,108Z"/><path class="cls-11" d="M143.3,101.8a.43.43,0,0,1,.12-.11A.32.32,0,0,1,143.3,101.8Z"/><path class="cls-11" d="M146.77,107.87h.06s0,.09,0,.12C146.72,108,146.64,108,146.77,107.87Z"/><path class="cls-11" d="M142.1,94.71h0Z"/><path class="cls-11" d="M139.18,94.75a.14.14,0,0,0,0,.06S139.17,94.79,139.18,94.75Z"/><path class="cls-11" d="M147.37,108.94s0,0,0,0Z"/><path class="cls-11" d="M148.29,108.57a.29.29,0,0,1,.1-.08Z"/><path class="cls-11" d="M147.91,106.77Z"/><path class="cls-11" d="M147.49,108.93h-.08A.11.11,0,0,1,147.49,108.93Z"/><path class="cls-11" d="M147.39,109h0S147.37,109,147.39,109Z"/><path class="cls-11" d="M147.35,108.89a.09.09,0,0,0,.06,0h0Z"/><path class="cls-11" d="M143,97.41h0C143,97.33,143,97.35,143,97.41Z"/><polygon class="cls-11" points="147.51 104 147.5 104.01 147.49 104.01 147.51 104"/><path class="cls-11" d="M147.61,103.8c-.24.2-.19.21-.12.21l-.63.34Z"/><path class="cls-11" d="M145.24,99.87c-.33.08,0-.23.1-.39-.11,0-.48.34-.43.17s.5-.27.52-.41l-.38.15c.2-.27-.09-.21-.19-.28a.19.19,0,0,1,.08-.1c-.21,0,.2-.41,0-.42a1.42,1.42,0,0,1-.33.13l.13-.27c-.05.12-.25.24-.44.37,0-.06.09-.15.1-.19a.51.51,0,0,1-.22.15l.24-.34h.08s.05-.19-.14-.14l-.21.17c.25-.09.08,0-.06.16,0-.12-.06,0-.23,0s.21-.26.38-.35c-.12,0-.19,0,0-.22l-.26.18,0-.13-.29.26c-.27,0,.45-.31.2-.37l-.24.14c.06-.11.44-.38.13-.25.11-.15.39-.11.36-.27a.71.71,0,0,1-.33,0c.08-.11.3-.14.28-.09,0-.28-.88.36-.69,0,.21,0,.42-.34.51-.18.09-.16-.43.07-.22-.17l-.27.24s.07-.12.1-.16l-.23.15c.35-.35-.3-.06.2-.44-.4.3,0-.08-.21,0-.24.26.15.21-.23.46-.14,0,0-.11-.11-.07a1.71,1.71,0,0,1-.19.21c-.29,0,.12-.33.17-.46v.18c.38-.25,0-.1.31-.32-.24.07,0-.17-.13-.14,0,0,0,0,0,.05-.07-.15-.73.2-.77.16s.06-.26.25-.32,0,.25.45-.14c-.63.28.12-.29-.38-.22-.16.2-.36.16-.47.32,0-.11.08-.16.22-.3l-.19.09c.34-.36.34-.25.46-.54-.11.14-.3.09-.41.21,0,0,0-.11.08-.21l0,0c0-.22-.31,0-.2-.27l.12,0c.17-.37-.17-.5-.16-.79l.13,0c-.07,0,.09-.24-.12-.2,0,0,0,.07,0,.07-.13.08-.32.16-.38.13l.17-.13-.15.07c0-.07.28-.14.23-.21-.56.28-.27-.28-.78,0,.36-.29.14.1.46-.17a.31.31,0,0,1-.21,0l.24-.12c-.27-.15-.52-.11-.59-.34L141,94c-.13,0-.11-.08.07-.23-.12,0-.14.13-.25.16.51-.49-.59,0-.22-.31a13.32,13.32,0,0,0-1.33.7l0-.08c-.3.2.09.16-.21.39l.42,0a2,2,0,0,1-.33.2s0,.09-.18.14c1-.1.51.76,1.16.88,0,0-.13.1-.21.13.34-.11-.11.17-.13.23l.49-.16a1,1,0,0,1-.34.22c0,.25.57.18.41.49.19,0,.34-.22.44-.19-.5.18-.09.32-.44.45.51-.22.24.18.88-.25.09,0-.24.23-.31.25.08.07.13.14,0,.35.18,0,.09.51.64.29-.36.14-.17.11-.27.25L141,98l.1.1s0,0,0,0,.16-.11.26-.1-.08.17-.2.31h-.05v.07s.19-.32.42-.27c-.08,0-.4.36-.18.27,0-.06.15-.17.24-.2l.08.08-.37.19c.19.26.62.39.77.7.31-.2.15.19.59-.12l0,0c0-.1.37-.2.36-.11-.19,0-.4.39-.56.28l-.14.25c-.84.61.26.26.08.61l.1-.08c-.18.33.45.2.33.32l.25-.13c-.28.36-.31.39-.06.46a.44.44,0,0,1,.16-.1c-.15.15-.31.3-.19.38l.07,0,.06.19c.75-.46-.27.57.57.12-.2.17-.19.33-.26.45l.1,0c-.36.32.25.11.24.21a.66.66,0,0,1-.34.23c.37-.11-.2.47,0,.42s.3-.15.47-.23c0,.14-.68.39-.3.35,0,0,0-.08.08-.1s1-.42.87-.26l-.16,0c-.13.22.75-.15.25.18l-.23.13c.4,0-.05.13.32.13l0,0c0,.1.31,0,0,.23h-.07c0,.11.06.1.13.18s-.06.11,0,.07c-.31.2,0,.3,0,.33s.16-.15.3-.2c-.23.2-.24.24,0,.19-.38.24-.79.51-.74.64a.34.34,0,0,1,.15-.14c.08,0,0,0,0,.07s.13-.11.27-.18c-.32.3.06.15,0,.34a.89.89,0,0,1,.33-.19c-.43.28.48-.08-.11.23.48,0,.37.54.79.4.17-.07-.05.15,0,.19l.19-.12c-.29.32-.08.16-.35.51a.93.93,0,0,1,.53-.3l-.35.33.31-.16c-.1.11,0,.12,0,.13s0,0,.07-.06c-.4.27-.25.4-.44.54.43-.21,0,.17.36,0a.63.63,0,0,0-.11.13c-.19.09-.39.21-.28.19h0l.24-.13a.24.24,0,0,0,0,.15l-.14,0,.15,0a0,0,0,0,0,0,0s0,0,0,0,.11,0,0,.08c.44-.1-.32.58.26.41-.06,0-.1,0,0-.06.05.13.45,0,.32.22l-.23.13c0,.15-.07.26,0,.32l-.24.15c.15,0-.12.5.43.25-.18.15.14.1.11.2l.2-.1c.11,0,.07.12,0,.2.49-.1.18.28.29.39l0,0,0,.22c.15-.14-.1.1,0,.11s0,.14.18.11l.06.08c.07-.18.28-.16.5-.29l-.14.16c.12,0,.15-.14.22-.13-.1.11,0,.21-.23.38l-.17.06s0,0,0,0h0l-.08.06c.09,0,0,.07-.11.13.39-.13.18,0,.62-.14-.5.2.1.18-.36.39.38-.15,0,0,.36-.11-.14,0,.13-.3.24-.46l.24-.06c.37-.28-.23,0-.12-.17-.08.08.05.08.14,0l-.31.17c-.18,0,0-.24.12-.39.14,0,.14-.19.37-.27v.07a.7.7,0,0,0,.25-.23c-.31,0-.29-.41-.56-.32.1,0,.06.08,0,.16h-.16c0,.06.32,0,.27.09a3.91,3.91,0,0,1-.72.42c-.4,0,.41-.44.22-.59,0,0-.29.23-.25.07a2.45,2.45,0,0,1,.89-.86c-.08.12-.26.38.05.22.09-.13.1-.27.29-.4-.38.16,0,.17-.37.27,0,0,.09-.13.14-.18a1.07,1.07,0,0,1-.35.15c-.08-.12-.28-.1-.39-.22a1.57,1.57,0,0,0-.26.13,2.84,2.84,0,0,1,.74-.64c0-.09-.19,0-.14-.11.37-.09-.06,0,.26-.21,0-.09-.17.08-.27.09a1.52,1.52,0,0,1,.21-.18c-.27.11-.61.48-.93.62a3.25,3.25,0,0,1-.66.14,17,17,0,0,1,1.83-1.09c.19-.12-.24.07-.28,0-.37.11.16-.28,0-.28l-.14.17c-.09,0,0-.13.06-.22a7.29,7.29,0,0,1-.68.45c-.14-.09.39-.58.72-.78l-.22.41c.28-.17.19-.31.52-.51l-.2-.12s0,.15-.2.22c0-.09-.07,0-.23,0-.29.3-1.08,1-1.47,1.33l.13-.21-.18.08a10.11,10.11,0,0,1,1.41-1.23,2.63,2.63,0,0,0-.79.45c-.11-.12.74-.65.58-.73l.16,0c0-.06-.16-.11,0-.16a2.15,2.15,0,0,0-.64.36l.48-.46c0,.05-.53.33-.61.39s.49-.42.59-.44a5.5,5.5,0,0,0-.64.19,2.32,2.32,0,0,1,.56-.31c.09-.14,0-.14-.07-.14a8.32,8.32,0,0,1-1.37.91l1.25-1.08c-.07,0-.51.35-.57.38.41-.28.3-.57.17-.66v0c-.12.11-.31.08-.19-.06-.08.06,0,.06,0,.08-.36.1.56-.5.14-.36.09.05-.07.17-.23.27.11-.16-.15-.21.36-.48-.13,0-.09,0-.33.11l.19-.34s-.18.14-.24.11c.12,0-.29.42.06.27a5.13,5.13,0,0,0-.71.45c0-.26.5-.67.78-1l-.31,0,.13-.09-.36.19c.07-.07.13-.12.09-.11l-.12.09a.24.24,0,0,1,.06-.09,4.13,4.13,0,0,0-.55.41l.22-.08a1.19,1.19,0,0,1-.47.3l.07-.07a1.26,1.26,0,0,1-.28.2l.09-.22.3-.1a1.57,1.57,0,0,1,.68-.55l-.26,0a2.32,2.32,0,0,0,.4-.54c-.12.07-.2.17-.31.2.34-.33-.59,0-.26-.18,0-.12.28-.21.35-.32s-.11.08-.12.07l.21-.21c-.1,0-.14.16-.29.16.12-.22.21-.36,0-.38s.53-.25.41-.33c-.21.11-.46.25-.53.2.11-.12.28-.22.33-.33l-.31.19c0-.06,0-.14-.23,0,.11-.13.06-.14,0-.13.11-.19.67-.33.81-.39-.29.06-.19-.08-.59.1l0,.13c-.49.08.35-.42-.36-.09.06,0-.07.21-.26.28l.11-.17c-.09,0,0,.08-.15.1a3.69,3.69,0,0,1,.28-.29h0l0-.18s-.08.1-.11.08l.11-.19a.31.31,0,0,1-.26.1c-.16-.07.65-.53.27-.43,0,0,0,0,0,0l-.17,0c.65-.41-.11-.32.55-.74-.31.1-.17.1-.42.38l-.24,0S145.29,99.8,145.24,99.87Zm.52.95c.15-.07,0,.06,0,.12S145.5,101,145.76,100.82Zm.34,2.07c.1,0,.16,0,.09,0S146.09,102.92,146.1,102.89Zm1.28,5.61h0C147.3,108.5,147.26,108.51,147.38,108.5Zm.07,0s0,0,0,.08l.1-.07C147.56,108.48,147.51,108.5,147.45,108.53Zm-6.17-10.47h-.07C141.27,98,141.33,98,141.28,98.06Z"/><path class="cls-11" d="M146.4,102.54l-.14.07A.31.31,0,0,1,146.4,102.54Z"/><polygon class="cls-11" points="144.94 99.01 144.94 99.01 144.98 98.98 144.94 99.01"/><path class="cls-11" d="M148.6,105.81a.42.42,0,0,0-.15,0C148.51,105.81,148.56,105.79,148.6,105.81Z"/><path class="cls-11" d="M147.44,109.3l0-.1s.06,0,.11,0S147.44,109.28,147.44,109.3Z"/><path class="cls-11" d="M149.23,109s0,0,0,0l-.11.07S149.16,108.93,149.23,109Z"/><path class="cls-11" d="M148.26,108.88c.2-.12.16,0,.15,0h0C148.14,109.08,148.2,109,148.26,108.88Z"/><path class="cls-11" d="M148.41,108.92s0,0,0,0S148.4,109,148.41,108.92Z"/><path class="cls-11" d="M147.47,108.75c.07,0-.24.17-.15.13C147.08,109.06,147.54,108.55,147.47,108.75Z"/><polygon class="cls-11" points="148.94 108.51 148.68 108.65 148.86 108.5 148.94 108.51"/><path class="cls-11" d="M148.54,108.28l.12,0a.14.14,0,0,0-.08.07S148.47,108.32,148.54,108.28Z"/><path class="cls-11" d="M148.58,108.38s0,0,0,.08A.08.08,0,0,1,148.58,108.38Z"/><polygon class="cls-11" points="148.95 108.37 148.89 108.38 148.84 108.35 148.95 108.37"/><path class="cls-11" d="M148,107.56l0-.12c.08-.06.14-.07.13,0S148.13,107.52,148,107.56Z"/><path class="cls-11" d="M148.85,107.38a.8.8,0,0,0-.21.08l.3-.19Z"/><path class="cls-11" d="M148.78,107.11c.08,0,.18-.25.22-.15S148.89,107.14,148.78,107.11Z"/><polygon class="cls-11" points="147.7 106.21 147.7 106.23 147.21 106.53 147.7 106.21"/><path class="cls-11" d="M148.26,104.47c.18,0-.29.21-.09.2-.11.09-.16,0-.25.09C148,104.63,147.92,104.64,148.26,104.47Z"/><path class="cls-11" d="M147.92,104.76s0,0-.06.07Z"/><polygon class="cls-11" points="138.79 94.7 138.65 94.71 138.84 94.64 138.79 94.7"/><path class="cls-11" d="M139.09,94.36l-.33.18.27-.21S139,94.4,139.09,94.36Z"/><path class="cls-11" d="M146.48,100.7l-.07,0c-.09,0-.11,0-.14,0Z"/><polygon class="cls-11" points="145.76 100.06 145.78 100.08 145.47 100.23 145.76 100.06"/><path class="cls-11" d="M145.72,99.18s0,.09,0,.11S145.36,99.4,145.72,99.18Z"/><path class="cls-12" d="M88.17,123.43s.29-12.21,2.21-13.21,2.49,3.51,4.63,4.47,4.17.91,5.21,5.09-8,7.53-9.84,9.44S84.61,121.6,88.17,123.43Z"/><path class="cls-12" d="M101.26,119.77S100.45,117,99.6,115s.36-2.07,1.66-1.38,1.66-11,3-10.64,0,2.46,1,3.22,1-7.2,2-7.23,6.64,4.1,8.27,4.47,7.06-1.64,6.1,3.23-1.14,6.75-.66,7.44S104.73,113,101.26,119.77Z"/><path class="cls-12" d="M124.13,112.44s1.33-5.74,0-7.46,1.87-3.72,3.18-3.92S129,94.81,129,94.81s3.74-9.5,4.33-8.07,1.72-.15,1.72-.15,4.59-4.14,6.51,4.06,4.9,6.35,4.9,6.35l-11.41,6.54L129,108.46Z"/><path class="cls-12" d="M110.1,139.05s6.88-4.87,8.83-4.87,7.63-2,7.7,2.43,1.89,6.93-3.65,6.26-5.54-2.43-7.16-3.18-5.64,3.87-8.55,4.52-4.52,6.85-4.52,6.85-1.91-1.49,0-9.24S107,141,107,141Z"/><path class="cls-12" d="M138.58,126.84s4-5.2,8.43-2.75,4,7-.17,7S146.93,126,138.58,126.84Z"/><path class="cls-9" d="M145.12,103c.08.16.25,0,.3,0C145.19,102.77,145.07,103.08,145.12,103Z"/><polygon class="cls-9" points="142.95 101.15 143.06 101.12 142.61 100.98 142.95 101.15"/><path class="cls-9" d="M141.05,99.32c-.06.47.79.57,1,1v.12l.38-.08A12.19,12.19,0,0,1,141.05,99.32Z"/><path class="cls-9" d="M140.27,97.73c0,.19-.37-.07.31.23a.13.13,0,0,1,0-.07Z"/><path class="cls-9" d="M140.54,97.89c.28.16-.11-.22,0,0Z"/><path class="cls-9" d="M139.09,97.3h.25l.24,0c0-.13-.45-.29-.27-.3C138.8,96.93,138.88,97.06,139.09,97.3Z"/><path class="cls-9" d="M138.58,97.45h.25S138.74,97.38,138.58,97.45Z"/><path class="cls-9" d="M139.34,97.51l-.51-.05c0,.08,0,.21.23,0C139,97.59,139.11,97.51,139.34,97.51Z"/><path class="cls-9" d="M139.57,97.68c.19.18.42.37,0,.31C140.28,98.3,140.34,98,139.57,97.68Z"/><path class="cls-9" d="M140.68,99.57l.14.26.27,0C141,99.85,140.75,99.45,140.68,99.57Z"/><path class="cls-9" d="M135.83,97c0,.09.26.15.32.25l.37-.19C136.31,97.08,135.9,97.12,135.83,97Z"/><path class="cls-9" d="M136.15,97.28a1.71,1.71,0,0,0-.25.17l-.24.17C136.13,97.44,136.21,97.37,136.15,97.28Z"/><path class="cls-9" d="M138.39,97.87a2.57,2.57,0,0,1,.42,0l.42,0h-.49a4.5,4.5,0,0,0-.49,0Z"/><path class="cls-9" d="M133.92,98.23l.09-.37-.1.31c0,.15-.09.3-.09.3Z"/><path class="cls-9" d="M133.12,99.21c0-.26-.4.06-.35-.17a2,2,0,0,0-.25,1,1.6,1.6,0,0,1,.2-.42A1.19,1.19,0,0,1,133.12,99.21Z"/><path class="cls-9" d="M132.47,100.49c0-.15,0-.31.05-.49A1.14,1.14,0,0,0,132.47,100.49Z"/><path class="cls-9" d="M134.83,98.05a.59.59,0,0,0-.49.07l.32.06Z"/><path class="cls-9" d="M134.67,98.18h0a2.21,2.21,0,0,0-.34.28A2.22,2.22,0,0,1,134.67,98.18Z"/><path class="cls-9" d="M134.88,98l0,0S134.88,98.06,134.88,98Z"/><path class="cls-9" d="M137.12,97.52c-.32.15-.85.42-.26.52C137,97.86,136.68,97.77,137.12,97.52Z"/><path class="cls-9" d="M135.26,98.14a4.55,4.55,0,0,1,.51-.21c0-.06-.18-.1-.06-.23a2,2,0,0,0-.23.21Z"/><path class="cls-9" d="M135.08,98.35a1.24,1.24,0,0,1,.18-.21,1,1,0,0,0-.18.09Z"/><path class="cls-9" d="M133.12,99.8a2.23,2.23,0,0,1-.26.72,6.33,6.33,0,0,0,.5-.73C133.32,99.71,133.27,99.52,133.12,99.8Z"/><path class="cls-9" d="M133.81,99a.08.08,0,0,0,0,0S133.84,99,133.81,99Z"/><polygon class="cls-9" points="132.2 103.04 132.25 103 132.2 102.99 132.2 103.04"/><path class="cls-9" d="M133.43,99.77a.52.52,0,0,0,.2-.4c-.07.14-.17.26-.27.42S133.4,99.84,133.43,99.77Z"/><path class="cls-9" d="M132.29,101.28a2.91,2.91,0,0,0,.26-.33C132.44,101,132.24,101.22,132.29,101.28Z"/><path class="cls-9" d="M133.69,99.06s0,0,0,0S133.64,99.06,133.69,99.06Z"/><path class="cls-9" d="M133.69,99.06a1.13,1.13,0,0,0-.06.31,1.66,1.66,0,0,0,.16-.33Z"/><path class="cls-9" d="M133.72,103.83a.39.39,0,0,1-.26-.32.71.71,0,0,1,.13-.58c-.13-.4-.89-.28-1.34.07.09,0,.18,0,.28.49.13-.15.38-.94.55-.55.06.57-.14.45-.27.71.3-.2.39.71.81.6l-.13-.47C133.56,103.78,133.65,104,133.72,103.83Z"/><path class="cls-9" d="M132.4,102.12v-.2a2.64,2.64,0,0,1-.43.64c.07.33.15.4.22.43l.07-.46a4.78,4.78,0,0,1,.11-.48Z"/><path class="cls-9" d="M132.68,101c.17.25.11.72.47.53.17-.53-.06-.44,0-.81-.29.92,0-.31-.41.29a1.78,1.78,0,0,1,.15-.52c-.12.14-.2.29-.31.43l0,0h0s.07,0,0,0v0l.07.07c-.15.26-.08,0-.07-.07l0,0h0l-.12.5c0,.13,0,.25,0,.34a1,1,0,0,1,0,.15,1.75,1.75,0,0,0,.1-.34Z"/><path class="cls-9" d="M136.51,98.66s0,0,0,0S136.42,98.68,136.51,98.66Z"/><path class="cls-9" d="M136.14,98.64c.05,0,.06-.17.26-.22s0,.12.07.19c.09-.09.38-.27,0-.29l-.05,0a4.12,4.12,0,0,1-.61,0c-.18,0-.32,0-.3-.05A3.49,3.49,0,0,0,136.14,98.64Z"/><path class="cls-9" d="M134.28,99.54s-.36.63-.34.64a2.66,2.66,0,0,1,.39-.16l-.12-.07C134.5,99.67,134.33,99.64,134.28,99.54Z"/><path class="cls-9" d="M132.07,103.11l-.25-.12.16.23.16.23Z"/><polygon class="cls-9" points="132.04 104.04 131.82 104 131.95 104.24 132.04 104.04"/><path class="cls-9" d="M111.26,115.07l-.16-.11A.76.76,0,0,0,111.26,115.07Z"/><path class="cls-9" d="M112,116.17l.12,0C112,116.11,112,116.12,112,116.17Z"/><path class="cls-9" d="M127.59,123.7c-.3.16-.71.29-.46.36l.25,0A.72.72,0,0,1,127.59,123.7Z"/><path class="cls-9" d="M118.94,125.21v.11l.3,0Z"/><path class="cls-9" d="M118,125.63l-.08-.4A1.55,1.55,0,0,0,118,125.63Z"/><path class="cls-9" d="M108.26,114.81l.16.27C108.53,114.83,108.36,114.89,108.26,114.81Z"/><path class="cls-9" d="M131.34,112.44a2.08,2.08,0,0,0-.27.54C131.28,112.74,131.52,112.56,131.34,112.44Z"/><path class="cls-9" d="M113.73,114c-.11-.08-.18-.09-.22-.06S113.7,114.06,113.73,114Z"/><path class="cls-9" d="M130.91,113.63l.09-.1a1.81,1.81,0,0,1,.07-.55A.6.6,0,0,0,130.91,113.63Z"/><path class="cls-9" d="M100.29,141l-.07,0S100.26,141,100.29,141Z"/><path class="cls-9" d="M92.59,144.3c0-.05.16-.11.25-.18A.92.92,0,0,0,92.59,144.3Z"/><path class="cls-9" d="M131.84,107.41c0-.17,0,0,0,0Z"/><path class="cls-9" d="M132.86,106.61a.14.14,0,0,0,.12.07A.18.18,0,0,1,132.86,106.61Z"/><path class="cls-9" d="M132,115.73v0C132,115.71,132,115.72,132,115.73Z"/><path class="cls-9" d="M132,107.16a1,1,0,0,0-.08.21A1.59,1.59,0,0,0,132,107.16Z"/><path class="cls-9" d="M131.84,107.18l0-.14S131.81,107,131.84,107.18Z"/><path class="cls-9" d="M131.84,107.65a.86.86,0,0,1,0-.28s0,0,0,0Z"/><path class="cls-9" d="M105.19,126.69l0,0C105.24,126.92,105.23,126.84,105.19,126.69Z"/><path class="cls-9" d="M127.33,129.05s0,0,0,0h0Z"/><path class="cls-9" d="M126.86,129.73a.79.79,0,0,1,.45-.69l-.34-.16-.34-.18a3.89,3.89,0,0,1,.14.51C126.82,129.46,126.86,129.73,126.86,129.73Z"/><path class="cls-9" d="M109.61,113.4a.86.86,0,0,1,0,.27c-.26.28-.18.19-.25.5.09-.4.18-.38.26-.34l.13.09a1.18,1.18,0,0,0,.19.11.4.4,0,0,0,.42-.07l0,.3c0-.05-.09,0-.13-.09,0,.61.68-.09,1,.54.09.23.1.44-.07.36l.47.34c.08.14,0,.18-.13,0l.26.34.26.34h0a3.26,3.26,0,0,1,.61.25c0,.25-.13,0-.18.05l.42.31c-.07.27-.45,0-.6-.26-.42.79.38.23.49,1.3l-.32-.34c-.23.48.09.7.11,1.28.07-.17.08-1.24.51-.88a.7.7,0,0,0,.38.5c-.24.14,0,.35.15.65l-.33.16c.28.27.42.15.68.27a.67.67,0,0,1-.19.8c.29.62.17-.63.62,0a2.76,2.76,0,0,0,1,1.32c.09.4-.23.05-.25.22l.43.16c0,.08-.05.1-.1.11.25.2.33-.16.65.19.41-.09,0,1.13.68,1.4,0,.17-.23,0-.33.16a4.16,4.16,0,0,0,1.25.81l.1.61c0-.5.57-.24,1,0a3.88,3.88,0,0,0,.06-.46l.57.48c0,.1-.14.12-.34.11l.15.06c0,.29-.21.3-.48.27,0-.12,0-.23,0-.35a1,1,0,0,0-.74.13.61.61,0,0,1,.22.15c-.08,0-.14,0-.16,0s.09.06.24.1l-.23.38.15-.06.19.47c.09.24.19.47.19.47a10.52,10.52,0,0,1,2.5,1c-.4,0-.38.32-.63.57,0-.48-.75-.52-1.08-1,.17.26,0,.32-.1.3l.49.28.49.27c-.22.19,0,.32.15.6.22-.56.86.27,1.37.35-.07.18-.3.3-.72-.09.11.37.4.35.66.31s.51-.11.73.18c-.14-.05-.19-.11-.29-.05a1.8,1.8,0,0,1,.66.21c.2.11.35.22.23.27l-.15,0a2.88,2.88,0,0,0,2,0c.67-.26,1-.71.92-.94a2.17,2.17,0,0,1,.22.68s0-.15.1-.37a4.56,4.56,0,0,0,.08-.78,7.37,7.37,0,0,0,0-.75l0-.33a3.51,3.51,0,0,0,.71.55c.26.2.47.44.29.81a1.32,1.32,0,0,0,.61-.74c-.14.08-.69-.1-.61-.27.68-.13.43-.13,1.12-.45-.2.13-.61-.43-.43-.68.06.09.57.31.56.45s0-.26-.07-.52-.08-.5-.08-.5c0,.23.46.3.71.22-.15,0,.34-.62.37-.85l-.28.25c.48-.78-.44-1.19-.08-2,.08.15.66.55.9.17-.23-.31-1.14-1.42-1.11-2.21l.23-.07v-.61a11.23,11.23,0,0,1,1.11,2.51c.26-.25.24,0,.4-.46.23-.1.15.35.11.49l.52-1c-.37-.09,0-1-.35-1l-.08,1.3c-.38-.1-.76-1.06-.41-1.78.22-.14.59.38.72.41a1.22,1.22,0,0,1,.14-.84l.08.39c.29-.38-.24-.87.29-1.26.08-.16.65-.36.44-.47a3.1,3.1,0,0,1-2.06-.54,6.17,6.17,0,0,1,1-.9c.42-.18.63.69,1,.53-.09,0-.16-.24-.18-.32.15-.16.29.18.37-.25-.35-.18.28-.82-.25-.29,0-.43.2-.4.32-.87-.28.07-.7-.67-.69-1.09a.41.41,0,0,0,.31,0c.27-.8.53-1.2.73-2,.11-.05.32-.39.44-.2a.83.83,0,0,1-.1-.5c.42-.39-.06.55.41.28-.22-.08-.18-.69-.25-1.06-.37,0-.22.78-.16,1.15-.46-.1-.84-.81-.91-1.64,0-.65.36-.22.32-.34.29-1.18-.68-1.14-.18-2.07.34-.36.61.05.84,0,0,.54-.31.78-.35,1.14l.21-.42a.9.9,0,0,1,0,.72,2.84,2.84,0,0,0,.35-1.24,9.23,9.23,0,0,1,.31-1.73c-.09-.18-.18-.47-.31-.34l0,.3c-.26.25-.31-.58-.44-.21a2.13,2.13,0,0,1-.25-1.41l.35-.1c-.1,0-.21.36-.11.52-.15-.23.49-.84,0-1.11l-.25.39c-.17-.4-.53-.91-.41-1.41-.35.22,0,.11-.38.46.51-.29,0,1.28.5.8-.49.34-.21.62-.64,1.06.12,0,.23-.15.15.25a.29.29,0,0,1,.1.09v0l0,0h0a.46.46,0,0,1,.19-.2c.25.21.22.86.33,1.09-.08.24-.12-.11-.26,0l.17.35c-.26,0-.48.59-.58,0l-.06.5a1.44,1.44,0,0,0-.21.94c-.09.23.19.64,0,.41,0,0,0,.2,0,.4s0,.41,0,.41h-.06c-.2.76.13,1.69-.56,2.47a2.48,2.48,0,0,1-.17,1l-.24,0c0,.35-.49.93-.31,1.14-.69.18-.58,1.56-.9,2.1l.27.11a5.38,5.38,0,0,0-.27,1.33l.26.06c0,.5-.54,1-.79,1.71-.08-.08,0-.24.12-.34-.86.59-.27,1.84-.95,2.41a.47.47,0,0,1-.17.43.09.09,0,0,0,0,0,.25.25,0,0,1,0,.07l-.23.19a1,1,0,0,0,.22-.15,2.78,2.78,0,0,0-.14.57l-.29,0v0c-.18.14,0,.2.29.19a.91.91,0,0,0,0,.33c-.48,0-.11.57-.64.56.14.24-.35,1,0,1.34-.06,0-.12,0-.06-.09a.88.88,0,0,0-.36.57l-.34-.13,0,.34,0,.34c-.36.09-.52.07-.54-.31a1.4,1.4,0,0,1-.21.61,2.87,2.87,0,0,0-.24.53l-.1-.21c-.14.12-.29.52-.47.37s-.65,0-1.18-.22a2.73,2.73,0,0,1-1.46-1.2c-.29.65-.21-.61-.61-.29.07-.17,0-.35.25-.3-.55-.37-.44-.88-1.07-1,.08-.16.27,0,.31-.15s-.24-.08-.21-.19.16,0,.28,0c-.42-.52-.86-.3-1.26-.07,0-.42-.15-.55-.55-.59,0-.19.07-.45.36-.12-.13-.21-.65-1.38-1-1.21,0-.12-.16-.31-.23-.34a8.34,8.34,0,0,0-.59-1l0,.16c-.49,0-.32-.35-.59-.7l0,0c-.24-1-.35-.3-.54-1.37l-.21.19c-.56.21-.15-1-.64-1.36l0,.26c-.33-.18.25-1.18.15-1.5,0-.09.13.06.21.12-.12-.91-.36.09-.75-.42.1-.2.5-.12.31-.51,0-.27-1.17-.76-1.17-1.46-.06.19-.12.38-.37.18s-.19-1.36-.83-1.45a.18.18,0,0,1,.05-.14c-.3-.23-.86-.84-1.2-.84.27-.43-.21-.82-.71-1.11l-.74-.44c-.19-.13-.29-.28-.21-.48a3.9,3.9,0,0,0-.73-.25,2.78,2.78,0,0,0-.76,0l0-.1a1.44,1.44,0,0,0-1,.4,1.48,1.48,0,0,0-.37.55c-.19.08-.12-.08-.13-.13a2.6,2.6,0,0,0-1,.87,2.33,2.33,0,0,0-.25,1.07l-.3,0a3.42,3.42,0,0,1-.55.87,2.82,2.82,0,0,0-.51,1.52.19.19,0,0,1-.09-.15c0,1.19-1.39,2.53-.43,3.12l.06.38.07.38c.22-.92.42.21.65-.15,0,.38-.45.9-.44.44l.07-.06c-.52-.25-.36,1.13-.72,1.05-.22,1.84-.71,3.59-1,5.27l.44-.14-.1.58c-.12.15-.35.17-.28-.25-.26.19.1.73.19.76-.28.79-.44-.39-.48-.14l0,.34.06-.07c.13.3.31.35.21.85-.13.31-.28.13-.32.25s0,0,0,.19l-.15.72.37-.24c.11.35-.13.69.29.41-.63.41-.74,2.67-1,2.92a2.34,2.34,0,0,1-.22,1.45c.11-.11.49-.08.29.37-.66-.41-.61.72-1.27.84.24-.08.12.23,0,.52s-.17.56.19.45c-.24.32-.27-.11-.57.06-.13.94-1.29,1.55-1.9,2.54.06.07.3,0,.27.31l-.77.17c-.1.21.3.54-.25.62.11,0,.26,0,.18.16a8.49,8.49,0,0,0-1.3,1.17c-.4.42-.84.81-1.25,1.23a7.32,7.32,0,0,1-.66.59,7.11,7.11,0,0,1-.72.5,6.47,6.47,0,0,1-.78.41,5.06,5.06,0,0,1-.87.23c.36,0,.2.13,0,.26.16,0,.13.22.23.32l-.51.09-.51.06c0,.21-.21.33-.43.45s-.42.2-.4.39l.25-.18c-.09.27.13.44.41.59s.62.26.72.52c.11-.34.48-.32.88-.37a1,1,0,0,0,1-.68c.21,0,0,.23.12.28,0-.31.23-.47.65-.67V145a8.32,8.32,0,0,1,1.33-.89c.41-.26.85-.53,1.45-1l-.27-.13a1.28,1.28,0,0,1,.52-.21c0-.54-.67.57-.73,0,.33.06.77-.28,1.13-.68s.73-.74,1.06-.63c.33-.36-.33-.11,0-.46l.22,0-.09-.24a.56.56,0,0,1,.63-.1,1.13,1.13,0,0,0-.16.26c.45-.16.67-1,.81-1l-.36.3c.34-.57.79-1.14,1.22-1.72a5,5,0,0,0,.32-.44c.1-.16.19-.33.28-.49a3.75,3.75,0,0,0,.37-1l-.16,0c.22-1,.49-.65.79-1.7v0a1.62,1.62,0,0,1,.1-.8c.06.3.44-.39.48,0,.08-1.08,0-.56-.29-1.35l.24-.1a1,1,0,0,1-.15-.83c.07.46.4-.25.51.27.71-1-.11-1.69.66-2-.49-.6-.5.87-.58.57-.23.19-.35-.49-.23-.81s.85-.45,1-1.32c0,.08,0,.1,0,.18.19-.3-.1-.66.19-1-.32-.27.1-.51-.34-.63v.8c-.06-.47-.52-.95-.17-1.65a1.23,1.23,0,0,1,.22.46c.16-.2,0-.43.13-.63.44.12,0,1,.25,1.5.22-.21-.2-1,.25-.65-.57-.43.19-.84-.21-1.48l.27.07a1,1,0,0,1-.11-.48l.31.35c-.24-.5.37-.87.26-1.34-.1.94-.35.17-.59.55-.22-1.21.78-.59.81-1.9,0,.18-.24.64-.33.35a1.78,1.78,0,0,1,.39-.69c0-.85-.3.1-.42-.28.37-.25-.08-.44-.13-.83l.27,0c.31-.94-.54-.34-.2-1.18l.33.42,0-.46.29.14a1.38,1.38,0,0,1,.1-1.13c-.21.08-.49-.15-.42-.57.22-.25.23.21.3-.39.15.17.33.35,0,.56.09,0,.15.16.23.21.24-.28.19-.75.23-1a.57.57,0,0,1-.11.22s-.06-.23-.1-.46-.09-.46-.09-.46.19,0,.24.14c0-.18-.09-.33,0-.57.2.12.42.16.44.52l0-.41,0-.41c.1,0,.37-.3.42-.19.24-.35-.08-1.11.3-1.51a.28.28,0,0,1,0-.21c.07-.1.15-.18.22-.27a2.41,2.41,0,0,0,.24-.21c.07-.08.14-.14.2-.22a.45.45,0,0,0,.07-.26,1.28,1.28,0,0,1,.29.28.51.51,0,0,0-.13-.29c-.08-.11-.19-.21,0-.39s.17.31.26.41a.57.57,0,0,1,.2-.36c.11-.06.26,0,.28.2C109.7,113.48,109.68,113.4,109.61,113.4Zm3.53,4.42c-.12-.08-.4-.21-.31-.37C113.18,117.41,113.11,117.59,113.14,117.82Zm6,8.52c-.13,0-.19-.17-.2-.38A.69.69,0,0,1,119.1,126.34Zm12.8-17h0C131.76,109.59,131.82,109.5,131.9,109.31Zm.17-.57a.07.07,0,0,0-.11,0c.06,0,.06.18,0,.32C132.06,109,132.12,108.92,132.07,108.74Zm-29,19.58.09-.11C103.2,128.49,103.14,128.4,103.07,128.32Z"/><path class="cls-9" d="M118.1,125.58a.28.28,0,0,1,.09-.13C118.12,125.43,118.08,125.46,118.1,125.58Z"/><path class="cls-9" d="M108.23,114.76h0l0,0Z"/><path class="cls-9" d="M132.3,118.4a.56.56,0,0,1-.22.18C132.15,118.61,132.22,118.57,132.3,118.4Z"/><path class="cls-9" d="M131.78,105.61l.06.38a.51.51,0,0,1,.1-.34C131.88,105.66,131.78,105.73,131.78,105.61Z"/><path class="cls-9" d="M133.71,102.28c0-.07,0-.12,0-.18l-.13,0C133.54,102.33,133.61,102.51,133.71,102.28Z"/><path class="cls-9" d="M132.7,105.27c.24,0,.16-.27.12-.55v0C132.5,104.68,132.6,105,132.7,105.27Z"/><path class="cls-9" d="M132.82,104.66a1.13,1.13,0,0,1,0-.26C132.68,104.37,132.79,104.51,132.82,104.66Z"/><path class="cls-9" d="M132,108c.07-.12-.29-.1-.19-.17C131.52,107.66,132.08,108.67,132,108Z"/><polygon class="cls-9" points="133.47 105.06 133.18 105.15 133.41 105.31 133.47 105.06"/><path class="cls-9" d="M133.2,107.2l.1-.43c-.05,0-.07,0-.09-.12C133.18,106.92,133.11,107.21,133.2,107.2Z"/><path class="cls-9" d="M133.21,106.65a.75.75,0,0,0,0-.35A1.56,1.56,0,0,0,133.21,106.65Z"/><polygon class="cls-9" points="133.55 105.66 133.49 105.79 133.46 106.09 133.55 105.66"/><path class="cls-9" d="M132.57,111.82v.48c.09.07.17,0,.17-.23S132.68,111.76,132.57,111.82Z"/><path class="cls-9" d="M133.59,110.53c-.08.12-.14.11-.24.17l.34.07Z"/><path class="cls-9" d="M133.44,111.93c.09.06.14.74.24.13C133.59,112,133.6,111.51,133.44,111.93Z"/><polygon class="cls-9" points="131.13 118.79 131.16 118.67 130.61 118.51 131.13 118.79"/><path class="cls-9" d="M130.15,125.28c.36-.49-.28-.27.1-.69-.08-.18-.31.34-.36.16C129.88,125.14,129.73,125.28,130.15,125.28Z"/><path class="cls-9" d="M129.89,124.75a1.48,1.48,0,0,0,0-.2A.51.51,0,0,0,129.89,124.75Z"/><polygon class="cls-9" points="91.36 144.62 91.02 144.63 91.29 144.73 91.36 144.62"/><path class="cls-9" d="M91,145.27l-.11-.16-.1-.16v.18l0,.19C90.79,145.28,90.88,145.22,91,145.27Z"/><path class="cls-9" d="M113,119.06l.09,0c.06-.1,0-.18,0-.33Z"/><polygon class="cls-9" points="110.72 114.94 110.76 115.01 110.94 114.69 110.72 114.94"/><path class="cls-9" d="M109.37,114.12s0-.07,0-.06S109.26,113.69,109.37,114.12Z"/><path class="cls-9" d="M138.81,110.36s-.18-.13-.22-.15S138.86,110.4,138.81,110.36Z"/><polygon class="cls-9" points="139.5 110.37 139.41 110.32 139.64 110.42 139.5 110.37"/><path class="cls-9" d="M139.74,110.07c.29.28-.14.07-.07.21l.06.07-.27-.18C139.55,110.13,139.79,110.18,139.74,110.07Z"/><path class="cls-9" d="M139.18,109.35c.11.11.13.05,0,.07l0,0Z"/><path class="cls-9" d="M139.16,109.39s-.09-.11,0,0Z"/><path class="cls-9" d="M139.35,109.3l-.14,0c-.07-.07-.06-.12-.12-.15C139.19,109.11,139.25,109.17,139.35,109.3Z"/><path class="cls-9" d="M139.62,109.44h-.07S139.52,109.38,139.62,109.44Z"/><path class="cls-9" d="M139.42,109.39l.13,0s.15.13-.05,0C139.6,109.49,139.5,109.43,139.42,109.39Z"/><path class="cls-9" d="M139.44,109.46a.33.33,0,0,0,.22.19C139.55,109.7,139.33,109.5,139.44,109.46Z"/><path class="cls-9" d="M140.08,110.32l.07.1-.13-.06C140.08,110.39,140,110.23,140.08,110.32Z"/><path class="cls-9" d="M139.4,108.9c.07,0,.17.16.25.23l-.1,0A.68.68,0,0,0,139.4,108.9Z"/><path class="cls-9" d="M139.65,109.13l.15.05S139.72,109.2,139.65,109.13Z"/><polygon class="cls-9" points="139.97 109.72 139.67 109.6 139.99 109.71 139.97 109.72"/><polygon class="cls-9" points="139.53 108.72 139.35 108.62 139.63 108.76 139.53 108.72"/><path class="cls-9" d="M139.66,108.62c-.15-.08-.2-.2-.3-.25a.79.79,0,0,1,.3.11C139.59,108.46,139.58,108.5,139.66,108.62Z"/><path class="cls-9" d="M139.84,108.56l-.18-.08A.62.62,0,0,1,139.84,108.56Z"/><path class="cls-9" d="M139.84,109.08a1.12,1.12,0,0,1-.17-.2l.18.17Z"/><path class="cls-9" d="M139.85,109.06h0l0,0Z"/><path class="cls-9" d="M139.83,109.08h0S139.86,109.1,139.83,109.08Z"/><path class="cls-9" d="M139.9,109.46a.74.74,0,0,1,.41.28A3.64,3.64,0,0,0,139.9,109.46Z"/><path class="cls-9" d="M140.05,109.3v.08a1.24,1.24,0,0,0-.18-.14Z"/><polygon class="cls-9" points="140.13 109.32 140.05 109.3 140.05 109.26 140.13 109.32"/><path class="cls-9" d="M140,108.78c.1,0,.13,0,.16,0a.14.14,0,0,1,0,.13C140,108.88,139.92,108.81,140,108.78Z"/><path class="cls-9" d="M139.92,108.93h0S140,109,139.92,108.93Z"/><path class="cls-9" d="M140.32,108.53l0,0,0,0Z"/><path class="cls-9" d="M140.13,109c0,.05,0,0-.1,0l.07,0S140.15,109,140.13,109Z"/><path class="cls-9" d="M140,108.55l.07.13C140,108.62,139.94,108.52,140,108.55Z"/><path class="cls-9" d="M139.89,108.89h0Z"/><path class="cls-9" d="M139.89,108.89l.14.06h-.09Z"/><path class="cls-9" d="M141.61,109.44c-.18-.14-.39-.21-.24,0a5.5,5.5,0,0,1-1-.86.65.65,0,0,0,.3.15c.08.1.13.29.33.38s0-.1-.09-.21c.2.2.39.17.7.45l-.16,0S141.57,109.39,141.61,109.44Z"/><path class="cls-9" d="M140.3,108.67h0a1.35,1.35,0,0,0-.19-.27.94.94,0,0,1,.25.13l-.06.12Z"/><path class="cls-9" d="M140.18,108.77a1.93,1.93,0,0,1,.51.35c-.06,0-.19-.09-.3-.12.12-.06-.13-.06-.18-.21a.15.15,0,0,0-.1,0,.31.31,0,0,0-.05-.12h0l0,0h0l.07.06c0-.06,0,0-.07-.06l0,0h.18S140.24,108.74,140.18,108.77Z"/><path class="cls-9" d="M140.76,110s0,0,0,0S140.77,110,140.76,110Z"/><path class="cls-9" d="M140.68,109.89s-.12-.07-.12,0,.1.07.16.12a.38.38,0,0,1-.24-.18l0,0a1.37,1.37,0,0,0-.27-.35C140.41,109.62,140.53,109.73,140.68,109.89Z"/><path class="cls-9" d="M140.48,109.37h.16l.13.18-.09-.09C140.68,109.53,140.56,109.42,140.48,109.37Z"/><polygon class="cls-9" points="140.23 108.45 140.02 108.3 140.34 108.48 140.23 108.45"/><polygon class="cls-9" points="140.34 108.36 140.16 108.23 140.29 108.29 140.34 108.36"/><path class="cls-9" d="M147.22,104.31l.07,0Z"/><path class="cls-9" d="M147.1,104.49l-.09-.07Z"/><path class="cls-9" d="M142.4,105.85c-.13-.17-.36-.41-.16-.25l.18.17S142.37,105.8,142.4,105.85Z"/><path class="cls-9" d="M145,105l0,.06-.21-.12Z"/><path class="cls-9" d="M145.78,105.67l-.09-.15S145.75,105.61,145.78,105.67Z"/><path class="cls-9" d="M148.17,103.55l.22.13S148.27,103.63,148.17,103.55Z"/><path class="cls-9" d="M141.26,107.37c0-.09-.06-.14,0-.17S141.43,107.49,141.26,107.37Z"/><path class="cls-9" d="M145.12,102.72a.31.31,0,0,1,.13.08A.46.46,0,0,1,145.12,102.72Z"/><path class="cls-9" d="M141.27,107.12l0,0c-.05,0-.1,0-.1,0S141.12,107,141.27,107.12Z"/><path class="cls-9" d="M150.71,100.08l0,0S150.72,100.08,150.71,100.08Z"/><path class="cls-9" d="M149.54,97.53s0,0,0,0S149.5,97.53,149.54,97.53Z"/><path class="cls-9" d="M140.59,107.88s0,0,0,0Z"/><path class="cls-9" d="M141.27,108.61l.1.06Z"/><path class="cls-9" d="M142.65,107.87h0S142.68,107.9,142.65,107.87Z"/><path class="cls-9" d="M140.65,108a.41.41,0,0,1,0-.08A.34.34,0,0,1,140.65,108Z"/><path class="cls-9" d="M140.56,107.91v0S140.51,107.9,140.56,107.91Z"/><path class="cls-9" d="M140.63,107.86s0,0,0,0l0,0Z"/><path class="cls-9" d="M148.75,101.45l0,0C148.83,101.48,148.81,101.48,148.75,101.45Z"/><polygon class="cls-9" points="144.87 106.9 144.86 106.89 144.85 106.89 144.87 106.9"/><path class="cls-9" d="M145.08,106.94c-.27-.16-.26-.12-.22-.06l-.54-.47Z"/><path class="cls-9" d="M147.52,104c-.2-.28.18-.09.37,0-.07-.1-.48-.35-.31-.35s.42.38.55.37l-.28-.3c.31.11.15-.13.17-.23a.25.25,0,0,1,.11,0c-.07-.18.44.09.38,0a2.05,2.05,0,0,1-.24-.26l.28.05a1.71,1.71,0,0,1-.48-.3s.15.05.2,0a.46.46,0,0,1-.22-.15l.38.13a.08.08,0,0,1,0,.07s.19,0,.07-.15l-.22-.15c.17.19,0,.08-.16,0,.09,0,0,0-.13-.19s.31.12.45.26c0-.12-.05-.17.18-.09l-.26-.18h.12l-.33-.19c-.08-.25.44.32.39.08l-.21-.17c.12,0,.49.3.27,0,.16.06.24.32.37.25a.72.72,0,0,1-.17-.27c.13,0,.24.23.19.22.23-.07-.66-.69-.26-.6.12.17.45.29.35.4.17,0-.22-.36.06-.22l-.31-.19s.13,0,.18,0l-.22-.17c.43.23-.07-.27.45.08-.41-.28.07,0-.06-.18-.32-.16-.13.17-.49-.11-.08-.11.11,0,0-.11a1,1,0,0,1-.26-.12c-.13-.25.32,0,.46,0l-.16,0c.36.28.1,0,.39.2-.15-.2.16,0,.07-.15,0,0,0,0,0,0s-.46-.59-.44-.64.24,0,.37.15-.22,0,.29.36c-.48-.49.3,0,0-.38-.24-.1-.27-.28-.45-.34.09,0,.17,0,.34.12l-.15-.15c.44.22.34.25.64.29-.16-.07-.2-.25-.34-.31,0,0,.09,0,.21,0l0,0c.19,0-.12-.27.15-.23l.09.09c.39.07.37-.26.62-.31l0,.12c0-.06.25,0,.13-.15,0,0-.08,0-.07,0s-.26-.24-.26-.3l.18.12-.12-.12c0-.06.23.21.28.15-.47-.42.13-.29-.26-.68.38.24,0,.14.32.36,0-.06-.1-.12-.1-.18l.2.18c0-.27-.11-.48.05-.59l-.05,0c0-.12,0-.12.23,0-.09-.09-.17-.09-.24-.18.62.34-.25-.51.18-.26a13.59,13.59,0,0,0-1.12-1H150c-.3-.21-.11.12-.42-.1l.19.36c-.1-.09-.27-.19-.29-.24s-.07,0-.19-.12c.48.87-.46.61-.31,1.21,0,0-.13-.09-.19-.16.23.28-.18-.06-.24-.06l.33.39a1.34,1.34,0,0,1-.33-.24c-.19.08.07.53-.26.47.11.15.33.24.33.33-.34-.39-.3,0-.55-.28.39.4-.06.26.56.72,0,.08-.3-.16-.34-.22,0,.09-.07.15-.3.05.1.15-.41.2,0,.63-.26-.28-.15-.12-.31-.18l-.23-.25-.05.12s0,0,0,0,.15.11.19.21-.18,0-.34-.11l0,0-.06,0s.34.1.39.3c-.07,0-.46-.27-.29-.09,0-.06.2.09.26.17l0,.09-.31-.29c-.15.22-.09.63-.29.83.29.23-.11.17.32.49l0,0c.08,0,.32.28.23.29-.09-.15-.48-.25-.46-.42l-.26-.07c-.85-.6-.13.29-.49.21l.11.07c-.35-.09,0,.44-.15.36l.21.19c-.42-.17-.46-.18-.41,0a.37.37,0,0,1,.14.12c-.19-.11-.38-.21-.4-.09l.08,0-.15.1c.69.55-.59-.11.12.52a1.1,1.1,0,0,0-.49-.12.3.3,0,0,1,.08.08c-.4-.25,0,.23-.08.26a1,1,0,0,1-.33-.26c.24.31-.48-.06-.37.06s.24.23.38.37c-.13,0-.61-.51-.42-.19a.21.21,0,0,1,.12,0c0,.08.75.79.56.7l-.1-.13c-.24-.07.42.62-.05.26l-.21-.18c.18.36-.13,0,0,.31l0,0c-.09,0,.15.27-.21,0l0-.06c-.08,0-.06.07-.1.16s-.12,0-.06,0c-.28-.23-.26.05-.26.1s.18.1.29.21c-.26-.16-.31-.15-.17,0-.36-.28-.75-.58-.84-.51a.66.66,0,0,1,.18.1c.06.07,0,0-.07,0s.15.09.26.2c-.38-.22-.1.08-.29.07a1,1,0,0,1,.29.25c-.41-.32.26.4-.24-.06.18.43-.32.45,0,.79.13.13-.14,0-.17,0l.18.14c-.39-.17-.17,0-.57-.19a1.21,1.21,0,0,1,.46.4l-.43-.23.27.23c-.13-.06-.11,0-.09.07s0,0,.08.06c-.39-.29-.45-.14-.64-.27.34.33-.16,0,.17.31l-.16-.07c-.15-.14-.33-.29-.27-.2h0l.21.18a.25.25,0,0,0-.14,0l-.09-.11a.5.5,0,0,1,.08.12h0c0,.06,0,.1,0,.06.25.36-.62-.15-.26.32,0,0,0-.09.05,0-.09.08.14.41-.07.33l-.19-.16c-.15,0-.25,0-.28.05l-.23-.18c0,.14-.47,0,0,.43-.2-.12,0,.15-.13.15l.16.15c0,.1-.07.08-.15.08.27.4-.17.22-.23.34l0,0h-.21c.18.1-.12-.06-.1,0s-.11,0,0,.18l0,.07c.17,0,.25.21.44.37l-.19-.08c.08.09.18.1.2.16s-.19,0-.42-.11a.75.75,0,0,1-.12-.14h0l-.09-.06c0,.09-.07,0-.16-.07.27.31,0,.17.36.51-.36-.39-.11.13-.47-.22.28.3,0,0,.24.29,0-.14.3,0,.48.1l.15.2c.38.26,0-.22.1-.15-.1,0-.05.07,0,.13l-.26-.23c-.05-.16.21,0,.38,0s.21.08.38.27h-.07a1,1,0,0,0,.3.17c-.11-.28.23-.35,0-.56.05.07,0,.07-.14,0l-.07-.15c-.05,0,.17.27,0,.26a4.71,4.71,0,0,1-.64-.54c-.17-.34.53.26.59.06.06,0-.31-.2-.15-.2a2.86,2.86,0,0,1,1.08.59c-.14,0-.43-.14-.17.09a1.1,1.1,0,0,1,.45.17c-.28-.3-.16,0-.38-.27,0,0,.15,0,.21.08a1.25,1.25,0,0,1-.26-.27c.07-.1,0-.27,0-.39a2.12,2.12,0,0,0-.21-.2,2.9,2.9,0,0,1,.84.51c.06-.05-.09-.17,0-.15.22.31,0-.06.28.18.08,0-.14-.14-.19-.22a1.23,1.23,0,0,1,.24.15c-.2-.22-.65-.43-.89-.68s-.36-.52-.38-.54a20.11,20.11,0,0,1,1.65,1.35c.18.14-.15-.2-.16-.24-.23-.29.31.09.24-.06l-.19-.09c-.07-.07.09-.07.2,0a6.92,6.92,0,0,1-.65-.49c0-.14.65.21.95.46l-.43-.1c.24.2.33.09.63.34l0-.21s-.13,0-.26-.12c.07-.05,0-.07-.1-.2-.37-.19-1.28-.72-1.7-1l.22.06-.13-.13a11.69,11.69,0,0,1,1.59,1,3.29,3.29,0,0,0-.68-.58c.06-.13.84.5.84.34l.09.13c.07,0,0-.16.12-.07a2.9,2.9,0,0,0-.55-.48l.58.31c-.07,0-.49-.38-.57-.43s.55.33.6.41a5.1,5.1,0,0,0-.41-.52,3.07,3.07,0,0,1,.48.42c.16,0,.13,0,.1-.09a9.37,9.37,0,0,1-1.32-1l1.42.86-.55-.41c.39.29.6.13.63,0h0c-.14-.08-.18-.25,0-.18-.08,0-.07,0-.08,0-.23-.29.64.38.36,0,0,.09-.18,0-.32-.15.17.06.12-.17.54.21-.06-.11,0-.09-.21-.27l.36.1c-.05,0-.19-.13-.19-.19,0,.11-.47-.16-.2.12a5.72,5.72,0,0,0-.67-.53,4.07,4.07,0,0,1,1.15.46l-.1-.27.13.1-.3-.28c.08,0,.15.09.12.06a.41.41,0,0,0-.12-.09l.1,0a4.63,4.63,0,0,0-.56-.39l.15.17a1.48,1.48,0,0,1-.44-.33l.08,0a2.67,2.67,0,0,1-.27-.2l.22,0,.21.23a2.11,2.11,0,0,1,.73.48l-.13-.22a2.24,2.24,0,0,0,.61.23,2.71,2.71,0,0,1-.29-.22c.41.21-.28-.51.05-.27.12,0,.29.2.41.23l-.11-.09.26.14c-.06-.09-.18-.09-.24-.22.23.06.39.1.33,0,.14-.06.42.4.45.28-.18-.16-.39-.35-.38-.42a1.86,1.86,0,0,0,.41.22l-.28-.23s.12,0-.09-.2c.15.06.15,0,.11,0,.21,0,.54.51.64.62-.16-.24,0-.18-.31-.5H147c-.25-.41.5.21-.06-.33,0,.06-.2,0-.34-.17l.2.06c-.07-.07-.08,0-.15-.11l.36.18h0l.14-.07s-.12,0-.11-.08l.2,0a.35.35,0,0,1-.18-.2c0-.16.7.45.47.14,0,0,0,0,0,0l-.1-.13c.61.48.24-.17.85.31-.21-.25-.15-.12-.49-.28l-.12-.2C147.56,104,147.59,104,147.52,104Zm-.61.66c.11.11,0,0-.11,0S146.65,104.47,146.91,104.65Zm-1.64.76c.06.09.08.13,0,.09S145.24,105.41,145.27,105.41Zm-4.3,2.38h0S140.92,107.69,141,107.79Zm0,.07s0,0-.08,0a.28.28,0,0,0,.09.07C141.06,108,141,107.91,141,107.86Zm6.55-7.75,0-.06C147.56,100.09,147.62,100.13,147.53,100.11Z"/><path class="cls-9" d="M145.68,105.59l-.11-.1A.52.52,0,0,1,145.68,105.59Z"/><polygon class="cls-9" points="148.13 103.53 148.13 103.52 148.17 103.55 148.13 103.53"/><path class="cls-9" d="M143.74,108.26a.47.47,0,0,0-.09-.12C143.71,108.18,143.75,108.22,143.74,108.26Z"/><path class="cls-9" d="M140.31,108h.09s0,.06,0,.1S140.33,108,140.31,108Z"/><path class="cls-9" d="M141.31,109.52s0,0-.05,0l-.1-.08S141.29,109.45,141.31,109.52Z"/><path class="cls-9" d="M141,108.65c.18.15.09.13,0,.14h0C140.77,108.59,140.88,108.62,141,108.65Z"/><path class="cls-9" d="M141,108.79a0,0,0,0,0,0,0C140.88,108.74,141,108.79,141,108.79Z"/><path class="cls-9" d="M140.8,107.93s-.24-.18-.18-.11C140.38,107.65,141,107.94,140.8,107.93Z"/><polygon class="cls-9" points="141.56 109.16 141.35 108.97 141.55 109.09 141.56 109.16"/><path class="cls-9" d="M141.61,108.76l0,.11-.09-.05S141.55,108.71,141.61,108.76Z"/><path class="cls-9" d="M141.54,108.82s0,0-.07,0S141.51,108.81,141.54,108.82Z"/><polygon class="cls-9" points="141.69 109.14 141.66 109.09 141.67 109.03 141.69 109.14"/><path class="cls-9" d="M142,108.16h.11c.08.06.12.11.07.11A.41.41,0,0,1,142,108.16Z"/><path class="cls-9" d="M142.5,108.83a.73.73,0,0,0-.15-.17l.28.23Z"/><path class="cls-9" d="M142.7,108.71c.08.06.29.09.21.15S142.72,108.81,142.7,108.71Z"/><polygon class="cls-9" points="143.05 107.56 143.04 107.57 142.59 107.2 143.05 107.56"/><path class="cls-9" d="M144.76,107.66c.05.16-.29-.21-.21,0-.12-.07-.07-.14-.17-.19C144.52,107.48,144.48,107.4,144.76,107.66Z"/><path class="cls-9" d="M144.38,107.43l-.09,0Z"/><polygon class="cls-9" points="149.43 97.17 149.37 97.05 149.5 97.2 149.43 97.17"/><path class="cls-9" d="M149.84,97.36l-.29-.24.29.18S149.78,97.3,149.84,97.36Z"/><path class="cls-9" d="M147.29,105.26l-.08-.06c-.07-.06-.06-.08-.06-.11Z"/><polygon class="cls-9" points="147.55 104.48 147.55 104.5 147.3 104.27 147.55 104.48"/><path class="cls-9" d="M148.29,104.25s-.08,0-.09,0S148,104,148.29,104.25Z"/><polygon class="cls-13" points="135.05 76.47 129.03 89.79 129.03 149.77 135.05 136.45 135.05 76.47"/><polygon class="cls-13" points="107.28 89.8 101.25 103.12 101.25 163.1 107.28 149.77 107.28 89.8"/><path class="cls-14" d="M227.9,224.78a1.81,1.81,0,0,1-1.1-.74,10.2,10.2,0,0,0-14.35-.15,7.48,7.48,0,0,0-2.25,4.48c-.06.4.15,1-.39,1.14s-.66-.34-.91-.62c-4.6-5.24-13.5-2.39-15.78,2.3a9.75,9.75,0,0,0-.91,2.91c0,.27,0,.64-.28.76s-.5-.21-.7-.41c-5.83-5.67-14.1-3.47-16.43,4.37-.15.5-.12,1.08-.66,1.57a2.86,2.86,0,0,1-.64-1.83c-1.08-7.49,1.24-14,6.1-19.57a31.45,31.45,0,0,1,35.5-8.07,23.12,23.12,0,0,1,12.27,12,8,8,0,0,1,.4,1.1A5.49,5.49,0,0,1,227.9,224.78Z"/><path class="cls-15" d="M197.18,258.31c.67,2.3,1.33,4.59,2,6.89,1.48,5.39,3.11,10.73,4.66,16.09,1.05,3.63.29,5-3.3,6.07-1.21.36-2.43.72-3.65,1.05-2.44.66-4-.05-4.81-2.48-1-2.71-1.59-5.54-2.48-8.28-.34-1-.58-2.09-.87-3.13a1.42,1.42,0,0,0-1.6-1.22c-2.78,0-4-1-4.75-3.6-1-3.27-1.93-6.54-2.83-9.83A4.87,4.87,0,0,1,182,254.2a1.91,1.91,0,0,1,2.78.87,10.19,10.19,0,0,0,1.92,2c.36.32.7,1.22,1.24.83a1.64,1.64,0,0,0,.38-2c-.18-.4-.53-.7-.74-1.08a1.58,1.58,0,0,1,.07-2,2.45,2.45,0,0,1,2.42-.68,1.54,1.54,0,0,1,1.1,1.7,7.16,7.16,0,0,0,0,1.31,1.77,1.77,0,0,0,1.45,1.45c.66,0,.48-.89.6-1.36a10.69,10.69,0,0,0,.56-2.94c0-1.3.54-1.83,1.55-1.89a4.86,4.86,0,0,1,3.93,1.6c.4.43.83.83,1.21,1.27.68.79,1.17.67,1.61-.24a7.16,7.16,0,0,1,1.75-2.5c.73-.6.36-1.34.16-2q-2.57-8.92-5.14-17.84c-.23-.8-.52-1.6.68-2,1.67-.55,2.27.25,2.38,3.57a35.34,35.34,0,0,0,5.16,17.31,4.8,4.8,0,0,1,.25,5.29c-.93,1.54-1.77,3.14-2.7,4.68a3.11,3.11,0,0,1-4.94.7c-.75-.69-1.48-1.4-2.22-2.1Z"/><path class="cls-16" d="M231.91,278.29c-3.57,1-3.57,1-4.6-2.55-.89-3.06-.89-3.06-4-3-4.5.1-4.94-.3-5-4.71-.08-3.58,0-3.62,3.44-3a9.77,9.77,0,0,0,7.07-.94c2.29-1.39,2.27-3.69,0-5.1a9.18,9.18,0,0,0-3.9-1.14,46.27,46.27,0,0,1-5.59-1.06c-3.44-.83-6-2.72-6.89-6.22a9.65,9.65,0,0,1,2.61-10,3.3,3.3,0,0,0,1-4.2,23.87,23.87,0,0,1-.77-2.66,1.65,1.65,0,0,1,1.18-2.29c1.26-.4,2.52-.76,3.79-1.1a1.65,1.65,0,0,1,2.24,1.27c.37,1.26.8,2.51,1.09,3.79a1.54,1.54,0,0,0,1.89,1.33,21.42,21.42,0,0,1,4.8.12,1.91,1.91,0,0,1,1.83,1.91c.09,1.36.22,2.72.26,4.08s-.54,2-2,1.62a16.16,16.16,0,0,0-5.91-.7,6.11,6.11,0,0,0-3.71,1.85,2.17,2.17,0,0,0,.44,3.59,10.05,10.05,0,0,0,4.14,1.34,43.73,43.73,0,0,1,5.89,1c4.21,1.12,6.22,4.08,7,8.13.67,3.63-.17,6.83-3,9.24-1.17,1-1.55,1.83-.83,3.22a8.4,8.4,0,0,1,.61,2.25c.54,2.81.51,2.86-2.23,3.65Z"/><path class="cls-15" d="M184.79,238.11a6.28,6.28,0,0,1,7.78,4.32,6.3,6.3,0,0,1-12.12,3.46A6.24,6.24,0,0,1,184.79,238.11Z"/><path class="cls-17" d="M299.46,160.24a61.23,61.23,0,0,1-16-2.09c-14.14-4.07-25.27-12.23-33.06-24.74-4.25-6.83-6.95-14.46-10.5-21.65-.53-1.07-.26-1.65.79-2.15,2.55-1.21,5.1-2.4,7.61-3.69a37.87,37.87,0,0,0,18.11-19.74v0a1.71,1.71,0,0,1,2.08-.93,40.56,40.56,0,0,0,17.11,1.56c5.49-.75,10.49-2.87,15.44-5.17.78-.37,1.57-.71,2.34-1.07a1.06,1.06,0,0,1,1.64.58c3.74,8.71,8.88,16.85,11,26.21,4.34,19,.11,35.93-12.32,50.87l0,0A5.47,5.47,0,0,1,299.46,160.24ZM249.2,119.72a78.7,78.7,0,0,0,6.23,11.85C265.67,146.74,280,154.44,298.27,155a2.48,2.48,0,0,0,2.22-1c10.41-12.9,14.12-27.47,10.94-43.74-1.48-7.6-5.13-14.39-8.31-21.35-1-2.21-1.06-2.25-3.2-1.19a42.77,42.77,0,0,1-28.43,3.54,1.79,1.79,0,0,0-2.31,1.12c-3.92,7.62-10.35,13.52-17.71,18.51-4.5,1-5.84,1.5-4.7,3.64C247.67,116.23,248.39,118,249.2,119.72Z"/><path class="cls-18" d="M299.05,115.76c.83,1.78,1.64,3.56,2.48,5.33a1.49,1.49,0,0,1-.88,2.33c-1.58.68-3.11,1.46-4.67,2.16a1.22,1.22,0,0,0-.69,1.91c.72,1.49,1.35,3,2.1,4.5.58,1.14.45,1.95-.79,2.51-3.57,1.63-7.12,3.29-10.67,4.95-1.14.53-1.83.18-2.31-.95-.6-1.41-1.34-2.76-1.91-4.18s-1.23-1.66-2.53-1c-1.46.77-3,1.38-4.5,2.1a1.3,1.3,0,0,1-2-.67c-1.74-3.72-3.46-7.45-5.19-11.17-.46-1,0-1.61.91-2,1.51-.67,3-1.43,4.51-2.08,1.18-.49,1.38-1.18.81-2.3-.72-1.42-1.32-2.9-2-4.33-.54-1.07-.42-1.84.74-2.38q5.43-2.49,10.84-5a1.43,1.43,0,0,1,2.18.89c.59,1.35,1.32,2.64,1.84,4,.58,1.54,1.38,2,2.9,1.13,1.1-.65,2.37-1,3.48-1.67,1.66-1,2.55-.4,3.21,1.23s1.42,3.12,2.14,4.68Zm-4.61,2.5c-1.1-2.39-1.1-2.39-3.34-1.36-1.33.61-2.67,1.21-4,1.85a1.33,1.33,0,0,1-2.06-.76c-.73-1.62-1.55-3.2-2.23-4.83s-1.71-.91-2.67-.43-2.43.65-1.55,2.4c.8,1.58,1.48,3.22,2.25,4.82a1.34,1.34,0,0,1-.77,2.06c-1.61.72-3.19,1.54-4.82,2.23-1.82.77-.77,1.85-.36,2.84s.73,2.19,2.33,1.38,3.22-1.48,4.82-2.25a1.32,1.32,0,0,1,2.05.76c.73,1.62,1.54,3.2,2.24,4.83.77,1.81,1.84.77,2.83.35s2.2-.72,1.39-2.32-1.49-3.22-2.25-4.82a1.33,1.33,0,0,1,.76-2.06c1.39-.62,2.74-1.36,4.17-1.91S295.51,119.61,294.44,118.26Z"/><path class="cls-19" d="M486.76,57.57a15,15,0,0,1-4.28,10.81c-1.63,1.68-3.27,3.36-5,5a1.93,1.93,0,0,0-.47,2.78.82.82,0,0,1,.09.19c.44,1.61,2.37,3.16,1.56,4.6s-3.05,1.16-4.66,1.65c-3.57,1.08-3.58,1-3.59,4.69,0,1.49,0,3,0,4.47,0,.4.12,1-.34,1.13-.71.3-.88-.57-1.21-.88a6.76,6.76,0,0,1-1.47-1.65c-1.71-3.17-2.22-4.78-4.12-2.78-2.92,3.08-5.72,6.33-9.62,8.27-1,.47-.82,1.2-.55,2,.64,1.8,1.33,3.59,1.9,5.41.49,1.54-2.47,5.46-4,5.43a2.28,2.28,0,0,1-1.71-1.14c-1.16-1.52-2.33-3-3.46-4.58a2.17,2.17,0,0,0-2.47-1c-4.17.79-6.71-1.86-5.86-6.05a1.86,1.86,0,0,0-.86-2.14c-1.66-1.21-3.29-2.46-4.93-3.71-1.31-1-1.28-2-.2-3.21,2.78-3.11,2.78-3.07,6.89-1.7,5.37,1.78,3.91,2.3,7-2.42,1.62-2.45,4-4.24,5.95-6.34,1.8-1.9,1.84-1.87-.25-3.32q-9.72-6.69-19.43-13.39c-2.46-1.7-2.52-2.37-.49-4.45,1.29-1.32,2.62-2.59,3.89-3.93a2.51,2.51,0,0,1,3.36-.49c1.42.74,2.87,1.42,4.36,2,1.28.52,2.33,1.48,3.87.46,1-.63,1.63.27,2,1.23A4.87,4.87,0,0,0,453.8,57c.76-.19,1.69-.3,1.87.4.55,2.12,2.4,2.44,3.94,3.15C464.69,63,464.75,63,468.7,59c3.16-3.22,6.58-5.79,11.23-6.35a18,18,0,0,1,4.22.19,2.5,2.5,0,0,1,2.43,2.49C486.67,56.12,486.71,57,486.76,57.57Z"/><path class="cls-19" d="M494.3,92.57c-.12,2,.22,4.45-.39,6.83a15.58,15.58,0,0,1-8.05,10.19,4.7,4.7,0,0,1-5-.09c-5.6-3.15-8.19-8-8.35-14.33-.07-2.62,0-5.24,0-7.87a2.31,2.31,0,0,1,1.95-2.58c2.61-.68,5.19-1.46,7.76-2.24a4.26,4.26,0,0,1,2.5,0c2.51.76,5,1.56,7.56,2.16a2.36,2.36,0,0,1,2.07,2.87C494.22,89.08,494.3,90.65,494.3,92.57Zm-12,7.91a3.08,3.08,0,0,0,.95-.49c2-2,4-4,6-6,.43-.43.65-1,.15-1.5a1.06,1.06,0,0,0-1.54,0c-1,.89-1.91,1.89-2.91,2.78s-1.57,2.26-2.86,2.4c-1.08.11-1.56-1.29-2.41-1.9a1.67,1.67,0,0,0-.53-.33c-.92-.2-1.37.23-1.3,1.12S481.4,100.45,482.32,100.48Z"/><path class="cls-9" d="M383.6,240.47l-17.18-9a6.92,6.92,0,0,1-3-9.62Q370.2,208.9,377,196a6.94,6.94,0,0,1,9.62-3c.49.26,1,.48,1.46.78s.9.31,1.15-.34a6.39,6.39,0,0,1,.49-.93,3.06,3.06,0,0,1,5.42,2.83c-.83,1.7-.83,1.7.87,2.59,5.5,2.89,11,5.77,16.5,8.69.69.36,1,.26,1.31-.43a3.81,3.81,0,0,1,1.18-1.71,3.1,3.1,0,0,1,3.77,0,3,3,0,0,1,.83,3.78c-.79,1.59-.82,1.64.83,2.43a7.06,7.06,0,0,1,4.43,6.28,6.25,6.25,0,0,1-.74,3.41q-6.9,13.13-13.78,26.24a6.88,6.88,0,0,1-9.41,2.9Q392.25,245,383.6,240.47Zm14.55-27.71-7.53-4c-4.33-2.27-8.66-4.53-13-6.82-.58-.31-.89-.27-1.15.35s-.55,1.07-.83,1.6q-4.95,9.42-9.89,18.85a4.53,4.53,0,0,0,2,6.55q16.88,8.88,33.76,17.73c2.86,1.5,5.36.71,6.87-2.17q5.28-10,10.57-20.1c.35-.66.3-1-.39-1.32C411.77,219.92,405,216.33,398.15,212.76Zm1.1-2.26c1,.51,2,1,2.93,1.54,5.86,3.07,11.73,6.13,17.57,9.24.7.36,1,.27,1.3-.43.19-.49.5-.93.72-1.41a4.45,4.45,0,0,0-1.41-5.8,31.09,31.09,0,0,0-3.62-2c-1-.54-1.16-1.08-.64-2.09l1.18-2.27a.52.52,0,0,0-.15-.73.55.55,0,0,0-.79.2c-.08.12-.15.26-.22.39-.76,1.45-1.5,2.89-2.28,4.33-.3.55-.35,1,.23,1.42a1.14,1.14,0,0,1,.21,1.62,1.21,1.21,0,0,1-1.58.44,2.77,2.77,0,0,1-.81-.55,3,3,0,0,1-.5-3.66c.77-1.51.77-1.5-.74-2.3l-18.37-9.64c-1-.55-1.22-1.1-.69-2.14l1.05-2c.19-.36.41-.77-.12-1s-.67.17-.84.51l-2.42,4.59a.85.85,0,0,0,.24,1.23,1.2,1.2,0,0,1,.22,1.74,1.25,1.25,0,0,1-1.68.3,3,3,0,0,1-1.32-3.81,12.75,12.75,0,0,1,.66-1.27c.22-.38.17-.64-.25-.84-.61-.29-1.19-.65-1.8-.93a4.5,4.5,0,0,0-5.75,1.46,12.31,12.31,0,0,0-1,1.69c-.56,1.06-.56,1.06.47,1.6Z"/><path class="cls-9" d="M408.57,239.65c-.44.84-.88,1.68-1.33,2.52a4.68,4.68,0,0,1-6.26,2c-1.42-.73-2.84-1.48-4.25-2.23-.87-.46-1.13-1.11-.74-1.83s1-.84,1.87-.41l3.59,1.88c1.81.94,3,.59,3.9-1.19.79-1.48,1.56-3,2.34-4.45.56-1.06,1.17-1.35,1.93-.94s.84,1.06.31,2.07Z"/></g></g></svg>