<svg xmlns="http://www.w3.org/2000/svg" xmlns:xlink="http://www.w3.org/1999/xlink" viewBox="0 0 644.86 396.5"><defs><style>.cls-1{fill:url(#linear-gradient);}.cls-2{fill:url(#linear-gradient-2);}.cls-3{fill:#bfd1ff;}.cls-4{fill:#80b377;}.cls-5,.cls-6{fill:none;stroke:#2e5e26;stroke-miterlimit:10;}.cls-5{stroke-width:0.69px;}.cls-6{stroke-width:0.75px;}.cls-7{fill:#ffbb10;}.cls-8{fill:#e03726;}.cls-9{fill:#d8948f;}.cls-10{fill:#c67775;}.cls-11{fill:#050528;}.cls-12{fill:#203e87;}.cls-13{fill:#0e0108;}.cls-14{fill:#abf;}.cls-15{fill:#fff;}.cls-16{fill:#0048fd;}</style><linearGradient id="linear-gradient" x1="183.46" y1="-97.37" x2="183.46" y2="349.27" gradientTransform="translate(145.61 -91.67) rotate(45)" gradientUnits="userSpaceOnUse"><stop offset="0" stop-color="#ffd97a"/><stop offset="1" stop-color="#fff"/></linearGradient><linearGradient id="linear-gradient-2" x1="38.82" y1="269.13" x2="510.14" y2="269.13" gradientUnits="userSpaceOnUse"><stop offset="0" stop-color="#bfd1ff"/><stop offset="1" stop-color="#fff"/></linearGradient></defs><title>affiliates-main-image</title><g id="Layer_2" data-name="Layer 2"><g id="Layer_1-2" data-name="Layer 1"><circle class="cls-1" cx="183.46" cy="129.93" r="129.93" transform="translate(-38.14 167.78) rotate(-45)"/><path class="cls-2" d="M38.82,392.25l239.77-230.8c24.48-23.57,71.57-19.47,89,7.73L510.14,392.25Z"/><path class="cls-3" d="M111.68,392.25l298.18-287c25.27-24.33,74.77-16.13,85.53,14.17l96.84,272.84Z"/><path class="cls-4" d="M19.08,297.15c-.36-8.34,50.59,11,47.93-6.88-2.75-17-19.33-2.76-41.25-6.44C4.39,280.54,4,236.92,8.27,230.68c4.77-6.37,42.17,8.54,43.3-2.9.9-12.12-37.31-1.75-47.1-8.69-9.21-6.71-2.14-56.29,2.9-61,5.87-4.42,25.86,27.24,28.36,13.19,2.31-13.42-19.75-17.83-27-24-9.76-8.5-5.09-32.5-2.5-45.37,12.3.89,36.41,5.9,40.49,19.9,3.1,10.33-3.16,32.76,9.19,37.62,13.72,5.5-4.57-30.22,1.21-33.68,6.07-4.3,55.57,20.49,56.56,36,1.18,14.92-30.39,39.32-20.56,46.85,10.19,8.14,21.2-34.26,28.67-34.28,8.07-.39,45.59,42,31.9,62.05-13.42,19.33-35.83,17.1-26.62,34,10.06,19,36.41-32.81,41.42-25.35,5.66,7.8,21.65,45.73-3.46,64-15.17,11.35-36.88,34.34-45,53.51-15.55-15.45-46-25-64.67-26.22C25.14,334,19.59,304.84,19.08,297.15Z"/><path class="cls-5" d="M12,110.27a723.45,723.45,0,0,1,113.59,280.3"/><path class="cls-5" d="M1.62,179a261.49,261.49,0,0,0,59.24,15"/><path class="cls-5" d="M89.37,137.57s-8.43,55.08-19.54,75.14"/><path class="cls-5" d="M6.17,246.5S46,254.07,86.9,252.77"/><path class="cls-5" d="M143.29,194S111,265.67,95.56,276.11"/><path class="cls-5" d="M19.7,301.8S69.14,315,107,311.65"/><path class="cls-5" d="M175.12,259.33S147,305.2,113,333.07"/><path class="cls-4" d="M624,290.51c.38-9.11-55.29,12-52.38-7.51,3-18.57,21.13-3,45.08-7,23.35-3.6,23.75-51.26,19.11-58.08-5.22-7-46.08,9.34-47.32-3.17-1-13.25,40.76-1.91,51.46-9.5,10.07-7.33,2.34-61.51-3.16-66.62-6.42-4.82-28.26,29.77-31,14.42-2.52-14.67,21.58-19.48,29.49-26.23C646,117.5,640.87,91.26,638,77.2c-13.44,1-39.78,6.45-44.24,21.75-3.38,11.29,3.46,35.8-10,41.11-15,6,5-33-1.33-36.8-6.63-4.71-60.71,22.38-61.8,39.36-1.29,16.31,33.21,43,22.47,51.19-11.13,8.9-23.16-37.43-31.33-37.45-8.82-.42-49.82,45.88-34.86,67.8,14.67,21.12,39.16,18.69,29.09,37.18-11,20.75-39.78-35.85-45.26-27.7-6.18,8.53-23.65,50,3.79,69.93,16.57,12.41,40.29,37.53,49.14,58.48,17-16.88,50.24-27.29,70.67-28.65C617.39,330.75,623.45,298.92,624,290.51Z"/><path class="cls-6" d="M631.79,85.34A790.56,790.56,0,0,0,507.66,391.62"/><path class="cls-6" d="M643.09,160.4a286,286,0,0,1-64.72,16.43"/><path class="cls-6" d="M547.21,115.17s9.21,60.19,21.35,82.11"/><path class="cls-6" d="M638.12,234.2s-43.55,8.28-88.21,6.85"/><path class="cls-6" d="M488.29,176.83s35.24,78.32,52.15,89.73"/><path class="cls-6" d="M623.34,294.63s-54,14.42-95.44,10.76"/><path class="cls-6" d="M453.5,248.22s30.69,50.12,67.9,80.58"/><path class="cls-7" d="M319.39,306.05c0-8.15-7.67-14.76-17.13-14.76s-17.14,6.61-17.14,14.76H251.91v86.78H352.6V306.05Z"/><path class="cls-8" d="M308.34,193.72c.24-8.15-7.24-14.93-16.7-15.13s-17.32,6.24-17.56,14.39l-33.2-.72L238.35,279l36.08.79c0-8.43,7.95-15.25,17.73-15.25s17.73,6.84,17.73,15.28c0,.25,0,.49-.05.73l29.17.63,2.53-86.74Z"/><ellipse class="cls-7" cx="526.01" cy="68.22" rx="77.23" ry="66.55"/><path class="cls-9" d="M373.35,100.75s-18.7-6.2-18.92-4.87,5.8,3.93,5.8,3.93-9,1-13.89,1.23a4.09,4.09,0,0,0-3.84,3l-.94,4.22s9.08.85,14,1,19.79-.13,19.79-.13Z"/><path class="cls-9" d="M541.21,152.9s-12.54,13.47-11.15,14,6.11-3.57,6.11-3.57-1.63,7.64-2.86,11.78a3.51,3.51,0,0,0,2.12,4.06l4.39,2.05s3.7-7.19,5.37-11.21,5.89-16.28,5.89-16.28Z"/><path class="cls-9" d="M481.26,70.74h0a6.6,6.6,0,0,0,.16-10.28l-11.9-10.55a9.46,9.46,0,0,0-11.93-.14h0a6.61,6.61,0,0,0-.17,10.29l11.9,10.54A9.46,9.46,0,0,0,481.26,70.74Z"/><path class="cls-10" d="M457.07,50.2l1-.86a8.66,8.66,0,0,1,10.92.13l4.22,3.74c-.66,6-4.18,12.16-7.35,14.35l-9-8A6,6,0,0,1,457.07,50.2Z"/><path class="cls-9" d="M435.14,56.79a15.17,15.17,0,0,1-3.24-4l-.08-.12h0C428.8,47,430,40,435.52,35.44a19.67,19.67,0,0,1,23.26-.91h0c3.34,1.68,7.41,8.61,9.49,12.5a9.23,9.23,0,0,1,1,5.65c-.93,6.54-5.79,19.95-14.46,18.55C447.06,70,439.87,62.34,435.14,56.79Z"/><path class="cls-9" d="M471.67,39.39a7.57,7.57,0,0,0-9.6-.11,5.29,5.29,0,0,0-.13,8.27,7.58,7.58,0,0,0,9.59.11A5.3,5.3,0,0,0,471.67,39.39Z"/><polygon class="cls-11" points="442.34 60.09 442.34 60.09 442.34 60.09 442.34 60.09"/><path class="cls-11" d="M442.34,60.09Z"/><path class="cls-8" d="M465.89,67.56,423.53,95.69a209,209,0,0,1-50.68,3.38l-3.17,13.17s32.59,14.89,64.56,2.93S483.76,83.7,483.76,83.7Z"/><path class="cls-8" d="M546.38,100.37C534.79,84,502.11,58,494.59,58c-10.45,0-18.92,7.3-18.92,16.31,0,7.39,47.23,39.16,47.23,39.16S534,130.12,536.31,155l15.57.9S564.51,126,546.38,100.37Z"/><path class="cls-8" d="M601.23,85a58.26,58.26,0,0,0,2.39-16.47,59.5,59.5,0,0,0-10.71-33.8c-15.41.53-87.43,3-99.51,3.83-13.54.93-20.91,14-20.91,14,3.45,11.27-6.22,15.36-6.22,15.36C474.67,84.23,535.9,101,535.9,101Z"/><path class="cls-11" d="M444.06,35.06s9.94,9.29,16.88,8a6.05,6.05,0,0,1,2-4.54,14.1,14.1,0,0,0-4.17-4h0a19.67,19.67,0,0,0-23.26.91C430,40,428.8,47,431.83,52.61h0l.08.12a15.17,15.17,0,0,0,3.24,4S449.46,49.88,444.06,35.06Z"/><path class="cls-12" d="M501.9,182.93c61.9,33.74,81.12,104.16,42.78,158.19S424.84,412.51,361.79,380.4Z"/><path class="cls-13" d="M489.45,278H422.88c.65-.38,1.31-.75,2-1.09a18.25,18.25,0,0,1-5.52-2.28c-2.29-1.33-4.64-2.86-5.9-4.79a4.43,4.43,0,0,1,.39-5.68c1.58-1.83,4.2-3.18,6.8-4.24a37.34,37.34,0,0,1,7.23-2.11,7.8,7.8,0,0,1-4.47-7.05,6.41,6.41,0,0,1,2.46-4.7,12.8,12.8,0,0,1,6.45-2.44,35,35,0,0,1,6.71-.12c-.81-1.63.39-3.64,2.19-4.85a16.28,16.28,0,0,1,9.11-2.38,15.72,15.72,0,0,1,9,2.72,10.92,10.92,0,0,1,2.84,3.07c3,1.64,4.87,4.2,5,6.85,4.06-1.08,9.34.75,11.82,3,3.39,3.11,1.16,6.73-1.62,9.63,4.43.19,8.37,2.57,9.71,5.56,1.49,3.31-.3,6.87-3.4,9.49A17,17,0,0,1,489.45,278Z"/><path class="cls-9" d="M455.52,293.4h0c4.71-.19,8.38-3.66,8.15-7.72l-.82-14.9c-.22-4.06-4.26-7.22-9-7h0c-4.71.2-8.37,3.67-8.15,7.73l.82,14.9C446.79,290.44,450.82,293.6,455.52,293.4Z"/><path class="cls-10" d="M453.16,263.78l1.46-.06c4.3-.17,8,2.72,8.2,6.43l.29,5.28c-5.21,4.2-12.66,6.82-16.78,6.66l-.62-11.24C445.5,267.14,448.86,264,453.16,263.78Z"/><path class="cls-9" d="M431.35,256.09a13.29,13.29,0,0,1,.7-5,.78.78,0,0,1,0-.14h0c2.11-6.06,8.44-10.6,16.19-10.92,9.11-.37,16.93,5.23,18.4,12.79v0c1.23,3.21-1.08,10.83-2.53,15a10.6,10.6,0,0,1-3.62,4.89c-5.81,4.44-20,11.82-25.46,5.73C430.13,273,430.63,263.05,431.35,256.09Z"/><path class="cls-9" d="M472.69,264c-.18-3.28-3.41-5.8-7.21-5.65s-6.73,2.94-6.55,6.21,3.41,5.8,7.21,5.65S472.87,267.29,472.69,264Z"/><path class="cls-13" d="M431.35,256.09a13.29,13.29,0,0,1,.7-5,.78.78,0,0,1,0-.14h0c2.11-6.06,8.44-10.6,16.19-10.92,9.11-.37,16.93,5.23,18.4,12.79v0a40.86,40.86,0,0,1,1.27,5.81c-1.87.83-4.54,2.94-5.12,4.58a.57.57,0,0,1-.89.2,7.21,7.21,0,0,1-1.46-8.89,6.38,6.38,0,0,1-5.3-2.57,9.13,9.13,0,0,1-1.71-3.88,4.8,4.8,0,0,1-.57.75,5.52,5.52,0,0,1-3.46,1.67A5,5,0,0,1,445.4,249a4.43,4.43,0,0,1-.49,1.56,4,4,0,0,1-3,2.1,4.12,4.12,0,0,1-3.47-1.33,1.58,1.58,0,0,1-.12-.15,4.39,4.39,0,0,1-2.16,3.6,3,3,0,0,1-3.15-.08,1.81,1.81,0,0,1-.3-.25,5.41,5.41,0,0,1-1.46,2.41C431.3,256.6,431.32,256.34,431.35,256.09Z"/><path class="cls-9" d="M339.54,350.87a4.09,4.09,0,0,1,3.84-3c4.94-.25,13.88-1.24,13.88-1.24s-6-2.6-5.8-3.93c.18-1.05,12.08,2.67,16.92,4.22,6.07.42,47.46,2.31,63.14-22.73L458.81,343s-10.76,38.13-91.71,13.08c-4.76.06-11.45.13-14.47,0-5-.15-14-1-14-1Z"/><path class="cls-7" d="M422.63,331.14l23.6-47.05s10.85,1.36,17.39-5.31c37.34,5.69,56.21,56.51,63.41,82.1-23.18,20.86-54.22,33.08-86.53,35.26V363.5Z"/><polygon class="cls-14" points="237.14 350.46 189.21 279.25 19.82 297.26 19.82 366.68 237.14 350.46"/><path class="cls-13" d="M159.72,151.71l-1,5.38c-.34,1.84,1.16,3.45-1.26,5.5h-81a31,31,0,0,1,1.68-4.31c1.49-3.09,3.74-6.13,7.75-7a26,26,0,0,1,6.48-.16c2,.08,3.9-.12,4.91-1.83a20.07,20.07,0,0,0,1.71-5.05,17.66,17.66,0,0,1,1.81-4.69c3.57-5.89,12-5.47,18-8.24a16.17,16.17,0,0,0,1.43-.76c.84-.83,1.59-1.74,2.32-2.61,1.74-2.1,3.36-4.28,5.2-6.32,3-3.28,6.76-6.33,11.49-7.44a14,14,0,0,1,3-.69,16.89,16.89,0,0,1,9.58,1.94,20.14,20.14,0,0,1,7.54,6.55,19.46,19.46,0,0,1,3,8.8,38.55,38.55,0,0,1-.66,10.44C161.07,144.75,160.37,148.23,159.72,151.71Z"/><path class="cls-9" d="M136.93,168.64h0c-4.85-.19-8.63-3.78-8.4-8l.85-15.38c.23-4.18,4.39-7.44,9.24-7.24h0c4.85.2,8.64,3.78,8.41,8l-.85,15.38C146,165.58,141.79,168.84,136.93,168.64Z"/><path class="cls-10" d="M138.62,138.06h0c-4.85-.2-9,3.06-9.24,7.24l-.25,4.5a.61.61,0,0,0,.25.51c5.06,4,12.05,6.53,16.33,6.66a.7.7,0,0,0,.75-.62L147,146C147.26,141.84,143.47,138.26,138.62,138.06Z"/><path class="cls-9" d="M161.87,130.15a13.62,13.62,0,0,0-.71-5.11c0-.07,0-.13,0-.15h0c-2.18-6.25-8.71-10.94-16.7-11.26-9.4-.39-17.47,5.38-19,13.19a0,0,0,0,0,0,0c-1.28,3.31,1.11,11.17,2.61,15.47a10.85,10.85,0,0,0,3.73,5c6,4.58,20.59,12.19,26.27,5.91C163.13,147.61,162.62,137.33,161.87,130.15Z"/><path class="cls-9" d="M119.23,138.33c.18-3.38,3.51-6,7.43-5.83s7,3,6.76,6.41-3.51,6-7.43,5.82S119,141.7,119.23,138.33Z"/><path class="cls-13" d="M125.41,126.84a0,0,0,0,1,0,0c1.51-7.81,9.58-13.58,19-13.19,8,.32,14.52,5,16.7,11.26h0s0,.08,0,.15a7.44,7.44,0,0,1,.73,3.71s-3.89-1.69-12.22-8.42c-.54-.44-2.63-5.69-2.63-5.69l2.25,5.51s-1,14-24.24,12.35l.21-.58A11,11,0,0,1,125.41,126.84Z"/><path class="cls-9" d="M97.85,276.6c-3.57-.81-10.37-1.48-14.4,3.69a3,3,0,0,1-1.79,1c-6.7,1.33-38.31,7.71-38.9,10.05l-.15.63c-.39,1.64,1.06,3.18,3,3.18H96.43a2.9,2.9,0,0,0,3.06-2.54l.63-13.38A2.7,2.7,0,0,0,97.85,276.6Z"/><path class="cls-11" d="M89.1,239.72l112.6,4.45a15,15,0,0,1,3.21.46c5.25,1.36,19,6.74,19,25.8,0,21.18-31.33,26-37.64,26.71a17.15,17.15,0,0,1-2,.11l-76.55-1.05c-7.54-.11-13.51-5.54-13.22-12l.45-10.06c.23-5.33-3.76-10.17-9.74-11.58l-.92-.23C69.32,258.33,73.49,239.11,89.1,239.72Z"/><path class="cls-9" d="M222.23,220.62a.29.29,0,0,1,.2-.2c1.84-.61,18.55-6.07,18.75-4.82.17,1-3.22,2.73-4.89,3.52a.27.27,0,0,0,.11.52c2.49.27,8.94.93,12.87,1.13a4.09,4.09,0,0,1,3.84,3l.87,3.92a.28.28,0,0,1-.27.33c-1.7.16-9.31.83-13.69,1s-17-.08-19.4-.12a.3.3,0,0,1-.31-.34Z"/><path class="cls-12" d="M68.81,237.4c1.71-10.91,13.91-77.28,58.74-85.49a1.45,1.45,0,0,0,1.3-1.53h0a1.61,1.61,0,0,1,2.32-1.44l16.58,6.7-.7.7a1.25,1.25,0,0,0-.29,1.41L163.85,197a.78.78,0,0,1,.05.14c2,7.27,8.83,12.83,17.37,14.17l41.29,6.5a1.47,1.47,0,0,1,1.34,1.38v12.88a1.47,1.47,0,0,1-1.38,1.39c-8.46,1.08-53.24,6.58-68.05,3.52a1.55,1.55,0,0,0-2,1.52l.28,2.06a1.51,1.51,0,0,1-1.7,1.57L70.35,239A1.46,1.46,0,0,1,68.81,237.4Z"/><polygon class="cls-15" points="223.9 218.06 216.38 216.88 216.84 234.2 223.9 233.32 223.9 218.06"/><path class="cls-16" d="M253.33,91.55c-9.32-1.38-18.18,4-19.78,12.06s4.67,15.67,14,17l-5.61,28.2,32.73,4.84c1.6-8,10.46-13.44,19.79-12.06s15.59,9,14,17.05l32.73,4.84,17-85.53L259,63.34Z"/></g></g></svg>