<svg xmlns="http://www.w3.org/2000/svg" xmlns:xlink="http://www.w3.org/1999/xlink" viewBox="0 0 576.03 439.71"><defs><style>.cls-1{isolation:isolate;}.cls-2{fill:url(#linear-gradient);}.cls-3{fill:url(#linear-gradient-2);}.cls-4{fill:#bfd1ff;}.cls-5{fill:#80b377;}.cls-6{fill:none;stroke:#2e5e26;stroke-miterlimit:10;stroke-width:0.7px;}.cls-7{fill:#5dcbf4;}.cls-8{fill:url(#linear-gradient-3);}.cls-9{fill:url(#linear-gradient-4);}.cls-10{fill:url(#linear-gradient-5);}.cls-11{fill:url(#linear-gradient-6);}.cls-12{fill:url(#linear-gradient-7);}.cls-13{fill:url(#linear-gradient-8);}.cls-14{fill:url(#linear-gradient-9);}.cls-15{fill:url(#linear-gradient-10);}.cls-16{fill:url(#linear-gradient-11);}.cls-17{fill:url(#linear-gradient-12);}.cls-18{fill:url(#linear-gradient-13);}.cls-19{fill:#e03726;}.cls-20{fill:#203e87;}.cls-21{mix-blend-mode:soft-light;}.cls-22{fill:#fff;}.cls-23{fill:#bdd0fb;}.cls-24{fill:url(#linear-gradient-14);}.cls-25{fill:url(#linear-gradient-15);}.cls-26{fill:#ffbb10;}.cls-27{fill:url(#linear-gradient-16);}.cls-28{fill:url(#linear-gradient-17);}.cls-29{fill:url(#linear-gradient-18);}.cls-30{fill:url(#linear-gradient-19);}.cls-31{fill:url(#linear-gradient-20);}.cls-32{fill:url(#linear-gradient-21);}.cls-33{fill:url(#linear-gradient-22);}.cls-34{fill:url(#linear-gradient-23);}.cls-35{fill:url(#linear-gradient-24);}</style><linearGradient id="linear-gradient" x1="125.37" y1="-93.95" x2="125.37" y2="337.02" gradientTransform="translate(125.37 -51.93) rotate(45)" gradientUnits="userSpaceOnUse"><stop offset="0" stop-color="#ffd97a"/><stop offset="1" stop-color="#fff"/></linearGradient><linearGradient id="linear-gradient-2" x1="360.62" y1="363.7" x2="482.54" y2="-39.66" gradientUnits="userSpaceOnUse"><stop offset="0" stop-color="#bfd1ff"/><stop offset="1" stop-color="#fff"/></linearGradient><linearGradient id="linear-gradient-3" x1="261.35" y1="78.54" x2="267.43" y2="78.54" gradientUnits="userSpaceOnUse"><stop offset="0" stop-color="#dae3fe"/><stop offset="1" stop-color="#e9effd"/></linearGradient><linearGradient id="linear-gradient-4" x1="269.05" y1="75.29" x2="285.27" y2="75.29" xlink:href="#linear-gradient-3"/><linearGradient id="linear-gradient-5" x1="32.92" y1="97.13" x2="37.49" y2="97.13" xlink:href="#linear-gradient-3"/><linearGradient id="linear-gradient-6" x1="38.71" y1="94.69" x2="50.91" y2="94.69" xlink:href="#linear-gradient-3"/><linearGradient id="linear-gradient-7" x1="98.31" y1="48.26" x2="127.93" y2="48.26" xlink:href="#linear-gradient-3"/><linearGradient id="linear-gradient-8" x1="219.78" y1="40.76" x2="238.82" y2="40.76" xlink:href="#linear-gradient-3"/><linearGradient id="linear-gradient-9" x1="177.89" y1="80.41" x2="193.05" y2="80.41" xlink:href="#linear-gradient-3"/><linearGradient id="linear-gradient-10" x1="170.82" y1="97.61" x2="200.04" y2="97.61" xlink:href="#linear-gradient-3"/><linearGradient id="linear-gradient-11" x1="343.24" y1="55.61" x2="354.16" y2="55.61" xlink:href="#linear-gradient-3"/><linearGradient id="linear-gradient-12" x1="338.14" y1="68" x2="359.2" y2="68" xlink:href="#linear-gradient-3"/><linearGradient id="linear-gradient-13" x1="158.66" y1="179.7" x2="207.21" y2="591.72" gradientUnits="userSpaceOnUse"><stop offset="0" stop-color="#e1473d"/><stop offset="1" stop-color="#e9605a"/></linearGradient><linearGradient id="linear-gradient-14" x1="975.64" y1="201.28" x2="935.25" y2="250.93" gradientTransform="matrix(-1, 0, 0, 1, 1299.32, 0)" gradientUnits="userSpaceOnUse"><stop offset="0" stop-color="#febbba"/><stop offset="1" stop-color="#ff928e"/></linearGradient><linearGradient id="linear-gradient-15" x1="250.93" y1="195.39" x2="311.75" y2="279.3" gradientTransform="matrix(1, 0, 0, 1, 0, 0)" xlink:href="#linear-gradient-14"/><linearGradient id="linear-gradient-16" x1="-7784.42" y1="1507.06" x2="-7781.51" y2="1486.43" gradientTransform="matrix(-0.96, 0.28, 0.28, 0.96, -7575.6, 956.97)" xlink:href="#linear-gradient-14"/><linearGradient id="linear-gradient-17" x1="309.07" y1="184.66" x2="340.1" y2="220.33" gradientTransform="matrix(1, 0, 0, 1, 0, 0)" xlink:href="#linear-gradient-14"/><linearGradient id="linear-gradient-18" x1="-8535.07" y1="1038.99" x2="-8507.9" y2="1070.23" gradientTransform="matrix(-1, -0.01, -0.01, 1, -8206.45, -950.44)" xlink:href="#linear-gradient-14"/><linearGradient id="linear-gradient-19" x1="5803.34" y1="502.36" x2="5868.16" y2="387.94" gradientTransform="translate(-5553.58 50.09) rotate(-0.54)" xlink:href="#linear-gradient-14"/><linearGradient id="linear-gradient-20" x1="5876.55" y1="392.01" x2="5779.61" y2="423.01" gradientTransform="translate(-5553.58 50.09) rotate(-0.54)" xlink:href="#linear-gradient-14"/><linearGradient id="linear-gradient-21" x1="933.12" y1="217.34" x2="934.37" y2="247.16" gradientTransform="matrix(-1, 0, 0, 1, 1299.32, 0)" gradientUnits="userSpaceOnUse"><stop offset="0" stop-color="#09005d"/><stop offset="1" stop-color="#1a0f91"/></linearGradient><linearGradient id="linear-gradient-22" x1="946.66" y1="193.78" x2="920.65" y2="225.76" xlink:href="#linear-gradient-21"/><linearGradient id="linear-gradient-23" x1="932.43" y1="207.07" x2="920.25" y2="222.05" xlink:href="#linear-gradient-14"/><linearGradient id="linear-gradient-24" x1="452.86" y1="2.35" x2="325.06" y2="185.58" gradientTransform="matrix(1, 0, 0, 1, 0, 0)" xlink:href="#linear-gradient-14"/></defs><title>bloggers-right-image</title><g class="cls-1"><g id="Layer_2" data-name="Layer 2"><g id="Layer_1-2" data-name="Layer 1"><circle class="cls-2" cx="125.37" cy="125.37" r="125.37" transform="translate(-51.93 125.37) rotate(-45)"/><path class="cls-3" d="M411.07,426.86H278.28l99-348.22a20.86,20.86,0,0,1,20.07-15.16h117Z"/><path class="cls-4" d="M480.9,426.86H348.1l89.07-313.41a68.78,68.78,0,0,1,66.16-50h47.5a25.17,25.17,0,0,1,24.22,32.06Z"/><path class="cls-5" d="M448.23,353c.27-6.36-38.61,8.41-36.58-5.24,2.1-13,14.75-2.11,31.48-4.92,16.31-2.51,16.59-35.8,13.35-40.56-3.64-4.87-32.19,6.52-33.05-2.22-.69-9.25,28.47-1.33,35.94-6.63,7-5.12,1.64-43-2.2-46.53-4.49-3.37-19.74,20.79-21.65,10.07-1.76-10.25,15.07-13.61,20.59-18.32,7.46-6.49,3.89-24.81,1.91-34.63-9.38.68-27.78,4.5-30.89,15.19-2.37,7.88,2.41,25-7,28.71-10.47,4.19,3.48-23.07-.93-25.7-4.63-3.29-42.4,15.63-43.16,27.49-.9,11.39,23.19,30,15.69,35.76-7.78,6.21-16.18-26.15-21.88-26.17-6.16-.29-34.8,32-24.35,47.36,10.25,14.75,27.35,13.06,20.32,26-7.68,14.49-27.79-25-31.61-19.34-4.32,6-16.53,34.9,2.64,48.84,11.58,8.66,28.15,26.21,34.33,40.84,11.86-11.79,35.09-19.06,49.36-20C443.6,381.1,447.83,358.87,448.23,353Z"/><path class="cls-6" d="M453.65,210.37A552.2,552.2,0,0,0,367,424.29"/><path class="cls-6" d="M461.55,262.79a199.24,199.24,0,0,1-45.21,11.47"/><path class="cls-6" d="M394.58,231.2s6.43,42,14.91,57.35"/><path class="cls-6" d="M458.08,314.34s-30.42,5.78-61.61,4.78"/><path class="cls-6" d="M353.43,274.26S378,329,389.85,336.94"/><path class="cls-6" d="M447.75,356.54S410,366.62,381.1,364.06"/><path class="cls-6" d="M329.13,324.13s21.44,35,47.42,56.28"/><circle class="cls-7" cx="273.32" cy="77.54" r="23.69" transform="translate(129.04 322.29) rotate(-75.32)"/><rect class="cls-8" x="261.35" y="68.6" width="6.08" height="19.86" rx="1.11" ry="1.11"/><path class="cls-9" d="M281.15,68.6h-4V63.85a2.24,2.24,0,0,0-2.34-2.54h-.1A2.67,2.67,0,0,0,271.94,64l-1.32,4.73c-.61,0-1.57.44-1.57,1V87.88c0,.61,1.42,1.4,2,1.4h10.07a4.38,4.38,0,0,0,4.12-4.45v-12A4.15,4.15,0,0,0,281.15,68.6Z"/><circle class="cls-7" cx="41.92" cy="96.38" r="17.82" transform="translate(-61.51 115.04) rotate(-76.72)"/><rect class="cls-10" x="32.92" y="89.65" width="4.57" height="14.94" rx="0.83" ry="0.83"/><path class="cls-11" d="M47.82,89.65h-3V86.08a1.7,1.7,0,0,0-1.76-1.92H43a2,2,0,0,0-2.08,2l-1,3.55c-.46,0-1.18.33-1.18.79v13.64c0,.46,1.07,1.06,1.53,1.06h7.58a3.3,3.3,0,0,0,3.09-3.35v-9A3.13,3.13,0,0,0,47.82,89.65Z"/><circle class="cls-7" cx="112.89" cy="45.25" r="29.02" transform="translate(40.98 143.34) rotate(-75.59)"/><path class="cls-12" d="M125.34,37.17c-3.15-3.09-8.06-2.16-11.44.68a1.31,1.31,0,0,1-1.68,0c-3.43-2.78-8.33-3.62-11.43-.47a8.67,8.67,0,0,0,.11,12.27L112.34,60.9a1.31,1.31,0,0,0,1.86,0l11.24-11.43A8.69,8.69,0,0,0,125.34,37.17Z"/><circle class="cls-7" cx="229.16" cy="38.82" r="18.64" transform="translate(130.57 249.3) rotate(-74.52)"/><path class="cls-13" d="M237.15,33.63c-2-2-5.18-1.39-7.35.44a.85.85,0,0,1-1.08,0c-2.2-1.78-5.35-2.32-7.34-.3a5.57,5.57,0,0,0,.07,7.88l7.35,7.23a.86.86,0,0,0,1.2,0l7.22-7.35A5.58,5.58,0,0,0,237.15,33.63Z"/><circle class="cls-7" cx="185.43" cy="88.47" r="27.05" transform="translate(53.61 246.06) rotate(-75.59)"/><path class="cls-14" d="M193.05,79.64c0,4.18-3.39,8.7-7.58,8.7s-7.58-4.52-7.58-8.7,3.4-7.16,7.58-7.16S193.05,75.45,193.05,79.64Z"/><path class="cls-15" d="M176.07,104.46h18.5a4.47,4.47,0,0,0,4.26-3.12l1-3.11a4.48,4.48,0,0,0-2.7-5.57c-7.53-2.75-15.32-2.4-23.29.26a4.45,4.45,0,0,0-2.86,5.4l.76,2.83A4.49,4.49,0,0,0,176.07,104.46Z"/><circle class="cls-7" cx="348.67" cy="61.42" r="19.49" transform="translate(199.82 382.64) rotate(-75.13)"/><path class="cls-16" d="M354.16,55.05c0,3-2.44,6.28-5.46,6.28s-5.46-3.26-5.46-6.28a5.47,5.47,0,0,1,10.92,0Z"/><path class="cls-17" d="M341.92,72.94h13.33a3.23,3.23,0,0,0,3.08-2.25l.71-2.24a3.21,3.21,0,0,0-1.94-4c-5.43-2-11-1.73-16.78.18a3.21,3.21,0,0,0-2.06,3.9l.55,2A3.23,3.23,0,0,0,341.92,72.94Z"/><path class="cls-18" d="M288.66,324.68c.08,36.36-10.05,64.59-30.59,84.59S208,439.33,169.19,439.41q-56.83.13-87.4-28.88T51.1,326.89L50.85,210.8h75.53l.24,110q.06,29.46,11.08,42.79t32.49,13.25q23,0,33.31-13.27c6.88-8.82,10.27-23.32,10.23-43.34l-.24-109.47h74.93Z"/><path class="cls-19" d="M288.67,323.74c.08,34.78-10.05,61.74-30.6,80.87S208,433.36,169.19,433.44q-56.83.12-87.4-27.63T51.11,325.88l-.25-114.56H126.4l.23,108.76q.06,28.19,11.07,40.89t32.49,12.66q23-.06,33.32-12.71t10.23-41.39l-.23-108.21h74.92Z"/><path class="cls-20" d="M124.1,157.85,53,158a2.12,2.12,0,0,0-2.21,2.1l.11,53.34,75.54-.16-.12-53.35A2.07,2.07,0,0,0,124.1,157.85Z"/><path class="cls-20" d="M286.24,157.51l-70.72.15a2,2,0,0,0-2.14,2.09l.12,53.34,74.92-.16-.11-53.34A2,2,0,0,0,286.24,157.51Z"/><g class="cls-21"><path class="cls-22" d="M61.46,331.61a1.21,1.21,0,0,1-1.22-1.05L60,223.73a1.23,1.23,0,0,1,2.44,0l.23,106.83A1.22,1.22,0,0,1,61.46,331.61Z"/></g><g class="cls-21"><path class="cls-22" d="M239.6,411.06a1.06,1.06,0,0,1-.41-2c24.19-10.11,34.15-37.27,38.25-58.27a191.71,191.71,0,0,0,3.11-43.83,1.05,1.05,0,0,1,2.1-.14,192.75,192.75,0,0,1-3.14,44.37c-2.66,13.64-6.81,25.37-12.33,34.85-6.94,11.93-16.09,20.33-27.18,25A1.14,1.14,0,0,1,239.6,411.06Z"/></g><polygon class="cls-23" points="105.71 79.56 90.62 109.17 102.09 109.17 98.16 131.32 121.61 101.82 106.11 100.56 105.71 79.56"/><polygon class="cls-23" points="134.57 112.88 114.1 130.41 122.73 133.95 112.89 149.49 139.63 134.59 128.38 128.83 134.57 112.88"/><polygon class="cls-23" points="63.2 114.95 68.4 141.39 75.73 135.62 84.43 151.82 84.59 121.21 74.04 128.19 63.2 114.95"/><polygon class="cls-23" points="254.64 83.15 239.55 112.77 251.02 112.77 247.1 134.91 270.54 105.41 255.05 104.15 254.64 83.15"/><polygon class="cls-23" points="296.85 100.56 276.38 118.09 285.01 121.63 275.17 137.17 301.91 122.27 290.65 116.51 296.85 100.56"/><polygon class="cls-23" points="199.81 103.15 205.02 129.59 212.35 123.81 221.05 140.02 221.21 109.41 210.66 116.38 199.81 103.15"/><path class="cls-20" d="M326.7,181.89s5.93-14.53-16.44-11.6-16.94,11.38-18.7,18-11.16,14.08-37.28,24.26-18.37,37.95-6.64,47.17,18.13,3.09,20.86,19,13.61,28.82,27.19,15.34,29-29.43,24.7-50.33.58-16.95,9-26.54S320,198.28,326.7,181.89Z"/><path class="cls-24" d="M321.71,220.81c3.55-3.6,7,5.06,7.93,7.23,2.33,5.48,4.75,10.4,9.67,14.15,3,2.33,7.15,3.81,11,2.7,13.85-4,13.92-15.16,14.23-23.49a5.37,5.37,0,0,1,2.82-5.45,5.56,5.56,0,0,0,2.76-2.91s1.35,3-.31,4.42a1.92,1.92,0,0,0-.74,1.62l.61-.09c4.16-.52,0,5.45,0,5.45s4,21.82-14.44,30.5c-9.14,4.29-16.16,3.28-20.92,1.15a15.44,15.44,0,0,1-6.26-4.28,12,12,0,0,1-1.08-1.19v-.07C319.58,241.17,318.3,224.27,321.71,220.81Z"/><path class="cls-25" d="M251,200a.84.84,0,0,1,1.56.17c.76,2.72,2.59,7.47,6.44,9.16a.45.45,0,0,0,.45,0,.44.44,0,0,0,.21-.4,2,2,0,0,0-.35-1.07,2.68,2.68,0,0,1-.13-2.43.84.84,0,0,1,.77-.57.86.86,0,0,1,.82.5,4.74,4.74,0,0,0,1.32,1.76,5.35,5.35,0,0,1,1.14,6c-2.08,8.08-5.19,18.77,6.94,26.58s29.23-14.74,29.23-14.74l.76,20.41s-22.34,16.14-37.57,2.56-5.13-33.36-5.13-33.36S245.88,209.84,251,200Z"/><path class="cls-26" d="M321.55,219.43c-3.63-1.09-14.2-3.1-24.25,6.18a6.22,6.22,0,0,0-1.79,6.2c2.7,9.94,9.82,39.31,3.58,52,0,0,11,12.14,23,2.36,0,0,5.39-23.49,12.45-33.8,4.87-7.12-7.77-26.73-11-31.47A3.72,3.72,0,0,0,321.55,219.43Z"/><path class="cls-27" d="M311.53,199.67s-5.37,15.19-5.77,21.89a11.46,11.46,0,0,0,11.52-1.86s.59-15.16,1.44-17.88Z"/><path class="cls-28" d="M323.08,184.43A6.21,6.21,0,0,0,318.7,180c-2.86-.77-6.87-1.41-9.42.07-4.32,2.5-4.32,13.74-4.32,13.74s5.52,16.26,15.21,13.23C327.58,204.77,324.8,190.85,323.08,184.43Z"/><path class="cls-20" d="M301.56,178.78c2.66-6.4,10.93-4.51,10.93-4.51s6.45,1.53,7.35,4.45c.41,1.31-1.4,2.58-3.77,3.59A17.37,17.37,0,0,0,305.86,195l-.25,1.3S298.9,185.18,301.56,178.78Z"/><path class="cls-29" d="M309.58,195.42s-3.4-7.64-6.68-4.32,2.62,8.34,5.56,7.11Z"/><path class="cls-30" d="M336.13,335.5c-.05,1.06,1.83,9.52,2.84,14a7.44,7.44,0,0,1-.79,5.33l-35.29,59.39a7.87,7.87,0,0,0-.92,2.31c-.65,2.78-2,9.61-1.29,15.82l1.82,3.8-7.89-1.8-1.72-21.2,2.24-1.36a10.63,10.63,0,0,0,4.29-5c3.19-7.75,11.11-27.47,13.16-37.09C314.9,358.78,327,349.9,327,349.9l-2.13-5Z"/><path class="cls-20" d="M285.84,427.09s4.26-6.76,4.76-9.39,1.9-7.28,4.53-5.88c0,0,1.24,12.78.81,17.77s5.64,4.84,5.64,4.84a5.61,5.61,0,0,1,2.9,1.46,1.42,1.42,0,0,1-1,2.39,34.14,34.14,0,0,1-8.46-.48,2.58,2.58,0,0,1-2.08-2.39l-.88-14.71-5.38,6.79Z"/><path class="cls-31" d="M315.05,345s-1.25,53.11-1.42,60.66,1.2,24.26,8.76,29.26l-3.29,2.43A43.91,43.91,0,0,1,311,427.09c-4.52-7.56-5.88-8.94-5.88-8.94l1.5-3.06a6.74,6.74,0,0,0,.54-4.33c-1.63-7.91-7.08-34.22-8.57-39.88-1.75-6.69-1.88-15.62,4.23-23.1S315.05,345,315.05,345Z"/><path class="cls-20" d="M308.06,439.71a.46.46,0,0,1-.46-.4c-.25-1.77-1.3-8.87-2.16-10.71-1-2.1-4.19-11,0-11.72,0,0,10.42,15.23,12.42,17.28a3.94,3.94,0,0,0,4.53.72,7.49,7.49,0,0,1,3.42,2.45,1.38,1.38,0,0,1-1.09,2.22l-7,.07a4.94,4.94,0,0,1-4.63-3.11c-1.23-3.09-3.36-7.62-5.83-9.63l1.29,12.31a.48.48,0,0,1-.47.52Z"/><path class="cls-19" d="M323.77,280.46s-1.59,5,.84,13.35l15.08,52.64a1.63,1.63,0,0,1-1,2c-4.51,1.62-19.33,6.19-39.57,4.8a2.29,2.29,0,0,1-2.09-1.79c-1.33-6-5.88-26.48-6.82-30.69-3.57-16-7.55-33.31,10-43.77C308.25,280.44,315.78,282.48,323.77,280.46Z"/><path class="cls-32" d="M358.69,230a6.15,6.15,0,0,1-.21-3c.21-2.14.19-4.27.23-6.42.09-5.57,0-11.15.48-16.71.1-1.2,0-2.4.06-3.59.24-3,2-3.93,5-4.56,2.5-.54,5.23-1.27,7.81-.72a2.37,2.37,0,0,1,2.13,1.83c.51,4.29.38,32.39-4.79,33.17-1.75.26-3.49.57-5.22.88-1.24.22-2.89.69-4.14.27A2.15,2.15,0,0,1,358.69,230Z"/><path class="cls-33" d="M360.75,230a6,6,0,0,1-.22-3c.22-2.14.2-4.27.23-6.42.09-5.57,0-11.15.48-16.71.1-1.2,0-2.4.07-3.59.23-3,2-3.93,5-4.56,2.5-.54,5.22-1.27,7.81-.72a2.36,2.36,0,0,1,2.12,1.83c.51,4.29.39,32.39-4.79,33.17-1.75.26-3.48.57-5.22.88-1.24.22-2.89.69-4.13.27A2.1,2.1,0,0,1,360.75,230Z"/><path class="cls-34" d="M374.94,223.82s1.14-.77,2.07-5.36,1.85-7.39,0-9.52-4.73-2.22-4.73,0,.48,6.33.15,9.52S372.88,229.19,374.94,223.82Z"/><path class="cls-35" d="M424,117.34l-125.53-1.23a6.81,6.81,0,0,0-6.88,6.8v19.23a9.52,9.52,0,0,0,9.49,9.49h52.55c.13,0,.25.12.32.29l8.32,18.41a1.1,1.1,0,0,0,1,.64,1.13,1.13,0,0,0,1-.62l10-18.51a.34.34,0,0,1,.28-.21l49.64-.28a6.72,6.72,0,0,0,6.69-6.67l.18-20.1A7.17,7.17,0,0,0,424,117.34Z"/><path class="cls-22" d="M315.81,128.67c0,2.89-2.34,6-5.23,6s-5.24-3.12-5.24-6a5.24,5.24,0,0,1,10.47,0Z"/><path class="cls-22" d="M304.08,145.81h12.78a3.09,3.09,0,0,0,2.95-2.15l.68-2.15a3.09,3.09,0,0,0-1.86-3.85c-5.2-1.9-10.58-1.65-16.09.18a3.09,3.09,0,0,0-2,3.73l.53,2A3.11,3.11,0,0,0,304.08,145.81Z"/><path class="cls-22" d="M390.24,128.76c-2.15-2.11-5.51-1.47-7.82.47a.92.92,0,0,1-1.15,0c-2.35-1.9-5.7-2.48-7.82-.33a5.94,5.94,0,0,0,.08,8.39l7.82,7.69a.9.9,0,0,0,1.27,0l7.69-7.82A5.94,5.94,0,0,0,390.24,128.76Z"/><rect class="cls-22" x="394.71" y="137.03" width="26.01" height="8.22" rx="1.22" ry="1.22"/><rect class="cls-22" x="325.59" y="137.03" width="26.01" height="8.22" rx="1.22" ry="1.22"/></g></g></g></svg>