<svg width="510" height="663" viewBox="0 0 510 663" fill="none" xmlns="http://www.w3.org/2000/svg">
<path fill-rule="evenodd" clip-rule="evenodd" d="M337.841 545.644C369.621 521.425 365.803 462.673 380.838 419.893C396.644 374.92 439.57 335.852 428.095 288.842C416.517 241.405 365.718 233.536 330.144 212.196C303.933 196.473 276.872 190.611 248.799 181.289C212.105 169.104 177.034 135.545 140.688 149.284C101.483 164.104 62.3762 203.9 54.8958 254.586C47.452 305.025 87.962 344.222 105.045 390.794C117.986 426.072 120.074 467.791 142.762 494.128C166.042 521.153 198.491 527.059 229.478 535.242C265.822 544.84 306.07 569.856 337.841 545.644Z" stroke="#74E1CE"/>
<path fill-rule="evenodd" clip-rule="evenodd" d="M320.767 481.549C343.925 463.901 341.143 421.088 352.099 389.914C363.617 357.142 394.897 328.673 386.535 294.416C378.098 259.849 341.081 254.114 315.158 238.564C296.057 227.107 276.338 222.835 255.881 216.042C229.142 207.163 203.586 182.708 177.1 192.72C148.531 203.52 120.034 232.519 114.583 269.454C109.159 306.209 138.679 334.772 151.127 368.709C160.557 394.417 162.079 424.818 178.612 444.01C195.576 463.703 219.222 468.007 241.802 473.969C268.286 480.963 297.615 499.193 320.767 481.549Z" stroke="#74E1CE"/>
<path fill-rule="evenodd" clip-rule="evenodd" d="M301.484 423.61C316.509 412.16 314.704 384.382 321.813 364.156C329.286 342.893 349.581 324.421 344.156 302.195C338.682 279.767 314.664 276.046 297.845 265.957C285.452 258.523 272.658 255.752 259.385 251.344C242.036 245.583 225.455 229.717 208.27 236.213C189.734 243.22 171.245 262.035 167.708 285.999C164.189 309.846 183.342 328.379 191.419 350.398C197.537 367.077 198.524 386.802 209.251 399.254C220.258 412.031 235.6 414.824 250.25 418.692C267.433 423.23 286.462 435.058 301.484 423.61Z" stroke="#74E1CE"/>
</svg>
