<svg xmlns="http://www.w3.org/2000/svg" xmlns:xlink="http://www.w3.org/1999/xlink" viewBox="0 0 557.63 496.76"><defs><style>.cls-1,.cls-13,.cls-14,.cls-15,.cls-19,.cls-24,.cls-30,.cls-36{isolation:isolate;}.cls-2{fill:url(#linear-gradient);}.cls-3{fill:#bfd1ff;}.cls-4{fill:url(#linear-gradient-2);}.cls-5{fill:#f5f5f5;}.cls-6{fill:#80b377;}.cls-27,.cls-28,.cls-34,.cls-35,.cls-7{fill:none;}.cls-7{stroke:#2e5e26;stroke-width:0.75px;}.cls-37,.cls-7{stroke-miterlimit:10;}.cls-8{fill:#2e5e26;}.cls-9{fill:#407bff;}.cls-10,.cls-23{opacity:0.56;mix-blend-mode:multiply;}.cls-10{fill:url(#linear-gradient-3);}.cls-11{fill:#3465d9;}.cls-12{fill:#263238;}.cls-13,.cls-14,.cls-15,.cls-26,.cls-36,.cls-37{fill:#fff;}.cls-13,.cls-19{opacity:0.2;}.cls-14{opacity:0.3;}.cls-15{opacity:0.6;}.cls-16{fill:url(#linear-gradient-4);}.cls-17{fill:#ffbb10;}.cls-18{fill:#eda507;}.cls-20{fill:#050505;}.cls-21{fill:#e4897b;}.cls-22{fill:#e03726;}.cls-23{fill:url(#linear-gradient-5);}.cls-24,.cls-36{opacity:0.1;}.cls-25{fill:#203e87;}.cls-27,.cls-28{stroke:#263238;}.cls-27,.cls-28,.cls-34,.cls-35{stroke-linecap:round;stroke-linejoin:round;}.cls-27{stroke-width:0.72px;}.cls-28,.cls-37{stroke-width:0.5px;}.cls-29{fill:url(#linear-gradient-6);}.cls-30{opacity:0.4;}.cls-31{fill:url(#linear-gradient-7);}.cls-32{fill:#5dcbf4;}.cls-33{fill:#3ea6c6;}.cls-34,.cls-35{stroke:#11397f;stroke-width:0.75px;}.cls-35{stroke-dasharray:5.89 5.89;}.cls-37{stroke:#203e87;}</style><linearGradient id="linear-gradient" x1="73.99" y1="362.79" x2="449.34" y2="362.79" gradientUnits="userSpaceOnUse"><stop offset="0" stop-color="#bfd1ff"/><stop offset="1" stop-color="#fff"/></linearGradient><linearGradient id="linear-gradient-2" x1="228.89" y1="-58.24" x2="228.89" y2="208.9" gradientTransform="translate(267.93 -160.83) rotate(80.54)" gradientUnits="userSpaceOnUse"><stop offset="0" stop-color="#ffd97a"/><stop offset="1" stop-color="#fff"/></linearGradient><linearGradient id="linear-gradient-3" x1="484.15" y1="458.87" x2="534.81" y2="458.87" gradientUnits="userSpaceOnUse"><stop offset="0.13"/><stop offset="1" stop-color="#fff"/></linearGradient><linearGradient id="linear-gradient-4" x1="264.93" y1="136.91" x2="297.58" y2="136.91" gradientUnits="userSpaceOnUse"><stop offset="0.19" stop-color="#ff9c91"/><stop offset="1" stop-color="#f27c6f"/></linearGradient><linearGradient id="linear-gradient-5" x1="293.04" y1="295.39" x2="349.78" y2="365.99" xlink:href="#linear-gradient-3"/><linearGradient id="linear-gradient-6" x1="345.65" y1="206.95" x2="386.85" y2="206.95" gradientTransform="matrix(0.99, 0, 0, 0.98, 12.22, -40.74)" xlink:href="#linear-gradient-4"/><linearGradient id="linear-gradient-7" x1="383.22" y1="178.23" x2="401.47" y2="178.23" xlink:href="#linear-gradient-4"/></defs><title>faq-help</title><g class="cls-1"><g id="Layer_2" data-name="Layer 2"><g id="Layer_1-2" data-name="Layer 1"><path class="cls-2" d="M74,487l191-232.84A42.52,42.52,0,0,1,335.78,262L449.34,487Z"/><path class="cls-3" d="M132,487,369.48,197.45c20.12-24.55,59.55-16.27,68.11,14.29L514.72,487Z"/><circle class="cls-4" cx="228.89" cy="77.71" r="77.71" transform="translate(114.62 290.72) rotate(-80.54)"/><ellipse id="_Path_" data-name="&lt;Path&gt;" class="cls-5" cx="278.81" cy="480.48" rx="278.81" ry="16.28"/><path class="cls-6" d="M59.34,308.1c-.41-9.72,59,12.85,55.89-8-3.21-19.81-22.54-3.23-48.1-7.51-24.91-3.84-25.34-54.7-20.39-62,5.56-7.43,49.17,10,50.49-3.38,1-14.14-43.5-2-54.92-10.13-10.74-7.83-2.49-65.64,3.38-71.1,6.85-5.15,30.15,31.77,33.07,15.39,2.69-15.66-23-20.79-31.47-28-11.38-9.91-5.93-37.9-2.92-52.91,14.35,1,42.46,6.88,47.21,23.21,3.62,12-3.68,38.2,10.72,43.87,16,6.4-5.32-35.25,1.42-39.28,7.07-5,64.79,23.89,65.94,42,1.38,17.4-35.43,45.86-24,54.63,11.88,9.49,24.72-39.95,33.43-40,9.41-.45,53.16,49,37.2,72.35-15.65,22.54-41.79,19.95-31,39.68,11.73,22.14,42.45-38.25,48.29-29.56,6.6,9.1,25.25,53.33-4,74.63-17.68,13.23-43,40.05-52.43,62.4-18.14-18-53.62-29.13-75.42-30.57C66.42,351.05,60,317.08,59.34,308.1Z"/><path class="cls-7" d="M51.05,89.17A843.72,843.72,0,0,1,183.51,416"/><path class="cls-7" d="M39,169.27a304.68,304.68,0,0,0,69.07,17.52"/><path class="cls-7" d="M141.31,121s-9.83,64.22-22.79,87.62"/><path class="cls-7" d="M44.29,248s46.48,8.83,94.13,7.31"/><path class="cls-7" d="M204.18,186.79s-37.61,83.58-55.65,95.76"/><path class="cls-7" d="M60.07,312.5S117.72,327.89,161.9,324"/><path class="cls-7" d="M241.3,263s-32.75,53.49-72.45,86"/><path class="cls-8" d="M509.54,435.15c.21-1.47,5.25-36.19-4.84-48.18a10.92,10.92,0,0,0-8.37-4.13c-20.35-.47-23.13,15.87-23.16,16l2.4.37c.1-.58,2.51-14.42,20.7-14a8.5,8.5,0,0,1,6.58,3.26c9.38,11.16,4.34,45.92,4.28,46.26Z"/><path class="cls-8" d="M510.77,433.57l2.42-.08c0-.31-.8-32,14.81-38.54,15.29-6.4,22.17,6.77,22.46,7.34l2.17-1.09c-.08-.16-8.16-15.79-25.57-8.48C509.91,399.9,510.72,432.2,510.77,433.57Z"/><path class="cls-8" d="M510.7,436.06c0-.51.14-50.6,9.91-65.26,9.38-14.06,24.51-7.44,25.15-7.15l1-2.21c-.17-.08-17.63-7.79-28.17,8-10.17,15.26-10.32,64.51-10.32,66.6Z"/><path class="cls-9" d="M493.42,384.05s8.89,3.27,6.25,11-30.74,20.46-30.74,20.46-11.77-10.79-1-28.33S493.18,378.51,493.42,384.05Z"/><path class="cls-9" d="M521.05,368.16s-6.31-.67-5.8-4.52,24.52-13.73,38.69,2.26c0,0-9.07,15.59-22.19,15.79S521.05,368.16,521.05,368.16Z"/><path class="cls-9" d="M527.53,393.84s-4.36-3.52.34-5.24,27.75-1.22,28,21.61c0,0-26.85,4.47-30.17-4.23S527.53,393.84,527.53,393.84Z"/><path class="cls-6" d="M493.42,384.05s8.89,3.27,6.25,11-30.74,20.46-30.74,20.46-11.77-10.79-1-28.33S493.18,378.51,493.42,384.05Z"/><path class="cls-6" d="M521.05,368.16s-6.31-.67-5.8-4.52,24.52-13.73,38.69,2.26c0,0-9.07,15.59-22.19,15.79S521.05,368.16,521.05,368.16Z"/><path class="cls-6" d="M527.53,393.84s-4.36-3.52.34-5.24,27.75-1.22,28,21.61c0,0-26.85,4.47-30.17-4.23S527.53,393.84,527.53,393.84Z"/><polygon class="cls-9" points="488.65 481.68 530.32 481.68 534.81 436.06 484.15 436.06 488.65 481.68"/><polygon class="cls-10" points="488.65 481.68 530.32 481.68 534.81 436.06 484.15 436.06 488.65 481.68"/><rect class="cls-9" x="481.93" y="431.02" width="55.11" height="10.07" transform="translate(1018.96 872.11) rotate(180)"/><rect class="cls-11" x="481.93" y="431.02" width="55.11" height="10.07" transform="translate(1018.96 872.11) rotate(180)"/><path class="cls-12" d="M441.48,449l-41.43-4.08V386.68H383.63v58.21L342,449a8.06,8.06,0,0,0-7.28,8v6.23h114V457A8.06,8.06,0,0,0,441.48,449Z"/><path class="cls-13" d="M441.48,449l-41.43-4.08V386.68H383.63v58.21L342,449a8.06,8.06,0,0,0-7.28,8v6.23h114V457A8.06,8.06,0,0,0,441.48,449Z"/><circle class="cls-12" cx="339.14" cy="470.94" r="10.74"/><circle class="cls-12" cx="444.38" cy="470.94" r="10.74"/><path class="cls-12" d="M380.8,347.33h22.08a0,0,0,0,1,0,0v45.92a5.94,5.94,0,0,1-5.94,5.94H386.75a5.94,5.94,0,0,1-5.94-5.94V347.33A0,0,0,0,1,380.8,347.33Z"/><path class="cls-14" d="M380.8,347.33h22.08a0,0,0,0,1,0,0v45.92a5.94,5.94,0,0,1-5.94,5.94H386.75a5.94,5.94,0,0,1-5.94-5.94V347.33A0,0,0,0,1,380.8,347.33Z"/><path class="cls-12" d="M431.1,256.31s3.13,77.65-18.49,91h24.68s19.12-26.45,13.72-91Z"/><path class="cls-14" d="M431.1,256.31s3.13,77.65-18.49,91h24.68s19.12-26.45,13.72-91Z"/><path class="cls-12" d="M335.08,336.47H445.7a0,0,0,0,1,0,0v9.62a7.19,7.19,0,0,1-7.19,7.19H342.27a7.19,7.19,0,0,1-7.19-7.19v-9.62A0,0,0,0,1,335.08,336.47Z" transform="translate(780.78 689.75) rotate(180)"/><rect class="cls-12" x="330.47" y="344.87" width="119.83" height="8.4" rx="2.89" ry="2.89" transform="translate(780.78 698.15) rotate(180)"/><rect class="cls-15" x="330.47" y="344.87" width="119.83" height="8.4" rx="2.89" ry="2.89" transform="translate(780.78 698.15) rotate(180)"/><rect class="cls-12" x="396.55" y="214.69" width="81.48" height="57.4" rx="20.97" ry="20.97"/><path class="cls-16" d="M297.58,151.24l-7.89-20.81s3.38-3.13,1.06-6.31S273.87,112,271.21,113.57s-8.54,7.5-5.36,10.79,17.3,8.77,17.3,8.77l7,27.3Z"/><path class="cls-9" d="M352.7,190.8s-35.91-7.38-39.8-9.14-18.35-44.1-18.35-44.1l-11.08,5.18s8.92,42.48,18,52.58,48,18.65,48,18.65Z"/><path class="cls-17" d="M349.52,214l-.66-.15c-2-.44-8.09-1.89-15.39-4-11.84-3.44-26.75-8.7-32-14.46-9.1-10.11-18-52.59-18-52.59l11.07-5.18s14.46,42.34,18.37,44.1,39.79,9.14,39.79,9.14Z"/><polygon class="cls-18" points="294.73 136.73 297.02 141.14 282.78 146.05 283.33 140.65 294.73 136.73"/><path class="cls-19" d="M349.8,213.38c-2-.29-8.22-1.26-15.66-2.82,4.24-7.32,16.66-11.09,16.66-11.09Z"/><path class="cls-20" d="M403.32,161.5s2.11,19.88-5.26,24.77-43.61-.84-47.72-8.84S361.7,147.7,361.7,147.7Z"/><polygon class="cls-21" points="256.66 423.19 266.11 425.46 270.9 412.41 275.24 400.54 264.47 395.94 260.33 410.35 256.66 423.19"/><polygon class="cls-19" points="260.33 410.35 270.9 412.41 275.24 400.54 264.47 395.94 260.33 410.35"/><path class="cls-9" d="M261.28,403.46l13.12,4.88s35-87.48,42.17-87.78,80.4,33.35,98.75,14.68-8.18-63.62-8.18-63.62-44.13-6.29-47.45,3.67a68.16,68.16,0,0,0-1.87,8.95c-.51,3-.85,5.6-.85,5.6h0c-1.37-.35-45.67-11.78-63.13,0C276.08,301.84,261.28,403.46,261.28,403.46Z"/><path class="cls-22" d="M261.28,403.46l13.12,4.88s35-87.48,42.17-87.78,80.4,33.35,98.75,14.68-8.18-63.62-8.18-63.62-44.13-6.29-47.45,3.67a68.16,68.16,0,0,0-1.87,8.95c-.51,3-.85,5.6-.85,5.6h0c-1.37-.35-45.67-11.78-63.13,0C276.08,301.84,261.28,403.46,261.28,403.46Z"/><polygon class="cls-21" points="336.72 460.5 346.14 458.09 344.32 444.57 342.64 432.17 330.99 433.22 334.02 447.66 336.72 460.5"/><polygon class="cls-19" points="334.09 447.95 344.39 444.83 342.68 432.3 331.01 433.28 334.09 447.95"/><polygon class="cls-22" points="279.81 403.49 260.71 396.99 259.9 404.82 274.38 409.94 279.81 403.49"/><path class="cls-9" d="M383.63,339.73s-3,.07-49.28-2.09c0,0,6.92,57.88,10.69,101.2L331.2,441.2s-33.08-92.77-32.72-107.51,17.26-19.05,17.26-19.05S348.72,333.69,383.63,339.73Z"/><path class="cls-15" d="M383.63,339.73s-3,.07-49.28-2.09c0,0,6.92,57.88,10.69,101.2L331.2,441.2s-33.08-92.77-32.72-107.51,17.26-19.05,17.26-19.05S348.72,333.69,383.63,339.73Z"/><path class="cls-22" d="M383.63,339.73s-3,.07-49.28-2.09c0,0,6.92,57.88,10.69,101.2L331.2,441.2s-33.08-92.77-32.72-107.51,17.26-19.05,17.26-19.05S348.72,333.69,383.63,339.73Z"/><path class="cls-23" d="M383.63,339.73s-3,.07-49.28-2.09c0,0-.08-7.09,3.69,36.24l-24.63,15.24s-15.29-40.69-14.93-55.43,17.26-19.05,17.26-19.05S348.72,333.69,383.63,339.73Z"/><polygon class="cls-22" points="347.06 434.64 328.04 436.81 331.71 444.26 347.11 442.29 347.06 434.64"/><path class="cls-24" d="M357,289.84l25.81,5.38s-14.27-7.88-25-11C357.31,287.28,357,289.84,357,289.84Z"/><polygon class="cls-12" points="406.07 264.76 407.14 271.63 359.68 275.29 358.43 267.17 406.07 264.76"/><polygon class="cls-25" points="406.07 264.76 407.14 271.63 359.68 275.29 358.43 267.17 406.07 264.76"/><rect class="cls-9" x="390.49" y="264.16" width="2.36" height="12.01" transform="translate(808.91 498.86) rotate(174.13)"/><rect class="cls-26" x="369.77" y="266.82" width="10.42" height="7.9" transform="translate(766.55 516.94) rotate(176.32)"/><rect class="cls-9" x="361.35" y="265.45" width="2.36" height="12.01" transform="translate(750.94 504.37) rotate(174.13)"/><rect class="cls-15" x="390.49" y="264.16" width="2.36" height="12.01" transform="translate(808.91 498.86) rotate(174.13)"/><rect class="cls-15" x="361.35" y="265.45" width="2.36" height="12.01" transform="translate(750.94 504.37) rotate(174.13)"/><path class="cls-17" d="M351.84,190.14a86.33,86.33,0,0,0,27.34,3c15.23-.78,33.43,6.62,33.43,6.62l-6.54,65-47.64,2.41S342.42,212.9,351.84,190.14Z"/><path class="cls-20" d="M359.49,153.45s2.68-31.57,29.06-20.1c33.12,14.4,6.78,52.84-9.39,45S359.49,153.45,359.49,153.45Z"/><path class="cls-19" d="M366.89,194.92l.76,17.84,5.91-8.39s-2.11,19.72-.87,30.46c0,0,1.13-19.26,3.81-30.46l6.28,8.39,9-17.73S377.2,189.79,366.89,194.92Z"/><path class="cls-21" d="M375.06,198.24l13.64-3.85c-8.4-5.79-4.17-18.72-4.17-18.72L371,180.42a41.07,41.07,0,0,1,1.45,5.77c1.41,8.43-2.39,9.11-2.39,9.11Z"/><path class="cls-19" d="M371,180.42a41.07,41.07,0,0,1,1.45,5.77c6.47-2.59,12.06-10.52,12.06-10.52Z"/><path class="cls-27" d="M367.78,146a5.7,5.7,0,0,0-5-.07"/><path class="cls-12" d="M388.46,163s-3.42-11.07-.9-18.47c0,0-21.57-14.94-28.07,8.88,0,0,2.42-21.89,23.1-17.82s13.93,34.16,1.32,40.78C383.91,176.41,390.56,170,388.46,163Z"/><path class="cls-21" d="M385.94,165.14a5.39,5.39,0,0,1,6.72-3.55c3.62,1.23,3.7,9.23-5.93,9C385.35,170.58,384.89,169.12,385.94,165.14Z"/><path class="cls-28" d="M380.32,139.56s-4.44,13.13,4.33,20"/><path class="cls-29" d="M382.05,140.92c-5-1.4-11.83-3.75-14.89-2-4.05,2.35-5.88,10.85-7.92,17.63-2.62,8.75-5.06,19.47-2.95,21.55,3,2.94,9.78,4,15.89,5.89,4.18,1.32,11.93,4.39,13.89,1,4-6.85,8.27-27.24,10.24-38C397,143.11,386.45,142.14,382.05,140.92Z"/><path class="cls-20" d="M379.89,140.94s.46,20.76,12.92,23.25-1.16-26.68-1.16-26.68-18.55-12.11-30.91-3.58-1.25,19.52-1.25,19.52S362.11,138,379.89,140.94Z"/><path class="cls-9" d="M396.44,168.46c-1.58,4.22-5.65,6.6-9.08,5.31s-4.94-5.76-3.35-10,5.65-6.6,9.08-5.31S398,164.24,396.44,168.46Z"/><path class="cls-30" d="M396.44,168.46c-1.58,4.22-5.65,6.6-9.08,5.31s-4.94-5.76-3.35-10,5.65-6.6,9.08-5.31S398,164.24,396.44,168.46Z"/><path class="cls-9" d="M392.48,161.54s5.15-23.11-6.42-29.17a35.61,35.61,0,0,1,3.91.76c1.49.44,10.74,9.81,6.07,30.58Z"/><path class="cls-19" d="M392.48,161.54s5.15-23.11-6.42-29.17a35.61,35.61,0,0,1,3.91.76c1.49.44,10.74,9.81,6.07,30.58Z"/><path class="cls-9" d="M370.77,174.76l-.86-.13.23-1.42a26.35,26.35,0,0,0,18.25-3.87l.85,1.16A27.13,27.13,0,0,1,370.77,174.76Z"/><g class="cls-19"><path d="M370.77,174.76l-.86-.13.23-1.42a26.35,26.35,0,0,0,18.25-3.87l.85,1.16A27.13,27.13,0,0,1,370.77,174.76Z"/></g><path class="cls-9" d="M396,167.88c-1,2.79-3.74,4.36-6,3.51s-3.26-3.81-2.21-6.6,3.73-4.36,6-3.51S397,165.09,396,167.88Z"/><path class="cls-9" d="M369.49,175.23l-1.16-.15a1.57,1.57,0,0,1-1.35-1.75h0a1.57,1.57,0,0,1,1.76-1.35l1.15.15a1.57,1.57,0,0,1,1.35,1.76h0A1.56,1.56,0,0,1,369.49,175.23Z"/><path class="cls-30" d="M369.49,175.23l-1.16-.15a1.57,1.57,0,0,1-1.35-1.75h0a1.57,1.57,0,0,1,1.76-1.35l1.15.15a1.57,1.57,0,0,1,1.35,1.76h0A1.56,1.56,0,0,1,369.49,175.23Z"/><polygon class="cls-18" points="385.04 189.44 376.5 197.84 379.92 208.12 391.8 195.03 385.04 189.44"/><polygon class="cls-18" points="372.69 191.2 374.07 197.66 369.65 206.79 366.89 194.93 372.69 191.2"/><path class="cls-31" d="M383.22,196.73l5-18.16s-2.41-4.53-1.89-5.47,3.11-13.14,4.95-14.47,9.41.94,10.17,2.17-7.25,17.77-7.25,17.77l-2.92,19.67Z"/><path class="cls-9" d="M412.61,199.78c13.65,14-13.71,45.63-29.39,44.28s.39-58.76.39-58.76l10,1.66s-3.52,24.84-2.41,26.79S408,195.08,412.61,199.78Z"/><path class="cls-17" d="M412.61,199.78c13.65,14-13.71,45.63-29.39,44.28s.39-58.76.39-58.76l10,1.66s-3.52,24.84-2.41,26.79S408,195.08,412.61,199.78Z"/><polygon class="cls-18" points="382.78 183.47 381.29 188.21 395.29 189.44 395.29 185.3 382.78 183.47"/><rect class="cls-15" x="354.77" y="221.01" width="7.94" height="12.97" rx="1.14" ry="1.14"/><rect class="cls-19" x="355.25" y="221.87" width="6.45" height="8.82"/><rect class="cls-12" x="357.9" y="217.88" width="1.42" height="5.2"/><path class="cls-25" d="M241,441.55a13.11,13.11,0,0,1,4.56-1.16h0s5.47-3.21,10.88-15.7l6.09,0A5,5,0,0,1,267.2,428a2.67,2.67,0,0,1,.17.84,33.88,33.88,0,0,1-.46,4.38c-.55,4.56-3.56,14.32-3.56,14.32l-1-.26,1.87-9.08c.63-3.09-2.62-.11-4.12,3s-3.81,6.24-10.53,4.7C241.7,444.09,238.54,443,241,441.55Z"/><path class="cls-21" d="M257.54,421.42s-7.6,15.9-12,19c0,0,5.87,3.5,12-4.28,7.9-10.08,9.83-7.26,9.83-7.26a28.22,28.22,0,0,0-.95-5.14C265.24,420.47,257.54,421.42,257.54,421.42Z"/><path class="cls-25" d="M324.72,479.45a13.12,13.12,0,0,1,4.16-2.21h0s4.54-4.42,6.84-17.83l5.91-1.48a5,5,0,0,1,5.33,2.14,2.79,2.79,0,0,1,.37.78,33.74,33.74,0,0,1,.59,4.37c.54,4.56-.06,14.76-.06,14.76h-1.07l-.33-9.27c-.13-3.15-2.57.52-3.29,3.9s-2.22,7-9.12,7.07C326,481.75,322.67,481.4,324.72,479.45Z"/><path class="cls-21" d="M336,456s-3.62,17.25-7.14,21.27c0,0,6.53,2,10.62-7,5.29-11.65,7.83-9.38,7.83-9.38a28.27,28.27,0,0,0-2.14-4.76C343.26,453.21,336,456,336,456Z"/><rect class="cls-32" x="412.23" y="107.91" width="64.78" height="36.05" rx="7.28" ry="7.28"/><polygon class="cls-32" points="429.59 139.85 414.46 160.41 438.87 141.23 429.59 139.85"/><path class="cls-26" d="M430.15,125.93a2.12,2.12,0,1,1-2.12-2.12A2.12,2.12,0,0,1,430.15,125.93Z"/><path class="cls-26" d="M441.21,125.93a2.12,2.12,0,1,1-2.12-2.12A2.12,2.12,0,0,1,441.21,125.93Z"/><path class="cls-26" d="M452.27,125.93a2.13,2.13,0,1,1-2.12-2.12A2.12,2.12,0,0,1,452.27,125.93Z"/><path class="cls-26" d="M463.32,125.93a2.12,2.12,0,1,1-2.12-2.12A2.12,2.12,0,0,1,463.32,125.93Z"/><rect class="cls-9" x="234.35" y="79.58" width="44.65" height="28.06" rx="1.99" ry="1.99" transform="translate(75.08 -110.52) rotate(28.31)"/><rect class="cls-25" x="234.35" y="79.58" width="44.65" height="28.06" rx="1.99" ry="1.99" transform="translate(75.08 -110.52) rotate(28.31)"/><path class="cls-13" d="M241.79,74.18,253,95.1a4.57,4.57,0,0,0,4.48,2.39l23.31-2.31-23.73,3.5a4.87,4.87,0,0,1-5.12-2.76Z"/><path class="cls-9" d="M214.59,70.28c.39-8,6.31-24.12,13.51-29.05s2.47,1.9,2.47,1.9,6.82-6.64,10.43-6.45S241,41,241,41s7.39-4.56,10.81-4.36,0,4.17,0,4.17,6.06-4.36,8.53-2.27S228.86,63,225.07,72.14,214.21,78.38,214.59,70.28Z"/><path class="cls-32" d="M214.59,70.28c.39-8,6.31-24.12,13.51-29.05s2.47,1.9,2.47,1.9,6.82-6.64,10.43-6.45S241,41,241,41s7.39-4.56,10.81-4.36,0,4.17,0,4.17,6.06-4.36,8.53-2.27S228.86,63,225.07,72.14,214.21,78.38,214.59,70.28Z"/><path class="cls-9" d="M243.75,69.1l4.53,2.9a.37.37,0,0,1-.23.69l-4.76-.37L243.7,76a.41.41,0,0,1-.71.32l-2.75-3.11Z"/><path class="cls-14" d="M243.75,69.1l4.53,2.9a.37.37,0,0,1-.23.69l-4.76-.37L243.7,76a.41.41,0,0,1-.71.32l-2.75-3.11Z"/><path class="cls-9" d="M180.13,51.1s6.26-4.37,15.74-1.52c0,0,2.72,12.51,10.18,16.68,4.09,2.29,14.12,2.1,22-.47,9.42-3.05,14-3.05,15.74.47,1.62,3.34-.19,7.21-7.39,8.92s-12.9,14.22-26,14.41-20-12.93-16.69-24.47A34.7,34.7,0,0,0,180.13,51.1Z"/><path class="cls-33" d="M180.13,51.1s6.26-4.37,15.74-1.52c0,0,2.72,12.51,10.18,16.68,4.09,2.29,14.12,2.1,22-.47,9.42-3.05,14-3.05,15.74.47,1.62,3.34-.19,7.21-7.39,8.92s-12.9,14.22-26,14.41-20-12.93-16.69-24.47A34.7,34.7,0,0,0,180.13,51.1Z"/><path class="cls-12" d="M240.24,68.63a.64.64,0,0,1-1.28,0,.64.64,0,0,1,1.28,0Z"/><path class="cls-9" d="M207.43,79.17c-7.73,2.1-24.89,1.45-31.8-3.89s1-2.93,1-2.93-8.42-4.44-9.35-7.93,4.15-1.34,4.15-1.34-6.62-5.63-7.49-8.94,4-1.29,4-1.29-6-4.42-4.8-7.41,33,22.39,42.82,23.19S215.25,77,207.43,79.17Z"/><path class="cls-32" d="M207.43,79.17c-7.73,2.1-24.89,1.45-31.8-3.89s1-2.93,1-2.93-8.42-4.44-9.35-7.93,4.15-1.34,4.15-1.34-6.62-5.63-7.49-8.94,4-1.29,4-1.29-6-4.42-4.8-7.41,33,22.39,42.82,23.19S215.25,77,207.43,79.17Z"/><path class="cls-34" d="M156.82,43.65q-1.41-.51-2.85-1"/><path class="cls-35" d="M148.31,41.07a110.6,110.6,0,0,0-19.25-3c-14-1-35.9-2.36-44.46,11.57C76.79,62.33,90.22,84,95,95.78c5.84,14.44,12.78,32.29,5.88,47.57-14.53,32.21-78,14.23-96.79-16.07"/><path class="cls-34" d="M2.6,124.72c-.47-.9-.9-1.8-1.29-2.71"/><rect class="cls-26" x="123.29" y="240.05" width="54.58" height="11.19"/><rect class="cls-24" x="123.29" y="240.05" width="54.58" height="11.19"/><rect class="cls-24" x="123.29" y="240.05" width="22.99" height="11.19"/><polygon class="cls-24" points="123.29 241.66 171.88 241.66 123.29 243.04 123.29 241.66"/><polygon class="cls-24" points="177.88 243.61 135.76 244.65 177.88 244.65 177.88 243.61"/><polygon class="cls-24" points="125.52 246.74 146.28 245.88 176.81 246.74 146.28 247.21 125.52 246.74"/><polygon class="cls-24" points="123.29 249.11 159.27 249.11 123.29 249.96 123.29 249.11"/><polygon class="cls-24" points="177.8 249.96 153.77 250.41 177.88 250.41 177.8 249.96"/><rect class="cls-26" x="115.7" y="228.86" width="54.58" height="11.19"/><rect class="cls-24" x="115.7" y="228.86" width="54.58" height="11.19"/><rect class="cls-24" x="115.7" y="228.86" width="22.99" height="11.19"/><polygon class="cls-24" points="115.7 230.47 164.28 230.47 115.7 231.84 115.7 230.47"/><polygon class="cls-24" points="170.28 232.41 128.16 233.46 170.28 233.46 170.28 232.41"/><polygon class="cls-24" points="117.92 235.54 138.69 234.69 169.22 235.54 138.69 236.02 117.92 235.54"/><polygon class="cls-24" points="115.7 237.91 151.67 237.91 115.7 238.77 115.7 237.91"/><polygon class="cls-24" points="170.2 238.77 146.18 239.21 170.28 239.21 170.2 238.77"/><rect class="cls-26" x="121.93" y="217.66" width="54.58" height="11.19"/><rect class="cls-24" x="121.93" y="217.66" width="54.58" height="11.19"/><rect class="cls-24" x="121.93" y="217.66" width="22.99" height="11.19"/><polygon class="cls-24" points="121.93 219.28 170.52 219.28 121.93 220.65 121.93 219.28"/><polygon class="cls-24" points="176.51 221.22 134.39 222.26 176.51 222.26 176.51 221.22"/><polygon class="cls-24" points="124.15 224.35 144.92 223.49 175.45 224.35 144.92 224.82 124.15 224.35"/><polygon class="cls-24" points="121.93 226.72 157.91 226.72 121.93 227.57 121.93 226.72"/><polygon class="cls-24" points="176.43 227.57 152.41 228.02 176.51 228.02 176.43 227.57"/><polygon class="cls-12" points="212.88 251.01 214.29 245.65 272.61 245.65 299.46 248.33 300.48 251.01 212.88 251.01"/><polygon class="cls-30" points="272.61 245.65 272.61 251.01 212.88 251.01 214.29 245.65 272.61 245.65"/><path class="cls-12" d="M260.89,220a4.59,4.59,0,0,1-4.63,5.14H166.93a5.74,5.74,0,0,1-5.59-5.14L156,162.78a5,5,0,0,1,.12-1.66,4.55,4.55,0,0,1,4.51-3.47H250a5.74,5.74,0,0,1,5.6,5.13Z"/><path class="cls-30" d="M256,225.11h-89a5.74,5.74,0,0,1-5.59-5.14L156,162.78a5,5,0,0,1,.12-1.66h89a5.75,5.75,0,0,1,5.59,5.13l5.31,57.19A4.84,4.84,0,0,1,256,225.11Z"/><polygon class="cls-12" points="194.57 190.03 213.06 190.03 208.13 242.94 237.35 247.33 237.35 251.01 175.81 251.01 175.81 247.33 188.41 242.94 194.57 190.03"/><polygon class="cls-36" points="213.06 190.03 199.36 250.17 188.41 249.85 194.57 190.03 213.06 190.03"/><polygon class="cls-12" points="212.97 481.68 204.16 481.68 188.33 261.31 200.02 261.31 212.97 481.68"/><polygon class="cls-37" points="212.98 481.68 204.16 481.68 189.11 272.26 188.33 261.67 200.02 261.67 200.65 272.26 212.98 481.68"/><polygon class="cls-19" points="200.65 271.73 189.11 271.73 188.33 261.67 200.02 261.67 200.65 271.73"/><polygon class="cls-12" points="277.62 481.68 268.81 481.68 267.37 261.31 279.06 261.31 277.62 481.68"/><polygon class="cls-37" points="279.07 261.67 278.84 297.22 277.63 481.68 268.81 481.68 267.61 297.22 267.38 261.67 279.07 261.67"/><polygon class="cls-19" points="279.07 261.67 278.84 297.62 267.61 297.62 267.38 261.67 279.07 261.67"/><polygon class="cls-12" points="371.15 481.68 362.34 481.68 346.51 261.31 358.2 261.31 371.15 481.68"/><polygon class="cls-37" points="371.16 481.68 362.34 481.68 347.29 272.26 346.51 261.67 358.2 261.67 358.83 272.26 371.16 481.68"/><polygon class="cls-19" points="358.83 271.73 347.29 271.73 346.51 261.67 358.2 261.67 358.83 271.73"/><polygon class="cls-12" points="112.19 481.68 103.38 481.68 116.33 261.31 128.02 261.31 112.19 481.68"/><polygon class="cls-37" points="128.02 261.67 127.24 272.26 112.19 481.68 103.39 481.68 115.7 272.26 116.33 261.67 128.02 261.67"/><polygon class="cls-19" points="116.33 261.67 128.02 261.67 127.24 271.73 115.7 271.73 116.33 261.67"/><path class="cls-9" d="M107.07,255.79H367.47a0,0,0,0,1,0,0v7.93a3.11,3.11,0,0,1-3.11,3.11H110.18a3.11,3.11,0,0,1-3.11-3.11v-7.93A0,0,0,0,1,107.07,255.79Z"/><path class="cls-11" d="M107.07,255.79H367.47a0,0,0,0,1,0,0v7.93a3.11,3.11,0,0,1-3.11,3.11H110.18a3.11,3.11,0,0,1-3.11-3.11v-7.93A0,0,0,0,1,107.07,255.79Z"/><rect class="cls-19" x="107.07" y="255.79" width="260.39" height="5.52"/><path class="cls-9" d="M372.93,257.23H101.61a3.11,3.11,0,0,1-3.11-3.11h0a3.11,3.11,0,0,1,3.11-3.11H372.93a3.1,3.1,0,0,1,3.1,3.11h0A3.1,3.1,0,0,1,372.93,257.23Z"/><path class="cls-11" d="M372.93,257.23H101.61a3.11,3.11,0,0,1-3.11-3.11h0a3.11,3.11,0,0,1,3.11-3.11H372.93a3.1,3.1,0,0,1,3.1,3.11h0A3.1,3.1,0,0,1,372.93,257.23Z"/><path class="cls-9" d="M308.73,241.44l3.34-5a3.59,3.59,0,0,1,3-1.59h4.23a3.63,3.63,0,0,1,1,.15l15.09,4.57a3.61,3.61,0,0,1,2,1.6l2.16,3.64Z"/><path class="cls-19" d="M339.62,244.8l-22-2.39-8.92-1,3.33-5a3.6,3.6,0,0,1,3-1.6h4.23a3.77,3.77,0,0,1,1,.16l.33.1,14.74,4.48a3.56,3.56,0,0,1,2.06,1.59Z"/><path class="cls-19" d="M339.62,244.8l-22-2.39,3-7.32,14.74,4.48a3.56,3.56,0,0,1,2.06,1.59Z"/><path class="cls-9" d="M350.06,250.54V251H303.44l1.73-6.74a5.8,5.8,0,0,1,5.59-4.3h20.68a5.5,5.5,0,0,1,2,.36l2.59,1,10.27,3.83A5.77,5.77,0,0,1,350.06,250.54Z"/><path class="cls-19" d="M350.06,250.54V251H330.92l1-7.29a3.07,3.07,0,0,1,4.1-2.43l10.27,3.83A5.77,5.77,0,0,1,350.06,250.54Z"/><path class="cls-12" d="M333.9,246.06,340,227.78a1.36,1.36,0,0,1,1.91-.77h0a1.36,1.36,0,0,1,.69,1.55l-5.13,19.5S334.05,249.44,333.9,246.06Z"/><polygon class="cls-19" points="308.73 249.49 306.03 249.49 306.55 246.84 309.25 246.84 308.73 249.49"/><polygon class="cls-19" points="312.76 249.39 310.06 249.39 310.58 246.74 313.28 246.74 312.76 249.39"/></g></g></g></svg>