<svg width="1062" height="1065" viewBox="0 0 1062 1065" fill="none" xmlns="http://www.w3.org/2000/svg">
<path fill-rule="evenodd" clip-rule="evenodd" d="M630.013 249.622C572.961 235.265 524.698 291.531 469.709 312.444C411.901 334.428 329.159 320.658 299.921 375.158C270.418 430.152 319.977 494.302 340.534 553.228C355.68 596.644 380.587 632.295 403.53 672.145C433.517 724.234 442.592 793.401 495.364 822.168C552.288 853.197 631.426 862.024 685.067 825.613C738.444 789.38 728.35 709.102 750.948 648.676C768.065 602.903 803.029 563.65 801.295 514.812C799.516 464.699 768.645 422.943 741.439 380.82C709.528 331.414 687.051 263.975 630.013 249.622Z" stroke="#FFEA9E"/>
<path fill-rule="evenodd" clip-rule="evenodd" d="M603.036 326.342C561.462 315.881 526.292 356.882 486.222 372.121C444.097 388.141 383.802 378.107 362.496 417.821C340.997 457.895 377.111 504.642 392.091 547.581C403.129 579.219 421.278 605.197 437.997 634.237C459.849 672.194 466.461 722.596 504.917 743.559C546.397 766.17 604.066 772.602 643.154 746.069C682.05 719.666 674.695 661.167 691.161 617.134C703.635 583.78 729.113 555.176 727.85 519.588C726.553 483.07 704.058 452.642 684.232 421.947C660.979 385.944 644.6 336.801 603.036 326.342Z" stroke="#FFEA9E"/>
<path fill-rule="evenodd" clip-rule="evenodd" d="M577.994 398.058C551.02 391.271 528.201 417.873 502.203 427.76C474.871 438.154 435.751 431.644 421.927 457.411C407.978 483.412 431.41 513.743 441.129 541.602C448.29 562.13 460.066 578.985 470.913 597.826C485.091 622.453 489.382 655.156 514.332 668.756C541.246 683.427 578.662 687.6 604.023 670.385C629.26 653.254 624.487 615.299 635.171 586.73C643.264 565.089 659.795 546.53 658.975 523.44C658.134 499.746 643.539 480.004 630.676 460.089C615.588 436.729 604.961 404.844 577.994 398.058Z" stroke="#FFEA9E"/>
</svg>
