<svg width="664" height="717" viewBox="0 0 664 717" fill="none" xmlns="http://www.w3.org/2000/svg">
<path fill-rule="evenodd" clip-rule="evenodd" d="M230.232 69.6028C288.492 54.9425 337.776 112.399 393.929 133.754C452.96 156.204 537.454 142.143 567.311 197.795C597.438 253.953 546.83 319.462 525.838 379.634C510.371 423.97 484.937 460.375 461.509 501.069C430.887 554.26 421.62 624.891 367.731 654.267C309.603 685.953 228.789 694.967 174.013 657.784C119.506 620.784 129.814 538.808 106.738 477.103C89.2584 430.361 53.5548 390.278 55.3252 340.406C57.1418 289.232 88.6659 246.593 116.448 203.578C149.034 153.126 171.987 84.2593 230.232 69.6028Z" stroke="#FFEA9E"/>
<path fill-rule="evenodd" clip-rule="evenodd" d="M257.78 147.946C300.234 137.263 336.148 179.132 377.067 194.694C420.083 211.053 481.654 200.806 503.411 241.361C525.365 282.284 488.486 330.02 473.189 373.868C461.918 406.175 443.384 432.704 426.312 462.358C403.998 501.118 397.245 552.587 357.976 573.994C315.618 597.083 256.728 603.652 216.813 576.557C177.094 549.595 184.605 489.858 167.789 444.893C155.052 410.833 129.034 381.624 130.325 345.282C131.648 307.991 154.62 276.92 174.865 245.575C198.611 208.81 215.336 158.627 257.78 147.946Z" stroke="#FFEA9E"/>
<path fill-rule="evenodd" clip-rule="evenodd" d="M283.352 221.18C310.897 214.248 334.198 241.414 360.747 251.51C388.657 262.125 428.605 255.476 442.721 281.789C456.966 308.34 433.038 339.312 423.113 367.762C415.801 388.723 403.775 405.935 392.699 425.176C378.221 450.324 373.839 483.718 348.361 497.607C320.878 512.588 282.669 516.85 256.772 499.27C231.001 481.777 235.874 443.018 224.964 413.844C216.7 391.745 199.819 372.794 200.656 349.215C201.515 325.02 216.42 304.86 229.555 284.523C244.962 260.669 255.814 228.109 283.352 221.18Z" stroke="#FFEA9E"/>
</svg>
