<svg width="665" height="718" viewBox="0 0 665 718" fill="none" xmlns="http://www.w3.org/2000/svg">
<path fill-rule="evenodd" clip-rule="evenodd" d="M231.232 70.6028C289.492 55.9425 338.776 113.399 394.929 134.754C453.96 157.204 538.454 143.143 568.311 198.795C598.438 254.953 547.83 320.462 526.838 380.634C511.371 424.97 485.937 461.375 462.509 502.069C431.887 555.26 422.62 625.891 368.731 655.267C310.603 686.953 229.789 695.967 175.013 658.784C120.506 621.784 130.814 539.808 107.738 478.103C90.2584 431.361 54.5548 391.278 56.3252 341.406C58.1418 290.232 89.6659 247.593 117.448 204.578C150.034 154.126 172.987 85.2593 231.232 70.6028Z" stroke="#FFEA9E"/>
<path fill-rule="evenodd" clip-rule="evenodd" d="M258.78 148.946C301.234 138.263 337.148 180.132 378.067 195.694C421.083 212.053 482.654 201.806 504.411 242.361C526.365 283.284 489.486 331.02 474.189 374.868C462.918 407.175 444.384 433.704 427.312 463.358C404.998 502.118 398.245 553.587 358.976 574.994C316.618 598.083 257.728 604.652 217.813 577.557C178.094 550.595 185.605 490.858 168.789 445.893C156.052 411.833 130.034 382.624 131.325 346.282C132.648 308.991 155.62 277.92 175.865 246.575C199.611 209.81 216.336 159.627 258.78 148.946Z" stroke="#FFEA9E"/>
<path fill-rule="evenodd" clip-rule="evenodd" d="M284.352 222.18C311.897 215.248 335.198 242.414 361.747 252.51C389.657 263.125 429.605 256.476 443.721 282.789C457.966 309.34 434.038 340.312 424.113 368.762C416.801 389.724 404.775 406.935 393.699 426.176C379.221 451.324 374.839 484.718 349.361 498.607C321.878 513.588 283.669 517.85 257.772 500.27C232.001 482.777 236.874 444.018 225.964 414.844C217.7 392.745 200.819 373.794 201.656 350.215C202.515 326.02 217.42 305.86 230.555 285.523C245.962 261.669 256.814 229.109 284.352 222.18Z" stroke="#FFEA9E"/>
</svg>
