<svg xmlns="http://www.w3.org/2000/svg" xmlns:xlink="http://www.w3.org/1999/xlink" viewBox="0 0 729.32 459.03"><defs><style>.cls-1{isolation:isolate;}.cls-2{fill:url(#linear-gradient);}.cls-3{fill:url(#linear-gradient-2);}.cls-4{fill:url(#linear-gradient-3);}.cls-5{fill:#bfd1ff;}.cls-6{fill:#80b377;}.cls-11,.cls-16,.cls-19,.cls-33,.cls-34,.cls-35,.cls-7,.cls-8{fill:none;}.cls-7,.cls-8{stroke:#2e5e26;}.cls-11,.cls-16,.cls-19,.cls-33,.cls-34,.cls-7,.cls-8{stroke-miterlimit:10;}.cls-7{stroke-width:0.69px;}.cls-8{stroke-width:0.75px;}.cls-9{fill:#3465d9;}.cls-10{fill:#203e87;}.cls-11{stroke:#96b4ff;}.cls-11,.cls-16,.cls-19{stroke-width:0.24px;}.cls-12,.cls-17,.cls-24,.cls-25,.cls-29,.cls-30{opacity:0.56;mix-blend-mode:multiply;}.cls-12{fill:url(#linear-gradient-4);}.cls-13{fill:#ff9c91;}.cls-14{fill:url(#linear-gradient-5);}.cls-15{fill:url(#linear-gradient-6);}.cls-16{stroke:#fff;}.cls-17{fill:url(#linear-gradient-7);}.cls-18{fill:#3ea6c6;}.cls-19{stroke:#b3830b;}.cls-20{fill:#e03726;}.cls-21{fill:#5dcbf4;}.cls-22{fill:#96b4ff;}.cls-23{fill:url(#linear-gradient-8);}.cls-24{fill:url(#linear-gradient-9);}.cls-25{fill:url(#linear-gradient-10);}.cls-26{fill:url(#linear-gradient-11);}.cls-27{fill:url(#linear-gradient-12);}.cls-28{fill:#ffbb10;}.cls-29{fill:url(#linear-gradient-13);}.cls-30{fill:url(#linear-gradient-14);}.cls-31{fill:url(#linear-gradient-15);}.cls-32{fill:url(#linear-gradient-16);}.cls-33,.cls-35{stroke:#203e87;}.cls-33,.cls-34,.cls-35{stroke-width:0.96px;}.cls-34{stroke:#000;}.cls-35{stroke-linecap:round;stroke-linejoin:round;}</style><linearGradient id="linear-gradient" x1="195.99" y1="-71.53" x2="195.99" y2="272.58" gradientTransform="translate(130.65 -108.25) rotate(45)" gradientUnits="userSpaceOnUse"><stop offset="0" stop-color="#ffd97a"/><stop offset="1" stop-color="#fff"/></linearGradient><linearGradient id="linear-gradient-2" x1="573.77" y1="-21.55" x2="573.77" y2="216.29" gradientTransform="translate(577.62 -482.83) rotate(80.54)" xlink:href="#linear-gradient"/><linearGradient id="linear-gradient-3" x1="53.55" y1="340.32" x2="589.83" y2="340.32" gradientUnits="userSpaceOnUse"><stop offset="0" stop-color="#bfd1ff"/><stop offset="1" stop-color="#fff"/></linearGradient><linearGradient id="linear-gradient-4" x1="646.65" y1="234.13" x2="646.65" y2="439.78" gradientUnits="userSpaceOnUse"><stop offset="0.13"/><stop offset="1" stop-color="#fff"/></linearGradient><linearGradient id="linear-gradient-5" x1="280" y1="346.07" x2="280" y2="272.63" gradientUnits="userSpaceOnUse"><stop offset="0.19" stop-color="#ff9c91"/><stop offset="1" stop-color="#f27c6f"/></linearGradient><linearGradient id="linear-gradient-6" x1="228.24" y1="346.07" x2="228.24" y2="272.63" xlink:href="#linear-gradient-5"/><linearGradient id="linear-gradient-7" x1="259.13" y1="167.04" x2="259.13" y2="249.54" xlink:href="#linear-gradient-4"/><linearGradient id="linear-gradient-8" x1="266.88" y1="89.92" x2="266.88" y2="72.11" xlink:href="#linear-gradient-5"/><linearGradient id="linear-gradient-9" x1="266.87" y1="28.48" x2="266.87" y2="66.59" xlink:href="#linear-gradient-4"/><linearGradient id="linear-gradient-10" x1="331.47" y1="120.62" x2="362.46" y2="122.33" xlink:href="#linear-gradient-4"/><linearGradient id="linear-gradient-11" x1="462.16" y1="397.49" x2="454.87" y2="340.12" xlink:href="#linear-gradient-5"/><linearGradient id="linear-gradient-12" x1="550.99" y1="386.2" x2="543.7" y2="328.83" xlink:href="#linear-gradient-5"/><linearGradient id="linear-gradient-13" x1="509.93" y1="180.16" x2="509.93" y2="228.32" xlink:href="#linear-gradient-4"/><linearGradient id="linear-gradient-14" x1="507.96" y1="56.94" x2="507.96" y2="81.22" xlink:href="#linear-gradient-4"/><linearGradient id="linear-gradient-15" x1="416.18" y1="38.75" x2="456.63" y2="38.75" xlink:href="#linear-gradient-5"/><linearGradient id="linear-gradient-16" x1="594.64" y1="8.35" x2="540.67" y2="88.94" xlink:href="#linear-gradient-5"/></defs><title>hero-main</title><g class="cls-1"><g id="Layer_2" data-name="Layer 2"><g id="Layer_1-2" data-name="Layer 1"><circle class="cls-2" cx="195.99" cy="103.59" r="100.1" transform="translate(-15.84 168.93) rotate(-45)"/><circle class="cls-3" cx="573.77" cy="99.49" r="69.19" transform="matrix(0.16, -0.99, 0.99, 0.16, 381.35, 649.1)"/><path class="cls-4" d="M53.55,458,326.37,237.39c27.85-22.52,81.43-18.61,101.21,7.39L589.83,458Z"/><path class="cls-5" d="M136.46,458,475.72,183.66c28.76-23.25,85.09-15.42,97.32,13.54L683.23,458Z"/><path class="cls-6" d="M104,367.1c-.34-8,48.36,10.53,45.81-6.57-2.63-16.24-18.48-2.64-39.43-6.16-20.42-3.15-20.78-44.84-16.72-50.8,4.56-6.09,40.31,8.16,41.4-2.78.85-11.59-35.66-1.67-45-8.3-8.81-6.42-2-53.81,2.76-58.28,5.62-4.22,24.72,26,27.11,12.61,2.21-12.83-18.88-17-25.79-22.94-9.34-8.13-4.87-31.07-2.4-43.37,11.76.85,34.81,5.63,38.7,19,3,9.87-3,31.31,8.79,36,13.12,5.25-4.36-28.89,1.16-32.19,5.8-4.12,53.11,19.58,54.06,34.43,1.13,14.27-29,37.59-19.65,44.78,9.74,7.79,20.26-32.74,27.4-32.76,7.72-.37,43.58,40.14,30.5,59.31-12.83,18.48-34.25,16.35-25.45,32.53,9.62,18.14,34.8-31.36,39.59-24.23,5.41,7.46,20.7,43.71-3.31,61.17-14.49,10.85-35.25,32.83-43,51.16-14.86-14.77-43.94-23.88-61.82-25.07C109.74,402.3,104.44,374.46,104,367.1Z"/><path class="cls-7" d="M97.15,188.47A691.51,691.51,0,0,1,205.73,456.4"/><path class="cls-7" d="M87.26,254.13a249.91,249.91,0,0,0,56.62,14.37"/><path class="cls-7" d="M171.14,214.56s-8.06,52.65-18.68,71.83"/><path class="cls-7" d="M91.61,318.69s38.1,7.24,77.16,6"/><path class="cls-7" d="M222.68,268.5S191.85,337,177.05,347"/><path class="cls-7" d="M104.54,371.54S151.8,384.16,188,381"/><path class="cls-7" d="M253.11,331s-26.85,43.84-59.4,70.49"/><path class="cls-6" d="M695.07,362.31c.38-8.71-52.84,11.5-50.06-7.18,2.88-17.75,20.19-2.89,43.09-6.73,22.32-3.44,22.7-49,18.26-55.51-5-6.66-44,8.92-45.23-3-.93-12.66,39-1.82,49.2-9.07,9.62-7,2.23-58.8-3-63.68-6.14-4.62-27,28.45-29.63,13.78-2.41-14,20.63-18.63,28.19-25.07,10.2-8.88,5.32-33.95,2.61-47.39-12.85.93-38,6.16-42.28,20.79-3.24,10.78,3.3,34.21-9.61,39.29-14.32,5.74,4.77-31.57-1.26-35.18-6.34-4.5-58,21.4-59.08,37.63C595,236.54,628,262,617.73,269.88c-10.64,8.5-22.14-35.78-29.94-35.8-8.43-.4-47.62,43.86-33.33,64.8,14,20.2,37.43,17.87,27.81,35.55-10.51,19.83-38-34.27-43.26-26.48-5.91,8.15-22.62,47.77,3.62,66.85,15.84,11.85,38.51,35.87,47,55.89,16.24-16.13,48-26.09,67.55-27.38C688.74,400.77,694.53,370.34,695.07,362.31Z"/><path class="cls-8" d="M702.5,166.2A755.66,755.66,0,0,0,583.85,459"/><path class="cls-8" d="M713.3,238a273.07,273.07,0,0,1-61.86,15.69"/><path class="cls-8" d="M621.66,194.71s8.8,57.53,20.4,78.48"/><path class="cls-8" d="M708.55,308.49s-41.63,7.91-84.31,6.54"/><path class="cls-8" d="M565.34,253.64s33.68,74.87,49.85,85.78"/><path class="cls-8" d="M694.42,366.24S642.79,380,603.2,376.53"/><path class="cls-8" d="M532.09,321.88s29.33,47.91,64.9,77"/><circle class="cls-9" cx="638.08" cy="449.27" r="7.13"/><circle class="cls-9" cx="700.61" cy="449.27" r="7.13"/><rect class="cls-10" x="594.8" y="276.76" width="124.32" height="167.96" rx="19.29" ry="19.29"/><path class="cls-11" d="M659.78,276.76h30.11a19.29,19.29,0,0,1,19.29,19.29V425.43a19.29,19.29,0,0,1-19.29,19.29H652.44"/><rect class="cls-12" x="594.8" y="276.76" width="103.68" height="167.96" rx="19.29" ry="19.29"/><rect class="cls-10" x="594.8" y="355.94" width="103.68" height="34.13"/><rect class="cls-10" x="615.75" y="225.87" width="7.81" height="129.68"/><rect class="cls-10" x="669.73" y="226.26" width="7.81" height="129.68"/><path class="cls-9" d="M613.08,218.94v7.32h13.15v-6.91a3.54,3.54,0,0,1,3.54-3.54h33.75a3.53,3.53,0,0,1,3.54,3.54v6.91h13.15v-7.32a9.45,9.45,0,0,0-9.45-9.45H622.53A9.45,9.45,0,0,0,613.08,218.94Z"/><circle class="cls-9" cx="613.95" cy="449.27" r="7.13"/><path class="cls-9" d="M683.6,449.27a7.13,7.13,0,1,1-7.13-7.13A7.13,7.13,0,0,1,683.6,449.27Z"/><line class="cls-11" x1="698.49" y1="299.4" x2="698.49" y2="422.64"/><path class="cls-13" d="M218.23,284.27l-27.74,153.3S173.85,459,181,459h25.69c5.23,0-3.81-26.16-3.81-26.16l40-148.54Z"/><path class="cls-13" d="M292.86,276.15l3.95,155.32a18.91,18.91,0,0,0,10,16.2l17,9a1.2,1.2,0,0,1-.56,2.26H276.66a3.47,3.47,0,0,1-3-5.23l6.74-11.53a11.28,11.28,0,0,0,1.49-6.79L266,276.15Z"/><polygon class="cls-14" points="266.01 276.15 270.12 317.39 293.99 320.7 292.86 276.15 266.01 276.15"/><polygon class="cls-15" points="218.23 284.27 213.65 309.57 235.21 312.56 242.82 284.27 218.23 284.27"/><polygon class="cls-10" points="227.81 201.29 211.01 299.01 244.09 299.01 256.47 254.47 260.04 299.01 298.11 299.01 295.7 201.29 227.81 201.29"/><line class="cls-16" x1="231.22" y1="211.89" x2="215.56" y2="299.01"/><polygon class="cls-17" points="296.29 225.25 295.7 201.29 227.81 201.29 221.98 235.21 296.29 225.25"/><path class="cls-10" d="M323.79,456.71l-17-9a18.91,18.91,0,0,1-8.51-9.37L291.64,442l-10-2.76a11,11,0,0,1-1.21,3l-6.74,11.53a3.47,3.47,0,0,0,3,5.23h46.57A1.2,1.2,0,0,0,323.79,456.71Z"/><path class="cls-10" d="M181,459h25.69c5.23,0-3.81-26.16-3.81-26.16l-12.37,4.76S173.85,459,181,459Z"/><rect class="cls-18" x="208.53" y="91.45" width="81.99" height="119.66" rx="10.36" ry="10.36"/><line class="cls-19" x1="208.53" y1="110.15" x2="287.68" y2="110.15"/><path class="cls-13" d="M294.09,103.59l26.08,60,20.64-28.71,10.52,4.3s-21.44,45-32.15,45-28.05-40.44-28.05-40.44Z"/><path class="cls-20" d="M294.09,103.59l-3,40.15s4.31,9.61,7.7,16.35l12.54-16.74Z"/><path class="cls-20" d="M236.82,99.49h48.8a10.8,10.8,0,0,1,10.8,10.43l3.64,97.28A7.57,7.57,0,0,1,292.5,215H226.12a5.44,5.44,0,0,1-5.39-6.17Z"/><path class="cls-21" d="M296.42,109.92a10.8,10.8,0,0,0-10.8-10.43h-1.46s9.64,44.15,13.94,59.66Z"/><path class="cls-21" d="M249.4,99.49H236.82l-12.46,84.69C264.23,156.42,251.83,113.23,249.4,99.49Z"/><polygon class="cls-22" points="350.77 88.55 306.14 84.56 299.34 160.61 343.98 164.6 366.32 155.67 373.12 79.62 350.77 88.55"/><polygon class="cls-5" points="304.14 156.59 310.15 89.36 351.43 93.05 368.06 86.41 362.15 152.57 343.32 160.09 304.14 156.59"/><path class="cls-6" d="M334.23,122.11c-.27-8-16.49-17.83-25-22.45l-2,22.87C319.53,125.81,334.44,128.48,334.23,122.11Z"/><path class="cls-6" d="M359.93,101.4c-4,3.47,2.19,12.43-2.55,19.07s-29,19-24.61,26.15c2.76,4.49,18.84-.26,30.3-4.36l3.63-40.61C364.51,100.45,361.88,99.72,359.93,101.4Z"/><path class="cls-13" d="M287.57,73.46V66.64a3.57,3.57,0,0,1,2.68-3.46l2.28-.59-5-9.33V45.32H253.83l.79,32.25V96.72A2.68,2.68,0,0,1,252,99.4h-2.49s14.29,22.22,25.6,22.22,6.84-22.13,6.84-22.13h0a5.56,5.56,0,0,1-5.25-5.55V81.17a2.61,2.61,0,0,1,2.61-2.61h3.2A5.1,5.1,0,0,0,287.57,73.46Z"/><path class="cls-23" d="M267.93,70.82l-13.44,1.42.13,5.33V91.45h22V81.17a2.61,2.61,0,0,1,2.61-2.61C268.12,78.56,267.93,70.82,267.93,70.82Z"/><path d="M265.79,54.7a5.41,5.41,0,0,1,5.62,2.38c1.49-8.37,2-15.43,2-15.43l-17.76,5.26-10.22.91c0,25.4,9.22,29.75,9.22,29.75a11.7,11.7,0,0,0,13.31-6.75C263.32,68.16,261.8,55.52,265.79,54.7Z"/><path class="cls-13" d="M236.82,99.49c-11.18,0-13.69,20-10.12,48.62,1.61,12.83,3.53,23.54,5.17,31.45a10.53,10.53,0,0,0,16.23,6.6l55.6-37.66s1.36-8.55,9-13.19a10.25,10.25,0,0,0,4.72-10l-.84-6.93s-12.5,3.77-20.54,20.24c-.49,1-46.54,25.8-46.54,25.8s-2-26-3-37.71S245.36,99.49,236.82,99.49Z"/><path class="cls-20" d="M221.54,139.18h28s.19-39.69-12.7-39.69C215,99.49,221.54,139.18,221.54,139.18Z"/><path class="cls-24" d="M287.57,53.26V45.32H273.05c.23-2.25.33-3.67.33-3.67L261,45.32h-7.15l0,1.75-8.47.75c0,2.88.13,5.46.34,7.82l42.61-.9Z"/><path class="cls-10" d="M308.58,46.17A82.13,82.13,0,0,0,299.43,44a19.65,19.65,0,0,1-15.17-13.26l0-.12A8.21,8.21,0,0,0,275.51,25l-19,2.09a8.2,8.2,0,0,0-7.28,7.41l-.09,1A19.4,19.4,0,0,1,238.87,51a68.73,68.73,0,0,0-6,3.45Z"/><polygon class="cls-25" points="350.77 88.55 343.98 164.6 366.32 155.67 373.12 79.62 350.77 88.55"/><line class="cls-19" x1="215.56" y1="110.15" x2="215.56" y2="211.11"/><path class="cls-13" d="M446.18,325.49,413.08,437a8.59,8.59,0,0,1-10,6c-4.28-.9-9.09-2.12-11-3.38-4.52-3-8.24.05-2.68,4.81s22.92,16.53,26.49,14.24,3.72-11.76,3.72-11.76l51.15-119.56Z"/><path class="cls-13" d="M530,325.49l33.66,115.24a6.23,6.23,0,0,1-4,7.63c-6,2.08-15.25,5.27-18.6,6.5-5.16,1.89,7.54,4.11,21,4.11s16.45-.09,16.21-5.73c-.18-4.17-3.91-9.19-3.91-9.19l-19-118.56Z"/><path class="cls-10" d="M559.68,448.35h0c-6,2.08-15.25,5.27-18.6,6.5-5.16,1.89,7.54,4.11,21,4.11s16.45-.09,16.21-5.74a14,14,0,0,0-1.58-5.27A49.94,49.94,0,0,1,559.68,448.35Z"/><path class="cls-10" d="M407.46,442.75a8.58,8.58,0,0,1-4.37.26c-4.28-.9-9.09-2.12-11-3.38-4.52-3-8.24.05-2.68,4.81s22.92,16.53,26.49,14.24c2.52-1.61,3.33-6.78,3.6-9.7C413.17,447.5,409.46,444.84,407.46,442.75Z"/><polygon class="cls-26" points="470.81 327.36 446.18 325.49 438.66 350.82 459.88 352.92 470.81 327.36"/><polygon class="cls-27" points="529.95 325.49 540.28 360.86 561.37 362.95 555.35 325.49 529.95 325.49"/><path class="cls-13" d="M476.89,139.47,419.35,24.12a13.85,13.85,0,0,1-1.47-6.22V8.79l-1.7-2.92L427.71.3A3,3,0,0,1,431.84,2l.17.52a9.67,9.67,0,0,1-.32,7l-3.12,7.13a7,7,0,0,0,.4,6.4L453.37,64l35.25,46.43,10.1,1.44L501,136.17Z"/><path class="cls-13" d="M535.87,139.47,593.41,24.12a14,14,0,0,0,1.46-6.22V8.79l1.7-2.92L585,.3A3,3,0,0,0,580.92,2l-.18.52a9.72,9.72,0,0,0,.32,7l3.13,7.13a7,7,0,0,1-.4,6.4L559.38,64,524.13,110.4,514,111.84l-2.32,24.33Z"/><path class="cls-28" d="M514.59,111.84H498.72c-7,20.48-21.83,27.63-21.83,27.63l10.49,33.44a5.53,5.53,0,0,0,5.27,3.87h28a5.54,5.54,0,0,0,5.27-3.87l10.49-33.44S521.54,132.32,514.59,111.84Z"/><path class="cls-20" d="M488.9,183.58,441.49,341H580.25s-13.5-20.24-16.67-37.7-7.15-20.64-14.29-32.54-13.25-50.41-15-61.13-14.1-26.09-14.1-26.09Z"/><line class="cls-16" x1="520.22" y1="187.99" x2="557.89" y2="341.04"/><path class="cls-29" d="M536.7,223.81c-1.07-6.06-1.89-11.17-2.36-14.14-1.72-10.71-14.11-26.09-14.11-26.09H488.9l-5.75,19.09Z"/><polygon class="cls-28" points="530.15 194.91 483.15 194.91 490.99 176.78 522.32 176.78 530.15 194.91"/><path class="cls-13" d="M488.6,63.91,486,86.4a4.87,4.87,0,0,0,4.18,5.39l4.79.64a4.3,4.3,0,0,1,3.73,4.26v15.15s7,4.61,16.81,0V92.93s5.21-16.81.75-27.53S489.19,58.75,488.6,63.91Z"/><path class="cls-10" d="M496.19,65.4c0,11.76,2.38,17,9.08,22.62s5.06,11.76,5.06,18.9c0,5.66,3.87,13.55,11.31,13.55h26.79c6.55,0,13.39-2.35,6.1-10S526.4,81,522.38,67.78Z"/><path class="cls-30" d="M528.06,79a46.54,46.54,0,0,1-5.68-11.17l-5.44-.49a19.14,19.14,0,0,0-.66-1.89c-4.47-10.72-27.09-6.65-27.68-1.49l-.74,6.42Z"/><path class="cls-28" d="M466,66a75.86,75.86,0,0,1,8.48-2,18.21,18.21,0,0,0,14.05-12.28l0-.11a7.6,7.6,0,0,1,8.07-5.24l17.63,1.93A7.6,7.6,0,0,1,521,55.16l.09,1a17.92,17.92,0,0,0,9.49,14.4q2.82,1.44,5.57,3.2Z"/><path class="cls-31" d="M456.63,68.26,453.37,64,429,23.07a7,7,0,0,1-.4-6.4l3.12-7.13a9.67,9.67,0,0,0,.32-7L431.84,2A3,3,0,0,0,427.71.3L416.18,5.87l1.7,2.92V17.9a13.85,13.85,0,0,0,1.47,6.22L446,77.5Z"/><path class="cls-32" d="M559.38,64l-1.73,2.28,10.2,9.1,25.56-51.23a14,14,0,0,0,1.46-6.22V8.79l1.7-2.92L585,.3A3,3,0,0,0,580.92,2l-.18.52a9.72,9.72,0,0,0,.32,7l3.13,7.13a7,7,0,0,1-.4,6.4Z"/><line class="cls-33" x1="490.99" y1="176.78" x2="522.86" y2="176.78"/><line class="cls-34" y1="458" x2="729.32" y2="458"/><line class="cls-11" x1="603.38" y1="355.94" x2="707.06" y2="355.94"/><path class="cls-35" d="M667.42,160.28c-8.11-7.84-13.64,1-13.64,1s-5.53-8.82-13.64-1"/><path class="cls-35" d="M687.61,127.74c-8.11-7.84-13.64,1-13.64,1s-5.53-8.81-13.64-1"/></g></g></g></svg>