<svg width="54" height="54" viewBox="0 0 54 54" fill="none" xmlns="http://www.w3.org/2000/svg">
<path fill-rule="evenodd" clip-rule="evenodd" d="M38.5713 27.0004C38.5713 22.7399 42.0251 19.2861 46.2856 19.2861C50.5461 19.2861 53.9999 22.7399 53.9999 27.0004C53.9999 31.2609 50.5461 34.7147 46.2856 34.7147C42.0251 34.7147 38.5713 31.2609 38.5713 27.0004Z" fill="#A3D7EC"/>
<path fill-rule="evenodd" clip-rule="evenodd" d="M0 27.0004C0 22.7399 3.45381 19.2861 7.71429 19.2861C11.9748 19.2861 15.4286 22.7399 15.4286 27.0004C15.4286 31.2609 11.9748 34.7147 7.71429 34.7147C3.45381 34.7147 0 31.2609 0 27.0004Z" fill="#A3D7EC"/>
<path fill-rule="evenodd" clip-rule="evenodd" d="M19.2856 46.2856C19.2856 42.0251 22.7394 38.5713 26.9999 38.5713C31.2604 38.5713 34.7142 42.0251 34.7142 46.2856C34.7142 50.5461 31.2604 53.9999 26.9999 53.9999C22.7394 53.9999 19.2856 50.5461 19.2856 46.2856Z" fill="white"/>
<path fill-rule="evenodd" clip-rule="evenodd" d="M19.2856 7.71429C19.2856 3.45381 22.7394 0 26.9999 0C31.2604 0 34.7142 3.45381 34.7142 7.71429C34.7142 11.9748 31.2604 15.4286 26.9999 15.4286C22.7394 15.4286 19.2856 11.9748 19.2856 7.71429Z" fill="white"/>
</svg>
