<svg xmlns="http://www.w3.org/2000/svg" xmlns:xlink="http://www.w3.org/1999/xlink" viewBox="0 0 483.16 342.43"><defs><style>.cls-1{isolation:isolate;}.cls-2{fill:url(#linear-gradient);}.cls-3{fill:url(#linear-gradient-2);}.cls-4{fill:#3ea6c6;}.cls-10,.cls-20,.cls-5{fill:none;stroke-miterlimit:10;}.cls-5{stroke:#fff;stroke-width:0.25px;}.cls-6{fill:#5dcbf4;}.cls-7{fill:#e03726;}.cls-8{fill:#bfd1ff;}.cls-9{fill:#80b377;}.cls-10{stroke:#2e5e26;stroke-width:0.7px;}.cls-11{fill:#ff9c91;}.cls-12{fill:url(#linear-gradient-3);}.cls-13{fill:#203e87;}.cls-14{fill:url(#linear-gradient-4);}.cls-15{fill:url(#linear-gradient-5);}.cls-16{fill:url(#linear-gradient-6);}.cls-17,.cls-18,.cls-22{opacity:0.56;}.cls-17,.cls-18,.cls-21,.cls-22{mix-blend-mode:multiply;}.cls-17{fill:url(#linear-gradient-7);}.cls-18{fill:url(#linear-gradient-8);}.cls-19{fill:url(#linear-gradient-9);}.cls-20{stroke:#000;stroke-width:0.89px;}.cls-21{opacity:0.3;fill:url(#linear-gradient-10);}.cls-22{fill:url(#linear-gradient-11);}</style><linearGradient id="linear-gradient" x1="263.91" y1="282.31" x2="378.07" y2="-95.37" gradientUnits="userSpaceOnUse"><stop offset="0" stop-color="#bfd1ff"/><stop offset="1" stop-color="#fff"/></linearGradient><linearGradient id="linear-gradient-2" x1="61.39" y1="-58.03" x2="61.39" y2="160.33" gradientUnits="userSpaceOnUse"><stop offset="0" stop-color="#ffd97a"/><stop offset="1" stop-color="#fff"/></linearGradient><linearGradient id="linear-gradient-3" x1="306.6" y1="53.71" x2="281.88" y2="61.13" gradientUnits="userSpaceOnUse"><stop offset="0.19" stop-color="#ff9c91"/><stop offset="1" stop-color="#f27c6f"/></linearGradient><linearGradient id="linear-gradient-4" x1="201.9" y1="282.1" x2="201.9" y2="216.36" xlink:href="#linear-gradient-3"/><linearGradient id="linear-gradient-5" x1="244.59" y1="282.1" x2="244.59" y2="216.36" xlink:href="#linear-gradient-3"/><linearGradient id="linear-gradient-6" x1="171.98" y1="143.05" x2="188.03" y2="105.2" xlink:href="#linear-gradient-3"/><linearGradient id="linear-gradient-7" x1="228.52" y1="116.72" x2="228.52" y2="180.23" gradientUnits="userSpaceOnUse"><stop offset="0.13"/><stop offset="1" stop-color="#fff"/></linearGradient><linearGradient id="linear-gradient-8" x1="295.46" y1="-250.22" x2="295.46" y2="-220.88" gradientTransform="translate(-15.68 323.37) rotate(-13.35)" xlink:href="#linear-gradient-7"/><linearGradient id="linear-gradient-9" x1="295.46" y1="-202.92" x2="295.46" y2="-216.63" gradientTransform="translate(-15.68 323.37) rotate(-13.35)" xlink:href="#linear-gradient-3"/><linearGradient id="linear-gradient-10" x1="364.96" y1="197.89" x2="529.75" y2="197.89" xlink:href="#linear-gradient-7"/><linearGradient id="linear-gradient-11" x1="398.29" y1="196.47" x2="452.11" y2="196.47" xlink:href="#linear-gradient-7"/></defs><title>need-coverage</title><g class="cls-1"><g id="Layer_2" data-name="Layer 2"><g id="Layer_1-2" data-name="Layer 1"><path class="cls-2" d="M311.15,341.45H186.81l92.66-326A19.53,19.53,0,0,1,298.26,1.21H407.85Z"/><circle class="cls-3" cx="61.39" cy="61.28" r="61.28"/><path class="cls-4" d="M34.52,82.68H80.7V57H34.52a8.5,8.5,0,0,0-6.21,2.69l-7.47,8a3.2,3.2,0,0,0,0,4.37L28.31,80A8.5,8.5,0,0,0,34.52,82.68Z"/><line class="cls-5" x1="74.76" y1="57.03" x2="74.76" y2="82.68"/><line class="cls-5" x1="71.98" y1="57.03" x2="71.98" y2="82.68"/><line class="cls-5" x1="69.2" y1="57.03" x2="69.2" y2="82.68"/><line class="cls-5" x1="66.42" y1="57.03" x2="66.42" y2="82.68"/><path class="cls-4" d="M114.52,96.78H80.7V71.13h33.82a8.5,8.5,0,0,1,6.21,2.69l7.47,8a3.2,3.2,0,0,1,0,4.37l-7.47,8A8.5,8.5,0,0,1,114.52,96.78Z"/><line class="cls-5" x1="85.77" y1="71.13" x2="85.77" y2="96.78"/><line class="cls-5" x1="88.55" y1="71.13" x2="88.55" y2="96.78"/><line class="cls-5" x1="91.33" y1="71.13" x2="91.33" y2="96.78"/><line class="cls-5" x1="94.11" y1="71.13" x2="94.11" y2="96.78"/><rect class="cls-6" x="77.92" y="38.18" width="5.56" height="168.49" transform="translate(161.4 244.85) rotate(180)"/><path class="cls-7" d="M74.76,38.16a5.95,5.95,0,1,0,5.94-5.94A5.94,5.94,0,0,0,74.76,38.16Z"/><path class="cls-8" d="M376.53,341.45H252.2L335.59,48a64.4,64.4,0,0,1,62-46.79H442a23.58,23.58,0,0,1,22.68,30Z"/><path class="cls-9" d="M32.16,275.61c-.26-5.95,36.15,7.87,34.25-4.91-2-12.14-13.82-2-29.48-4.6-15.27-2.36-15.53-33.53-12.5-38,3.41-4.56,30.14,6.1,31-2.08.64-8.66-26.66-1.25-33.66-6.21-6.58-4.79-1.53-40.23,2.07-43.57,4.2-3.15,18.48,19.47,20.27,9.43,1.65-9.59-14.12-12.74-19.29-17.15-7-6.07-3.64-23.23-1.79-32.42,8.79.64,26,4.21,28.94,14.22,2.21,7.38-2.26,23.41,6.57,26.88,9.8,3.93-3.27-21.6.86-24.07,4.34-3.07,39.71,14.64,40.42,25.75.84,10.66-21.72,28.1-14.69,33.48,7.28,5.82,15.14-24.49,20.48-24.5,5.77-.27,32.58,30,22.8,44.34-9.59,13.82-25.61,12.23-19,24.32,7.18,13.57,26-23.45,29.6-18.11,4,5.57,15.47,32.67-2.48,45.73-10.84,8.11-26.35,24.54-32.14,38.24-11.11-11-32.85-17.85-46.21-18.73C36.49,301.93,32.53,281.11,32.16,275.61Z"/><path class="cls-10" d="M27.08,142.07a517,517,0,0,1,81.17,200.3"/><path class="cls-10" d="M19.68,191.16A187.27,187.27,0,0,0,62,201.9"/><path class="cls-10" d="M82.39,161.58s-6,39.35-14,53.69"/><path class="cls-10" d="M22.94,239.42s28.48,5.41,57.68,4.48"/><path class="cls-10" d="M120.92,201.9s-23,51.22-34.11,58.68"/><path class="cls-10" d="M32.6,278.94s35.33,9.43,62.41,7"/><path class="cls-10" d="M143.67,248.59s-20.07,32.78-44.4,52.69"/><path class="cls-11" d="M271.48,56.38,373.19,37.66s.92,2.55-6.61,3.9l-.14,5A2.61,2.61,0,0,1,364,49.16c-3.12.21-8.47.3-11.09-1.17-8.29,2.19-83.63,24.77-83.63,24.77Z"/><path class="cls-12" d="M293.07,52.41l-21.59,4-2.22,16.38L288,67.14Z"/><path class="cls-11" d="M254.48,200.72l3,119.56a14.57,14.57,0,0,0,7.71,12.47l13.07,7a.92.92,0,0,1-.44,1.73H242a2.68,2.68,0,0,1-2.31-4l5.2-8.87a8.69,8.69,0,0,0,1.14-5.23l-12.23-122.6Z"/><path class="cls-13" d="M278.3,339.72l-13.07-7a14.49,14.49,0,0,1-6.55-7.21l-5.13,2.81-7.73-2.12a8.92,8.92,0,0,1-.92,2.32l-5.2,8.87a2.68,2.68,0,0,0,2.31,4h35.85A.92.92,0,0,0,278.3,339.72Z"/><path class="cls-11" d="M196.7,200.72,177.3,320.28a14.57,14.57,0,0,1-7.71,12.47l-13.07,7a.92.92,0,0,0,.44,1.73h35.85a2.68,2.68,0,0,0,2.31-4l-5.2-8.87a8.69,8.69,0,0,1-1.14-5.23l28.59-122.6Z"/><path class="cls-13" d="M156.52,339.72l13.07-7a14.55,14.55,0,0,0,6.56-7.21l5.12,2.81,7.73-2.12a8.92,8.92,0,0,0,.92,2.32l5.2,8.87a2.68,2.68,0,0,1-2.31,4H157A.92.92,0,0,1,156.52,339.72Z"/><polygon class="cls-14" points="196.7 200.72 186.44 263.94 204.37 256.48 217.37 200.72 196.7 200.72"/><polygon class="cls-15" points="254.48 200.72 233.81 200.72 237.98 242.48 255.36 235.24 254.48 200.72"/><rect class="cls-4" x="189.23" y="57.6" width="70.12" height="92.12" rx="7.98" ry="7.98"/><path class="cls-11" d="M199.24,98.76l-16.17,29.58,24,12.73-2,9.3-35.47-10.78a5.45,5.45,0,0,1-3.25-7.72l15.6-30Z"/><polygon class="cls-16" points="181.94 101.85 176.64 112.04 185.62 123.69 199.24 98.76 181.94 101.85"/><polygon class="cls-13" points="204.41 143.09 191.48 218.31 216.94 218.31 226.47 184.03 229.22 218.31 258.52 218.31 256.67 143.09 204.41 143.09"/><line class="cls-5" x1="208.5" y1="143.09" x2="194.98" y2="218.31"/><polygon class="cls-17" points="257.12 161.53 256.67 143.09 204.41 143.09 199.92 169.2 257.12 161.53"/><path class="cls-7" d="M274.62,55.21l-65.2,9.59a18.38,18.38,0,0,0-12.93,8.41l-22.38,35.61h21L201,98.89v42.18a4.07,4.07,0,0,0,4.06,4.07h51.12a3.19,3.19,0,0,0,3.17-3.45l-4.85-58.25,18.3-8.53Z"/><path class="cls-18" d="M233.93,26.57l-1.41-5.95L221.65,23.2c-.23-1.72-.41-2.81-.41-2.81l-8.63,5-5.35,1.27.34,1.3L201.38,30c.51,2.16,1.07,4.06,1.65,5.8l31.76-8.25Z"/><path class="cls-11" d="M237.71,33.52l1.6-.85-5.38-6.1-1.41-5.95-25.26,6,6.32,24L216,61a2.44,2.44,0,0,1-2,3l-.93.13s3.74,8.53,15.57,7.22c10.63-1.17,8.51-10.71,8.51-10.71l-.3,0a3.71,3.71,0,0,1-4.14-2.82l-2-8.43A2,2,0,0,1,232.21,47l2.4-.56a3.93,3.93,0,0,0,2.91-4.74l-1.21-5.1A2.76,2.76,0,0,1,237.71,33.52Z"/><path class="cls-19" d="M222.35,43.21l-9.81,3.45,1,4L216.05,61l16.5-3.92-1.83-7.69A2,2,0,0,1,232.21,47C223.86,49,222.35,43.21,222.35,43.21Z"/><path d="M217.88,31.51a4.19,4.19,0,0,1,4.64.79c-.38-6.53-1.28-11.91-1.28-11.91l-12.36,7.1-7.5,2.5c4.52,19,12.2,20.64,12.2,20.64a9,9,0,0,0,8.77-7.42C218.42,42,215,32.84,217.88,31.51Z"/><path class="cls-13" d="M248.41,17.52a62.46,62.46,0,0,0-7.24,0,15.14,15.14,0,0,1-13.72-7.24l0-.08a6.31,6.31,0,0,0-7.53-2.69L206,12.45a6.33,6.33,0,0,0-4.14,6.84l.11.79a14.91,14.91,0,0,1-4.91,13.47q-2,1.7-3.89,3.65Z"/><path class="cls-11" d="M199.51,136.94l1.28,10.52a1.77,1.77,0,0,0,2,1.53l3.8-.47a1,1,0,0,0,.92-1l-.11-13.57a1.51,1.51,0,0,0-2.13-1.43l-4.29,2A2.48,2.48,0,0,0,199.51,136.94Z"/><path class="cls-6" d="M189.23,122.86V129l0,0c12.86-7.45,20.85-22.74,23.1-44.23a134.19,134.19,0,0,0-.08-27.25H207C208,67,211.07,107.15,189.23,122.86Z"/><path class="cls-6" d="M237.56,57.6a179.69,179.69,0,0,1,21.79,54.68v-20A185,185,0,0,0,243.69,57.6Z"/><line class="cls-20" y1="341.45" x2="463.59" y2="341.45"/><path class="cls-13" d="M449.71,283c0,4.28-11.72,7.74-26.17,7.74s-26.16-3.46-26.16-7.74,11.71-7.73,26.16-7.73S449.71,278.74,449.71,283Z"/><path class="cls-21" d="M483.16,165.94a53.83,53.83,0,1,0-97.08,32A155.43,155.43,0,0,1,405,230.33l21.56,51.46a3.06,3.06,0,0,0,5.64,0l21.1-50.36a163.16,163.16,0,0,1,19.44-33.6A53.59,53.59,0,0,0,483.16,165.94Zm-53.82-17a17,17,0,1,1-17,17A17,17,0,0,1,429.34,149Z"/><path class="cls-7" d="M477.37,164.51a53.83,53.83,0,1,0-97.09,32,155.48,155.48,0,0,1,18.89,32.37l21.55,51.46a3.06,3.06,0,0,0,5.64,0L447.46,230a163.16,163.16,0,0,1,19.44-33.6A53.53,53.53,0,0,0,477.37,164.51Zm-53.83-17a17,17,0,1,1-17,17A17,17,0,0,1,423.54,147.54Z"/><path class="cls-22" d="M423.54,110.7v36.84a17,17,0,1,1,0,34V282.24a3,3,0,0,0,2.82-1.88L447.46,230a163.16,163.16,0,0,1,19.44-33.6,53.81,53.81,0,0,0-43.36-85.7Z"/></g></g></g></svg>