<svg width="896" height="896" viewBox="0 0 896 896" fill="none" xmlns="http://www.w3.org/2000/svg">
<path fill-rule="evenodd" clip-rule="evenodd" d="M344.527 218.386C391.207 202.322 435.564 245.932 483.029 259.503C532.927 273.771 601.129 256.369 629.453 299.856C658.035 343.737 621.163 400.901 608.169 451.632C598.595 489.011 580.306 520.591 563.96 555.543C542.594 601.229 539.929 659.706 497.853 687.514C452.467 717.508 386.927 730.52 339.487 703.894C292.279 677.398 295.005 609.559 271.811 560.644C254.242 523.591 222.215 493.26 220.189 452.303C218.11 410.276 240.95 373.167 260.7 336.011C283.865 292.431 297.858 234.445 344.527 218.386Z" stroke="#74E1CE"/>
<path fill-rule="evenodd" clip-rule="evenodd" d="M372.544 280.612C406.56 268.906 438.883 300.685 473.471 310.575C509.832 320.972 559.531 308.291 580.171 339.98C600.998 371.956 574.13 413.612 564.661 450.58C557.684 477.818 544.357 500.83 532.446 526.3C516.876 559.591 514.934 602.204 484.273 622.468C451.2 644.325 403.441 653.807 368.871 634.404C334.471 615.096 336.457 565.662 319.556 530.017C306.753 503.017 283.415 480.914 281.938 451.069C280.424 420.443 297.067 393.402 311.459 366.327C328.339 334.569 338.536 292.315 372.544 280.612Z" stroke="#74E1CE"/>
<path fill-rule="evenodd" clip-rule="evenodd" d="M438.584 338.793C460.654 331.198 481.626 351.816 504.068 358.233C527.659 364.979 559.905 356.751 573.296 377.312C586.81 398.059 569.377 425.086 563.233 449.071C558.707 466.744 550.06 481.674 542.332 498.2C532.23 519.8 530.97 547.448 511.076 560.595C489.618 574.776 458.631 580.929 436.201 568.34C413.882 555.812 415.171 523.738 404.204 500.611C395.898 483.093 380.756 468.753 379.798 449.388C378.815 429.518 389.613 411.973 398.951 394.406C409.903 373.801 416.519 346.386 438.584 338.793Z" stroke="#74E1CE"/>
</svg>
