<svg width="52" height="65" viewBox="0 0 52 65" fill="none" xmlns="http://www.w3.org/2000/svg">
<g clip-path="url(#clip0)">
<path d="M26.4001 41.6001C22.1001 48.3001 21.5001 54.5001 19.2001 60.0001C18.4001 61.8001 18.5001 64.6001 15.7001 64.6001C13.4001 64.6001 12.1001 62.6001 11.0001 60.7001C8.70008 56.4001 7.30008 51.8001 7.20008 47.0001C7.00008 39.3001 5.60008 32.0001 1.80008 25.1001C-0.399919 21.1001 -0.499919 16.6001 1.00008 12.3001C4.00008 3.30011 12.7001 -1.69989 22.0001 0.600106C24.7001 1.30011 27.1001 1.10011 29.8001 0.600106C36.7001 -0.999894 42.7001 0.900106 47.4001 6.40011C51.8001 11.5001 53.3001 17.9001 50.3001 23.6001C45.9001 32.0001 45.0001 40.9001 44.0001 50.0001C43.5001 54.2001 42.4001 58.3001 39.9001 61.9001C38.9001 63.3001 37.7001 64.7001 35.8001 64.7001C33.6001 64.6001 33.2001 62.6001 32.7001 61.0001C30.7001 55.1001 28.8001 49.1001 26.4001 41.6001ZM14.9001 61.2001C18.2001 55.9001 18.5001 50.0001 20.8001 44.9001C21.9001 42.5001 22.6001 39.4001 26.0001 39.6001C29.0001 39.8001 29.6001 42.7001 30.6001 44.9001C32.8001 50.1001 33.5001 55.9001 36.5001 61.1001C39.1001 57.9001 40.2001 54.4001 40.7001 50.8001C41.9001 41.0001 43.2001 31.5001 47.4001 22.1001C52.1001 11.4001 41.7001 1.00011 29.9001 3.70011C27.9001 4.20011 26.0001 5.20011 23.8001 4.40011C17.1001 2.10011 10.8001 2.70011 6.20008 8.70011C1.70008 14.4001 2.60008 20.4001 5.70008 26.5001C8.30008 31.6001 9.80008 36.9001 9.80008 42.9001C9.70008 49.1001 10.8001 55.5001 14.9001 61.2001Z" fill="#D83A35"/>
<path d="M18.8002 6.99962C12.6002 8.69962 8.60018 12.3996 7.10018 18.8996C5.00018 14.6996 6.60018 11.6996 9.20018 9.09962C11.8002 6.49962 14.8002 4.99962 18.8002 6.99962Z" fill="#D83A35"/>
</g>
<defs>
<clipPath id="clip0">
<rect width="51.9" height="64.7" fill="white"/>
</clipPath>
</defs>
</svg>
