<svg xmlns="http://www.w3.org/2000/svg" viewBox="0 0 73.38 73.36"><defs><style>.cls-1{fill:#e03726;}</style></defs><title>icon-paid</title><g id="Layer_2" data-name="Layer 2"><g id="Layer_1-2" data-name="Layer 1"><path class="cls-1" d="M0,55.32a6.76,6.76,0,0,1,.58-.72q3.84-3.85,7.69-7.7a1.48,1.48,0,0,1,2.22-.26c.45.27.58,0,.77-.28A27.11,27.11,0,0,1,18,39.23a15.22,15.22,0,0,1,6.52-3A13.63,13.63,0,0,1,33,37.57a9.63,9.63,0,0,0,3.22,1.31c.36,0,.71.06,1.07.06,4.41,0,8.83,0,13.24,0a5.75,5.75,0,0,1,5.11,2.6c.28.41.51.37.88.17a13.2,13.2,0,0,0,5.3-5.28c.35-.62.67-1.27,1.05-1.87A5.66,5.66,0,0,1,73,39.48a28.13,28.13,0,0,1-5.3,8.61,47.1,47.1,0,0,1-11.47,9.38,11.6,11.6,0,0,1-5.94,1.61c-6.37,0-12.74,0-19.11,0a7.82,7.82,0,0,0-5,1.72c-.74.59-.73.66-.08,1.32.18.18.38.36.55.56a1.56,1.56,0,0,1,0,2.31c-.38.42-.8.81-1.2,1.22l-7.23,7.13H16.9c-.82-.79-1.65-1.58-2.46-2.39Q8.13,64.69,1.83,58.38C1.2,57.76.61,57.1,0,56.47Zm39.85.81c3.2,0,6.4,0,9.59,0A10,10,0,0,0,54.55,55a43.8,43.8,0,0,0,10.84-8.8,26.38,26.38,0,0,0,4.7-7.48A2.65,2.65,0,0,0,68,34.91a2.8,2.8,0,0,0-2.88,1.82,17,17,0,0,1-8,8.09.93.93,0,0,0-.55.75,5.73,5.73,0,0,1-6,4.93H37a4.34,4.34,0,0,1-.72,0A1.43,1.43,0,0,1,35,49a1.41,1.41,0,0,1,1.23-1.44,6.13,6.13,0,0,1,.86,0h13a6.06,6.06,0,0,0,1.35-.13,2.74,2.74,0,0,0,0-5.38,6.06,6.06,0,0,0-1.35-.12c-4.34,0-8.68,0-13,0a8.81,8.81,0,0,1-4.31-1.11c-.38-.2-.76-.41-1.15-.59a10.29,10.29,0,0,0-9.5,0,23.18,23.18,0,0,0-8.69,8.42c-.27.41-.12.69.19,1q4.64,4.62,9.26,9.27c.34.33.55.37.93,0a9.93,9.93,0,0,1,7.06-2.81ZM17.48,69.65a.66.66,0,0,0,.46-.26c1.71-1.7,3.42-3.4,5.14-5.08.34-.33.33-.54,0-.87Q16.5,56.87,9.93,50.29c-.31-.32-.51-.3-.81,0C7.42,52,5.72,53.72,4,55.41c-.34.33-.33.54,0,.87q6.57,6.53,13.12,13.08A3.8,3.8,0,0,0,17.48,69.65Z"/><path class="cls-1" d="M29.45,15.8A15.8,15.8,0,1,1,45.23,31.6,15.77,15.77,0,0,1,29.45,15.8ZM58,15.13A12.78,12.78,0,1,0,46.63,28.51,12.75,12.75,0,0,0,58,15.13Z"/><path class="cls-1" d="M16.59,64.4a1.43,1.43,0,0,1-1.1-.48c-.63-.62-1.27-1.23-1.87-1.88a1.51,1.51,0,0,1-.07-2.18,1.48,1.48,0,0,1,2.12,0c.71.64,1.37,1.32,2,2a1.39,1.39,0,0,1,.25,1.66A1.34,1.34,0,0,1,16.59,64.4Z"/><path class="cls-1" d="M47.78,12.69a1.72,1.72,0,0,1-1.18-.5,2.29,2.29,0,0,0-1.07-.55,1.28,1.28,0,0,0-1.53,1,1.26,1.26,0,0,0,.93,1.6,4.1,4.1,0,0,0,.7.12,4.39,4.39,0,0,1,3.89,3.47,4.28,4.28,0,0,1-2.1,4.63,1.1,1.1,0,0,0-.7,1.23,4.13,4.13,0,0,1,0,.93,1.43,1.43,0,0,1-1.48,1.28c-.73,0-1.49-.53-1.41-1.23a2.46,2.46,0,0,0-1.64-2.75,3,3,0,0,1-1.07-1,1.48,1.48,0,0,1,.19-2,1.5,1.5,0,0,1,2,0c.38.29.71.65,1.1.9a1.45,1.45,0,0,0,1.63,0,1.23,1.23,0,0,0,.52-1.32,1.1,1.1,0,0,0-.88-1c-.43-.1-.89-.13-1.33-.23a4.43,4.43,0,0,1-3.36-3.52,4.29,4.29,0,0,1,2.13-4.49,1.13,1.13,0,0,0,.7-1.24,3.61,3.61,0,0,1,0-.93,1.42,1.42,0,0,1,1.48-1.27c.74,0,1.49.54,1.4,1.24a2.43,2.43,0,0,0,1.65,2.74,1.7,1.7,0,0,1,.81.88A1.47,1.47,0,0,1,47.78,12.69Z"/></g></g></svg>