<svg width="44" height="44" viewBox="0 0 44 44" fill="none" xmlns="http://www.w3.org/2000/svg">
<rect opacity="0.15" width="44" height="44" rx="10" fill="url(#paint0_linear)"/>
<rect opacity="0.8" x="5" y="5" width="34" height="34" rx="7" fill="url(#paint1_linear)"/>
<path d="M23.4277 20.2552L25.9468 15.8919L26.4362 17.7182C26.5195 18.0292 26.8392 18.2139 27.1503 18.1305C27.4614 18.0471 27.6459 17.7274 27.5626 17.4164L26.7089 14.2304C26.6256 13.9193 26.3059 13.7347 25.9948 13.8181L22.8088 14.6717C22.4977 14.7551 22.3131 15.0748 22.3965 15.3859C22.4798 15.6969 22.7996 15.8815 23.1106 15.7982L24.9369 15.3088L22.4175 19.6725C20.0028 18.6144 17.1185 19.5214 15.7702 21.8566C14.3127 24.3811 15.1657 27.612 17.6716 29.0588C20.1843 30.5095 23.4429 29.6358 24.8932 27.1238C26.2422 24.7873 25.5709 21.8263 23.4277 20.2552ZM18.2547 28.0489C16.3056 26.9236 15.6442 24.4073 16.7802 22.4397C17.9054 20.4907 20.4066 19.8205 22.3557 20.9458C24.3233 22.0818 25.0086 24.5917 23.8833 26.5407C22.7473 28.5083 20.2223 29.1849 18.2547 28.0489Z" fill="white"/>
<defs>
<linearGradient id="paint0_linear" x1="0" y1="44" x2="44" y2="0" gradientUnits="userSpaceOnUse">
<stop stop-color="#4EA5D9"/>
<stop offset="1" stop-color="#3DBFD9"/>
</linearGradient>
<linearGradient id="paint1_linear" x1="5" y1="39" x2="39" y2="5" gradientUnits="userSpaceOnUse">
<stop stop-color="#4EA5D9"/>
<stop offset="1" stop-color="#3DBFD9"/>
</linearGradient>
</defs>
</svg>
