<svg width="32" height="32" viewBox="0 0 32 32" fill="none" xmlns="http://www.w3.org/2000/svg">
<circle cx="16" cy="16" r="16" fill="#E03726"/>
<path fill-rule="evenodd" clip-rule="evenodd" d="M8.03077 14.3666C8.0082 11.377 7.99954 10.2299 9.07921 9.10841C10.1819 7.96509 11.386 7.97515 15.6027 8.01036C16.4759 8.01765 17.4782 8.02602 18.6355 8.02545C20.5024 8.0287 20.6084 8.0441 20.9623 8.09546L20.9825 8.0984C22.6 8.33117 23.8275 9.48045 23.984 11.4746C24.0053 11.7412 24.0053 20.2239 23.9847 20.4852C23.8375 22.3573 22.7605 23.431 21.4368 23.7725C20.4453 24.0292 11.649 24.0292 10.6562 23.7738C7.89667 23.0606 7.95526 20.3019 8.01882 17.3091C8.02849 16.854 8.03827 16.3934 8.03827 15.9338C8.03827 15.3603 8.03434 14.8403 8.03077 14.3666ZM15.4601 10.1043C15.6525 10.1057 15.8463 10.1071 16.041 10.1071H16.0383C16.2699 10.1071 16.4938 10.1056 16.7104 10.1041C18.5877 10.0914 19.9178 10.0824 20.9286 11.0932C21.9354 12.0995 21.9283 13.4077 21.9177 15.3466C21.9165 15.5519 21.9154 15.7643 21.9154 15.9841C21.9154 16.1875 21.9161 16.3833 21.9168 16.572C21.9221 17.9887 21.926 19.008 21.607 19.8332C20.8004 21.9026 18.7505 21.884 16.646 21.8649C16.4441 21.863 16.2416 21.8612 16.0397 21.8612C15.8462 21.8612 15.6534 21.8626 15.4618 21.864C13.2859 21.8799 11.2739 21.8945 10.473 19.8332C10.1546 19.0137 10.1589 17.795 10.1635 16.4688C10.164 16.3087 10.1646 16.1469 10.1646 15.9841C10.1646 15.7837 10.1639 15.5903 10.1632 15.4036C10.158 13.9864 10.1542 12.9524 10.473 12.1344C11.2758 10.0741 13.2725 10.0885 15.4601 10.1043ZM16.4593 11.1599C16.1631 11.1627 15.8485 11.1656 15.5144 11.1662V11.1648C11.5964 11.1688 11.225 11.2431 11.225 15.9815C11.225 20.6655 11.3596 20.7994 16.0417 20.7994C16.2779 20.7994 16.5101 20.802 16.7371 20.8045C18.9773 20.8291 20.71 20.8481 20.8238 18.357C21.1531 11.1157 20.618 11.1207 16.4593 11.1599ZM18.4728 12.8467C18.4728 12.4574 18.7885 12.1417 19.1778 12.1417C19.5671 12.1417 19.8828 12.4574 19.8828 12.8467C19.8828 13.2359 19.5671 13.5516 19.1778 13.5516C18.7885 13.5516 18.4728 13.2359 18.4728 12.8467ZM13.0235 15.9841C13.0235 14.3176 14.3744 12.966 16.041 12.966C17.7075 12.966 19.0578 14.3176 19.0578 15.9841C19.0578 17.6507 17.7075 19.0016 16.041 19.0016C14.3744 19.0016 13.0235 17.6507 13.0235 15.9841ZM16.041 14.0251C18.6307 14.0251 18.634 17.9431 16.041 17.9431C13.452 17.9431 13.448 14.0251 16.041 14.0251Z" fill="white"/>
</svg>
