<svg width="65" height="55" viewBox="0 0 65 55" fill="none" xmlns="http://www.w3.org/2000/svg">
<path d="M65 21.2005C64.9 28.7005 62.2 35.2005 57.2 40.6005C50.4 47.9005 42 55.2005 32.4 55.0005C22.4 54.8005 13.6 47.6005 7.00001 39.6005C0.600014 31.9005 -1.89999 23.0005 1.60001 13.3005C6.00001 1.00046 18.7 -3.19954 29.6 3.80046C31.6 5.10046 33 5.70046 35.1 4.00046C41 -0.599536 47.6 -1.29954 54 2.30046C61.4 6.30046 64.8 13.0005 65 21.2005ZM36.3 35.4005C38.4 26.1005 45.5 27.6005 52 27.7005C54.1 27.8005 56.2 27.6005 58.3 27.7005C60.5 27.8005 61.2 26.8005 61.6 24.7005C62.9 16.9005 59.5 8.80046 53.3 5.20046C47.2 1.80046 41 2.70046 34.5 8.50046C32.7 10.1005 32.1 9.80046 30.5 8.40046C24.1 2.60046 17.9 1.80046 11.7 5.40046C5.40001 9.10046 1.90001 17.5005 3.40001 24.9005C3.80001 27.0005 4.80001 27.6005 6.80001 27.8005C20.3 29.2005 21 28.8005 27.1 16.5005C27.4 15.8005 27.9 15.2005 28.7 13.9005C31.4 21.5005 33.9 28.4005 36.3 35.4005ZM28.6 22.3005C23 30.4005 23 30.4005 12.5 30.5005C11.7 30.5005 10.9 30.4005 10.2 30.5005C8.80001 30.7005 6.80001 29.7005 6.10001 31.6005C5.50001 33.2005 6.80001 34.5005 7.70001 35.7005C10.6 39.6005 14 43.0005 18.2 45.5005C32.9 54.3005 32.2 54.7005 47 45.3005C52.5 41.9005 57.4 37.6005 59.8 30.5005C55.8 30.5005 52.4 30.8005 49 30.4005C44.5 29.9005 41.8 31.3005 40.5 35.9005C39.7 38.6005 38.1 41.1005 36.4 44.6005C33.6 36.5005 31.1 29.5005 28.6 22.3005Z" fill="#D83A35"/>
</svg>
