<svg width="170" height="170" viewBox="0 0 170 170" fill="none" xmlns="http://www.w3.org/2000/svg">
<g filter="url(#filter0_d)">
<path fill-rule="evenodd" clip-rule="evenodd" d="M20 75C20 39.1015 49.1015 10 85 10V10C120.899 10 150 39.1015 150 75V75C150 110.899 120.899 140 85 140V140C49.1015 140 20 110.899 20 75V75Z" fill="white"/>
</g>
<path d="M107.331 62.1677C107.331 53.7878 100.543 47 92.1634 47C89.6442 47 87.2649 47.6123 85.1656 48.7144C83.0662 47.6298 80.687 47 78.1678 47C69.7879 47 63 53.7878 63 62.1677C63 64.477 63.5074 66.6463 64.4346 68.6057L69.0007 78.5077C67.916 82.0066 69.6829 103 76.9956 103C79.2874 103 82.9088 83.476 85.1656 83.476C87.4224 83.476 91.0263 103 93.318 103C100.631 103 102.415 82.0066 101.313 78.5077L105.879 68.6057C106.806 66.6463 107.331 64.4595 107.331 62.1677ZM103.78 67.6086L99.1962 77.5105L98.8113 78.3327L99.0738 79.19C99.3012 79.9072 99.4411 83.4061 98.7588 88.1996C98.059 93.1505 96.782 97.1918 95.2425 99.2737C94.8576 99.7985 94.4727 100.183 94.0878 100.411C93.8779 99.9735 93.5979 99.2736 93.1956 98.1715C92.6183 96.527 92.0059 94.4626 91.3936 92.4683C88.8569 84.0359 87.8423 81.1143 85.1131 81.1143H85.0956C82.3839 81.1318 81.3693 84.0534 78.8326 92.4683C78.2378 94.4626 77.608 96.527 77.0306 98.1715C76.6458 99.2736 76.3483 99.9735 76.1384 100.411C75.771 100.183 75.3686 99.816 74.9838 99.2737C73.4617 97.1918 72.1672 93.1505 71.4674 88.1996C70.7851 83.4061 70.9425 79.9072 71.17 79.19L71.4324 78.3327L71.0475 77.5105L66.4814 67.6086C65.6767 65.8941 65.2743 64.0746 65.2743 62.1677C65.2743 58.7388 66.6039 55.5198 69.0356 53.1056C71.4499 50.6913 74.6864 49.3443 78.1153 49.3443C80.1971 49.3443 82.1915 49.8341 84.0285 50.7963L85.1131 51.3561L86.1978 50.7963C88.0347 49.8341 90.0291 49.3443 92.1109 49.3443C95.5399 49.3443 98.7588 50.6738 101.191 53.1056C103.605 55.5198 104.952 58.7563 104.952 62.1677C104.987 64.0571 104.585 65.8941 103.78 67.6086Z" fill="#00B3AD"/>
<path d="M78.1682 51.6709C72.3775 51.6709 67.6715 56.3769 67.6715 62.1676C67.6715 62.8149 68.1964 63.3398 68.8437 63.3398C69.491 63.3398 70.0158 62.8149 70.0158 62.1676C70.0158 59.9808 70.873 57.934 72.4125 56.3944C73.952 54.8549 75.9989 53.9977 78.1857 53.9977C78.833 53.9977 79.3578 53.4729 79.3578 52.8256C79.3403 52.1958 78.8155 51.6709 78.1682 51.6709Z" fill="#00B3AD"/>
<defs>
<filter id="filter0_d" x="0" y="0" width="170" height="170" filterUnits="userSpaceOnUse" color-interpolation-filters="sRGB">
<feFlood flood-opacity="0" result="BackgroundImageFix"/>
<feColorMatrix in="SourceAlpha" type="matrix" values="0 0 0 0 0 0 0 0 0 0 0 0 0 0 0 0 0 0 127 0"/>
<feOffset dy="10"/>
<feGaussianBlur stdDeviation="10"/>
<feColorMatrix type="matrix" values="0 0 0 0 0.305882 0 0 0 0 0.647059 0 0 0 0 0.85098 0 0 0 0.1 0"/>
<feBlend mode="normal" in2="BackgroundImageFix" result="effect1_dropShadow"/>
<feBlend mode="normal" in="SourceGraphic" in2="effect1_dropShadow" result="shape"/>
</filter>
</defs>
</svg>
