<svg xmlns="http://www.w3.org/2000/svg" viewBox="0 0 53.72 53.72"><defs><style>.cls-1{fill:#e03726;}</style></defs><title>icon-process</title><g id="Layer_2" data-name="Layer 2"><g id="Layer_1-2" data-name="Layer 1"><path class="cls-1" d="M0,10.28V2.61C0,.82.76,0,2.53,0H18c1.83,0,2.58.78,2.6,2.65,0,1.48,0,3,0,4.43,0,.81.17,1.11,1.05,1.1,3.95-.05,7.9,0,11.86,0A2,2,0,0,0,35,7.54q3.2-3.24,6.43-6.44c1.46-1.46,2.4-1.47,3.87,0Q49,4.72,52.62,8.37c1.47,1.48,1.46,2.41,0,3.87-2.05,2.07-4.1,4.14-6.2,6.17a2.72,2.72,0,0,0-.92,2.19c.05,3.75.06,7.51,0,11.26a1.67,1.67,0,0,0,1.32,1.94A10.13,10.13,0,0,1,53.56,45a10.28,10.28,0,0,1-20.29.09,10.12,10.12,0,0,1,6.63-11.3,1.71,1.71,0,0,0,1.4-2c-.06-3.79,0-7.58,0-11.38a2.36,2.36,0,0,0-.77-1.89q-2.72-2.62-5.34-5.33a2.36,2.36,0,0,0-1.89-.8c-3.87,0-7.74.05-11.62,0-.92,0-1.15.28-1.11,1.15.06,1.48,0,3,0,4.43,0,1.82-.81,2.6-2.66,2.61H2.71c-2,0-2.7-.75-2.71-2.78Zm10.3,6.08c1.71,0,3.42,0,5.14,0,.64,0,.91-.15.91-.86,0-3.47,0-6.93,0-10.4,0-.67-.21-.9-.89-.9-3.47,0-6.93,0-10.4,0-.59,0-.87.17-.86.81q0,5.25,0,10.52c0,.63.23.82.84.81C6.79,16.34,8.54,16.36,10.3,16.36Zm33.19,21a6.06,6.06,0,1,0,6,6.17A6,6,0,0,0,43.49,37.39Zm-.1-22a2.56,2.56,0,0,0,.41-.31c1.47-1.46,2.93-2.93,4.41-4.39.43-.44.11-.7-.17-1C46.69,8.38,45.32,7,44,5.67c-.45-.46-.75-.42-1.17,0-1.33,1.37-2.69,2.73-4.06,4.05-.47.45-.43.73,0,1.15,1.38,1.33,2.72,2.7,4.07,4C43,15.11,43.19,15.25,43.39,15.42Z"/><path class="cls-1" d="M8.08,50.76A2.42,2.42,0,0,1,6.4,50C4.54,48.1,2.66,46.25.81,44.37A2.1,2.1,0,0,1,.65,41.2a2.17,2.17,0,0,1,3.19.26C5,42.63,6.24,43.8,7.39,45c.51.55.81.52,1.33,0,2.4-2.46,4.84-4.87,7.26-7.3.29-.28.56-.57.86-.84a2.11,2.11,0,0,1,3.09-.12,2,2,0,0,1-.12,3.07c-2.63,2.67-5.29,5.32-7.94,8-.74.74-1.48,1.46-2.21,2.2A2.4,2.4,0,0,1,8.08,50.76Z"/></g></g></svg>