<svg width="27" height="27" viewBox="0 0 27 27" fill="none" xmlns="http://www.w3.org/2000/svg">
<g clip-path="url(#clip0)">
<path d="M13.5 27C20.9558 27 27 20.9558 27 13.5C27 6.04416 20.9558 0 13.5 0C6.04416 0 0 6.04416 0 13.5C0 20.9558 6.04416 27 13.5 27Z" fill="#E2E2E2"/>
<path d="M16.6 18.5999C15.9 17.5999 15.2 16.6999 14.5 15.6999C14.2 15.2999 12.3 13.1999 12.4 12.7999C12.5 12.4999 13.8 11.3999 14.2 10.9999C15 10.1999 15.8 9.29994 16.7 8.49994C17.8 7.39994 16.1 5.59994 14.9 6.69994C13.7 7.89994 12.4 9.19994 11.2 10.3999C10.6 10.9999 9.79999 11.6999 9.79999 12.6999C9.79999 13.6999 10.8 14.6999 11.3 15.4999C12.3 16.9999 13.4 18.3999 14.4 19.8999C15.4 21.1999 17.5 19.8999 16.6 18.5999Z" fill="#7C7A7B"/>
</g>
<defs>
<clipPath id="clip0">
<rect width="26.9" height="26.9" fill="white"/>
</clipPath>
</defs>
</svg>
