<svg width="20" height="20" viewBox="0 0 20 20" fill="none" xmlns="http://www.w3.org/2000/svg">
<path fill-rule="evenodd" clip-rule="evenodd" d="M7 1C7 0.447715 6.55228 0 6 0C5.44772 0 5 0.447715 5 1V2H4C1.79086 2 0 3.79086 0 6V8V16C0 18.2091 1.79086 20 4 20H16C18.2091 20 20 18.2091 20 16V8V6C20 3.79086 18.2091 2 16 2H15V1C15 0.447715 14.5523 0 14 0C13.4477 0 13 0.447715 13 1V2H7V1ZM2 8H18V16C18 17.1046 17.1046 18 16 18H4C2.89543 18 2 17.1046 2 16V8ZM6.5 11.5C6.5 12.0523 6.05228 12.5 5.5 12.5C4.94772 12.5 4.5 12.0523 4.5 11.5C4.5 10.9477 4.94772 10.5 5.5 10.5C6.05228 10.5 6.5 10.9477 6.5 11.5ZM10 12.5C10.5523 12.5 11 12.0523 11 11.5C11 10.9477 10.5523 10.5 10 10.5C9.44771 10.5 9 10.9477 9 11.5C9 12.0523 9.44771 12.5 10 12.5ZM15.5 11.5C15.5 12.0523 15.0523 12.5 14.5 12.5C13.9477 12.5 13.5 12.0523 13.5 11.5C13.5 10.9477 13.9477 10.5 14.5 10.5C15.0523 10.5 15.5 10.9477 15.5 11.5ZM5.5 16C6.05228 16 6.5 15.5523 6.5 15C6.5 14.4477 6.05228 14 5.5 14C4.94772 14 4.5 14.4477 4.5 15C4.5 15.5523 4.94772 16 5.5 16ZM11 15C11 15.5523 10.5523 16 10 16C9.44771 16 9 15.5523 9 15C9 14.4477 9.44771 14 10 14C10.5523 14 11 14.4477 11 15ZM14.5 16C15.0523 16 15.5 15.5523 15.5 15C15.5 14.4477 15.0523 14 14.5 14C13.9477 14 13.5 14.4477 13.5 15C13.5 15.5523 13.9477 16 14.5 16Z" fill="#D5D9E6"/>
</svg>
