<svg width="60" height="74" viewBox="0 0 60 74" fill="none" xmlns="http://www.w3.org/2000/svg">
<g clip-path="url(#clip0)">
<path d="M-7.95228e-05 28.6991C0.0999205 14.8991 11.9999 3.49905 26.1999 3.39905C39.9999 3.29905 51.4999 15.3991 51.2999 29.6991C51.0999 43.8991 39.3999 55.3991 25.3999 55.1991C11.2999 54.9991 -0.10008 43.1991 -7.95228e-05 28.6991ZM3.59992 34.2991C3.59992 34.9991 3.59992 35.5991 3.69992 36.2991C4.19992 36.6991 4.69992 37.0991 5.19992 37.3991C8.79992 46.3991 16.5999 51.8991 25.8999 51.7991C35.9999 51.6991 43.3999 45.7991 47.5999 34.4991C47.6999 34.3991 47.9999 34.2991 47.9999 34.1991C47.9999 33.8991 47.8999 33.6991 47.7999 33.3991C44.1999 33.8991 40.7999 34.1991 39.0999 38.4991C37.8999 41.4991 34.7999 43.1991 31.7999 44.6991C29.8999 45.5991 27.7999 47.0991 25.8999 45.4991C23.8999 43.7991 25.2999 41.5991 26.0999 39.6991C27.6999 35.8991 30.6999 32.2991 26.2999 28.3991C23.0999 25.5991 22.9999 19.6991 18.6999 18.4991C14.5999 17.2991 13.4999 15.0991 13.4999 11.0991C7.99992 13.9991 5.99992 18.4991 4.09992 23.0991C3.89992 23.4991 3.69992 23.8991 3.49992 24.3991C3.59992 27.6991 3.59992 30.9991 3.59992 34.2991ZM48.3999 25.8991C48.0999 25.2991 47.8999 24.6991 47.5999 24.0991C43.2999 12.5991 34.2999 5.89905 24.2999 6.79905C20.8999 7.09905 17.5999 7.39905 19.3999 12.2991C19.1999 12.6991 18.9999 12.9991 18.7999 13.3991C19.1999 13.2991 19.5999 13.1991 20.0999 13.0991C22.3999 10.8991 24.0999 14.0991 26.2999 13.8991C29.6999 13.4991 32.6999 14.9991 32.8999 18.6991C33.0999 22.2991 30.2999 23.5991 24.9999 23.1991C33.8999 29.0991 32.4999 35.3991 28.2999 42.5991C31.9999 40.9991 35.0999 39.7991 35.6999 37.3991C37.0999 31.9991 41.1999 30.6991 45.3999 30.2991C48.9999 29.7991 47.9999 27.6991 48.3999 25.8991Z" fill="#D83A35"/>
<path d="M55.6999 28.9993C55.7999 22.5993 53.8999 16.8993 50.1999 11.7993C49.0999 10.2993 47.1999 8.59935 49.1999 6.79935C51.6999 4.29935 53.9999 1.29935 57.4999 -0.000651557C57.7999 -0.100652 58.5999 0.499348 58.6999 0.899348C59.0999 1.89935 58.7999 2.99935 57.8999 3.39935C50.8999 6.89935 54.0999 11.1993 56.3999 16.0993C62.9999 30.2993 58.1999 47.0993 45.2999 56.5993C32.9999 65.5993 15.1999 64.7993 3.69994 54.7993C3.09994 54.2993 2.49994 53.7993 2.09994 53.1993C1.19994 51.9993 -0.900062 50.9993 0.499938 49.3993C2.09994 47.4993 3.09994 49.6993 4.09994 50.5993C9.29994 55.1993 14.9999 58.2993 21.9999 59.0993C40.4999 61.0993 55.6999 47.5993 55.6999 28.9993Z" fill="#D83A35"/>
<path d="M26.1 73.8C23 73.8 20 73.8 16.9 73.8C15.7 73.8 13.8 74.1 13.9 72.1C14 70.3 15.7 70.5 17 70.4C18 70.4 18.9 70.3 19.9 70.4C22.4 70.5 24.6 70.6 24.3 67C24.2 66 25 65.1 26 65C26.5 65 27.5 65.9 27.4 66.4C27.1 71.6 30.8 70.2 33.6 70.4C35.2 70.5 37.8 69.7 37.9 72C38 75 35.1 73.6 33.5 73.8C31.2 74 28.6 73.8 26.1 73.8Z" fill="#D83A35"/>
<path d="M20.1999 13.0996C19.7999 13.1996 19.3999 13.2996 18.8999 13.3996Z" fill="#D83A35"/>
<path d="M4.69985 24.1C4.29985 24.2 3.89985 24.2 3.59985 24.3C3.79985 23.9 3.99985 23.5 4.19985 23C4.29985 23.4 4.49985 23.8 4.69985 24.1Z" fill="#D83A35"/>
<path d="M48.3999 25.8996C48.0999 25.2996 47.8999 24.6996 47.5999 24.0996C47.7999 24.6996 48.0999 25.2996 48.3999 25.8996Z" fill="#D83A35"/>
<path d="M47.5999 34.4984C47.4999 34.0984 47.4999 33.7984 47.6999 33.3984C47.7999 33.6984 47.8999 33.8984 47.8999 34.1984C47.8999 34.2984 47.6999 34.3984 47.5999 34.4984Z" fill="#D83A35"/>
<path d="M3.59985 34.2988C4.19985 34.9988 4.49985 35.5988 3.69985 36.2988C3.59985 35.5988 3.59985 34.9988 3.59985 34.2988Z" fill="#D83A35"/>
<path d="M5.99985 36.5002C4.89985 33.6002 7.19985 32.2002 8.99985 31.0002C11.7999 29.1002 12.7999 27.3002 9.59985 24.8002C7.99985 25.1002 5.49985 31.2002 4.59985 24.1002C10.3999 19.4002 13.4999 20.3002 16.0999 27.7002C16.5999 29.1002 16.7999 30.7002 15.1999 31.1002C11.6999 32.1002 9.79985 36.0002 5.99985 36.5002Z" fill="#D83A35"/>
</g>
<defs>
<clipPath id="clip0">
<rect width="59.3" height="73.9" fill="white"/>
</clipPath>
</defs>
</svg>
